<?xml version="1.0" standalone="no"?>
<!DOCTYPE svg PUBLIC "-//W3C//DTD SVG 1.1//EN" "http://www.w3.org/Graphics/SVG/1.1/DTD/svg11.dtd" >
<svg xmlns="http://www.w3.org/2000/svg">
<metadata>
Created by FontPrep 20130207 at Wed Jan 13 20:58:39 2016
 By Daniel Seiler
Copyright 2015 Adobe Systems Incorporated. All rights reserved.
</metadata>
<defs>
<font id="b93ca8abdbe54415a0cbf02f336b27f2" horiz-adv-x='1024' >
  <font-face 
    font-family="TWSSavory-Medium"
    font-weight="500"
    font-stretch="normal"
    units-per-em="2048"
    panose-1="2 0 0 0 0 0 0 0 0 0"
    ascent="1536"
    descent="-512"
    x-height="1065"
    cap-height="1638"
    bbox="-238 -606 2302 2251"
    underline-thickness="102"
    underline-position="-102"
    unicode-range="U+000D-FB02"
  />
<missing-glyph 
 />
    <glyph glyph-name=".notdef" 
 />
    <glyph glyph-name=".null" horiz-adv-x="0" 
 />
    <glyph glyph-name="nonmarkingreturn" horiz-adv-x="681" 
 />
    <glyph glyph-name="NULL" horiz-adv-x="0" 
 />
    <glyph glyph-name="NULL" horiz-adv-x="0" 
 />
    <glyph glyph-name="CR" unicode="&#xd;" horiz-adv-x="491" 
 />
    <glyph glyph-name="space" unicode=" " 
 />
    <glyph glyph-name="exclam" unicode="!" horiz-adv-x="714" 
d="M539 0h-287v276h287v-276zM563 1671l-67 -1212h-203l-68 1212h338z" />
    <glyph glyph-name="quotedbl" unicode="&#x22;" horiz-adv-x="894" 
d="M358 1178h-239v493h239v-493zM776 1178h-239v493h239v-493z" />
    <glyph glyph-name="numbersign" unicode="#" horiz-adv-x="1458" 
d="M893 944h-244l-37 -237h244zM1382 944h-206l-37 -237h170v-256h-211l-72 -451h-283l72 451h-244l-71 -451h-283l74 451h-168v256h207l37 237h-168v254h209l69 436h281l-68 -436h244l70 436h280l-67 -436h165v-254z" />
    <glyph glyph-name="dollar" unicode="$" horiz-adv-x="1298" 
d="M702 266q68 10 121 64t53 138q0 85 -44 129q-46 44 -130 71v-402zM412 1184q0 -121 141 -170v352q-53 -10 -97 -57t-44 -125zM735 -233h-213v229q-194 31 -324 158t-130 338h323q0 -176 158 -216v435q-98 29 -168 59q-69 30 -139 81q-144 107 -144 323q0 174 109 306
t315 160v232h213v-232q203 -32 313 -160t109 -286h-323q0 57 -33 100t-92 62v-389q102 -25 175 -55q74 -30 150 -84q156 -110 156 -331t-131 -345t-324 -156v-229z" />
    <glyph glyph-name="percent" unicode="%" horiz-adv-x="1687" 
d="M1370 283v182q0 102 -88 102t-88 -102v-182q0 -102 88 -103q88 1 88 103zM492 1169v185q0 100 -88 100t-89 -100v-185q1 -100 89 -100t88 100zM1305 1632l-691 -1632h-233l692 1632h232zM707 1161q0 -135 -87 -211q-86 -76 -216 -76t-217 76t-87 211v199q0 135 87 212
t216 77t217 -77t87 -212v-199zM1587 274q0 -135 -87 -212q-87 -76 -217 -76t-217 76t-87 212v199q0 135 87 212t217 77t217 -77t87 -212v-199z" />
    <glyph glyph-name="ampersand" unicode="&#x26;" horiz-adv-x="1437" 
d="M691 268q101 0 169 74q-281 270 -368 367q-57 -66 -60 -152l2 -37v-14q8 -102 82 -170t175 -68zM702 -12q-240 0 -411 168q-170 168 -170 387q0 177 73 272q38 51 60 75q23 24 70 62q-27 46 -37 66q-11 20 -27 78t-16 123q0 164 122 297t330 133q208 1 326 -135
q119 -136 119 -332h-312v20q0 82 -38 125q-39 43 -99 43t-95 -38q-36 -38 -36 -120t74 -186q74 -102 317 -338v191h314v-340q0 -53 -9 -103q164 -153 246 -235l-221 -228q-86 86 -188 181q-152 -166 -392 -166z" />
    <glyph glyph-name="quotesingle" unicode="'" horiz-adv-x="530" 
d="M393 1235h-256v436h256v-436z" />
    <glyph glyph-name="parenleft" unicode="(" horiz-adv-x="761" 
d="M444 754q0 -500 248 -990q-29 -18 -223 -137q-313 498 -313 1127t313 1126q29 -18 223 -137q-175 -351 -223 -656q-25 -159 -25 -333z" />
    <glyph glyph-name="parenright" unicode=")" horiz-adv-x="761" 
d="M317 754q0 354 -96 626q-69 195 -151 363q195 119 223 137q313 -498 313 -1126t-313 -1127q-195 119 -223 137q247 490 247 990z" />
    <glyph glyph-name="asterisk" unicode="*" horiz-adv-x="1013" 
d="M903 1057l-94 -166l-215 137l8 -256h-190l8 256l-215 -137l-94 166l225 119l-225 118l94 166l215 -137l-8 254h190l-8 -254l215 137l94 -166l-225 -118z" />
    <glyph glyph-name="plus" unicode="+" horiz-adv-x="1114" 
d="M1012 526h-328v-327h-254v327h-328v254h328v328h254v-328h328v-254z" />
    <glyph glyph-name="comma" unicode="," horiz-adv-x="569" 
d="M129 0v309h309v-346q-125 -211 -166 -280l-108 55l135 262h-170z" />
    <glyph glyph-name="hyphen" unicode="-" horiz-adv-x="872" 
d="M754 524h-635v254h635v-254z" />
    <glyph glyph-name="period" unicode="." horiz-adv-x="585" 
d="M446 0h-309v309h309v-309z" />
    <glyph glyph-name="slash" unicode="/" horiz-adv-x="819" 
d="M573 1786h256q-135 -455 -573 -1938h-256q438 1483 573 1938z" />
    <glyph glyph-name="zero" unicode="0" horiz-adv-x="1099" 
d="M717 430v766q0 78 -38 136t-130 59q-168 0 -168 -195v-766q0 -88 46 -137t122 -49t122 49t46 137zM549 1649q190 0 314 -121t124 -293v-834q0 -173 -124 -293t-314 -120t-313 121t-123 292v834q0 172 123 293t313 121z" />
    <glyph glyph-name="one" unicode="1" horiz-adv-x="1011" 
d="M641 250h209v-250h-698v250h221v1116l-297 -145v249q55 29 327 162h238v-1382z" />
    <glyph glyph-name="two" unicode="2" horiz-adv-x="1050" 
d="M385 1145h-270v125q1 150 117 264t299 113q183 0 300 -115t117 -262v-197q0 -88 -58 -180t-140 -165q-82 -72 -165 -140t-141 -130t-59 -108v-102h563v-248h-833v362q0 76 58 160t141 157t165 141q199 166 199 249v199q0 39 -44 81t-102 42t-103 -44q-44 -44 -44 -85
v-117z" />
    <glyph glyph-name="three" unicode="3" horiz-adv-x="1056" 
d="M961 442q0 -182 -112 -318t-321 -136q-210 0 -326 127t-116 305h270q0 -80 42 -130t131 -50t125 60t36 183t-38 185t-146 63h-74v234h74q118 0 146 73t28 166q0 92 -44 142t-116 51q-72 0 -118 -48t-46 -116v-14h-264q0 176 117 303t307 127t307 -121t117 -303v-74
q0 -82 -24 -145t-46 -91t-59 -61q74 -66 112 -148t38 -264z" />
    <glyph glyph-name="four" unicode="4" horiz-adv-x="1110" 
d="M625 496v665l-303 -665h303zM891 496h156v-246h-156v-250h-270v250h-560v264l517 1118h313v-1136z" />
    <glyph glyph-name="five" unicode="5" horiz-adv-x="1089" 
d="M586 1108q203 0 303 -119t100 -309v-256q0 -184 -120 -310q-121 -126 -321 -126t-317 129t-116 307h270q0 -74 39 -127t123 -53t129 52t45 132v205q-1 103 -19 146q-33 79 -137 79q-67 0 -109 -39t-55 -98h-272v913h823v-250h-567v-348q76 72 201 72z" />
    <glyph glyph-name="six" unicode="6" horiz-adv-x="1071" 
d="M700 393v228q0 57 -47 103t-119 46t-120 -46q-49 -46 -49 -103v-228q0 -59 47 -104q48 -45 120 -45t120 44t48 105zM969 621v-220q0 -173 -124 -293q-125 -120 -315 -120t-313 121t-123 292v217q8 74 29 117l383 899h268l-272 -622q41 10 76 10q168 0 280 -120t111 -281z
" />
    <glyph glyph-name="seven" unicode="7" horiz-adv-x="1083" 
d="M96 1395v237h905v-223q-368 -1129 -458 -1409h-262l454 1395h-639z" />
    <glyph glyph-name="eight" unicode="8" horiz-adv-x="1048" 
d="M682 1186q0 210 -158 211q-158 0 -157 -230q1 -104 35 -159q34 -56 126 -56t123 62t31 172zM524 240q100 0 134 63t34 180q0 231 -168 232q-100 0 -134 -70t-34 -190q0 -215 168 -215zM963 416q0 -176 -120 -302t-318 -126q-199 0 -319 126t-120 310v51q0 236 147 363
q-129 119 -129 292v46q0 200 102 336t318 137q309 0 396 -302q23 -81 22 -171q0 -209 -129 -338q74 -62 112 -154t38 -268z" />
    <glyph glyph-name="nine" unicode="9" horiz-adv-x="1071" 
d="M371 1223v-195q0 -66 42 -114t125 -48t126 52t43 120v203q1 59 -47 105t-128 45q-80 0 -120 -51q-41 -51 -41 -117zM100 1233q0 172 124 293t314 121t314 -121q123 -121 123 -293v-217q0 -51 -29 -119l-381 -897h-270l274 623q-33 -6 -65 -7q-174 0 -287 116t-117 282
v219z" />
    <glyph glyph-name="colon" unicode=":" horiz-adv-x="591" 
d="M463 0h-309v309h309v-309zM463 694h-309v310h309v-310z" />
    <glyph glyph-name="semicolon" unicode=";" horiz-adv-x="591" 
d="M463 694h-309v310h309v-310zM154 0v309h309v-346l-168 -280q-37 20 -107 55l136 262h-170z" />
    <glyph glyph-name="less" unicode="&#x3c;" horiz-adv-x="1114" 
d="M977 166l-840 385v237l840 386v-289l-492 -215l492 -215v-289z" />
    <glyph glyph-name="equal" unicode="=" horiz-adv-x="1114" 
d="M1012 317h-910v254h910v-254zM1012 766h-910v254h910v-254z" />
    <glyph glyph-name="greater" unicode="&#x3e;" horiz-adv-x="1114" 
d="M977 551l-840 -385v289l492 215l-492 215v289l840 -386v-237z" />
    <glyph glyph-name="question" unicode="?" horiz-adv-x="1146" 
d="M133 1143q1 278 207 429q110 81 280 81t302 -125t147 -297q6 -55 6 -129t-34 -154q-35 -80 -81 -137t-94 -109q-117 -127 -116 -243h-289q0 107 46 205t100 160q147 169 147 270v131q0 59 -46 104t-106 45t-105 -44q-44 -44 -44 -105v-82h-320zM754 0h-299v276h299v-276z
" />
    <glyph glyph-name="at" unicode="@" horiz-adv-x="2185" 
d="M1188 401v267q0 59 -53 107t-125 48q-131 0 -131 -172v-233q0 -174 131 -174q74 0 126 48t52 109zM102 538q0 270 138 500t364 358q228 130 488 130t488 -118t366 -316q137 -199 137 -424q0 -340 -138 -510t-384 -170q-143 0 -217 49t-82 98q-20 -45 -94 -96t-177 -51
q-171 0 -283 114t-112 314v237q0 203 110 314t272 111t234 -93v80h261v-721q1 -49 29 -85t77 -36q268 0 268 443q0 272 -224 447t-532 175q-309 0 -531 -221t-222 -535t225 -534q225 -219 553 -219v-236q-289 0 -523 136q-235 137 -363 363t-128 496z" />
    <glyph glyph-name="A" unicode="A" horiz-adv-x="1304" 
d="M489 655h326l-164 555zM1006 0l-109 371h-489l-107 -371h-293l488 1634h315l485 -1634h-290z" />
    <glyph glyph-name="B" unicode="B" horiz-adv-x="1398" 
d="M711 283q149 0 203 58t55 159q0 217 -248 217h-229v-434h219zM930 1167q0 132 -109 167q-53 17 -135 18h-194v-381h163q155 0 215 49t60 147zM686 0h-518v1634h539q240 0 383 -120t143 -347q0 -87 -32 -161t-62 -105l-33 -31l18 -12q12 -8 42 -41q114 -125 114 -346
t-151 -346t-443 -125z" />
    <glyph glyph-name="C" unicode="C" horiz-adv-x="1290" 
d="M658 -12q-214 0 -378 162q-163 162 -163 391v555q0 227 163 390t382 163q218 1 374 -139t183 -345h-312q-12 85 -80 145q-69 60 -161 60t-163 -70t-71 -167v-629q0 -98 71 -169t160 -71t152 49t86 125h313q-34 -194 -188 -322t-368 -128z" />
    <glyph glyph-name="D" unicode="D" horiz-adv-x="1384" 
d="M956 506v624q0 98 -62 162t-161 64h-244v-1077h244q98 0 161 64q62 65 62 163zM733 1634q233 0 386 -146t153 -390v-555q0 -243 -153 -393t-376 -150h-575v1634h565z" />
    <glyph glyph-name="E" unicode="E" horiz-adv-x="1220" 
d="M1110 1356h-618v-400h522v-278h-522v-399h618v-279h-942v1634h942v-278z" />
    <glyph glyph-name="F" unicode="F" horiz-adv-x="1208" 
d="M1110 1356h-621v-400h523v-278h-523v-678h-321v1634h942v-278z" />
    <glyph glyph-name="G" unicode="G" horiz-adv-x="1339" 
d="M1223 881v-340q0 -229 -163 -391t-391 -162t-391 162t-163 391v555q0 227 163 390t382 163q218 1 374 -139t183 -345h-312q-12 85 -80 145q-69 60 -161 60t-163 -70t-71 -167v-629q0 -90 72 -165t169 -75t167 71t69 169v127h-243v250h559z" />
    <glyph glyph-name="H" unicode="H" horiz-adv-x="1394" 
d="M905 1634h324v-1634h-324v676h-413v-676h-324v1634h324v-673h413v673z" />
    <glyph glyph-name="I" unicode="I" horiz-adv-x="954" 
d="M813 1376h-184v-1114h184v-262h-674v262h185v1114h-185v262h674v-262z" />
    <glyph glyph-name="J" unicode="J" horiz-adv-x="1046" 
d="M891 1634v-1181q0 -223 -135 -344t-338 -121q-123 0 -213 41t-185 137l222 219q32 -49 68 -71t98 -21q162 0 161 211v1130h322z" />
    <glyph glyph-name="K" unicode="K" horiz-adv-x="1329" 
d="M489 721v-721h-321v1634h321v-620h134l266 620h362l-346 -776l414 -858h-363q-229 479 -342 721h-125z" />
    <glyph glyph-name="L" unicode="L" horiz-adv-x="1161" 
d="M492 268h610v-268h-934v1634h324v-1366z" />
    <glyph glyph-name="M" unicode="M" horiz-adv-x="1759" 
d="M1589 1634v-1634h-321v846q-92 -193 -281 -578h-217q-92 193 -281 578v-846h-321v1634h289l424 -891q139 297 422 891h286z" />
    <glyph glyph-name="N" unicode="N" horiz-adv-x="1513" 
d="M1024 1634h322v-1634h-271l-586 967v-967h-321v1634h270l586 -966v966z" />
    <glyph glyph-name="O" unicode="O" horiz-adv-x="1339" 
d="M907 504v629q1 97 -69 167t-168 70t-169 -70t-71 -167v-629q0 -98 71 -169t169 -71t168 71q69 71 69 169zM669 1649q228 0 391 -163t163 -390v-555q0 -229 -163 -391t-391 -162t-390 162t-162 391v555q0 227 162 390t390 163z" />
    <glyph glyph-name="P" unicode="P" horiz-adv-x="1286" 
d="M891 891v291q0 61 -49 111t-137 50h-222v-614h222q90 -1 138 49t48 113zM723 1634q207 0 349 -131t142 -311v-313q0 -177 -140 -309t-351 -132h-240v-438h-315v1634h555z" />
    <glyph glyph-name="Q" unicode="Q" horiz-adv-x="1327" 
d="M905 1133q1 97 -69 167t-168 70t-169 -70t-71 -167v-629q0 -94 66 -165t159 -75l-125 283h285l68 -150q25 55 24 107v629zM1221 541q-1 -129 -57 -243t-154 -192l131 -296h-287l-82 186q-47 -8 -104 -8q-229 0 -392 162q-162 162 -161 391v555q0 227 161 390
q162 163 390 163t392 -163q163 -163 163 -390v-555z" />
    <glyph glyph-name="R" unicode="R" horiz-adv-x="1320" 
d="M707 834q88 0 137 50t49 111v187q0 59 -49 110t-137 51h-224v-509h224zM483 543v-543h-315v1634h555q209 0 350 -131t141 -311v-207q0 -102 -51 -194t-139 -154l270 -637h-307q-94 217 -231 545l-33 -2h-240z" />
    <glyph glyph-name="S" unicode="S" horiz-adv-x="1298" 
d="M1190 468q0 -108 -49 -204q-89 -175 -310 -246q-99 -30 -221 -30t-246 51t-210 169t-86 284h323q1 -102 61 -164t178 -64q118 0 179 62t61 145q0 84 -57 134t-195 87t-212 67t-151 82q-157 106 -157 318q0 213 136 351t392 138t393 -136q138 -138 138 -318h-323
q0 76 -54 126t-155 50q-99 0 -153 -53t-54 -131t55 -123t188 -83t189 -57t129 -59q72 -40 113 -86q42 -47 70 -124q28 -78 28 -186z" />
    <glyph glyph-name="T" unicode="T" horiz-adv-x="1212" 
d="M1151 1634v-278h-385v-1356h-322v1356h-383v278h1090z" />
    <glyph glyph-name="U" unicode="U" horiz-adv-x="1363" 
d="M920 1634h315v-1093q0 -229 -163 -391t-391 -162t-390 162t-162 391v1093h313v-1130q0 -90 72 -165t169 -75t167 71t70 169v1130z" />
    <glyph glyph-name="V" unicode="V" horiz-adv-x="1300" 
d="M1001 1634h293l-487 -1634h-315l-488 1634h293l352 -1210z" />
    <glyph glyph-name="W" unicode="W" horiz-adv-x="2021" 
d="M1702 1634h315l-436 -1634h-309l-262 1016l-260 -1016h-310l-436 1634h315l273 -1085l285 1085h268l287 -1085z" />
    <glyph glyph-name="X" unicode="X" horiz-adv-x="1329" 
d="M664 518l-299 -518h-355q158 272 477 817q-319 545 -477 817h355l299 -518l301 518h354q-158 -272 -477 -817q319 -545 477 -817h-354z" />
    <glyph glyph-name="Y" unicode="Y" horiz-adv-x="1298" 
d="M803 0h-307v545l-492 1089h311q63 -141 179 -397t155 -342l332 739h311l-489 -1089v-545z" />
    <glyph glyph-name="Z" unicode="Z" horiz-adv-x="1138" 
d="M1059 285v-285h-979v285q418 709 629 1063h-629v284h979v-284l-629 -1063h629z" />
    <glyph glyph-name="bracketleft" unicode="[" horiz-adv-x="780" 
d="M696 -152h-534v1960h534v-245h-262v-1471h262v-244z" />
    <glyph glyph-name="backslash" unicode="\" horiz-adv-x="823" 
d="M0 1786h256q432 -1481 567 -1938h-256q-135 457 -567 1938z" />
    <glyph glyph-name="bracketright" unicode="]" horiz-adv-x="780" 
d="M618 -152h-534v244h262v1471h-262v245h534v-1960z" />
    <glyph glyph-name="asciicircum" unicode="^" horiz-adv-x="1239" 
d="M1112 954h-287l-207 381l-206 -381h-285l367 678h251z" />
    <glyph glyph-name="underscore" unicode="_" horiz-adv-x="1239" 
d="M1239 -367h-1239v183h1239v-183z" />
    <glyph glyph-name="grave" unicode="`" 
d="M625 1776h-181l-235 350h289z" />
    <glyph glyph-name="a" unicode="a" horiz-adv-x="1095" 
d="M664 362v99h-172q-62 0 -94 -34t-32 -86t34 -87q32 -35 95 -35t116 42t53 101zM526 1079q197 0 313 -125t115 -348v-606h-270v84q-76 -98 -230 -98t-265 100t-111 263t110 254q111 91 265 91h211v21q0 59 -33 95t-96 36q-115 0 -123 -72h-283q13 127 129 216t268 89z" />
    <glyph glyph-name="b" unicode="b" horiz-adv-x="1142" 
d="M624 823q-68 0 -123 -42q-54 -42 -55 -101v-297q0 -57 54 -99t118 -42q127 0 127 155v242q0 94 -26 139q-27 45 -95 45zM665 -14q-166 0 -241 98v-84h-268v1632h280v-649q68 96 230 96t266 -113q102 -114 102 -315v-237q0 -203 -101 -316q-102 -112 -268 -112z" />
    <glyph glyph-name="c" unicode="c" horiz-adv-x="1075" 
d="M536 -12q-172 0 -303 129q-129 129 -129 309v215q0 180 129 309t301 129t294 -105t143 -263h-289q-6 47 -47 80t-98 33t-99 -45q-42 -44 -43 -105v-283q0 -59 41 -101q40 -42 98 -42t100 30t50 82h289q-21 -160 -143 -266t-294 -106z" />
    <glyph glyph-name="d" unicode="d" horiz-adv-x="1142" 
d="M520 823q-70 0 -96 -45t-27 -139v-242q0 -156 129 -155q63 0 117 42q53 42 53 99v297q0 59 -53 101t-123 42zM477 -14q-166 0 -267 112t-101 316v237q0 201 102 315t265 114t231 -97v649h280v-1632h-268v84q-76 -98 -242 -98z" />
    <glyph glyph-name="e" unicode="e" horiz-adv-x="1089" 
d="M395 670h299q0 68 -42 116t-108 48t-108 -48q-41 -48 -41 -116zM545 1079q182 0 310 -129t128 -311v-154h-588v-94q0 -55 45 -102q46 -47 102 -47t97 34t51 84h289q-25 -160 -148 -266t-295 -106t-303 129q-129 129 -129 309v215q0 180 129 309q130 129 312 129z" />
    <glyph glyph-name="f" unicode="f" horiz-adv-x="737" 
d="M680 1079v-223h-197v-856h-290v856h-119v223h119v236q0 324 309 323h178v-243h-119q-78 0 -78 -129v-187h197z" />
    <glyph glyph-name="g" unicode="g" horiz-adv-x="1144" 
d="M698 383v297q0 59 -54 101t-118 42q-127 0 -127 -157v-242q0 -94 26 -138t95 -44t124 42q54 42 54 99zM719 1065h270v-1120q0 -59 -6 -117q-18 -148 -135 -248t-296 -100t-293 105t-124 259h275q0 -45 43 -82q43 -36 107 -36t106 43q41 43 41 92v219q-68 -94 -232 -94
t-265 112t-101 316v237q0 201 102 315t276 113q79 -1 141 -31t91 -69v86z" />
    <glyph glyph-name="h" unicode="h" horiz-adv-x="1179" 
d="M666 1079q163 0 266 -113q102 -114 102 -315v-651h-291v666q0 158 -125 157q-66 0 -120 -42t-54 -101v-680h-288v1632h280v-649q67 96 230 96z" />
    <glyph glyph-name="i" unicode="i" horiz-adv-x="600" 
d="M156 1305v327h288v-327h-288zM156 0v1065h288v-1065h-288z" />
    <glyph glyph-name="j" unicode="j" horiz-adv-x="600" 
d="M156 1305v327h288v-327h-288zM156 1065h288v-1253q0 -158 -70 -241t-237 -83h-178v244h117q80 0 80 129v1204z" />
    <glyph glyph-name="k" unicode="k" horiz-adv-x="1103" 
d="M444 1632v-946h48l243 379h299l-319 -496l385 -569h-293l-291 430h-72v-430h-288v1632h288z" />
    <glyph glyph-name="l" unicode="l" horiz-adv-x="651" 
d="M438 1634v-1296q0 -90 66 -90h108v-248h-180q-143 0 -213 86t-69 233v1315h288z" />
    <glyph glyph-name="m" unicode="m" horiz-adv-x="1794" 
d="M1242 1079q184 0 296 -105q111 -105 111 -323v-651h-289v676q0 147 -141 147q-55 0 -113 -48t-59 -103v-672h-289v676q0 72 -28 110t-96 37q-68 0 -129 -39q-60 -39 -61 -96v-688h-288v1065h268v-86q30 39 96 70t150 30q178 0 278 -133q110 133 294 133z" />
    <glyph glyph-name="n" unicode="n" horiz-adv-x="1179" 
d="M665 1079q164 0 267 -113q102 -114 102 -315v-651h-291v666q0 158 -127 157q-57 0 -114 -44t-58 -99v-680h-288v1065h268v-86q77 100 241 100z" />
    <glyph glyph-name="o" unicode="o" horiz-adv-x="1099" 
d="M698 391v283q0 61 -44 105t-105 44t-105 -44t-45 -105v-283q0 -61 44 -105q43 -44 105 -44t106 44t44 105zM549 1079q180 0 310 -130t130 -310v-215q0 -180 -129 -309t-310 -129t-310 128t-129 310v215q0 182 129 311t309 129z" />
    <glyph glyph-name="p" unicode="p" horiz-adv-x="1144" 
d="M446 383q0 -57 53 -99t123 -42t97 45t26 137v242q0 158 -127 157q-66 0 -118 -42t-54 -101v-297zM665 1079q164 0 267 -113q102 -114 102 -315v-237q0 -203 -101 -316q-101 -112 -265 -112t-232 94v-586h-280v1571h268v-86q77 100 241 100z" />
    <glyph glyph-name="q" unicode="q" horiz-adv-x="1144" 
d="M399 424q-1 -92 25 -137t96 -45t124 42t54 99v297q0 59 -54 101t-118 42q-127 0 -127 -157v-242zM109 651q0 201 102 315t266 113q164 0 242 -100v86h270v-1571h-282v586q-68 -94 -231 -94t-265 112t-102 316v237z" />
    <glyph glyph-name="r" unicode="r" horiz-adv-x="772" 
d="M745 1077v-248q-45 8 -73 9q-109 0 -168 -58t-60 -125v-655h-288v1065h268v-102q96 115 281 114h40z" />
    <glyph glyph-name="s" unicode="s" horiz-adv-x="989" 
d="M369 758q0 -42 45 -70q46 -28 186 -63t224 -102t83 -211q1 -144 -111 -235t-299 -91t-301 112t-114 293h268q0 -80 38 -123t106 -43t106 28t39 71q0 44 -47 70t-208 67t-222 120q-62 79 -62 195t98 210q98 93 298 93q199 0 299 -105t102 -274h-270q-4 139 -133 140
q-125 0 -125 -82z" />
    <glyph glyph-name="t" unicode="t" horiz-adv-x="770" 
d="M674 948h-199v-575q0 -129 78 -129h121v-244h-180q-168 0 -239 83t-71 241v624h-118v223h118v330h291v-330h199v-223z" />
    <glyph glyph-name="u" unicode="u" horiz-adv-x="1179" 
d="M512 -14q-164 0 -265 112t-102 316v651h289v-668q0 -156 127 -155q59 0 116 43q56 43 56 98v682h291v-1065h-268v84q-80 -98 -244 -98z" />
    <glyph glyph-name="v" unicode="v" horiz-adv-x="919" 
d="M635 1065h274q-172 -610 -299 -1065h-301q-172 610 -299 1065h273l176 -739z" />
    <glyph glyph-name="w" unicode="w" horiz-adv-x="1585" 
d="M285 1065l192 -715l182 715h267q59 -240 182 -715l192 715h275l-313 -1065h-301l-168 590q-57 -197 -168 -590h-301l-314 1065h275z" />
    <glyph glyph-name="x" unicode="x" horiz-adv-x="997" 
d="M639 569q150 -239 348 -569h-289q-135 217 -200 328l-199 -328h-289q16 29 147 244q130 215 199 325q-260 430 -299 496h287l154 -258l153 258h287q-39 -66 -299 -496z" />
    <glyph glyph-name="y" unicode="y" horiz-adv-x="995" 
d="M717 1065h276l-493 -1571h-254l135 453l-371 1118h277l219 -719q139 479 211 719z" />
    <glyph glyph-name="z" unicode="z" horiz-adv-x="993" 
d="M901 248v-248h-819v248q238 282 489 567h-483v250h807v-225q-59 -68 -161 -187t-189 -218q-86 -99 -162 -187h518z" />
    <glyph glyph-name="braceleft" unicode="{" horiz-adv-x="946" 
d="M184 948q142 0 142 160v395q0 141 82 223t235 82h217v-243h-112q-90 0 -120 -31t-30 -129v-375q0 -68 -28 -115t-52 -60t-61 -30q103 -38 128 -112q13 -39 13 -92v-369q0 -98 30 -129t120 -31h112v-244h-217q-153 0 -235 82t-82 224v393q0 158 -142 158h-98v243h98z" />
    <glyph glyph-name="bar" unicode="|" horiz-adv-x="718" 
d="M496 -152h-273v1962h273v-1962z" />
    <glyph glyph-name="braceright" unicode="}" horiz-adv-x="946" 
d="M762 705q-143 0 -141 -158v-393q0 -142 -82 -224t-236 -82h-217v244h113q89 0 119 31t30 129v369q0 110 46 148t95 56q-39 15 -63 29t-50 61q-28 47 -28 115v375q0 98 -30 129t-119 31h-113v243h217q154 0 236 -82t82 -223v-395q0 -88 34 -123q41 -37 107 -37h98v-243
h-98z" />
    <glyph glyph-name="asciitilde" unicode="~" horiz-adv-x="1249" 
d="M822 473q-104 -1 -213 59t-192 60t-171 -88l-172 172q98 98 173 138t177 40t212 -60q109 -60 192 -59q83 0 171 88l175 -172q-98 -98 -174 -138q-74 -40 -178 -40z" />
    <glyph glyph-name="exclamdown" unicode="&#xa1;" horiz-adv-x="714" 
d="M252 1063h287v-277h-287v277zM496 604l67 -1210h-338l68 1210h203z" />
    <glyph glyph-name="cent" unicode="&#xa2;" horiz-adv-x="1075" 
d="M383 578q0 -43 26 -80t66 -54v572q-92 -43 -92 -135v-303zM641 0h-203v197q-143 37 -238 155t-96 269v215q0 154 96 272t238 154v196h203v-192q131 -29 223 -128t107 -233h-283q-4 82 -92 115v-582q84 31 94 117h283q-15 -133 -107 -232t-225 -130v-193z" />
    <glyph glyph-name="sterling" unicode="&#xa3;" horiz-adv-x="1150" 
d="M1071 266v-266h-917v145q6 20 14 62q90 172 104 358v49h-141v213h105q-4 14 -43 129t-39 218q0 202 143 338t369 137t395 -168l-187 -185q-92 100 -204 100t-173 -62q-63 -62 -63 -163t38 -217q38 -117 40 -127h324v-213h-297v-55q-1 -143 -56 -293h588z" />
    <glyph glyph-name="yen" unicode="&#xa5;" horiz-adv-x="1312" 
d="M1157 999v-254h-250l-61 -135l-21 -59h332v-254h-340v-297h-321v297h-342v254h331q-12 39 -45 113t-34 81h-252v254h137l-287 635h328q53 -122 162 -362t161 -361l326 723h326l-285 -635h135z" />
    <glyph glyph-name="section" unicode="&#xa7;" horiz-adv-x="1138" 
d="M570 307q196 0 196 257t-196 257t-196 -257t196 -257zM131 -131h264q0 -156 174 -156q76 0 124 42t48 122t-48 116q-47 36 -155 71t-141 47q-120 44 -161 87q-96 104 -116 211q-13 69 -14 156q0 272 195 375q-2 2 -42 24t-54 44q-42 63 -56 116t-14 119q0 178 114 292
q115 114 323 114q208 1 323 -105t115 -284h-265q0 156 -176 155q-74 0 -122 -41t-48 -121q0 -79 47 -115q48 -36 152 -70t172 -59q68 -24 103 -54q97 -83 120 -146q41 -110 41 -244q1 -271 -196 -377l22 -12q75 -42 103 -96q41 -78 43 -195q0 -178 -114 -292
q-114 -113 -323 -113t-323 105t-115 284z" />
    <glyph glyph-name="dieresis" unicode="&#xa8;" 
d="M401 1782h-231v260h231v-260zM854 1782h-231v260h231v-260z" />
    <glyph glyph-name="copyright" unicode="&#xa9;" horiz-adv-x="1765" 
d="M882 999q-62 0 -108 -46q-45 -46 -45 -107v-234q0 -63 45 -109q44 -46 106 -46t102 36t52 85h156q-20 -113 -106 -186t-206 -73q-118 1 -210 89t-93 219v202q1 129 93 219t213 91q121 0 212 -82t99 -193h-154q-8 55 -51 95t-105 40zM883 156q237 0 399 166t162 408
t-163 406t-399 164t-399 -166q-164 -166 -164 -406t164 -406t400 -166zM883 1470q307 0 524 -217t217 -524t-217 -524t-524 -217t-525 217q-217 217 -217 524t217 524q218 217 525 217z" />
    <glyph glyph-name="ordfeminine" unicode="&#xaa;" horiz-adv-x="929" 
d="M584 1087v54h-148q-47 0 -74 -28q-26 -29 -26 -65t26 -64t83 -28q55 0 97 32t42 99zM143 1384q1 104 93 184t242 79q150 0 242 -88q93 -88 93 -232v-555h-219v72q-72 -82 -196 -82t-206 79t-81 199q0 120 80 198q81 77 217 77h176v33q0 42 -29 68t-80 26t-79 -18t-27 -40
h-226z" />
    <glyph glyph-name="guillemotleft" unicode="&#xab;" horiz-adv-x="1294" 
d="M1159 154l-516 512l516 512v-324l-194 -188l194 -189v-323zM584 154l-516 512l516 512v-324l-191 -188l191 -189v-323z" />
    <glyph glyph-name="logicalnot" unicode="&#xac;" horiz-adv-x="1091" 
d="M1020 289h-254v299h-674v254h928v-553z" />
    <glyph glyph-name="registered" unicode="&#xae;" horiz-adv-x="1765" 
d="M768 731h154q51 0 82 27t30 59v66q0 31 -30 59t-82 27h-154v-238zM768 575v-237h-156v784h318q114 0 190 -72t76 -167v-66q0 -59 -33 -113t-78 -81q19 -49 65 -143t67 -142h-183l-110 237h-156zM1444 729q0 242 -163 408t-399 166t-400 -166q-163 -166 -163 -408
q0 -241 163 -407t400 -166q238 0 400 166t162 407zM1624 729q0 -307 -217 -524t-524 -217t-525 217q-217 217 -217 524t217 524q216 217 524 217t525 -217t217 -524z" />
    <glyph glyph-name="macron" unicode="&#xaf;" 
d="M186 1833v182h650v-182h-650z" />
    <glyph glyph-name="degree" unicode="&#xb0;" horiz-adv-x="978" 
d="M649 1292q0 68 -47 115t-114 47q-66 0 -112 -47t-46 -115t46 -114t112 -48q66 0 114 47q47 47 47 115zM868 1292q0 -158 -110 -268t-269 -111q-159 0 -269 111q-110 110 -110 268t111 269t269 111t268 -111t110 -269z" />
    <glyph glyph-name="plusminus" unicode="&#xb1;" horiz-adv-x="1114" 
d="M1012 51h-910v254h910v-254zM1012 754h-328v-328h-254v328h-328v256h328v327h254v-327h328v-256z" />
    <glyph glyph-name="acute" unicode="&#xb4;" 
d="M813 2124l-233 -350h-181l127 350h287z" />
    <glyph glyph-name="uni00B5" unicode="&#xb5;" horiz-adv-x="1189" 
d="M750 1083h286v-1083h-274v90q-88 -102 -238 -102q-61 0 -92 37v-529h-282v1587h288v-610q0 -125 34 -177t102 -52t122 43q53 43 54 123v673z" />
    <glyph glyph-name="paragraph" unicode="&#xb6;" horiz-adv-x="1304" 
d="M1114 -510h-209v1960h-221v-1960h-209v1350q-165 0 -281 118t-116 293q0 174 126 286t335 112h575v-2159z" />
    <glyph glyph-name="periodcentered" unicode="&#xb7;" horiz-adv-x="585" 
d="M446 494h-309v309h309v-309z" />
    <glyph glyph-name="cedilla" unicode="&#xb8;" 
d="M668 -131l-90 -297h-252l139 297h203z" />
    <glyph glyph-name="ordmasculine" unicode="&#xba;" horiz-adv-x="946" 
d="M473 967q92 0 111 72q14 53 14 106v80q0 167 -52 199q-28 18 -73 18t-73 -18q-52 -32 -52 -180v-60q0 -168 52 -200q28 -17 73 -17zM829 1204q0 -88 -4 -125q-10 -131 -103 -225t-249 -94t-249 94t-103 225q-4 37 -4 125t4 125q10 131 103 225t249 94t249 -94t103 -225
q4 -37 4 -125z" />
    <glyph glyph-name="guillemotright" unicode="&#xbb;" horiz-adv-x="1294" 
d="M651 666l-516 -512v323l193 189l-193 188v324zM1227 666l-516 -512v323l190 189l-190 188v324z" />
    <glyph glyph-name="questiondown" unicode="&#xbf;" horiz-adv-x="1146" 
d="M604 -586q-188 0 -318 125t-149 297q-4 37 -4 119t34 163t81 137q47 57 95 109q116 127 116 242h289q0 -104 -46 -202t-101 -161q-146 -168 -146 -270v-131q0 -59 46 -104t105 -45t105 44q45 44 45 105v82h319q0 -277 -210 -429q-111 -81 -261 -81zM453 1067h299v-276
h-299v276z" />
    <glyph glyph-name="Agrave" unicode="&#xc0;" horiz-adv-x="1304" 
d="M821 1776h-180l-235 350h288zM489 655h326l-164 555zM1006 0l-109 371h-489l-107 -371h-293l488 1634h315l485 -1634h-290z" />
    <glyph glyph-name="Aacute" unicode="&#xc1;" horiz-adv-x="1304" 
d="M858 2124l-233 -350h-181l127 350h287zM489 655h326l-164 555zM1006 0l-109 371h-489l-107 -371h-293l488 1634h315l485 -1634h-290z" />
    <glyph glyph-name="Acircumflex" unicode="&#xc2;" horiz-adv-x="1304" 
d="M1022 1782h-209l-170 184l-170 -184h-211l273 348h217zM489 655h326l-164 555zM1006 0l-109 371h-489l-107 -371h-293l488 1634h315l485 -1634h-290z" />
    <glyph glyph-name="Atilde" unicode="&#xc3;" horiz-adv-x="1304" 
d="M791 1798q-83 0 -153 41t-126 41t-115 -57l-118 119q121 121 231 120q82 0 152 -42t125 -42q56 0 116 60l121 -119q-121 -121 -233 -121zM489 655h326l-164 555zM1006 0l-109 371h-489l-107 -371h-293l488 1634h315l485 -1634h-290z" />
    <glyph glyph-name="Adieresis" unicode="&#xc4;" horiz-adv-x="1304" 
d="M532 1782h-231v260h231v-260zM985 1782h-231v260h231v-260zM489 655h326l-164 555zM1006 0l-109 371h-489l-107 -371h-293l488 1634h315l485 -1634h-290z" />
    <glyph glyph-name="Aring" unicode="&#xc5;" horiz-adv-x="1304" 
d="M762 1981q0 48 -36 83t-84 35t-83 -35t-35 -83t35 -83q35 -34 83 -34t84 34t36 83zM642 2251q112 0 190 -79t79 -191q-1 -113 -79 -191t-190 -78t-190 79t-79 191q0 112 79 190q78 79 190 79zM489 655h326l-164 555zM1006 0l-109 371h-489l-107 -371h-293l488 1634h315
l485 -1634h-290z" />
    <glyph glyph-name="AE" unicode="&#xc6;" horiz-adv-x="1908" 
d="M856 655v658l-262 -658h262zM1798 1356h-618v-400h522v-278h-522v-399h618v-279h-942v371h-377l-147 -371h-324l670 1634h1120v-278z" />
    <glyph glyph-name="Ccedilla" unicode="&#xc7;" horiz-adv-x="1290" 
d="M823 -131l-90 -297h-252l140 297h202zM658 -12q-214 0 -378 162q-163 162 -163 391v555q0 227 163 390t382 163q218 1 374 -139t183 -345h-312q-12 85 -80 145q-69 60 -161 60t-163 -70t-71 -167v-629q0 -98 71 -169t160 -71t152 49t86 125h313q-34 -194 -188 -322
t-368 -128z" />
    <glyph glyph-name="Egrave" unicode="&#xc8;" horiz-adv-x="1220" 
d="M807 1776h-180l-236 350h289zM1110 1356h-618v-400h522v-278h-522v-399h618v-279h-942v1634h942v-278z" />
    <glyph glyph-name="Eacute" unicode="&#xc9;" horiz-adv-x="1220" 
d="M844 2124l-234 -350h-180l127 350h287zM1110 1356h-618v-400h522v-278h-522v-399h618v-279h-942v1634h942v-278z" />
    <glyph glyph-name="Ecircumflex" unicode="&#xca;" horiz-adv-x="1220" 
d="M987 1782h-209l-170 184l-170 -184h-211l273 348h217zM1110 1356h-618v-400h522v-278h-522v-399h618v-279h-942v1634h942v-278z" />
    <glyph glyph-name="Edieresis" unicode="&#xcb;" horiz-adv-x="1220" 
d="M498 1782h-232v260h232v-260zM950 1782h-231v260h231v-260zM1110 1356h-618v-400h522v-278h-522v-399h618v-279h-942v1634h942v-278z" />
    <glyph glyph-name="Igrave" unicode="&#xcc;" horiz-adv-x="952" 
d="M635 1776h-180l-236 350h289zM813 1376h-184v-1114h184v-262h-674v262h185v1114h-185v262h674v-262z" />
    <glyph glyph-name="Iacute" unicode="&#xcd;" horiz-adv-x="952" 
d="M684 2124l-233 -350h-181l127 350h287zM813 1376h-184v-1114h184v-262h-674v262h185v1114h-185v262h674v-262z" />
    <glyph glyph-name="Icircumflex" unicode="&#xce;" horiz-adv-x="1038" 
d="M899 1782h-209l-170 184l-170 -184h-211l273 348h217zM897 1376h-184v-1114h184v-262h-674v262h185v1114h-185v262h674v-262z" />
    <glyph glyph-name="Idieresis" unicode="&#xcf;" horiz-adv-x="997" 
d="M371 1782h-232v260h232v-260zM823 1782h-231v260h231v-260zM858 1376h-184v-1114h184v-262h-674v262h185v1114h-185v262h674v-262z" />
    <glyph glyph-name="Ntilde" unicode="&#xd1;" horiz-adv-x="1513" 
d="M909 1798q-82 0 -152 41q-71 41 -127 41t-114 -57l-119 119q121 121 232 120q82 0 151 -42q70 -42 126 -42t116 60l121 -119q-121 -121 -234 -121zM1024 1634h322v-1634h-271l-586 967v-967h-321v1634h270l586 -966v966z" />
    <glyph glyph-name="Ograve" unicode="&#xd2;" horiz-adv-x="1339" 
d="M870 1776h-180l-235 350h288zM907 504v629q1 97 -69 167t-168 70t-169 -70t-71 -167v-629q0 -98 71 -169t169 -71t168 71q69 71 69 169zM669 1649q228 0 391 -163t163 -390v-555q0 -229 -163 -391t-391 -162t-390 162t-162 391v555q0 227 162 390t390 163z" />
    <glyph glyph-name="Oacute" unicode="&#xd3;" horiz-adv-x="1339" 
d="M887 2124l-234 -350h-180l127 350h287zM907 504v629q1 97 -69 167t-168 70t-169 -70t-71 -167v-629q0 -98 71 -169t169 -71t168 71q69 71 69 169zM669 1649q228 0 391 -163t163 -390v-555q0 -229 -163 -391t-391 -162t-390 162t-162 391v555q0 227 162 390t390 163z" />
    <glyph glyph-name="Ocircumflex" unicode="&#xd4;" horiz-adv-x="1339" 
d="M1051 1782h-209l-170 184l-170 -184h-211l272 348h217zM907 504v629q1 97 -69 167t-168 70t-169 -70t-71 -167v-629q0 -98 71 -169t169 -71t168 71q69 71 69 169zM669 1649q228 0 391 -163t163 -390v-555q0 -229 -163 -391t-391 -162t-390 162t-162 391v555
q0 227 162 390t390 163z" />
    <glyph glyph-name="Otilde" unicode="&#xd5;" horiz-adv-x="1339" 
d="M819 1798q-83 0 -153 41t-126 41t-114 -57l-119 119q121 121 232 120q82 0 151 -42q70 -42 126 -42t116 60l121 -119q-121 -121 -234 -121zM907 504v629q1 97 -69 167t-168 70t-169 -70t-71 -167v-629q0 -98 71 -169t169 -71t168 71q69 71 69 169zM669 1649
q228 0 391 -163t163 -390v-555q0 -229 -163 -391t-391 -162t-390 162t-162 391v555q0 227 162 390t390 163z" />
    <glyph glyph-name="Odieresis" unicode="&#xd6;" horiz-adv-x="1339" 
d="M561 1782h-231v260h231v-260zM1014 1782h-232v260h232v-260zM907 504v629q1 97 -69 167t-168 70t-169 -70t-71 -167v-629q0 -98 71 -169t169 -71t168 71q69 71 69 169zM669 1649q228 0 391 -163t163 -390v-555q0 -229 -163 -391t-391 -162t-390 162t-162 391v555
q0 227 162 390t390 163z" />
    <glyph glyph-name="Oslash" unicode="&#xd8;" horiz-adv-x="1339" 
d="M907 504v508q0 86 -26 180l-271 -920q25 -8 58 -8q100 0 170 71q69 71 69 169zM668 1370q-96 0 -167 -70t-71 -167v-605q6 -29 39 -45l260 881q-29 6 -61 6zM1221 541q0 -229 -162 -391t-391 -162q-68 0 -138 16l-47 -156h-202l71 240q-111 76 -174 196t-63 257v555
q0 227 163 390t390 163q74 0 141 -19l45 156h203l-70 -240q109 -76 171 -194t63 -256v-555z" />
    <glyph glyph-name="Ugrave" unicode="&#xd9;" horiz-adv-x="1363" 
d="M834 1776h-181l-235 350h289zM920 1634h315v-1093q0 -229 -163 -391t-391 -162t-390 162t-162 391v1093h313v-1130q0 -90 72 -165t169 -75t167 71t70 169v1130z" />
    <glyph glyph-name="Uacute" unicode="&#xda;" horiz-adv-x="1363" 
d="M924 2124l-234 -350h-180l127 350h287zM920 1634h315v-1093q0 -229 -163 -391t-391 -162t-390 162t-162 391v1093h313v-1130q0 -90 72 -165t169 -75t167 71t70 169v1130z" />
    <glyph glyph-name="Ucircumflex" unicode="&#xdb;" horiz-adv-x="1363" 
d="M1051 1782h-209l-170 184l-170 -184h-211l272 348h217zM920 1634h315v-1093q0 -229 -163 -391t-391 -162t-390 162t-162 391v1093h313v-1130q0 -90 72 -165t169 -75t167 71t70 169v1130z" />
    <glyph glyph-name="Udieresis" unicode="&#xdc;" horiz-adv-x="1363" 
d="M561 1782h-231v260h231v-260zM1014 1782h-232v260h232v-260zM920 1634h315v-1093q0 -229 -163 -391t-391 -162t-390 162t-162 391v1093h313v-1130q0 -90 72 -165t169 -75t167 71t70 169v1130z" />
    <glyph glyph-name="germandbls" unicode="&#xdf;" horiz-adv-x="1079" 
d="M981 526v-102q0 -164 -98 -283t-267 -141q-35 -12 -71 -12v252q94 0 131 60t37 176t-40 175t-147 60v243q104 0 140 56t34 157q0 229 -161 230q-70 0 -116 -48t-46 -116v-1233h-262v1235q0 170 118 292q119 122 307 122t305 -122q118 -122 118 -302v-45q0 -131 -34 -206
t-95 -136q147 -121 147 -312z" />
    <glyph glyph-name="agrave" unicode="&#xe0;" horiz-adv-x="1095" 
d="M711 1257h-181l-235 351h289zM664 362v99h-172q-62 0 -94 -34t-32 -86t34 -87q32 -35 95 -35t116 42t53 101zM526 1079q197 0 313 -125t115 -348v-606h-270v84q-76 -98 -230 -98t-265 100t-111 263t110 254q111 91 265 91h211v21q0 59 -33 95t-96 36q-115 0 -123 -72
h-283q13 127 129 216t268 89z" />
    <glyph glyph-name="aacute" unicode="&#xe1;" horiz-adv-x="1095" 
d="M827 1606l-233 -351h-180l127 351h286zM664 362v99h-172q-62 0 -94 -34t-32 -86t34 -87q32 -35 95 -35t116 42t53 101zM526 1079q197 0 313 -125t115 -348v-606h-270v84q-76 -98 -230 -98t-265 100t-111 263t110 254q111 91 265 91h211v21q0 59 -33 95t-96 36
q-115 0 -123 -72h-283q13 127 129 216t268 89z" />
    <glyph glyph-name="acircumflex" unicode="&#xe2;" horiz-adv-x="1095" 
d="M932 1227h-209l-170 184l-170 -184h-211l272 348h218zM664 362v99h-172q-62 0 -94 -34t-32 -86t34 -87q32 -35 95 -35t116 42t53 101zM526 1079q197 0 313 -125t115 -348v-606h-270v84q-76 -98 -230 -98t-265 100t-111 263t110 254q111 91 265 91h211v21q0 59 -33 95
t-96 36q-115 0 -123 -72h-283q13 127 129 216t268 89z" />
    <glyph glyph-name="atilde" unicode="&#xe3;" horiz-adv-x="1095" 
d="M700 1247q-82 0 -152 41t-126 41t-115 -57l-119 119q121 121 232 120q82 0 152 -42t125 -42q56 0 116 60l121 -119q-121 -121 -234 -121zM664 362v99h-172q-62 0 -94 -34t-32 -86t34 -87q32 -35 95 -35t116 42t53 101zM526 1079q197 0 313 -125t115 -348v-606h-270v84
q-76 -98 -230 -98t-265 100t-111 263t110 254q111 91 265 91h211v21q0 59 -33 95t-96 36q-115 0 -123 -72h-283q13 127 129 216t268 89z" />
    <glyph glyph-name="adieresis" unicode="&#xe4;" horiz-adv-x="1095" 
d="M438 1262h-231v260h231v-260zM891 1262h-232v260h232v-260zM664 362v99h-172q-62 0 -94 -34t-32 -86t34 -87q32 -35 95 -35t116 42t53 101zM526 1079q197 0 313 -125t115 -348v-606h-270v84q-76 -98 -230 -98t-265 100t-111 263t110 254q111 91 265 91h211v21
q0 59 -33 95t-96 36q-115 0 -123 -72h-283q13 127 129 216t268 89z" />
    <glyph glyph-name="aring" unicode="&#xe5;" horiz-adv-x="1095" 
d="M672 1478q0 48 -36 83t-84 35t-83 -36q-35 -34 -35 -82t35 -83t83 -35t84 35t36 83zM552 1747q112 -1 190 -79t79 -190q0 -112 -79 -191q-78 -79 -190 -79t-191 79t-79 191t80 190q78 78 190 79zM664 362v99h-172q-62 0 -94 -34t-32 -86t34 -87q32 -35 95 -35t116 42
t53 101zM526 1079q197 0 313 -125t115 -348v-606h-270v84q-76 -98 -230 -98t-265 100t-111 263t110 254q111 91 265 91h211v21q0 59 -33 95t-96 36q-115 0 -123 -72h-283q13 127 129 216t268 89z" />
    <glyph glyph-name="ae" unicode="&#xe6;" horiz-adv-x="1660" 
d="M1251 670q0 68 -41 116q-42 48 -108 48t-108 -48t-42 -116h299zM664 362v99h-172q-62 0 -94 -34t-32 -86t34 -87q32 -35 95 -35t116 42t53 101zM1102 1079q182 0 311 -129t129 -311v-154h-590v-94q0 -61 44 -105t102 -44t98 34q41 34 53 84h287q-22 -160 -146 -266
t-288 -106q-113 0 -194 58t-99 106q-20 -52 -101 -108q-80 -56 -236 -56t-275 91t-119 262t110 262q111 91 265 91h211v21q0 59 -33 95t-96 36q-115 0 -123 -72h-283q12 127 129 216t268 89q106 0 182 -44t105 -93q35 49 111 93t178 44z" />
    <glyph glyph-name="ccedilla" unicode="&#xe7;" horiz-adv-x="1075" 
d="M717 -131l-90 -297h-252l139 297h203zM536 -12q-172 0 -303 129q-129 129 -129 309v215q0 180 129 309t301 129t294 -105t143 -263h-289q-6 47 -47 80t-98 33t-99 -45q-42 -44 -43 -105v-283q0 -59 41 -101q40 -42 98 -42t100 30t50 82h289q-21 -160 -143 -266t-294 -106
z" />
    <glyph glyph-name="egrave" unicode="&#xe8;" horiz-adv-x="1089" 
d="M707 1255h-181l-235 351h289zM395 670h299q0 68 -42 116t-108 48t-108 -48q-41 -48 -41 -116zM545 1079q182 0 310 -129t128 -311v-154h-588v-94q0 -55 45 -102q46 -47 102 -47t97 34t51 84h289q-25 -160 -148 -266t-295 -106t-303 129q-129 129 -129 309v215
q0 180 129 309q130 129 312 129z" />
    <glyph glyph-name="eacute" unicode="&#xe9;" horiz-adv-x="1089" 
d="M805 1606l-234 -351h-180l127 351h287zM395 670h299q0 68 -42 116t-108 48t-108 -48q-41 -48 -41 -116zM545 1079q182 0 310 -129t128 -311v-154h-588v-94q0 -55 45 -102q46 -47 102 -47t97 34t51 84h289q-25 -160 -148 -266t-295 -106t-303 129q-129 129 -129 309v215
q0 180 129 309q130 129 312 129z" />
    <glyph glyph-name="ecircumflex" unicode="&#xea;" horiz-adv-x="1089" 
d="M932 1227h-209l-170 184l-170 -184h-211l272 348h218zM395 670h299q0 68 -42 116t-108 48t-108 -48q-41 -48 -41 -116zM545 1079q182 0 310 -129t128 -311v-154h-588v-94q0 -55 45 -102q46 -47 102 -47t97 34t51 84h289q-25 -160 -148 -266t-295 -106t-303 129
q-129 129 -129 309v215q0 180 129 309q130 129 312 129z" />
    <glyph glyph-name="edieresis" unicode="&#xeb;" horiz-adv-x="1089" 
d="M438 1262h-231v260h231v-260zM891 1262h-232v260h232v-260zM395 670h299q0 68 -42 116t-108 48t-108 -48q-41 -48 -41 -116zM545 1079q182 0 310 -129t128 -311v-154h-588v-94q0 -55 45 -102q46 -47 102 -47t97 34t51 84h289q-25 -160 -148 -266t-295 -106t-303 129
q-129 129 -129 309v215q0 180 129 309q130 129 312 129z" />
    <glyph glyph-name="igrave" unicode="&#xec;" horiz-adv-x="593" 
d="M483 1255h-180l-235 351h288zM156 0v1061h286v-1061h-286z" />
    <glyph glyph-name="iacute" unicode="&#xed;" horiz-adv-x="593" 
d="M541 1606l-234 -351h-180l127 351h287zM156 0v1061h286v-1061h-286z" />
    <glyph glyph-name="icircumflex" unicode="&#xee;" horiz-adv-x="593" 
d="M682 1227h-209l-170 184l-170 -184h-211l273 348h217zM156 0v1061h286v-1061h-286z" />
    <glyph glyph-name="idieresis" unicode="&#xef;" horiz-adv-x="593" 
d="M156 0v1061h286v-1061h-286zM195 1303h-232v260h232v-260zM647 1303h-231v260h231v-260z" />
    <glyph glyph-name="ntilde" unicode="&#xf1;" horiz-adv-x="1179" 
d="M743 1249q-80 0 -151 41q-72 41 -128 41t-114 -57l-119 119q121 121 232 120q81 0 151 -42q70 -41 126 -41t116 59l121 -119q-121 -121 -234 -121zM665 1079q164 0 267 -113q102 -114 102 -315v-651h-291v666q0 158 -127 157q-57 0 -114 -44t-58 -99v-680h-288v1065h268
v-86q77 100 241 100z" />
    <glyph glyph-name="ograve" unicode="&#xf2;" horiz-adv-x="1099" 
d="M707 1255h-181l-235 351h289zM698 391v283q0 61 -44 105t-105 44t-105 -44t-45 -105v-283q0 -61 44 -105q43 -44 105 -44t106 44t44 105zM549 1079q180 0 310 -130t130 -310v-215q0 -180 -129 -309t-310 -129t-310 128t-129 310v215q0 182 129 311t309 129z" />
    <glyph glyph-name="oacute" unicode="&#xf3;" horiz-adv-x="1099" 
d="M805 1608l-234 -351h-180l127 351h287zM698 391v283q0 61 -44 105t-105 44t-105 -44t-45 -105v-283q0 -61 44 -105q43 -44 105 -44t106 44t44 105zM549 1079q180 0 310 -130t130 -310v-215q0 -180 -129 -309t-310 -129t-310 128t-129 310v215q0 182 129 311t309 129z" />
    <glyph glyph-name="ocircumflex" unicode="&#xf4;" horiz-adv-x="1099" 
d="M932 1227h-209l-170 184l-170 -184h-211l272 348h218zM698 391v283q0 61 -44 105t-105 44t-105 -44t-45 -105v-283q0 -61 44 -105q43 -44 105 -44t106 44t44 105zM549 1079q180 0 310 -130t130 -310v-215q0 -180 -129 -309t-310 -129t-310 128t-129 310v215
q0 182 129 311t309 129z" />
    <glyph glyph-name="otilde" unicode="&#xf5;" horiz-adv-x="1099" 
d="M696 1249q-82 0 -152 41t-126 41t-115 -57l-119 119q121 121 232 120q82 0 151 -42q69 -41 125 -41t117 59l121 -119q-121 -121 -234 -121zM698 391v283q0 61 -44 105t-105 44t-105 -44t-45 -105v-283q0 -61 44 -105q43 -44 105 -44t106 44t44 105zM549 1079
q180 0 310 -130t130 -310v-215q0 -180 -129 -309t-310 -129t-310 128t-129 310v215q0 182 129 311t309 129z" />
    <glyph glyph-name="odieresis" unicode="&#xf6;" horiz-adv-x="1099" 
d="M438 1262h-231v260h231v-260zM891 1262h-232v260h232v-260zM698 391v283q0 61 -44 105t-105 44t-105 -44t-45 -105v-283q0 -61 44 -105q43 -44 105 -44t106 44t44 105zM549 1079q180 0 310 -130t130 -310v-215q0 -180 -129 -309t-310 -129t-310 128t-129 310v215
q0 182 129 311t309 129z" />
    <glyph glyph-name="divide" unicode="&#xf7;" horiz-adv-x="1114" 
d="M692 934h-270v270h270v-270zM692 98h-270v273h270v-273zM1020 524h-928v254h928v-254z" />
    <glyph glyph-name="oslash" unicode="&#xf8;" horiz-adv-x="1099" 
d="M698 391v238q0 29 -2 43l-235 -398q39 -32 94 -32t99 44t44 105zM399 674v-238q0 -6 1 -20t1 -21l238 400q-39 29 -95 29t-100 -45q-44 -44 -45 -105zM111 596q0 203 119 343q120 140 319 140q117 0 211 -53l78 129h161l-129 -215q119 -125 119 -299v-172
q0 -201 -122 -341t-318 -140q-115 0 -209 53l-78 -129h-162l129 215q-119 129 -118 299v170z" />
    <glyph glyph-name="ugrave" unicode="&#xf9;" horiz-adv-x="1179" 
d="M731 1255h-180l-236 351h289zM512 -14q-164 0 -265 112t-102 316v651h289v-668q0 -156 127 -155q59 0 116 43q56 43 56 98v682h291v-1065h-268v84q-80 -98 -244 -98z" />
    <glyph glyph-name="uacute" unicode="&#xfa;" horiz-adv-x="1179" 
d="M872 1606l-233 -351h-180l127 351h286zM512 -14q-164 0 -265 112t-102 316v651h289v-668q0 -156 127 -155q59 0 116 43q56 43 56 98v682h291v-1065h-268v84q-80 -98 -244 -98z" />
    <glyph glyph-name="ucircumflex" unicode="&#xfb;" horiz-adv-x="1179" 
d="M973 1227h-209l-170 184l-170 -184h-211l272 348h217zM512 -14q-164 0 -265 112t-102 316v651h289v-668q0 -156 127 -155q59 0 116 43q56 43 56 98v682h291v-1065h-268v84q-80 -98 -244 -98z" />
    <glyph glyph-name="udieresis" unicode="&#xfc;" horiz-adv-x="1179" 
d="M483 1264h-231v260h231v-260zM936 1264h-231v260h231v-260zM512 -14q-164 0 -265 112t-102 316v651h289v-668q0 -156 127 -155q59 0 116 43q56 43 56 98v682h291v-1065h-268v84q-80 -98 -244 -98z" />
    <glyph glyph-name="ydieresis" unicode="&#xff;" horiz-adv-x="993" 
d="M393 1262h-231v260h231v-260zM846 1262h-232v260h232v-260zM717 1065h276l-493 -1571h-254l135 453l-371 1118h277l219 -719q139 479 211 719z" />
    <glyph glyph-name="dotlessi" unicode="&#x131;" horiz-adv-x="598" 
d="M156 0v1061h286v-1061h-286z" />
    <glyph glyph-name="OE" unicode="&#x152;" horiz-adv-x="1951" 
d="M680 264q106 0 167 83q60 83 60 208v578q1 97 -69 167t-176 70t-169 -83q-62 -83 -63 -206v-577q0 -94 72 -167t178 -73zM1843 1356h-620v-400h524v-278h-524v-399h620v-279h-911v76q-109 -88 -262 -88q-229 0 -391 162t-162 391v555q0 227 162 390t391 163
q152 0 262 -90v75h911v-278z" />
    <glyph glyph-name="oe" unicode="&#x153;" horiz-adv-x="1675" 
d="M1280 670q0 68 -42 116t-109 48t-107 -48t-41 -116h299zM698 391v283q0 61 -44 105t-105 44t-105 -44t-45 -105v-283q0 -61 44 -105q43 -44 105 -44t106 44t44 105zM1131 1079q181 0 309 -129t129 -311v-154h-588v-94q0 -61 44 -105t101 -44t99 33q41 34 51 85h289
q-25 -160 -148 -266t-295 -106t-282 131q-111 -133 -291 -133t-309 128t-129 310v215q0 182 129 311t307 129t293 -131q110 131 291 131z" />
    <glyph glyph-name="Ydieresis" unicode="&#x178;" horiz-adv-x="1298" 
d="M541 1782h-232v260h232v-260zM993 1782h-231v260h231v-260zM803 0h-307v545l-492 1089h311q63 -141 179 -397t155 -342l332 739h311l-489 -1089v-545z" />
    <glyph glyph-name="florin" unicode="&#x192;" horiz-adv-x="882" 
d="M647 1470h174q-4 -80 -16 -235h-143q-39 0 -66 -33t-35 -82l-43 -252h199l-15 -217h-223l-190 -1071h-287l191 1071h-111l16 217h131l52 291q25 139 113 225q89 86 253 86z" />
    <glyph glyph-name="circumflex" unicode="&#x2c6;" 
d="M891 1782h-209l-170 184l-170 -184h-211l272 348h218z" />
    <glyph glyph-name="caron" unicode="&#x2c7;" 
d="M891 2130l-270 -348h-218l-272 348h211l170 -184l170 184h209z" />
    <glyph glyph-name="breve" unicode="&#x2d8;" 
d="M511 1782q-142 0 -236 76q-93 76 -101 233h182q14 -121 156 -121q55 0 101 30t53 91h182q-8 -157 -102 -233t-235 -76z" />
    <glyph glyph-name="dotaccent" unicode="&#x2d9;" 
d="M391 1833v240h240v-240h-240z" />
    <glyph glyph-name="ring" unicode="&#x2da;" 
d="M631 1981q0 48 -36 83t-84 35t-83 -35t-35 -83t35 -83q35 -34 83 -34t84 34t36 83zM512 2251q112 0 190 -79t78 -191q0 -113 -79 -191t-191 -78t-190 79t-78 191t79 190q79 79 191 79z" />
    <glyph glyph-name="ogonek" unicode="&#x2db;" 
d="M838 -129l-88 -297h-254l141 297h201z" />
    <glyph glyph-name="tilde" unicode="&#x2dc;" horiz-adv-x="1099" 
d="M692 1798q-82 0 -152 41t-127 41q-56 0 -114 -57l-119 119q121 121 232 120q82 0 151 -42t125 -42t117 60l121 -119q-121 -121 -234 -121z" />
    <glyph glyph-name="hungarumlaut" unicode="&#x2dd;" 
d="M115 1788q39 111 127 350h286l-233 -350h-180zM535 1788q39 111 127 350h286l-233 -350h-180z" />
    <glyph glyph-name="Omega" unicode="&#x3a9;" horiz-adv-x="1337" 
d="M1219 266v-266h-449v246q94 61 117 147t22 336v215q0 121 -2 168q-6 129 -70 196q-65 67 -169 70q-104 -2 -172 -78q-42 -48 -56 -120t-14 -236v-215q0 -244 20 -331t121 -152v-246h-450v266h139q-97 80 -113 196t-16 251v153q0 180 4 267q10 215 161 362t379 147
t388 -159q98 -98 124 -219t25 -328v-223q0 -102 -8 -178q-15 -183 -119 -269h138z" />
    <glyph glyph-name="pi" unicode="&#x3c0;" horiz-adv-x="1210" 
d="M1057 0h-271v825h-362v-825h-270v1083h903v-1083z" />
    <glyph glyph-name="endash" unicode="&#x2013;" horiz-adv-x="1114" 
d="M1012 524h-910v254h910v-254z" />
    <glyph glyph-name="emdash" unicode="&#x2014;" horiz-adv-x="2113" 
d="M1995 520h-1876v262h1876v-262z" />
    <glyph glyph-name="quoteleft" unicode="&#x2018;" horiz-adv-x="569" 
d="M438 1634v-309h-309v346l168 281q37 -20 106 -56l-135 -262h170z" />
    <glyph glyph-name="quoteright" unicode="&#x2019;" horiz-adv-x="569" 
d="M129 1323v309h309v-346q-125 -211 -166 -280l-108 55l135 262h-170z" />
    <glyph glyph-name="quotesinglbase" unicode="&#x201a;" horiz-adv-x="569" 
d="M129 0v309h309v-346q-125 -211 -166 -280l-108 55l135 262h-170z" />
    <glyph glyph-name="quotedblleft" unicode="&#x201c;" horiz-adv-x="1015" 
d="M438 1634v-309h-309v346l168 281q37 -20 106 -56l-135 -262h170zM887 1634v-309h-309v346q125 211 165 281l109 -56l-135 -262h170z" />
    <glyph glyph-name="quotedblright" unicode="&#x201d;" horiz-adv-x="1015" 
d="M578 1323v309h309v-346l-168 -280q-37 20 -107 55l136 262h-170zM129 1323v309h309v-346q-125 -211 -166 -280l-108 55l135 262h-170z" />
    <glyph glyph-name="quotedblbase" unicode="&#x201e;" horiz-adv-x="1015" 
d="M578 0v309h309v-346q-68 -109 -168 -280l-107 57l136 260h-170zM129 0v309h309v-346q-143 -240 -166 -280l-108 57l135 260h-170z" />
    <glyph glyph-name="dagger" unicode="&#x2020;" horiz-adv-x="1181" 
d="M1067 836h-340v-836h-272v836h-340v245h340v377h272v-377h340v-245z" />
    <glyph glyph-name="daggerdbl" unicode="&#x2021;" horiz-adv-x="1181" 
d="M1067 -10h-340v-377h-272v377h-340v243h340v603h-340v245h340v377h272v-377h340v-245h-340v-603h340v-243z" />
    <glyph glyph-name="bullet" unicode="&#x2022;" horiz-adv-x="1048" 
d="M858 768q0 -138 -97 -236t-237 -98t-236 98q-98 98 -98 236t98 236t236 98q139 0 237 -98q97 -99 97 -236z" />
    <glyph glyph-name="ellipsis" unicode="&#x2026;" horiz-adv-x="1742" 
d="M1018 0h-295v293h295v-293zM432 0h-295v293h295v-293zM1604 0h-293v293h293v-293z" />
    <glyph glyph-name="perthousand" unicode="&#x2030;" horiz-adv-x="2402" 
d="M2087 283v182q0 102 -89 102t-89 -102v-182q0 -102 90 -103q88 1 88 103zM2302 274q0 -135 -87 -211q-87 -75 -217 -75t-217 76t-87 210v199q0 135 87 212t217 77t217 -77t87 -212v-199zM492 1169v185q0 100 -88 100t-89 -100v-185q1 -100 89 -100t88 100zM1370 283v182
q0 102 -88 102t-88 -102v-182q0 -102 88 -103q88 1 88 103zM1305 1632l-691 -1632h-233q131 313 692 1632h232zM707 1161q0 -135 -87 -211q-86 -76 -216 -76t-217 76t-87 211v199q0 135 87 212t216 77t217 -77t87 -212v-199zM1587 274q0 -135 -87 -211q-87 -75 -217 -75
t-217 76t-87 210v199q0 135 87 212t217 77t217 -77t87 -212v-199z" />
    <glyph glyph-name="guilsinglleft" unicode="&#x2039;" horiz-adv-x="718" 
d="M584 150l-516 512l516 512v-324l-191 -188l191 -189v-323z" />
    <glyph glyph-name="guilsinglright" unicode="&#x203a;" horiz-adv-x="718" 
d="M651 662l-516 -512v323l191 189l-191 188v324z" />
    <glyph glyph-name="fraction" unicode="&#x2044;" horiz-adv-x="428" 
d="M666 1634l-691 -1634h-213l691 1634h213z" />
    <glyph glyph-name="Euro" unicode="&#x20ac;" horiz-adv-x="1404" 
d="M762 -12q-214 0 -377 163q-162 163 -162 394h-155v194h155v156h-155v197h155q0 229 162 393t391 164q125 -1 237 -57t179 -148l-121 -270q-61 115 -205 114q-8 64 -103 64t-161 -64t-65 -155v-41h497l-90 -197h-407v-156h337l-88 -194h-249v-41q1 -96 71 -168t160 -72
t152 49q61 49 77 125h314q-29 -194 -182 -322t-367 -128z" />
    <glyph glyph-name="trademark" unicode="&#x2122;" horiz-adv-x="1900" 
d="M743 1272h-223v-692h-207v692h-221v186h651v-186zM1765 1458v-878h-206v491l-154 -301h-178l-152 301v-491h-209v878h205l244 -457l246 457h204z" />
    <glyph glyph-name="partialdiff" unicode="&#x2202;" horiz-adv-x="1136" 
d="M705 535q0 140 -30 211t-117 71t-113 -42q-15 -24 -23 -43t-11 -62q-5 -72 -5 -144q0 -177 34 -230q34 -52 115 -52q49 0 85 30t42 72q23 49 23 189zM506 1653q238 -1 362 -139t125 -365v-621q0 -51 -4 -133q-10 -174 -123 -291q-114 -116 -318 -116t-331 151
q-61 72 -81 157q-19 86 -19 204t8 188q20 177 103 271q102 116 306 116q108 0 179 -65v202q0 75 -53 140t-174 65t-207 -84q-86 88 -175 174q84 80 178 113t224 33z" />
    <glyph glyph-name="uni2206" unicode="&#x2206;" horiz-adv-x="1302" 
d="M918 244l-261 968l-268 -968h529zM1296 0h-1292l533 1632h227z" />
    <glyph glyph-name="product" unicode="&#x220f;" horiz-adv-x="1402" 
d="M1235 -389h-291v1765h-485v-1765h-291v2023h1067v-2023z" />
    <glyph glyph-name="summation" unicode="&#x2211;" horiz-adv-x="1130" 
d="M1073 -420h-975v230l385 806l-379 789v229h961v-260h-621l285 -629v-268l-297 -639h641v-258z" />
    <glyph glyph-name="radical" unicode="&#x221a;" horiz-adv-x="1265" 
d="M1217 1372h-191l-448 -1372h-220l-354 1069h295l170 -549l342 1110h406v-258z" />
    <glyph glyph-name="infinity" unicode="&#x221e;" horiz-adv-x="1748" 
d="M1372 648q0 60 -37 95t-89 35t-91 -32t-94 -99q39 -47 59 -67t56 -42t78 -22t80 36t38 96zM501 778q-52 0 -89 -35t-37 -95t38 -96t81 -36q73 0 134 64q21 22 60 67q-55 67 -95 99t-92 32zM1636 655q0 -169 -103 -279t-297 -110t-362 191q-172 -193 -364 -193t-296 111
q-103 111 -103 281t103 279t297 109t363 -192q166 192 360 192t299 -109q103 -110 103 -280z" />
    <glyph glyph-name="integral" unicode="&#x222b;" horiz-adv-x="1015" 
d="M895 1403h-100q-145 0 -146 -143v-1299q-1 -178 -109 -276t-288 -99h-133v230h102q143 0 144 143v1298q0 178 108 278q109 99 289 99h133v-231z" />
    <glyph glyph-name="approxequal" unicode="&#x2248;" horiz-adv-x="1249" 
d="M823 233q-101 -1 -211 59t-193 60t-171 -88l-174 172q96 96 173 137t179 41t212 -59q109 -59 192 -59t171 88l173 -172q-98 -98 -174 -138t-177 -41zM822 700q-104 0 -213 60t-193 59q-84 0 -170 -86l-172 172q96 96 171 136t181 40t227 -67q94 -49 177 -49t169 86
l175 -172q-98 -99 -174 -139q-74 -40 -178 -40z" />
    <glyph glyph-name="notequal" unicode="&#x2260;" horiz-adv-x="1241" 
d="M1137 317h-658l-211 -266l-166 127l111 139h-111v254h306l157 195h-463v254h658l211 266l166 -127l-111 -139h111v-254h-306l-157 -195h463v-254z" />
    <glyph glyph-name="lessequal" unicode="&#x2264;" horiz-adv-x="1114" 
d="M977 -14l-840 385v286l840 -383v-288zM977 438l-840 385v238l840 385v-289l-492 -215l492 -217v-287z" />
    <glyph glyph-name="greaterequal" unicode="&#x2265;" horiz-adv-x="1114" 
d="M977 371l-840 -385v288l840 383v-286zM977 823l-840 -385v287l492 217l-492 215v289l840 -385v-238z" />
    <glyph glyph-name="lozenge" unicode="&#x25ca;" horiz-adv-x="1300" 
d="M651 408q119 192 236 389l-236 389l-237 -389q78 -131 237 -389zM649 1649l539 -852l-539 -850l-534 850z" />
    <glyph glyph-name="fi" unicode="&#xfb01;" horiz-adv-x="1339" 
d="M893 1305v327h289v-327h-289zM893 0v1065h289v-1065h-289zM680 1079v-223h-197v-856h-290v856h-119v223h119v236q0 324 309 323h178v-243h-119q-78 0 -78 -129v-187h197z" />
    <glyph glyph-name="fl" unicode="&#xfb02;" horiz-adv-x="1390" 
d="M1176 1634v-1296q0 -90 65 -90h109v-248h-181q-143 0 -213 86t-69 233v1315h289zM680 1079v-223h-197v-856h-290v856h-119v223h119v236q0 324 309 323h178v-243h-119q-78 0 -78 -129v-187h197z" />
    </font>
</defs>
</svg>
