<!-- Generator: Adobe Illustrator 18.1.1, SVG Export Plug-In  -->
<svg version="1.1"
   xmlns="http://www.w3.org/2000/svg" xmlns:xlink="http://www.w3.org/1999/xlink" xmlns:a="http://ns.adobe.com/AdobeSVGViewerExtensions/3.0/"
   x="0px" y="0px" width="533px" height="565.3px" viewBox="0 0 533 565.3" enable-background="new 0 0 533 565.3"
   xml:space="preserve">
<defs>
</defs>
<g opacity="0.15">
  <g>
    <g>
      <rect x="19.8" y="348.7" fill="none" width="72" height="17.7"/>
      <text transform="matrix(1 0 0 1 19.834 361.7197)" fill="#FFFFFF" font-family="'TWSSavory-Medium'" font-size="16.2973">Illustrator</text>
      <rect x="100" y="348.7" fill="none" width="64.9" height="17.7"/>
      <text transform="matrix(1 0 0 1 99.98 361.7197)" fill="#FFFFFF" font-family="'TWSSavory-Medium'" font-size="16.2973">Indesign</text>
      <rect x="172.9" y="348.7" fill="none" width="72.3" height="17.7"/>
      <text transform="matrix(1 0 0 1 172.8594 361.7197)" fill="#FFFFFF" font-family="'TWSSavory-Medium'" font-size="16.2973">Javascript</text>
      <rect x="258.5" y="348.7" fill="none" width="72.3" height="17.7"/>
      <text transform="matrix(1 0 0 1 258.5469 361.7197)" fill="#FFFFFF" font-family="'TWSSavory-Medium'" font-size="16.2973">Node.JS</text>
      <rect x="331.8" y="348.7" fill="none" width="177.1" height="17.7"/>
      <text transform="matrix(1 0 0 1 331.7794 361.7197)" fill="#FFFFFF" font-family="'TWSSavory-Medium'" font-size="16.2973">Functional Programming</text>
    </g>
  </g>
  <g>
    <rect x="67.1" y="448.1" fill="none" width="104" height="17.7"/>
    <text transform="matrix(1 0 0 1 67.0562 461.1123)" fill="#FFFFFF" font-family="'TWSSavory-Medium'" font-size="16.2973">Home Storage</text>
    <rect x="260.2" y="448.1" fill="none" width="112.9" height="17.7"/>
    <text transform="matrix(1 0 0 1 260.2154 461.1123)" fill="#FFFFFF" font-family="'TWSSavory-Medium'" font-size="16.2973">Construction</text>
    <rect x="363.7" y="448.1" fill="none" width="112.9" height="17.7"/>
    <text transform="matrix(1 0 0 1 363.7149 461.1123)" fill="#FFFFFF" font-family="'TWSSavory-Medium'" font-size="16.2973">Manufacturing</text>
    <rect x="175.7" y="448.1" fill="none" width="71.3" height="17.7"/>
    <text transform="matrix(1 0 0 1 175.7496 461.1123)" fill="#FFFFFF" font-family="'TWSSavory-Medium'" font-size="16.2973">Marketing</text>
  </g>
  <g>
    <rect x="28" y="373.6" fill="none" width="136.8" height="17.7"/>
    <text transform="matrix(1 0 0 1 28.0445 386.5684)" fill="#FFFFFF" font-family="'TWSSavory-Medium'" font-size="16.2973">Restaurant Finding</text>
    <rect x="178.8" y="373.6" fill="none" width="71" height="17.7"/>
    <text transform="matrix(1 0 0 1 178.8233 386.5674)" fill="#FFFFFF" font-family="'TWSSavory-Medium'" font-size="16.2973">Chemistry</text>
    <rect x="341.6" y="373.6" fill="none" width="39.9" height="17.7"/>
    <text transform="matrix(1 0 0 1 341.6465 386.5674)" fill="#FFFFFF" font-family="'TWSSavory-Medium'" font-size="16.2973">Store</text>
    <rect x="395.6" y="373.6" fill="none" width="57.6" height="17.7"/>
    <text transform="matrix(1 0 0 1 395.649 386.5684)" fill="#FFFFFF" font-family="'TWSSavory-Medium'" font-size="16.2973">Camera</text>
    <rect x="461.7" y="373.6" fill="none" width="42.6" height="17.7"/>
    <text transform="matrix(1 0 0 1 461.7418 386.5674)" fill="#FFFFFF" font-family="'TWSSavory-Medium'" font-size="16.2973">Video</text>
    <rect x="258.1" y="373.6" fill="none" width="77.3" height="17.7"/>
    <text transform="matrix(1 0 0 1 258.1299 386.5684)" fill="#FFFFFF" font-family="'TWSSavory-Medium'" font-size="16.2973">Monitoring</text>
  </g>
  <g>
    <rect x="160.7" y="423.3" fill="none" width="123.7" height="17.7"/>
    <text transform="matrix(1 0 0 1 160.7227 436.2646)" fill="#FFFFFF" font-family="'TWSSavory-Medium'" font-size="16.2973">Seasonality</text>
    <rect x="255.6" y="423.3" fill="none" width="83.4" height="17.7"/>
    <text transform="matrix(1 0 0 1 255.5616 436.2646)" fill="#FFFFFF" font-family="'TWSSavory-Medium'" font-size="16.2973">Preparation</text>
    <rect x="52" y="423.3" fill="none" width="112.9" height="17.7"/>
    <text transform="matrix(1 0 0 1 51.9986 436.2646)" fill="#FFFFFF" font-family="'TWSSavory-Medium'" font-size="16.2973">Transportation</text>
    <rect x="346.8" y="423.3" fill="none" width="56.1" height="17.7"/>
    <text transform="matrix(1 0 0 1 346.8243 436.2646)" fill="#FFFFFF" font-family="'TWSSavory-Medium'" font-size="16.2973">Sharing</text>
    <rect x="412.4" y="423.3" fill="none" width="69.1" height="17.7"/>
    <text transform="matrix(1 0 0 1 412.4156 436.2646)" fill="#FFFFFF" font-family="'TWSSavory-Medium'" font-size="16.2973">Shopping</text>
  </g>
  <g>
    <g>
      <rect x="205.9" y="522.7" fill="none" width="142.1" height="17.8"/>
      <text transform="matrix(1 0 0 1 205.8897 535.6572)" fill="#FFFFFF" font-family="'TWSSavory-Medium'" font-size="16.2973">Ingredient Spotting</text>
      <rect x="359" y="522.7" fill="none" width="50.1" height="17.8"/>
      <text transform="matrix(1 0 0 1 359.0425 535.6572)" fill="#FFFFFF" font-family="'TWSSavory-Medium'" font-size="16.2973">Design</text>
      <rect x="137.6" y="522.7" fill="none" width="56.7" height="17.8"/>
      <text transform="matrix(1 0 0 1 137.6368 535.6572)" fill="#FFFFFF" font-family="'TWSSavory-Medium'" font-size="16.2973">Delivery</text>
    </g>
  </g>
  <g>
    <g>
      <rect x="261.2" y="547.5" fill="none" width="124.3" height="17.8"/>
      <text transform="matrix(1 0 0 1 261.2447 560.5029)" fill="#FFFFFF" font-family="'TWSSavory-Medium'" font-size="16.2973">Hyperlocalization</text>
      <rect x="166" y="547.5" fill="none" width="85.8" height="17.8"/>
      <text transform="matrix(1 0 0 1 166.0464 560.5029)" fill="#FFFFFF" font-family="'TWSSavory-Medium'" font-size="16.2973">Consumtion</text>
    </g>
  </g>
  <g>
    <g>
      <rect x="271.8" y="473" fill="none" width="59" height="17.7"/>
      <text transform="matrix(1 0 0 1 271.7706 485.9619)" fill="#FFFFFF" font-family="'TWSSavory-Medium'" font-size="16.2973">Refining</text>
      <rect x="209.8" y="473" fill="none" width="49.9" height="17.8"/>
      <text transform="matrix(1 0 0 1 209.7593 485.96)" fill="#FFFFFF" font-family="'TWSSavory-Medium'" font-size="16.2973">Health</text>
      <rect x="348.8" y="473" fill="none" width="100.1" height="17.8"/>
      <text transform="matrix(1 0 0 1 348.8218 485.9619)" fill="#FFFFFF" font-family="'TWSSavory-Medium'" font-size="16.2973">Refridgeration</text>
      <rect x="83.3" y="473" fill="none" width="113.4" height="17.8"/>
      <text transform="matrix(1 0 0 1 83.3331 485.96)" fill="#FFFFFF" font-family="'TWSSavory-Medium'" font-size="16.2973">Recommending</text>
    </g>
  </g>
  <g>
    <g>
      <rect x="216" y="497.8" fill="none" width="63.3" height="17.8"/>
      <text transform="matrix(1 0 0 1 215.9849 510.8096)" fill="#FFFFFF" font-family="'TWSSavory-Medium'" font-size="16.2973">Tracking</text>
      <rect x="349.4" y="497.8" fill="none" width="82.1" height="17.8"/>
      <text transform="matrix(1 0 0 1 349.4 510.8076)" fill="#FFFFFF" font-family="'TWSSavory-Medium'" font-size="16.2973">3D-Printing</text>
      <rect x="100" y="497.8" fill="none" width="64.9" height="17.8"/>
      <text transform="matrix(1 0 0 1 99.98 510.8076)" fill="#FFFFFF" font-family="'TWSSavory-Medium'" font-size="16.2973">Nutrition</text>
      <rect x="287" y="497.8" fill="none" width="53.1" height="17.8"/>
      <text transform="matrix(1 0 0 1 286.9932 510.8086)" fill="#FFFFFF" font-family="'TWSSavory-Medium'" font-size="16.2973">Service</text>
      <rect x="174.6" y="497.8" fill="none" width="36" height="17.8"/>
      <text transform="matrix(1 0 0 1 174.629 510.8086)" fill="#FFFFFF" font-family="'TWSSavory-Medium'" font-size="16.2973">Gifts</text>
    </g>
  </g>
  <g>
    <rect x="110.8" y="398.4" fill="none" width="91.8" height="17.7"/>
    <text transform="matrix(1 0 0 1 110.7569 411.417)" fill="#FFFFFF" font-family="'TWSSavory-Medium'" font-size="16.2973">Conservation</text>
    <rect x="40" y="398.4" fill="none" width="63.6" height="17.7"/>
    <text transform="matrix(1 0 0 1 39.9547 411.417)" fill="#FFFFFF" font-family="'TWSSavory-Medium'" font-size="16.2973">Tradition</text>
    <rect x="369.2" y="398.4" fill="none" width="80.2" height="17.7"/>
    <text transform="matrix(1 0 0 1 369.2476 411.417)" fill="#FFFFFF" font-family="'TWSSavory-Medium'" font-size="16.2973">Agriculture</text>
    <rect x="455.2" y="398.4" fill="none" width="42.9" height="17.7"/>
    <text transform="matrix(1 0 0 1 455.1617 411.417)" fill="#FFFFFF" font-family="'TWSSavory-Medium'" font-size="16.2973">Photo</text>
    <rect x="294.7" y="398.4" fill="none" width="68.8" height="17.7"/>
    <text transform="matrix(1 0 0 1 294.7012 411.417)" fill="#FFFFFF" font-family="'TWSSavory-Medium'" font-size="16.2973">Inventory</text>
    <rect x="205.3" y="398.4" fill="none" width="84.2" height="17.7"/>
    <text transform="matrix(1 0 0 1 205.313 411.417)" fill="#FFFFFF" font-family="'TWSSavory-Medium'" font-size="16.2973">Information</text>
  </g>
  <g>
    <g>
      <rect x="46.4" y="125.1" fill="none" width="156.8" height="17.8"/>
      <text transform="matrix(1 0 0 1 46.4014 138.0825)" fill="#FFFFFF" font-family="'TWSSavory-Medium'" font-size="16.2973">Interaction Design</text>
      <rect x="194.7" y="125.1" fill="none" width="122.6" height="17.8"/>
      <text transform="matrix(1 0 0 1 194.6505 138.0825)" fill="#FFFFFF" font-family="'TWSSavory-Medium'" font-size="16.2973">Business Experts</text>
      <rect x="326.7" y="125.1" fill="none" width="161.9" height="17.8"/>
      <text transform="matrix(1 0 0 1 326.6905 138.0825)" fill="#FFFFFF" font-family="'TWSSavory-Medium'" font-size="16.2973">Electronical Engineers</text>
    </g>
  </g>
  <g>
    <g>
      <rect x="286.6" y="100.2" fill="none" width="59.8" height="17.8"/>
      <text transform="matrix(1 0 0 1 286.564 113.2378)" fill="#FFFFFF" font-family="'TWSSavory-Medium'" font-size="16.2973">Hustlers</text>
      <rect x="357.6" y="100.2" fill="none" width="111.1" height="17.8"/>
      <text transform="matrix(1 0 0 1 357.6114 113.2349)" fill="#FFFFFF" font-family="'TWSSavory-Medium'" font-size="16.2973">Presentating</text>
      <rect x="77.1" y="100.2" fill="none" width="200.5" height="17.8"/>
      <text transform="matrix(1 0 0 1 77.0782 113.2383)" fill="#FFFFFF" font-family="'TWSSavory-Medium'" font-size="16.2973">Full Stack Web Developers</text>
    </g>
  </g>
  <g>
    <rect x="248" y="50.6" fill="none" width="65" height="17.8"/>
    <text transform="matrix(1 0 0 1 247.9747 63.543)" fill="#FFFFFF" font-family="'TWSSavory-Medium'" font-size="16.2973">Berlin</text>
  </g>
  <g>
    <rect x="232" y="25.7" fill="none" width="65" height="17.8"/>
    <text transform="matrix(1 0 0 1 231.9532 38.7031)" fill="#FFFFFF" font-family="'TWSSavory-Medium'" font-size="16.2973">Hacks</text>
  </g>
  <g>
    <rect x="223.1" y="0.9" fill="none" width="65" height="17.8"/>
    <text transform="matrix(1 0 0 1 223.0982 13.8525)" fill="#FFFFFF" font-family="'TWSSavory-Medium'" font-size="16.2973">Food</text>
  </g>
  <g>
    <g>
      <rect x="121.8" y="75.4" fill="none" width="48.2" height="17.8"/>
      <text transform="matrix(1 0 0 1 121.8423 88.3955)" fill="#FFFFFF" font-family="'TWSSavory-Medium'" font-size="16.2973">Coders</text>
      <rect x="181.9" y="75.4" fill="none" width="71.1" height="17.8"/>
      <text transform="matrix(1 0 0 1 181.9048 88.3877)" fill="#FFFFFF" font-family="'TWSSavory-Medium'" font-size="16.2973">Designers</text>
      <rect x="263.9" y="75.4" fill="none" width="65" height="17.8"/>
      <text transform="matrix(1 0 0 1 263.9166 88.3877)" fill="#FFFFFF" font-family="'TWSSavory-Medium'" font-size="16.2973">Artists</text>
      <rect x="323.7" y="75.4" fill="none" width="78.3" height="17.8"/>
      <text transform="matrix(1 0 0 1 323.6636 88.3877)" fill="#FFFFFF" font-family="'TWSSavory-Medium'" font-size="16.2973">Journalists</text>
    </g>
  </g>
  <g>
    <rect x="30.6" y="149.9" fill="none" width="72.9" height="17.8"/>
    <text transform="matrix(1 0 0 1 30.5992 162.9375)" fill="#FFFFFF" font-family="'TWSSavory-Medium'" font-size="16.2973">C++</text>
    <rect x="72" y="149.9" fill="none" width="84.4" height="17.8"/>
    <text transform="matrix(1 0 0 1 71.9869 162.9375)" fill="#FFFFFF" font-family="'TWSSavory-Medium'" font-size="16.2973">Open Data</text>
    <rect x="168.9" y="149.9" fill="none" width="113.7" height="17.8"/>
    <text transform="matrix(1 0 0 1 168.8755 162.9375)" fill="#FFFFFF" font-family="'TWSSavory-Medium'" font-size="16.2973">Statistical Data</text>
    <rect x="297.5" y="149.9" fill="none" width="50.5" height="17.8"/>
    <text transform="matrix(1 0 0 1 297.4644 162.9375)" fill="#FFFFFF" font-family="'TWSSavory-Medium'" font-size="16.2973">Docker</text>
    <rect x="369.3" y="149.9" fill="none" width="50.5" height="17.8"/>
    <text transform="matrix(1 0 0 1 369.3438 162.9375)" fill="#FFFFFF" font-family="'TWSSavory-Medium'" font-size="16.2973">Tutum</text>
    <rect x="439" y="149.9" fill="none" width="36" height="17.8"/>
    <text transform="matrix(1 0 0 1 439.0015 162.8711)" fill="#FFFFFF" font-family="'TWSSavory-Medium'" font-size="16.2973">AWS</text>
    <rect x="494.6" y="149.9" fill="none" width="11.2" height="17.8"/>
    <text transform="matrix(1 0 0 1 494.5523 162.9375)" fill="#FFFFFF" font-family="'TWSSavory-Medium'" font-size="16.2973">C</text>
  </g>
  <g>
    <rect x="0" y="249.3" fill="none" width="91.9" height="17.8"/>
    <text transform="matrix(1 0 0 1 5.496601e-04 262.3286)" fill="#FFFFFF" font-family="'TWSSavory-Medium'" font-size="16.2973">Data Mining</text>
    <rect x="117.5" y="249.3" fill="none" width="153.6" height="17.8"/>
    <text transform="matrix(1 0 0 1 117.5494 262.3286)" fill="#FFFFFF" font-family="'TWSSavory-Medium'" font-size="16.2973">Artificial Intelligence</text>
    <rect x="292.6" y="249.3" fill="none" width="153.6" height="17.8"/>
    <text transform="matrix(1 0 0 1 292.5792 262.3286)" fill="#FFFFFF" font-family="'TWSSavory-Medium'" font-size="16.2973">Neuronal Networks</text>
    <rect x="453.2" y="249.3" fill="none" width="38.4" height="17.8"/>
    <text transform="matrix(1 0 0 1 453.2379 262.3286)" fill="#FFFFFF" font-family="'TWSSavory-Medium'" font-size="16.2973">Julia</text>
    <rect x="508.4" y="249.3" fill="none" width="22.3" height="17.8"/>
    <text transform="matrix(1 0 0 1 508.3707 262.3286)" fill="#FFFFFF" font-family="'TWSSavory-Medium'" font-size="16.2973">GO</text>
  </g>
  <g>
    <rect x="14.6" y="174.8" fill="none" width="72.9" height="17.8"/>
    <text transform="matrix(1 0 0 1 14.6148 187.7847)" fill="#FFFFFF" font-family="'TWSSavory-Medium'" font-size="16.2973">Tinder UI</text>
    <rect x="172.8" y="174.8" fill="none" width="94.7" height="17.8"/>
    <text transform="matrix(1 0 0 1 172.8004 187.7847)" fill="#FFFFFF" font-family="'TWSSavory-Medium'" font-size="16.2973">Unity Engine</text>
    <rect x="99.9" y="174.8" fill="none" width="61.7" height="17.8"/>
    <text transform="matrix(1 0 0 1 99.9229 187.7847)" fill="#FFFFFF" font-family="'TWSSavory-Medium'" font-size="16.2973">Sublime</text>
    <rect x="280.5" y="174.8" fill="none" width="32.6" height="17.8"/>
    <text transform="matrix(1 0 0 1 280.4698 187.7847)" fill="#FFFFFF" font-family="'TWSSavory-Medium'" font-size="16.2973">Java</text>
    <rect x="324.6" y="174.8" fill="none" width="34" height="17.8"/>
    <text transform="matrix(1 0 0 1 324.6485 187.7847)" fill="#FFFFFF" font-family="'TWSSavory-Medium'" font-size="16.2973">Jade</text>
    <rect x="372.4" y="174.8" fill="none" width="34" height="17.8"/>
    <text transform="matrix(1 0 0 1 372.4092 187.7847)" fill="#FFFFFF" font-family="'TWSSavory-Medium'" font-size="16.2973">SVG</text>
    <rect x="415.3" y="174.8" fill="none" width="61.3" height="17.8"/>
    <text transform="matrix(1 0 0 1 415.2632 187.7822)" fill="#FFFFFF" font-family="'TWSSavory-Medium'" font-size="16.2973">Famo.us</text>
    <rect x="491.6" y="174.8" fill="none" width="24.8" height="17.8"/>
    <text transform="matrix(1 0 0 1 491.6002 187.7822)" fill="#FFFFFF" font-family="'TWSSavory-Medium'" font-size="16.2973">C#</text>
  </g>
  <g>
    <rect x="7.6" y="199.6" fill="none" width="46.1" height="17.8"/>
    <text transform="matrix(1 0 0 1 7.5587 212.6328)" fill="#FFFFFF" font-family="'TWSSavory-Medium'" font-size="16.2973">Stylus</text>
    <rect x="58.7" y="199.6" fill="none" width="83.4" height="17.8"/>
    <text transform="matrix(1 0 0 1 58.6797 212.6328)" fill="#FFFFFF" font-family="'TWSSavory-Medium'" font-size="16.2973">Cinema 4D</text>
    <rect x="148.9" y="199.6" fill="none" width="68.4" height="17.8"/>
    <text transform="matrix(1 0 0 1 148.8506 212.6328)" fill="#FFFFFF" font-family="'TWSSavory-Medium'" font-size="16.2973">Bootstrap</text>
    <rect x="226.8" y="199.6" fill="none" width="303.3" height="17.8"/>
    <text transform="matrix(1 0 0 1 226.7891 212.6328)" fill="#FFFFFF" font-family="'TWSSavory-Medium'" font-size="16.2973">Real Time Social Media Stream Analysis</text>
  </g>
  <g>
    <rect x="1.9" y="224.5" fill="none" width="137.8" height="17.8"/>
    <text transform="matrix(1 0 0 1 1.8853 237.48)" fill="#FFFFFF" font-family="'TWSSavory-Medium'" font-size="16.2973">Semantic Analysis</text>
    <rect x="150.7" y="224.5" fill="none" width="104.9" height="17.8"/>
    <text transform="matrix(1 0 0 1 150.711 237.48)" fill="#FFFFFF" font-family="'TWSSavory-Medium'" font-size="16.2973">Deep Learning</text>
    <rect x="273" y="224.5" fill="none" width="145.5" height="17.8"/>
    <text transform="matrix(1 0 0 1 273.0093 237.48)" fill="#FFFFFF" font-family="'TWSSavory-Medium'" font-size="16.2973">Object Recognition</text>
    <rect x="426.7" y="224.5" fill="none" width="102.8" height="17.8"/>
    <text transform="matrix(1 0 0 1 426.6627 237.48)" fill="#FFFFFF" font-family="'TWSSavory-Medium'" font-size="16.2973">Data Scraping</text>
  </g>
  <g>
    <g>
      <rect x="454.4" y="299" fill="none" width="78.6" height="17.7"/>
      <text transform="matrix(1 0 0 1 454.4478 312.0234)" fill="#FFFFFF" font-family="'TWSSavory-Medium'" font-size="16.2973">Bootstrap</text>
      <rect x="8.1" y="299" fill="none" width="92.4" height="17.8"/>
      <text transform="matrix(1 0 0 1 8.0787 312.0244)" fill="#FFFFFF" font-family="'TWSSavory-Medium'" font-size="16.2973">After Effects</text>
      <rect x="108.3" y="299" fill="none" width="50.4" height="17.8"/>
      <text transform="matrix(1 0 0 1 108.2686 312.0244)" fill="#FFFFFF" font-family="'TWSSavory-Medium'" font-size="16.2973">Marvel</text>
      <rect x="172.4" y="299" fill="none" width="63.6" height="17.8"/>
      <text transform="matrix(1 0 0 1 172.3555 312.0244)" fill="#FFFFFF" font-family="'TWSSavory-Medium'" font-size="16.2973">React.JS</text>
      <rect x="248.3" y="299" fill="none" width="52.2" height="17.8"/>
      <text transform="matrix(1 0 0 1 248.313 312.0244)" fill="#FFFFFF" font-family="'TWSSavory-Medium'" font-size="16.2973">Python</text>
      <rect x="314" y="299" fill="none" width="63.5" height="17.8"/>
      <text transform="matrix(1 0 0 1 314.0142 312.0244)" fill="#FFFFFF" font-family="'TWSSavory-Medium'" font-size="16.2973">WebRTC</text>
      <rect x="392.2" y="299" fill="none" width="45.8" height="17.8"/>
      <text transform="matrix(1 0 0 1 392.191 312.0244)" fill="#FFFFFF" font-family="'TWSSavory-Medium'" font-size="16.2973">HTML</text>
    </g>
  </g>
  <g>
    <g>
      <rect x="1.8" y="274.2" fill="none" width="69.9" height="17.8"/>
      <text transform="matrix(1 0 0 1 1.8365 287.1738)" fill="#FFFFFF" font-family="'TWSSavory-Medium'" font-size="16.2973">Bluetooth</text>
      <rect x="82.3" y="274.2" fill="none" width="41.8" height="17.8"/>
      <text transform="matrix(1 0 0 1 82.3262 287.1738)" fill="#FFFFFF" font-family="'TWSSavory-Medium'" font-size="16.2973">WIFI</text>
      <rect x="134.9" y="274.2" fill="none" width="31" height="17.8"/>
      <text transform="matrix(1 0 0 1 134.8702 287.1738)" fill="#FFFFFF" font-family="'TWSSavory-Medium'" font-size="16.2973">NFC</text>
      <rect x="179.8" y="274.2" fill="none" width="61.8" height="17.8"/>
      <text transform="matrix(1 0 0 1 179.774 287.1738)" fill="#FFFFFF" font-family="'TWSSavory-Medium'" font-size="16.2973">IBacon</text>
      <rect x="244" y="274.2" fill="none" width="30.9" height="17.8"/>
      <text transform="matrix(1 0 0 1 244.0455 287.1738)" fill="#FFFFFF" font-family="'TWSSavory-Medium'" font-size="16.2973">CAD</text>
      <rect x="286.1" y="274.2" fill="none" width="73.6" height="17.8"/>
      <text transform="matrix(1 0 0 1 286.0948 287.1738)" fill="#FFFFFF" font-family="'TWSSavory-Medium'" font-size="16.2973">Rendering</text>
      
        <rect x="410.9" y="274.2" transform="matrix(1 2.874489e-03 -2.874489e-03 1 0.8156 -1.2858)" fill="none" width="73.6" height="17.8"/>
      <text transform="matrix(1 0 0 1 410.9254 287.0693)" fill="#FFFFFF" font-family="'TWSSavory-Medium'" font-size="16.2973">LycheeJS</text>
      <rect x="493.6" y="274.1" fill="none" width="34.5" height="17.8"/>
      <text transform="matrix(1 0 0 1 493.647 287.1162)" fill="#FFFFFF" font-family="'TWSSavory-Medium'" font-size="16.2973">APIs</text>
      <rect x="366.1" y="274.2" fill="none" width="37.2" height="17.8"/>
      <text transform="matrix(1 0 0 1 366.1329 287.1738)" fill="#FFFFFF" font-family="'TWSSavory-Medium'" font-size="16.2973">CSS</text>
    </g>
  </g>
  <g>
    <g>
      <rect x="12.3" y="323.9" fill="none" width="59.5" height="17.8"/>
      <text transform="matrix(1 0 0 1 12.2715 336.8721)" fill="#FFFFFF" font-family="'TWSSavory-Medium'" font-size="16.2973">Keynote</text>
      <rect x="78.7" y="323.9" fill="none" width="75.1" height="17.8"/>
      <text transform="matrix(1 0 0 1 78.6949 336.8721)" fill="#FFFFFF" font-family="'TWSSavory-Medium'" font-size="16.2973">Photoshop</text>
      <rect x="165.1" y="323.9" fill="none" width="40.8" height="17.8"/>
      <text transform="matrix(1 0 0 1 165.0591 336.8721)" fill="#FFFFFF" font-family="'TWSSavory-Medium'" font-size="16.2973">Muse</text>
      <rect x="213.4" y="323.9" fill="none" width="91.4" height="17.8"/>
      <text transform="matrix(1 0 0 1 213.3731 336.8721)" fill="#FFFFFF" font-family="'TWSSavory-Medium'" font-size="16.2973">Google Docs</text>
      <rect x="318.8" y="323.9" fill="none" width="98.2" height="17.8"/>
      <text transform="matrix(1 0 0 1 318.8067 336.8721)" fill="#FFFFFF" font-family="'TWSSavory-Medium'" font-size="16.2973">Spreadsheets</text>
      <rect x="431.3" y="323.9" fill="none" width="37.8" height="17.8"/>
      <text transform="matrix(1 0 0 1 431.2574 336.8721)" fill="#FFFFFF" font-family="'TWSSavory-Medium'" font-size="16.2973">Prezi</text>
      <rect x="478.8" y="323.9" fill="none" width="37.8" height="17.8"/>
      <text transform="matrix(1 0 0 1 478.7701 336.8701)" fill="#FFFFFF" font-family="'TWSSavory-Medium'" font-size="16.2973">Maya</text>
    </g>
  </g>
</g>
</svg>
