<!-- Generator: Adobe Illustrator 18.1.1, SVG Export Plug-In  -->
<svg version="1.1"
   xmlns="http://www.w3.org/2000/svg" xmlns:xlink="http://www.w3.org/1999/xlink" xmlns:a="http://ns.adobe.com/AdobeSVGViewerExtensions/3.0/"
   x="0px" y="0px" width="432.5px" height="826.6px" viewBox="0 0 432.5 826.6" enable-background="new 0 0 432.5 826.6"
   xml:space="preserve">
<defs>
</defs>
<g opacity="0.15">
  <rect x="230.9" y="462.9" fill="none" width="67.9" height="16.7"/>
  <text transform="matrix(1 0 0 1 230.9132 475.124)" fill="#FFFFFF" font-family="'TWSSavory-Medium'" font-size="15.3532">Illustrator</text>
  <rect x="231.2" y="486.3" fill="none" width="61.1" height="16.7"/>
  <text transform="matrix(1 0 0 1 231.2462 498.502)" fill="#FFFFFF" font-family="'TWSSavory-Medium'" font-size="15.3532">Indesign</text>
  <rect x="299.9" y="486.3" fill="none" width="68.1" height="16.7"/>
  <text transform="matrix(1 0 0 1 299.9035 498.502)" fill="#FFFFFF" font-family="'TWSSavory-Medium'" font-size="15.3532">Javascript</text>
  <rect x="364.4" y="462.9" fill="none" width="68.1" height="16.7"/>
  <text transform="matrix(1 0 0 1 364.4425 475.124)" fill="#FFFFFF" font-family="'TWSSavory-Medium'" font-size="15.3532">Node.JS</text>
  <rect x="199.5" y="602.9" fill="none" width="98" height="16.7"/>
  <text transform="matrix(1 0 0 1 199.5109 615.1553)" fill="#FFFFFF" font-family="'TWSSavory-Medium'" font-size="15.3532">Home Storage</text>
  <rect x="309.5" y="602.9" fill="none" width="106.3" height="16.7"/>
  <text transform="matrix(1 0 0 1 309.549 615.1543)" fill="#FFFFFF" font-family="'TWSSavory-Medium'" font-size="15.3532">Construction</text>
  <rect x="210.4" y="579.3" fill="none" width="106.3" height="16.7"/>
  <text transform="matrix(1 0 0 1 210.3956 591.5156)" fill="#FFFFFF" font-family="'TWSSavory-Medium'" font-size="15.3532">Manufacturing</text>
  <rect x="184.7" y="626.7" fill="none" width="67.2" height="16.7"/>
  <text transform="matrix(1 0 0 1 184.6583 638.8926)" fill="#FFFFFF" font-family="'TWSSavory-Medium'" font-size="15.3532">Marketing</text>
  <rect x="218.1" y="556.1" fill="none" width="128.9" height="16.7"/>
  <text transform="matrix(1 0 0 1 218.1466 568.3066)" fill="#FFFFFF" font-family="'TWSSavory-Medium'" font-size="15.3532">Restaurant Finding</text>
  <g>
    <rect x="5.9" y="788.9" fill="none" width="66.9" height="16.7"/>
    <text transform="matrix(1 0 0 1 5.9259 801.1855)" fill="#FFFFFF" font-family="'TWSSavory-Medium'" font-size="15.3532">Chemistry</text>
  </g>
  <rect x="356.9" y="556.8" fill="none" width="54.2" height="16.7"/>
  <text transform="matrix(1 0 0 1 356.9318 569.0264)" fill="#FFFFFF" font-family="'TWSSavory-Medium'" font-size="15.3532">Camera</text>
  <rect x="340.7" y="532.7" fill="none" width="72.8" height="16.7"/>
  <text transform="matrix(1 0 0 1 340.672 544.9287)" fill="#FFFFFF" font-family="'TWSSavory-Medium'" font-size="15.3532">Monitoring</text>
  <rect x="326" y="579.5" fill="none" width="78.6" height="16.7"/>
  <text transform="matrix(1 0 0 1 326.0246 591.7461)" fill="#FFFFFF" font-family="'TWSSavory-Medium'" font-size="15.3532">Preparation</text>
  <rect x="224.9" y="531.7" fill="none" width="106.3" height="16.7"/>
  <text transform="matrix(1 0 0 1 224.8888 543.9111)" fill="#FFFFFF" font-family="'TWSSavory-Medium'" font-size="15.3532">Transportation</text>
  <rect x="332.5" y="627.2" fill="none" width="52.8" height="16.7"/>
  <text transform="matrix(1 0 0 1 332.5148 639.4014)" fill="#FFFFFF" font-family="'TWSSavory-Medium'" font-size="15.3532">Sharing</text>
  <rect x="169" y="649.8" fill="none" width="65.1" height="16.7"/>
  <text transform="matrix(1 0 0 1 168.9865 662.0098)" fill="#FFFFFF" font-family="'TWSSavory-Medium'" font-size="15.3532">Shopping</text>
  <g>
    <rect x="14.5" y="766.5" fill="none" width="133.9" height="16.7"/>
    <text transform="matrix(1 0 0 1 14.5197 778.748)" fill="#FFFFFF" font-family="'TWSSavory-Medium'" font-size="15.3532">Ingredient Spotting</text>
  </g>
  <g>
    <rect x="284.3" y="721.5" fill="none" width="47.2" height="16.7"/>
    <text transform="matrix(1 0 0 1 284.3214 733.7168)" fill="#FFFFFF" font-family="'TWSSavory-Medium'" font-size="15.3532">Design</text>
  </g>
  <g>
    <rect x="227.5" y="721.5" fill="none" width="53.4" height="16.7"/>
    <text transform="matrix(1 0 0 1 227.5187 733.7168)" fill="#FFFFFF" font-family="'TWSSavory-Medium'" font-size="15.3532">Delivery</text>
  </g>
  <g>
    <rect x="168" y="766.5" fill="none" width="117.1" height="16.7"/>
    <text transform="matrix(1 0 0 1 167.964 778.7178)" fill="#FFFFFF" font-family="'TWSSavory-Medium'" font-size="15.3532">Hyperlocalization</text>
  </g>
  <g>
    <rect x="230.5" y="744.9" fill="none" width="80.9" height="16.7"/>
    <text transform="matrix(1 0 0 1 230.546 757.124)" fill="#FFFFFF" font-family="'TWSSavory-Medium'" font-size="15.3532">Consumtion</text>
  </g>
  <g>
    <rect x="203.9" y="674.7" fill="none" width="55.6" height="16.7"/>
    <text transform="matrix(1 0 0 1 203.9035 686.9014)" fill="#FFFFFF" font-family="'TWSSavory-Medium'" font-size="15.3532">Refining</text>
  </g>
  <g>
    <rect x="150.2" y="674.7" fill="none" width="47" height="16.7"/>
    <text transform="matrix(1 0 0 1 150.1613 686.8984)" fill="#FFFFFF" font-family="'TWSSavory-Medium'" font-size="15.3532">Health</text>
  </g>
  <g>
    <rect x="267.1" y="674.7" fill="none" width="94.3" height="16.7"/>
    <text transform="matrix(1 0 0 1 267.1408 686.9004)" fill="#FFFFFF" font-family="'TWSSavory-Medium'" font-size="15.3532">Refridgeration</text>
  </g>
  <g>
    <rect x="119.2" y="721.4" fill="none" width="106.8" height="16.7"/>
    <text transform="matrix(1 0 0 1 119.1749 733.6553)" fill="#FFFFFF" font-family="'TWSSavory-Medium'" font-size="15.3532">Recommending</text>
  </g>
  <g>
    <rect x="165.2" y="744.5" fill="none" width="59.7" height="16.7"/>
    <text transform="matrix(1 0 0 1 165.1974 756.7783)" fill="#FFFFFF" font-family="'TWSSavory-Medium'" font-size="15.3532">Tracking</text>
  </g>
  <g>
    <rect x="271.3" y="698.1" fill="none" width="77.4" height="16.7"/>
    <text transform="matrix(1 0 0 1 271.2824 710.3076)" fill="#FFFFFF" font-family="'TWSSavory-Medium'" font-size="15.3532">3D-Printing</text>
  </g>
  <g>
    <rect x="134.9" y="698.1" fill="none" width="61.1" height="16.7"/>
    <text transform="matrix(1 0 0 1 134.8576 710.3076)" fill="#FFFFFF" font-family="'TWSSavory-Medium'" font-size="15.3532">Nutrition</text>
  </g>
  <g>
    <rect x="210.7" y="698.1" fill="none" width="50" height="16.7"/>
    <text transform="matrix(1 0 0 1 210.6915 710.3086)" fill="#FFFFFF" font-family="'TWSSavory-Medium'" font-size="15.3532">Service</text>
  </g>
  <g>
    <rect x="70.2" y="744.4" fill="none" width="86.5" height="16.7"/>
    <text transform="matrix(1 0 0 1 70.2003 756.6191)" fill="#FFFFFF" font-family="'TWSSavory-Medium'" font-size="15.3532">Conservation</text>
  </g>
  <rect x="316.8" y="650.3" fill="none" width="59.9" height="16.7"/>
  <text transform="matrix(1 0 0 1 316.7638 662.5684)" fill="#FFFFFF" font-family="'TWSSavory-Medium'" font-size="15.3532">Tradition</text>
  <rect x="236.2" y="650.7" fill="none" width="75.6" height="16.7"/>
  <text transform="matrix(1 0 0 1 236.2101 662.9277)" fill="#FFFFFF" font-family="'TWSSavory-Medium'" font-size="15.3532">Agriculture</text>
  <rect x="261.1" y="627" fill="none" width="64.8" height="16.7"/>
  <text transform="matrix(1 0 0 1 261.1125 639.1904)" fill="#FFFFFF" font-family="'TWSSavory-Medium'" font-size="15.3532">Inventory</text>
  <g>
    <rect x="0" y="809.8" fill="none" width="26.5" height="16.7"/>
    <text transform="matrix(1 0 0 1 1.411438e-04 822.0771)" fill="#FFFFFF" font-family="'TWSSavory-Medium'" font-size="15.3532">etc.</text>
  </g>
  <g>
    <rect x="153.7" y="789.2" fill="none" width="79.3" height="16.7"/>
    <text transform="matrix(1 0 0 1 153.7052 801.3965)" fill="#FFFFFF" font-family="'TWSSavory-Medium'" font-size="15.3532">Information</text>
  </g>
  <rect x="161.7" y="183.5" fill="none" width="147.7" height="16.8"/>
  <text transform="matrix(1 0 0 1 161.7091 195.7476)" fill="#FFFFFF" font-family="'TWSSavory-Medium'" font-size="15.3532">Interaction Design</text>
  <rect x="148.9" y="160.9" fill="none" width="115.5" height="16.8"/>
  <text transform="matrix(1 0 0 1 148.8751 173.0889)" fill="#FFFFFF" font-family="'TWSSavory-Medium'" font-size="15.3532">Business Experts</text>
  <rect x="286.3" y="160.9" fill="none" width="55.1" height="16.8"/>
  <text transform="matrix(1 0 0 1 286.2648 173.0889)" fill="#FFFFFF" font-family="'TWSSavory-Medium'" font-size="15.3532">Farmers</text>
  <rect x="212.8" y="206.9" fill="none" width="152.6" height="16.8"/>
  <text transform="matrix(1 0 0 1 212.8429 219.125)" fill="#FFFFFF" font-family="'TWSSavory-Medium'" font-size="15.3532">Electronical Engineers</text>
  <rect x="171.1" y="206.9" fill="none" width="26" height="16.8"/>
  <text transform="matrix(1 0 0 1 171.1232 219.125)" fill="#FFFFFF" font-family="'TWSSavory-Medium'" font-size="15.3532">You</text>
  <rect x="299.5" y="183.5" fill="none" width="56.3" height="16.8"/>
  <text transform="matrix(1 0 0 1 299.4826 195.7197)" fill="#FFFFFF" font-family="'TWSSavory-Medium'" font-size="15.3532">Hustlers</text>
  <rect x="137.3" y="138.2" fill="none" width="104.7" height="16.8"/>
  <text transform="matrix(1 0 0 1 137.3117 150.3999)" fill="#FFFFFF" font-family="'TWSSavory-Medium'" font-size="15.3532">Presentating</text>
  <rect x="227.9" y="138.2" fill="none" width="104.7" height="16.8"/>
  <text transform="matrix(1 0 0 1 227.9464 150.3999)" fill="#FFFFFF" font-family="'TWSSavory-Medium'" font-size="15.3532">Data Scientists</text>
  <rect x="126.8" y="116" fill="none" width="188.9" height="16.8"/>
  <text transform="matrix(1 0 0 1 126.7697 128.2842)" fill="#FFFFFF" font-family="'TWSSavory-Medium'" font-size="15.3532">Full Stack Web Developers</text>
  <rect x="198.8" y="44.6" fill="none" width="61.2" height="16.8"/>
  <text transform="matrix(1 0 0 1 198.7501 56.8047)" fill="#FFFFFF" font-family="'TWSSavory-Medium'" font-size="15.3532">Berlin</text>
  <rect x="142.1" y="44.6" fill="none" width="61.2" height="16.8"/>
  <text transform="matrix(1 0 0 1 142.1163 56.8047)" fill="#FFFFFF" font-family="'TWSSavory-Medium'" font-size="15.3532">Hacks</text>
  <rect x="95.8" y="44.6" fill="none" width="34.6" height="16.8"/>
  <text transform="matrix(1 0 0 1 95.8302 56.8047)" fill="#FFFFFF" font-family="'TWSSavory-Medium'" font-size="15.3532">Food</text>
  <rect x="101.4" y="22.4" fill="none" width="33.9" height="16.8"/>
  <text transform="matrix(1 0 0 1 101.4044 34.6562)" fill="#FFFFFF" font-family="'TWSSavory-Medium'" font-size="15.3532">April</text>
  <rect x="154.6" y="22.4" fill="none" width="33.9" height="16.8"/>
  <text transform="matrix(1 0 0 1 154.6339 34.6562)" fill="#FFFFFF" font-family="'TWSSavory-Medium'" font-size="15.3532">2016</text>
  <rect x="115.8" y="0.8" fill="none" width="35.4" height="16.8"/>
  <text transform="matrix(1 0 0 1 115.7912 13.0503)" fill="#FFFFFF" font-family="'TWSSavory-Medium'" font-size="15.3532">01.03</text>
  <rect x="181.7" y="66.6" fill="none" width="45.5" height="16.8"/>
  <text transform="matrix(1 0 0 1 181.7081 78.8047)" fill="#FFFFFF" font-family="'TWSSavory-Medium'" font-size="15.3532">Coders</text>
  <rect x="109.9" y="66.9" fill="none" width="67" height="16.8"/>
  <text transform="matrix(1 0 0 1 109.8927 79.1572)" fill="#FFFFFF" font-family="'TWSSavory-Medium'" font-size="15.3532">Designers</text>
  <rect x="121.2" y="91.6" fill="none" width="73.7" height="16.8"/>
  <text transform="matrix(1 0 0 1 121.1554 103.7939)" fill="#FFFFFF" font-family="'TWSSavory-Medium'" font-size="15.3532">Journalists</text>
  <rect x="201.4" y="91.7" fill="none" width="44.1" height="16.8"/>
  <text transform="matrix(1 0 0 1 201.3595 103.9741)" fill="#FFFFFF" font-family="'TWSSavory-Medium'" font-size="15.3532">Artists</text>
  <rect x="254.9" y="91.7" fill="none" width="44.1" height="16.8"/>
  <text transform="matrix(1 0 0 1 254.9484 103.9741)" fill="#FFFFFF" font-family="'TWSSavory-Medium'" font-size="15.3532">Cooks</text>
  <rect x="235.2" y="66.9" fill="none" width="44.1" height="16.8"/>
  <text transform="matrix(1 0 0 1 235.1671 79.1572)" fill="#FFFFFF" font-family="'TWSSavory-Medium'" font-size="15.3532">Chefs</text>
  <rect x="178.2" y="230.3" fill="none" width="107.1" height="16.8"/>
  <text transform="matrix(1 0 0 1 178.1818 242.5405)" fill="#FFFFFF" font-family="'TWSSavory-Medium'" font-size="15.3532">Statistical Data</text>
  <rect x="225.2" y="369.9" fill="none" width="47.6" height="16.8"/>
  <text transform="matrix(1 0 0 1 225.2326 382.0884)" fill="#FFFFFF" font-family="'TWSSavory-Medium'" font-size="15.3532">Docker</text>
  <rect x="300" y="230.3" fill="none" width="47.6" height="16.8"/>
  <text transform="matrix(1 0 0 1 299.9611 242.5405)" fill="#FFFFFF" font-family="'TWSSavory-Medium'" font-size="15.3532">Tutum</text>
  <rect x="361.4" y="230.3" fill="none" width="10.5" height="16.8"/>
  <text transform="matrix(1 0 0 1 361.4503 242.5405)" fill="#FFFFFF" font-family="'TWSSavory-Medium'" font-size="15.3532">C</text>
  <rect x="216.3" y="323.9" fill="none" width="144.7" height="16.8"/>
  <text transform="matrix(1 0 0 1 216.3146 336.1733)" fill="#FFFFFF" font-family="'TWSSavory-Medium'" font-size="15.3532">Neuronal Networks</text>
  <rect x="356.8" y="323.7" fill="none" width="21" height="16.8"/>
  <text transform="matrix(1 0 0 1 356.8449 335.9038)" fill="#FFFFFF" font-family="'TWSSavory-Medium'" font-size="15.3532">GO</text>
  <rect x="329.6" y="300.6" fill="none" width="68.7" height="16.8"/>
  <text transform="matrix(1 0 0 1 329.5773 312.8843)" fill="#FFFFFF" font-family="'TWSSavory-Medium'" font-size="15.3532">Tinder UI</text>
  <rect x="321.1" y="346.5" fill="none" width="89.2" height="16.8"/>
  <text transform="matrix(1 0 0 1 321.0685 358.7407)" fill="#FFFFFF" font-family="'TWSSavory-Medium'" font-size="15.3532">Unity Engine</text>
  <rect x="191.3" y="253.7" fill="none" width="58.2" height="16.8"/>
  <text transform="matrix(1 0 0 1 191.2706 265.9482)" fill="#FFFFFF" font-family="'TWSSavory-Medium'" font-size="15.3532">Sublime</text>
  <rect x="255.6" y="253.7" fill="none" width="32" height="16.8"/>
  <text transform="matrix(1 0 0 1 255.5529 265.9482)" fill="#FFFFFF" font-family="'TWSSavory-Medium'" font-size="15.3532">SVG</text>
  <rect x="294.1" y="253.7" fill="none" width="57.8" height="16.8"/>
  <text transform="matrix(1 0 0 1 294.1261 265.9463)" fill="#FFFFFF" font-family="'TWSSavory-Medium'" font-size="15.3532">Famo.us</text>
  <rect x="359.7" y="253.7" fill="none" width="23.3" height="16.8"/>
  <text transform="matrix(1 0 0 1 359.7462 265.9463)" fill="#FFFFFF" font-family="'TWSSavory-Medium'" font-size="15.3532">C#</text>
  <rect x="384.1" y="323.3" fill="none" width="23.3" height="16.8"/>
  <text transform="matrix(1 0 0 1 384.1144 335.54)" fill="#FFFFFF" font-family="'TWSSavory-Medium'" font-size="15.3532">Git</text>
  <rect x="199.2" y="277.1" fill="none" width="43.5" height="16.8"/>
  <text transform="matrix(1 0 0 1 199.2072 289.3569)" fill="#FFFFFF" font-family="'TWSSavory-Medium'" font-size="15.3532">Stylus</text>
  <rect x="244.8" y="277.1" fill="none" width="78.6" height="16.8"/>
  <text transform="matrix(1 0 0 1 244.8478 289.3569)" fill="#FFFFFF" font-family="'TWSSavory-Medium'" font-size="15.3532">Cinema 4D</text>
  <rect x="326.6" y="277.1" fill="none" width="64.4" height="16.8"/>
  <text transform="matrix(1 0 0 1 326.5597 289.3569)" fill="#FFFFFF" font-family="'TWSSavory-Medium'" font-size="15.3532">Bootstrap</text>
  <rect x="208.9" y="300.5" fill="none" width="98.8" height="16.8"/>
  <text transform="matrix(1 0 0 1 208.9044 312.7651)" fill="#FFFFFF" font-family="'TWSSavory-Medium'" font-size="15.3532">Deep Learning</text>
  <rect x="285.8" y="369.6" fill="none" width="137.1" height="16.8"/>
  <text transform="matrix(1 0 0 1 285.8146 381.8198)" fill="#FFFFFF" font-family="'TWSSavory-Medium'" font-size="15.3532">Object Recognition</text>
  <rect x="219.3" y="346.9" fill="none" width="96.8" height="16.8"/>
  <text transform="matrix(1 0 0 1 219.2667 359.1606)" fill="#FFFFFF" font-family="'TWSSavory-Medium'" font-size="15.3532">Data Scraping</text>
  <rect x="354.8" y="416.1" fill="none" width="74" height="16.7"/>
  <text transform="matrix(1 0 0 1 354.7785 428.3066)" fill="#FFFFFF" font-family="'TWSSavory-Medium'" font-size="15.3532">Bootstrap</text>
  <rect x="371.7" y="486.2" fill="none" width="49.1" height="16.8"/>
  <text transform="matrix(1 0 0 1 371.7062 498.4414)" fill="#FFFFFF" font-family="'TWSSavory-Medium'" font-size="15.3532">Python</text>
  <rect x="229.7" y="416.1" fill="none" width="59.8" height="16.8"/>
  <text transform="matrix(1 0 0 1 229.673 428.3081)" fill="#FFFFFF" font-family="'TWSSavory-Medium'" font-size="15.3532">WebRTC</text>
  <rect x="301.2" y="416.1" fill="none" width="43.2" height="16.8"/>
  <text transform="matrix(1 0 0 1 301.1632 428.3081)" fill="#FFFFFF" font-family="'TWSSavory-Medium'" font-size="15.3532">HTML</text>
  <rect x="228.2" y="392.7" fill="none" width="69.3" height="16.8"/>
  <text transform="matrix(1 0 0 1 228.1876 404.8975)" fill="#FFFFFF" font-family="'TWSSavory-Medium'" font-size="15.3532">Rendering</text>
  
    <rect x="308.4" y="392.7" transform="matrix(1 2.874489e-03 -2.874489e-03 1 1.1542 -0.9844)" fill="none" width="69.3" height="16.8"/>
  <text transform="matrix(1 0 0 1 308.383 404.7979)" fill="#FFFFFF" font-family="'TWSSavory-Medium'" font-size="15.3532">LycheeJS</text>
  <rect x="383.8" y="392.7" fill="none" width="32.5" height="16.8"/>
  <text transform="matrix(1 0 0 1 383.7951 404.8975)" fill="#FFFFFF" font-family="'TWSSavory-Medium'" font-size="15.3532">APIs</text>
  <rect x="229.2" y="510.3" fill="none" width="56.1" height="16.8"/>
  <text transform="matrix(1 0 0 1 229.1818 522.5684)" fill="#FFFFFF" font-family="'TWSSavory-Medium'" font-size="15.3532">Keynote</text>
  <rect x="297.2" y="510.3" fill="none" width="70.7" height="16.8"/>
  <text transform="matrix(1 0 0 1 297.1535 522.5684)" fill="#FFFFFF" font-family="'TWSSavory-Medium'" font-size="15.3532">Photoshop</text>
  <rect x="378.9" y="510.3" fill="none" width="38.4" height="16.8"/>
  <text transform="matrix(1 0 0 1 378.8742 522.5684)" fill="#FFFFFF" font-family="'TWSSavory-Medium'" font-size="15.3532">Muse</text>
  <rect x="230.5" y="439.5" fill="none" width="86.1" height="16.8"/>
  <text transform="matrix(1 0 0 1 230.5324 451.7158)" fill="#FFFFFF" font-family="'TWSSavory-Medium'" font-size="15.3532">Google Docs</text>
  <rect x="329.9" y="439.5" fill="none" width="92.5" height="16.8"/>
  <text transform="matrix(1 0 0 1 329.8586 451.7158)" fill="#FFFFFF" font-family="'TWSSavory-Medium'" font-size="15.3532">Spreadsheets</text>
  <rect x="313.3" y="462.9" fill="none" width="35.6" height="16.8"/>
  <text transform="matrix(1 0 0 1 313.3136 475.0938)" fill="#FFFFFF" font-family="'TWSSavory-Medium'" font-size="15.3532">Maya</text>
</g>
</svg>
