<!-- Generator: Adobe Illustrator 18.1.1, SVG Export Plug-In  -->
<svg version="1.1"
   xmlns="http://www.w3.org/2000/svg" xmlns:xlink="http://www.w3.org/1999/xlink" xmlns:a="http://ns.adobe.com/AdobeSVGViewerExtensions/3.0/"
   x="0px" y="0px" width="51px" height="51.6px" viewBox="0 0 51 51.6" style="enable-background:new 0 0 51 51.6;"
   xml:space="preserve">
<style type="text/css">
  .st0{fill:#EEAF4B;}
  .st1{fill:#FCDF76;}
  .st2{fill:#F4C44E;}
</style>
<defs>
</defs>
<g>
  <path class="st0" d="M47.6,33.1c0.4-0.4,0.9-0.7,1.6-0.8c0.2,0,0.4,0,0.7,0c0.2,0,0.4,0.1,0.6,0.1c0.2,0.1,0.4,0.1,0.5,0.2v-2.2
    c0-1.9-0.9-3.6-2.4-4.8L31.2,9.2c-0.5,0.5-1.3,0.6-2.2,0.3c-1.7-0.5-3-2.3-3-3.9c0-0.4,0.1-0.8,0.3-1.1l-3-2.8
    c-2.2-1.7-4.6-2-6.3-1.3L2.2,7.5C0.8,8.1,0,9.4,0,10.9c0,0,0,0,0,0v15.7c0.5-0.1,1-0.1,1.5,0.1C3.4,27.4,5,29.4,5,31.4
    s-1.6,3-3.5,2.4C1,33.6,0.5,33.3,0,32.9v2.2c0,1.7,1.1,3.2,2.8,3.6l43.6,12.9c2.3,0.6,4.6-1.2,4.6-3.6v-8.3l0,0
    c-0.9-0.2-1.8-0.7-2.6-1.4c0,0,0,0,0-0.1c-0.2-0.2-0.3-0.3-0.5-0.5c0-0.1-0.1-0.1-0.1-0.2c-0.1-0.1-0.2-0.3-0.3-0.5
    c-0.1-0.1-0.1-0.3-0.2-0.4c0-0.1-0.1-0.2-0.1-0.3c-0.1-0.2-0.1-0.5-0.2-0.7c0-0.3-0.1-0.5-0.1-0.7c0-0.5,0.1-0.9,0.3-1.2
    C47.4,33.4,47.5,33.2,47.6,33.1z"/>
  <path class="st1" d="M49.9,32.3c0.4,0.1,0.8,0.2,1.1,0.3v-2.2c0-1.7-1.2-3.2-2.9-3.6l-19.2-5.7c0,0.1,0,0.2,0,0.3
    c0,1.7-1.3,2.6-3,2.1c-1.7-0.5-3-2.3-3-3.9c0-0.1,0-0.1,0-0.2L1.9,13.1C0.8,12.9,0.2,12,0.1,11l-0.1,0v15.8c0.5-0.1,1-0.1,1.5,0.1
    C3.4,27.4,5,29.4,5,31.4s-1.6,3-3.5,2.4C1,33.6,0.5,33.3,0,32.9v2.2c0,1.7,1.1,3.2,2.8,3.6l43.6,12.9c2.3,0.6,4.6-1.2,4.6-3.6v-8.3
    c-1.9-0.3-3.6-2.1-4-4.1C46.7,33.5,48,32.1,49.9,32.3z"/>
  <path class="st2" d="M25.8,32c0,2.3-1.8,3.5-4.1,2.8c-2.3-0.7-4.1-3.1-4.1-5.3s1.8-3.5,4.1-2.8S25.8,29.8,25.8,32z"/>
  <path class="st0" d="M21.7,26.7c-1.7-0.5-3.1,0-3.7,1.3c0.6,1.6,2.1,3.1,3.7,3.6c1.7,0.5,3.1,0,3.7-1.3
    C24.8,28.6,23.4,27.2,21.7,26.7z"/>
  <path class="st2" d="M42.7,37.5c0,1.6-1.3,2.5-2.9,2S37,37.3,37,35.8c0-1.6,1.3-2.5,2.9-2S42.7,36,42.7,37.5z"/>
  <path class="st0" d="M14.7,35.5c0,1.6-1.3,2.5-2.9,2S9,35.3,9,33.8c0-1.6,1.3-2.5,2.9-2S14.7,34,14.7,35.5z"/>
  <path class="st0" d="M34.7,43.2c0,1-0.8,1.6-1.9,1.3C31.8,44.1,31,43,31,42s0.8-1.6,1.9-1.3C33.9,41.1,34.7,42.1,34.7,43.2z"/>
  <path class="st0" d="M34,31.3c0,1-0.8,1.6-1.9,1.3c-1-0.3-1.9-1.4-1.9-2.4s0.8-1.6,1.9-1.3C33.2,29.2,34,30.3,34,31.3z"/>
  <path class="st2" d="M9,20.8c0,1.1-0.9,1.8-2,1.4c-1.1-0.3-2-1.5-2-2.7s0.9-1.8,2-1.4S9,19.6,9,20.8z"/>
  <path class="st2" d="M29,21.4c0,1.7-1.3,2.6-3,2.1c-1.7-0.5-3-2.3-3-3.9c0-1.7,1.3-2.6,3-2.1C27.6,18,29,19.8,29,21.4z"/>
</g>
</svg>
