<!-- Generator: Adobe Illustrator 19.2.0, SVG Export Plug-In  -->
<svg version="1.1"
   xmlns="http://www.w3.org/2000/svg" xmlns:xlink="http://www.w3.org/1999/xlink" xmlns:a="http://ns.adobe.com/AdobeSVGViewerExtensions/3.0/"
   x="0px" y="0px" width="52px" height="57.6px" viewBox="0 0 52 57.6" style="enable-background:new 0 0 52 57.6;"
   xml:space="preserve">
<style type="text/css">
  .st0{fill:#D13834;}
  .st1{fill:none;stroke:#ED3F32;stroke-width:2;stroke-linecap:round;stroke-miterlimit:10;}
  .st2{fill:#ED3F32;}
  .st3{fill:none;stroke:#ED7161;stroke-width:2;stroke-linecap:round;stroke-miterlimit:10;}
  .st4{fill:none;stroke:#4C312C;stroke-width:2;stroke-linecap:round;stroke-linejoin:round;stroke-miterlimit:10;}
  .st5{fill:#88C057;}
  .st6{fill:#659C35;}
</style>
<defs>
</defs>
<g>
  <path class="st0" d="M0,37.6c0-7.7,5.4-14,12-14h2c6.6,0,12,6.3,12,14c0,7.2-5.8,13-13,13S0,44.8,0,37.6z"/>
  <path class="st1" d="M4.1,40.3c1,3.1,3.7,5.4,6.8,6.1"/>
  <path class="st1" d="M5.3,31.7c-0.6,1.1-1.1,2.2-1.3,3.5"/>
  <path class="st2" d="M26,44.6c0-7.7,5.4-14,12-14h2c6.6,0,12,6.3,12,14c0,7.2-5.8,13-13,13S26,51.8,26,44.6z"/>
  <path class="st1" d="M16,27.6c0,2.8,2.2,5,5,5"/>
  <path class="st3" d="M40,34.6c0,2.8,2.2,5,5,5"/>
  <path class="st4" d="M43,35.6c5-9,3.1-16.4-4.6-28c0,11.4-10.2,22-18.8,22"/>
  <path class="st5" d="M38,7.1c4,2.9,10.1,1.4,13.1-2.6C47.1,1.5,40.9,3.1,38,7.1z"/>
  <path class="st6" d="M27,0.1c0.8,4.9,6.2,8.2,11.1,7.4C37.4,2.6,31.9-0.6,27,0.1z"/>
  <path class="st3" d="M30,47.6c1,3.1,3.7,5.4,6.8,6.1"/>
</g>
</svg>
