<!-- Generator: Adobe Illustrator 19.2.0, SVG Export Plug-In  -->
<svg version="1.1"
	 xmlns="http://www.w3.org/2000/svg" xmlns:xlink="http://www.w3.org/1999/xlink" xmlns:a="http://ns.adobe.com/AdobeSVGViewerExtensions/3.0/"
	 x="0px" y="0px" width="44px" height="58px" viewBox="0 0 44 58" style="enable-background:new 0 0 44 58;" xml:space="preserve">
<style type="text/css">
	.st0{fill:#24AE5F;}
	.st1{fill:#FFFFFF;}
	.st2{fill:none;stroke:#ECF0F1;stroke-width:2;stroke-linecap:round;stroke-miterlimit:10;}
	.st3{fill:#BDC3C7;}
	.st4{fill:#546A79;}
	.st5{fill:#556080;}
	.st6{fill:#38454F;}
</style>
<defs>
</defs>
<path class="st0" d="M37,15.9v35.3c0,2.1-1.7,3.9-3.9,3.9H3.9C1.7,55,0,53.3,0,51.1l0-35.3C0,13.7,1.7,12,3.9,12h29.3
	C35.3,12,37,13.7,37,15.9z"/>
<rect x="22.1" y="41.5" transform="matrix(0.9213 0.3888 -0.3888 0.9213 19.4197 -6.8454)" class="st1" width="9.1" height="6.1"/>
<line class="st2" x1="6" y1="18" x2="31" y2="18"/>
<ellipse class="st2" cx="28" cy="21" rx="2" ry="3"/>
<path class="st3" d="M10.3,58H4.7C3.8,58,3,57.2,3,56.3V55h9v1.3C12,57.2,11.2,58,10.3,58z"/>
<path class="st3" d="M32.3,58h-5.6c-0.9,0-1.7-0.8-1.7-1.7V55h9v1.3C34,57.2,33.2,58,32.3,58z"/>
<path class="st4" d="M39,28h-2v2h2c1.7,0,3,1.3,3,3s-1.3,3-3,3h-2v2h2c2.8,0,5-2.2,5-5S41.8,28,39,28z"/>
<path class="st5" d="M25,4H13c-1.1,0-2-0.9-2-2v0c0-1.1,0.9-2,2-2h12c1.1,0,2,0.9,2,2v0C27,3.1,26.1,4,25,4z"/>
<g>
	<rect x="14" y="4" class="st6" width="2" height="8"/>
	<rect x="22" y="4" class="st6" width="2" height="8"/>
</g>
</svg>
