<!-- Generator: Adobe Illustrator 19.2.0, SVG Export Plug-In  -->
<svg version="1.1"
	 xmlns="http://www.w3.org/2000/svg" xmlns:xlink="http://www.w3.org/1999/xlink" xmlns:a="http://ns.adobe.com/AdobeSVGViewerExtensions/3.0/"
	 x="0px" y="0px" width="59px" height="56px" viewBox="0 0 59 56" style="enable-background:new 0 0 59 56;" xml:space="preserve">
<style type="text/css">
	.st0{fill:#D1D4D1;}
	.st1{fill:#ECF0F1;}
	.st2{fill:#E6E7E8;}
	.st3{fill:#A5A5A4;}
	.st4{fill:#F3D55B;}
	.st5{fill:#FFFFFF;}
	.st6{fill:#38454F;}
	.st7{fill:#FAC176;}
	.st8{fill:#AF8066;}
	.st9{fill:#FDD7AD;}
	.st10{fill:#F5EFCA;}
	.st11{fill:none;stroke:#FAC176;stroke-width:2;stroke-linecap:round;stroke-miterlimit:10;}
	.st12{fill:#59474E;}
	.st13{fill:none;stroke:#F5EFCA;stroke-width:2;stroke-linecap:round;stroke-miterlimit:10;}
	.st14{fill:none;stroke:#F0785A;stroke-width:2;stroke-linecap:round;stroke-miterlimit:10;}
</style>
<defs>
</defs>
<path class="st0" d="M43.9,6.5C43.7,6.8,43.4,7,43,7c-2.8,0-5,2.2-5,5c0,0.6-0.4,1-1,1s-1-0.4-1-1c0-3.5,2.6-6.4,6-6.9
	C38.6,2.7,34.4,1.2,30,1v4.8c0,0.6-0.4,1-1,1s-1-0.4-1-1V1c-4.4,0.2-8.6,1.7-12,4.1c3.4,0.5,6,3.4,6,6.9c0,0.6-0.4,1-1,1s-1-0.4-1-1
	c0-2.8-2.2-5-5-5c-0.4,0-0.7-0.2-0.9-0.5C9.2,10.7,6,17,6,24v16.9c5.6,5.5,14,9.1,23.5,9.1c8.9,0,16.9-3.1,22.5-8.1V24
	C52,17,48.8,10.7,43.9,6.5z"/>
<path class="st1" d="M36,12c0,0.6,0.4,1,1,1s1-0.4,1-1c0-2.8,2.2-5,5-5c0.4,0,0.7-0.2,0.9-0.5c-0.6-0.5-1.2-1-1.8-1.4
	C38.6,5.6,36,8.5,36,12z"/>
<path class="st1" d="M15,7c2.8,0,5,2.2,5,5c0,0.6,0.4,1,1,1s1-0.4,1-1c0-3.5-2.6-6.4-6-6.9c-0.6,0.4-1.2,0.9-1.8,1.4
	C14.3,6.8,14.6,7,15,7z"/>
<path class="st1" d="M29,6.8c0.6,0,1-0.4,1-1V1c-0.3,0-0.7,0-1,0s-0.7,0-1,0v4.8C28,6.4,28.4,6.8,29,6.8z"/>
<path class="st2" d="M29.5,50c-8.3,0-15.9-2.7-21.4-7.2v6.6c5,4.9,12.5,6.5,20.9,6.5c7.9,0,15-1.3,20-5.7v-6.1
	C43.7,47.8,36.9,50,29.5,50z"/>
<path class="st1" d="M3.7,22c-1,0.2-1.7,1.1-1.7,2.1l0,2.5C2,26.8,1.8,27,1.6,27h0C0.7,27,0,27.7,0,28.6v3.2C0,32.5,0.5,33,1.2,33
	h0.4C1.8,33,2,33.2,2,33.4l0,2.5c0,1,0.7,1.9,1.7,2.1C4.9,38.2,6,37.2,6,36V24C6,22.8,4.9,21.8,3.7,22z"/>
<path class="st3" d="M3,31c-0.3,0-0.5-0.1-0.7-0.3C2.1,30.5,2,30.3,2,30c0-0.3,0.1-0.5,0.3-0.7c0.4-0.4,1-0.4,1.4,0
	C3.9,29.5,4,29.7,4,30c0,0.3-0.1,0.5-0.3,0.7C3.5,30.9,3.3,31,3,31z"/>
<path class="st1" d="M54.3,38c1-0.2,1.7-1.1,1.7-2.1v-2.1c0-0.4,0.3-0.8,0.8-0.8h0c0.7,0,1.2-0.5,1.2-1.2v-3.6
	c0-0.7-0.5-1.2-1.2-1.2h0c-0.4,0-0.8-0.3-0.8-0.8v-2.1c0-1-0.7-1.9-1.7-2.1c-1.2-0.2-2.3,0.8-2.3,2v12C52,37.2,53.1,38.2,54.3,38z"
	/>
<path class="st3" d="M55,31c-0.3,0-0.5-0.1-0.7-0.3C54.1,30.5,54,30.3,54,30s0.1-0.5,0.3-0.7c0.4-0.4,1-0.4,1.4,0
	c0.2,0.2,0.3,0.4,0.3,0.7c0,0.3-0.1,0.5-0.3,0.7C55.5,30.9,55.3,31,55,31z"/>
<path class="st4" d="M58,5h-1.6L54,2.6V1c0-0.6-0.4-1-1-1s-1,0.4-1,1v1.6L49.6,5H48c-0.6,0-1,0.4-1,1s0.4,1,1,1h1.6L52,9.4V11
	c0,0.6,0.4,1,1,1s1-0.4,1-1V9.4L56.4,7H58c0.6,0,1-0.4,1-1S58.6,5,58,5z"/>
<path class="st1" d="M29,8C16.3,8,6,16.9,6,26.4V39c5.6,4.1,14,8,23.5,8c8.9,0,16.9-3.5,22.5-7.3V26.4C52,16.9,41.7,8,29,8z"/>
<path class="st5" d="M8.1,42.8v2.6c5,4.9,12.5,6.5,20.9,6.5c7.9,0,15-1.3,20-5.7v-2.1C43.7,47.8,36.9,50,29.5,50
	C21.2,50,13.6,47.3,8.1,42.8z"/>
<path class="st6" d="M29,12C16.3,12,6,19.5,6,27.6v10.7c5.6,3.5,14,6.7,23.5,6.7c8.9,0,16.9-3,22.5-6.1V27.6C52,19.5,41.7,12,29,12z
	"/>
<path class="st7" d="M46,34h-1v-8h1c2.2,0,4,1.8,4,4v0C50,32.2,48.2,34,46,34z"/>
<path class="st7" d="M12,34h1v-8h-1c-2.2,0-4,1.8-4,4v0C8,32.2,9.8,34,12,34z"/>
<path class="st8" d="M37.5,15.7c1-0.5,2.2-0.1,2.9,0.8l4.8,7.5c0.9-2.5,0.9-4.8,0.4-7c-4.2-3-10.1-5-16.6-5
	c-6.7,0-12.7,2.1-16.9,5.3c-0.2,2.1,0,4.4,1.1,6.7l5.7-7.5c0.7-0.9,1.9-1.2,2.9-0.8c1.8,0.8,4.3,1.3,7.9,1.3
	C33.3,17,35.8,16.5,37.5,15.7z"/>
<path class="st9" d="M40.5,43.5l0.5-0.2c3.4-1.6,4-5,4-8.8V24.1l0-0.4l-4.6-7.1c-0.6-1-1.8-1.3-2.9-0.8c-1.7,0.8-4.2,1.3-7.9,1.3
	c-3.6,0-6.2-0.5-7.9-1.3c-1-0.5-2.2-0.1-2.9,0.8L13.1,24c0-0.1-0.1-0.2-0.1-0.3l0,0.4v10c0,3.7,0.7,7,4,8.7l2.4,1
	C22.6,44.6,26,45,29.5,45C33.4,45,37.1,44.4,40.5,43.5z"/>
<circle class="st10" cx="34" cy="31" r="1"/>
<circle class="st10" cx="26" cy="32" r="1"/>
<circle class="st10" cx="24" cy="34" r="1"/>
<circle class="st10" cx="36" cy="33" r="1"/>
<line class="st11" x1="29" y1="28" x2="29" y2="31"/>
<path class="st11" d="M29,31h0.2c3.1,0,3.5,4.6,0.4,5c-0.2,0-0.4,0-0.6,0"/>
<circle class="st12" cx="20.5" cy="26.5" r="1.5"/>
<circle class="st12" cx="37.5" cy="26.5" r="1.5"/>
<line class="st13" x1="46" y1="29" x2="46" y2="31"/>
<line class="st13" x1="12" y1="29" x2="12" y2="31"/>
<line class="st11" x1="28" y1="42" x2="30" y2="42"/>
<line class="st14" x1="26" y1="39" x2="32" y2="39"/>
<line class="st11" x1="19" y1="20" x2="25" y2="20"/>
<line class="st11" x1="33" y1="20" x2="39" y2="20"/>
</svg>
