<!-- Generator: Adobe Illustrator 19.2.0, SVG Export Plug-In  -->
<svg version="1.1"
	 xmlns="http://www.w3.org/2000/svg" xmlns:xlink="http://www.w3.org/1999/xlink" xmlns:a="http://ns.adobe.com/AdobeSVGViewerExtensions/3.0/"
	 x="0px" y="0px" width="59.4px" height="58px" viewBox="0 0 59.4 58" style="enable-background:new 0 0 59.4 58;"
	 xml:space="preserve">
<style type="text/css">
	.st0{fill:#ECF0F1;}
	.st1{fill:#545E73;}
	.st2{fill:#8697CB;}
	.st3{fill:none;stroke:#545E73;stroke-width:2;stroke-linecap:round;stroke-linejoin:round;stroke-miterlimit:10;}
	.st4{fill:#26B99A;}
	.st5{fill:#FFFFFF;}
</style>
<defs>
</defs>
<g>
	<circle class="st0" cx="29" cy="29" r="29"/>
	<path class="st1" d="M29,4c13.8,0,25,11.2,25,25S42.8,54,29,54S4,42.8,4,29S15.2,4,29,4 M29,0C13,0,0,13,0,29s13,29,29,29
		s29-13,29-29S45,0,29,0L29,0z"/>
	<g>
		<path class="st2" d="M29,5.9c-0.6,0-1,0.4-1,1v1c0,0.6,0.4,1,1,1s1-0.4,1-1v-1C30,6.3,29.6,5.9,29,5.9z"/>
		<path class="st2" d="M29,48.9c-0.6,0-1,0.4-1,1v1c0,0.6,0.4,1,1,1s1-0.4,1-1v-1C30,49.3,29.6,48.9,29,48.9z"/>
		<path class="st2" d="M51,27.9h-1c-0.6,0-1,0.4-1,1s0.4,1,1,1h1c0.6,0,1-0.4,1-1S51.6,27.9,51,27.9z"/>
		<path class="st2" d="M8,27.9H7c-0.6,0-1,0.4-1,1s0.4,1,1,1h1c0.6,0,1-0.4,1-1S8.6,27.9,8,27.9z"/>
		<path class="st2" d="M43.8,12.6l-0.7,0.7c-0.4,0.4-0.4,1,0,1.4c0.2,0.2,0.5,0.3,0.7,0.3s0.5-0.1,0.7-0.3l0.7-0.7
			c0.4-0.4,0.4-1,0-1.4S44.2,12.2,43.8,12.6z"/>
		<path class="st2" d="M13.4,43l-0.7,0.7c-0.4,0.4-0.4,1,0,1.4c0.2,0.2,0.5,0.3,0.7,0.3s0.5-0.1,0.7-0.3l0.7-0.7
			c0.4-0.4,0.4-1,0-1.4S13.8,42.6,13.4,43z"/>
		<path class="st2" d="M44.6,43c-0.4-0.4-1-0.4-1.4,0s-0.4,1,0,1.4l0.7,0.7c0.2,0.2,0.5,0.3,0.7,0.3s0.5-0.1,0.7-0.3
			c0.4-0.4,0.4-1,0-1.4L44.6,43z"/>
		<path class="st2" d="M14.2,12.6c-0.4-0.4-1-0.4-1.4,0s-0.4,1,0,1.4l0.7,0.7c0.2,0.2,0.5,0.3,0.7,0.3s0.5-0.1,0.7-0.3
			c0.4-0.4,0.4-1,0-1.4L14.2,12.6z"/>
	</g>
	<line class="st3" x1="26" y1="28.9" x2="18" y2="28.9"/>
	<line class="st3" x1="29" y1="25.9" x2="29" y2="14.9"/>
	<circle class="st3" cx="29" cy="28.9" r="3"/>
</g>
<g>
	<circle class="st4" cx="47.4" cy="46" r="12"/>
	<path class="st5" d="M54,40.2c-0.5-0.3-1.1-0.2-1.4,0.2l-5.6,8L43,45.2c-0.4-0.4-1.1-0.3-1.4,0.1c-0.4,0.4-0.3,1.1,0.1,1.4l4.8,3.9
		c0.2,0.1,0.4,0.2,0.6,0.2c0,0,0.1,0,0.1,0c0.3,0,0.5-0.2,0.7-0.4l6.2-8.9C54.5,41.1,54.4,40.5,54,40.2z"/>
</g>
</svg>
