<!-- Generator: Adobe Illustrator 19.2.0, SVG Export Plug-In  -->
<svg version="1.1"
	 xmlns="http://www.w3.org/2000/svg" xmlns:xlink="http://www.w3.org/1999/xlink" xmlns:a="http://ns.adobe.com/AdobeSVGViewerExtensions/3.0/"
	 x="0px" y="0px" width="58px" height="53.1px" viewBox="0 0 58 53.1" style="enable-background:new 0 0 58 53.1;"
	 xml:space="preserve">
<style type="text/css">
	.st0{fill:#F0C419;}
	.st1{fill:none;stroke:#FFFFFF;stroke-width:2;stroke-linecap:round;stroke-linejoin:round;stroke-miterlimit:10;}
	.st2{fill:#FD973B;}
</style>
<defs>
</defs>
<path class="st0" d="M44,15.9v21.1c0,2.7-2.2,4.9-4.9,4.9L22,42.1l-10,11v-11H4.9c-2.7,0-4.9-2.2-4.9-4.9L0,16
	c0-2.7,2.2-4.9,4.9-4.9L39.1,11C41.8,11,44,13.2,44,15.9z"/>
<line class="st1" x1="9" y1="21" x2="22" y2="21"/>
<line class="st1" x1="9" y1="27" x2="35" y2="27"/>
<line class="st1" x1="9" y1="33" x2="35" y2="33"/>
<path class="st2" d="M53.1,0.1L18.9,0C16.2,0,14,2.2,14,4.9v6.1L39.1,11c2.7,0,4.9,2.2,4.9,4.9v18.4l7,7.7v-11h2.1
	c2.7,0,4.9-2.2,4.9-4.9V5C58,2.3,55.8,0.1,53.1,0.1z"/>
</svg>
