<!-- Generator: Adobe Illustrator 19.2.0, SVG Export Plug-In  -->
<svg version="1.1"
	 xmlns="http://www.w3.org/2000/svg" xmlns:xlink="http://www.w3.org/1999/xlink" xmlns:a="http://ns.adobe.com/AdobeSVGViewerExtensions/3.0/"
	 x="0px" y="0px" width="55px" height="38px" viewBox="0 0 55 38" style="enable-background:new 0 0 55 38;" xml:space="preserve">
<style type="text/css">
	.st0{fill:#E6E6E6;}
	.st1{fill:#F4C44E;}
	.st2{fill:none;stroke:#F4C44E;stroke-width:2;stroke-linecap:round;stroke-miterlimit:10;}
	.st3{fill:none;stroke:#FFFFFF;stroke-width:2;stroke-linecap:round;stroke-miterlimit:10;}
</style>
<defs>
</defs>
<g>
	<path class="st0" d="M48,38H7c-1.8,0-3.5-0.9-4.6-2.4l-2.3-3.2c-0.4-0.6,0-1.5,0.8-1.5h53.1c0.8,0,1.2,0.9,0.8,1.5l-2.3,3.2
		C51.5,37.1,49.8,38,48,38z"/>
	<path class="st1" d="M2,31C2,17.2,13.2,6,27,6s25,11.2,25,25H2z"/>
	<path class="st2" d="M27,6c1.3,0,2.5,0.1,3.8,0.3C30.9,5.9,31,5.5,31,5c0-2.2-1.8-4-4-4s-4,1.8-4,4c0,0.5,0.1,0.9,0.2,1.3
		C24.5,6.1,25.7,6,27,6z"/>
	<path class="st3" d="M22.3,10.5c1.5-0.3,3.1-0.5,4.7-0.5"/>
	<path class="st3" d="M7,27c1.1-5.8,4.5-11.2,9.7-14.2"/>
</g>
</svg>
