<!-- Generator: Adobe Illustrator 19.2.0, SVG Export Plug-In  -->
<svg version="1.1"
	 xmlns="http://www.w3.org/2000/svg" xmlns:xlink="http://www.w3.org/1999/xlink" xmlns:a="http://ns.adobe.com/AdobeSVGViewerExtensions/3.0/"
	 x="0px" y="0px" width="68.6px" height="103.9px" viewBox="0 0 68.6 103.9" style="enable-background:new 0 0 68.6 103.9;"
	 xml:space="preserve">
<style type="text/css">
	.st0{fill:#fff;}
</style>
<defs>
</defs>
<path class="st0" d="M58.1,65.3c5.8,0,10.5-4.7,10.5-10.5c0-5.8-4.7-10.5-10.5-10.5c-5,0-9.2,3.5-10.3,8.2v0.9h-2.5v-0.9
	c0,0,0,0,0,0c-1.1-5-5.5-8.7-10.8-8.7c-5,0-9.3,3.4-10.6,8h-7.6c8.7-8,6.9-21.4,6.9-21.4h39.7v-30l-8,11.2V0l-8.1,11V0l-7.1,10.5H0
	v19.7v27.2c1.7,0,3.3-0.2,4.7-0.5v17.5c0,0,6.9,5.8,18.6,13.7h0l26.1,15.8L59.7,83c0.5-0.9,1-1.9,1.4-2.8l0,0h0
	c1.3-3.2,1.8-6.2,1.8-8V69l-6.1,9.1H40.2L14,62.7l-3-7.6c0.3-0.1,0.5-0.3,0.8-0.4h11.6c0,6.1,5,11,11,11c5.3,0,9.7-3.7,10.8-8.7V56
	h2.5v1.1C48.9,61.8,53.1,65.3,58.1,65.3z M34.5,63.8c-5,0-9-4.1-9-9c0-5,4.1-9,9-9s9,4.1,9,9C43.6,59.7,39.5,63.8,34.5,63.8z
	 M58.1,46.2c4.7,0,8.5,3.8,8.5,8.5c0,4.7-3.8,8.5-8.5,8.5c-4.3,0-7.8-3.2-8.4-7.3h0v-2.6C50.3,49.3,53.8,46.2,58.1,46.2z"/>
</svg>
