<!-- Generator: Adobe Illustrator 19.2.0, SVG Export Plug-In  -->
<svg version="1.1"
	 xmlns="http://www.w3.org/2000/svg" xmlns:xlink="http://www.w3.org/1999/xlink" xmlns:a="http://ns.adobe.com/AdobeSVGViewerExtensions/3.0/"
	 x="0px" y="0px" width="406px" height="400.6px" viewBox="0 0 406 400.6" style="enable-background:new 0 0 406 400.6;"
	 xml:space="preserve">
<style type="text/css">
	.st0{fill:#87AC2D;}
	.st1{fill:#98C23A;}
	.st2{fill:#0E1020;}
	.st3{fill:#90BF22;}
</style>
<defs>
</defs>
<g>
	<g>
		<g>
			<path class="st0" d="M0.5,150.1c3.8-17,24.7-30.2,50-30.2c35.7,0,46.7,34.6,46.7,34.6c-29.7,4.9-57.1,11-84.6,0.5l0,0h0.5
				C8.8,153.4,4.4,151.7,0.5,150.1z"/>
		</g>
		<g>
			<path class="st0" d="M406,250.1c-3.8,17-24.7,30.2-50,30.2c-35.7,0-46.7-34.6-46.7-34.6c29.7-4.9,57.1-11,84.6-0.5l0,0h-0.5
				C397.8,246.8,402.2,248.4,406,250.1z"/>
		</g>
	</g>
	<path class="st0" d="M251.6,250.1c-3.8,17-24.7,30.2-50,30.2c-35.7,0-46.7-34.6-46.7-34.6c29.7-4.9,57.1-11,84.6-0.5l0,0H239
		C243.4,246.8,247.8,248.4,251.6,250.1z"/>
	<g>
		<g>
			<g>
				<g>
					<g>
						<g>
							<g>
								<path class="st1" d="M393.9,246.8c-3.3-9.3-1.1-23.6,4.9-31.9c6-8.2,6-21.4,0-29.1c-6-8.2-8.2-22.5-4.9-31.9s-1.1-22-8.8-28
									c-8.2-6-14.8-18.7-14.8-28.6s-7.7-20.9-17-23.6c-9.3-3.3-19.8-13.2-23.1-23.1C326.9,40.7,315.9,33,306,33
									c-9.9,0-23.1-6.6-28.6-14.8c-6-8.2-18.1-12.1-28-8.8c-9.3,3.3-23.6,1.1-31.9-4.9s-21.4-6-29.1,0c-8.2,6-22.5,8.2-31.9,4.9
									c-9.3-3.3-22,1.1-28,8.8c-6,8.2-18.7,14.8-28.6,14.8S79,40.7,76.3,50c-3.2,9.4-13.1,19.9-22.5,22.6S35.7,85.3,35.7,93.5
									s0,15.4,0.5,15.4c0,0,0,1.1,0,2.7s-6,7.1-13.7,12.6c-7.7,5.5-14.3,18.7-11,26.9c2.7,8.8,5.5,15.4,5.5,15.4s0.5,0.5,0.5,1.6
									c0.5,1.1-3.8,7.7-8.8,14.8s-7.6,23.2-2.1,30.9S17,228.1,17,228.1s0,0,0.5,0.5c0,0.5-1.6,7.1-4.4,14.8s-0.5,24.7,7.7,30.8
									c8.2,6,14.8,18.7,14.8,28.6s7.7,20.9,17,23.6c9.3,3.3,19.8,13.2,23.1,23.1c3.3,9.3,14.3,17.6,24.2,17.6s22.5,6.6,28.6,14.8
									c6,8.2,18.7,12.1,28,9.3c9.3-3.3,23.6-1.1,31.9,4.9c8.2,6,21.4,6,29.7,0c8.2-6,22.5-8.2,31.9-4.9s22.5-1.1,28-8.8
									c6-8.2,18.7-14.8,28.6-14.8s20.9-7.7,23.6-17c3.3-9.3,13.2-19.8,23.1-23.1c9.3-3.3,17-13.7,17-23.6s6.6-23.1,14.8-28.6
									C392.8,268.7,396.7,256.1,393.9,246.8z"/>
								<circle class="st1" cx="204.9" cy="199" r="148.3"/>
							</g>
						</g>
					</g>
					<path class="st2" d="M372.5,205.6c-1.6,0-3.3,1.6-3.3,3.3s1.1,3.3,3.3,3.8c1.6,0,3.3-1.1,3.8-3.3
						C375.8,207.2,374.1,205.6,372.5,205.6z M371.4,217.7c-1.6,0-3.8,1.1-3.8,2.7s1.1,3.8,2.7,3.8c1.6,0.5,3.8-1.1,3.8-2.7
						C374.7,219.3,373.6,217.7,371.4,217.7z M369.7,229.2c-1.6-0.5-3.8,1.1-3.8,2.7c-0.5,1.6,0.5,3.8,2.7,3.8
						c1.6,0.5,3.8-0.5,3.8-2.7C373,231.4,371.9,229.7,369.7,229.2z M367.5,241.3c-1.6-0.5-3.8,0.5-4.4,2.2c-0.5,1.6,0.5,3.8,2.2,4.4
						c1.6,0.5,3.8-0.5,4.4-2.2C370.3,243.5,369.2,241.8,367.5,241.3z M364.2,252.8c-1.6-0.5-3.8,0.5-4.4,2.2
						c-0.5,1.6,0.5,3.8,2.2,4.4c1.6,0.5,3.8,0,4.4-2.2C367,255.6,365.9,253.4,364.2,252.8z M359.8,264.4c-1.6-0.5-3.8,0-4.4,1.6
						c-0.5,1.6,0,3.8,1.6,4.4c1.6,0.5,3.8,0,4.4-1.6C362.6,267.1,361.5,264.9,359.8,264.4z M354.9,275.3c-1.6-1.1-3.8,0-4.4,1.6
						c-1.1,1.6,0,3.8,1.6,4.4c1.6,1.1,3.8,0.5,4.4-1.6C357.1,278.1,356.6,275.9,354.9,275.3z M349.4,285.8c-1.6-1.1-3.8-0.5-4.9,1.1
						s-0.5,3.8,1.1,4.9s3.8,0.5,4.9-1.1S351.1,286.9,349.4,285.8z M342.8,296.2c-1.6-1.1-3.8-0.5-4.9,0.5c-1.1,1.6-0.5,3.8,0.5,4.9
						c1.6,1.1,3.8,0.5,4.9-0.5C344.5,299.5,344.5,297.3,342.8,296.2z M335.7,305.6c-1.6-1.1-3.8-1.1-4.9,0.5s-1.1,3.8,0.5,4.9
						s3.8,1.1,4.9-0.5C337.3,309.4,336.8,306.7,335.7,305.6z M322.5,314.9c-1.1,1.1-1.1,3.3,0,4.9c1.1,1.1,3.3,1.1,4.9,0
						c1.1-1.6,1.1-3.8,0-4.9C326.3,313.8,324.1,313.8,322.5,314.9z M314.3,323.1c-1.6,1.1-1.6,3.3-0.5,4.9s3.3,1.6,4.9,0.5
						s1.6-3.3,0-4.9C317.5,322,315.9,322,314.3,323.1z M305.5,330.8c-1.6,1.1-1.6,3.3-0.5,4.9s3.3,1.6,4.9,0.5s1.6-3.3,0.5-4.9
						C308.8,330.3,306.6,329.7,305.5,330.8z M295.6,338c-1.6,1.1-2.2,3.3-1.1,4.9s3.3,2.2,4.9,1.1s2.2-3.3,1.1-4.9
						S297.2,336.9,295.6,338z M285.7,344c-1.6,1.1-2.2,3.3-1.1,4.9s2.7,2.2,4.9,1.1c1.6-1.1,2.2-3.3,1.1-4.9
						C289.5,344,287.3,342.9,285.7,344z M275.2,349.5c-1.6,0.5-2.2,2.7-1.6,4.4c0.5,1.6,2.7,2.7,4.4,1.6s2.2-2.7,1.6-4.9
						C279.1,349.5,276.9,349,275.2,349.5z M264.3,354.5c-1.6,0.5-2.7,2.7-2.2,4.4s2.7,2.7,4.4,2.2s2.7-2.7,2.2-4.4
						C268.1,354.5,265.9,353.9,264.3,354.5z M253.3,358.3c-1.6,0.5-2.7,2.2-2.2,4.4c0.5,1.6,2.7,2.7,4.4,2.2
						c1.6-0.5,2.7-2.7,2.2-4.4C256.6,358.8,254.9,357.7,253.3,358.3z M241.7,361.6c-1.6,0.5-2.7,2.2-2.7,4.4
						c0.5,1.6,2.2,2.7,4.4,2.7c1.6-0.5,3.3-2.2,2.7-4.4C245.6,362.1,243.4,361,241.7,361.6z M230.2,363.8c-1.6,0.5-3.3,2.2-2.7,3.8
						c0,1.6,2.2,3.3,3.8,2.7s3.3-2.2,2.7-3.8C233.5,364.9,231.8,363.2,230.2,363.8z M218.1,365.4c-1.6,0-3.3,1.6-3.3,3.8
						c0,1.6,1.6,3.3,3.8,3.3s3.3-1.6,3.3-3.8C222,366.5,220.3,365.4,218.1,365.4z M206.6,366c-1.6,0-3.3,1.6-3.3,3.3
						s1.6,3.3,3.3,3.3c2.2,0,3.3-1.6,3.3-3.3S208.2,366,206.6,366z M194.5,366c-1.6,0-3.3,1.1-3.8,3.3c0,1.6,1.1,3.3,3.3,3.8
						c2.2,0,3.8-1.6,3.8-3.3C197.8,367.6,196.7,366,194.5,366z M182.9,364.9c-1.6,0-3.3,1.1-3.8,2.7s1.1,3.8,2.7,3.8
						c2.2,0,3.8-1.1,3.8-2.7C186.2,366.5,184.6,364.9,182.9,364.9z M171.4,362.7c-1.6-0.5-3.8,0.5-3.8,2.7c-0.5,1.6,0.5,3.8,2.7,3.8
						c1.6,0.5,3.8-1.1,3.8-2.7C174.2,364.9,173.1,363.2,171.4,362.7z M159.9,360.5c-1.6-0.5-3.8,0.5-4.4,2.2
						c-0.5,1.6,0.5,3.8,2.2,4.4c1.6,0.5,3.8-0.5,4.4-2.2C162.6,362.7,161.5,361,159.9,360.5z M148.3,356.7c-1.6-0.5-3.8,0.5-4.4,2.2
						c-0.5,1.6,0,3.8,2.2,4.4c1.6,0.5,3.8-0.5,4.4-2.2C151.1,359.4,150,357.2,148.3,356.7z M137.3,352.3c-1.6-0.5-3.8,0-4.4,1.6
						c-0.5,1.6,0,3.8,1.6,4.4c1.6,1.1,3.8,0,4.4-1.6C140.1,355,139,353.4,137.3,352.3z M126.9,347.3c-1.6-1.1-3.8,0-4.4,1.6
						c-1.1,1.6,0,3.8,1.6,4.4c1.6,1.1,3.8,0,4.9-1.6C129.1,350.1,128.6,348.4,126.9,347.3z M116.5,341.3c-1.6-1.1-3.8-0.5-4.9,1.1
						s-0.5,3.8,1.1,4.9s3.8,0.5,4.9-1.1S118.1,342.4,116.5,341.3z M106.6,335.2c-1.6-1.1-3.8-0.5-4.9,0.5c-1.1,1.6-0.5,3.8,0.5,4.9
						c1.6,1.1,3.8,0.5,4.9-0.5C108.2,338,108.2,335.8,106.6,335.2z M92.3,328.1c-1.1,1.6-1.1,3.8,0.5,4.9s3.8,1.1,4.9-0.5
						s1.1-3.8-0.5-4.9C95.6,326.4,93.4,326.4,92.3,328.1z M83.5,319.8c-1.1,1.1-1.1,3.3,0,4.9c1.6,1.1,3.8,1.1,4.9,0
						c1.1-1.6,1.1-3.8,0-4.9C86.8,318.7,84.6,318.7,83.5,319.8z M75.3,311.1c-1.6,1.1-1.6,3.3-0.5,4.9s3.3,1.6,4.9,0
						c1.6-1.1,1.6-3.3,0-4.9C79.1,310,76.9,310,75.3,311.1z M67.6,301.7c-1.6,1.1-1.6,3.3-0.5,4.9s3.3,1.6,4.9,0.5s1.6-3.3,0.5-4.9
						C71.4,300.6,69.2,300.6,67.6,301.7z M61,291.8c-1.6,1.1-2.2,3.3-1.1,4.9c1.1,1.6,3.3,2.2,4.9,1.1s2.2-3.3,1.1-4.9
						C64.3,291.3,62.6,290.7,61,291.8z M53.8,272c-0.5-1.6-2.7-2.2-4.4-1.6c-1.6,0.5-2.7,2.7-1.6,4.4c1.1,1.6,2.7,2.2,4.9,1.6
						C53.8,275.9,54.4,273.7,53.8,272z M48.9,261.6c-0.5-1.6-2.7-2.7-4.4-2.2s-2.7,2.7-2.2,4.4s2.7,2.7,4.4,2.2
						C48.9,264.9,50,263.3,48.9,261.6z M45,250.1c-0.5-1.6-2.2-2.7-4.4-2.2c-1.6,0.5-2.7,2.7-2.2,4.4c0.5,1.6,2.7,2.7,4.4,2.2
						C44.5,253.9,45.6,251.7,45,250.1z M39.6,242.9c1.6-0.5,2.7-2.2,2.7-4.4c-0.5-1.6-2.2-2.7-4.4-2.7c-1.6,0.5-2.7,2.2-2.7,4.4
						C35.7,242.4,37.4,243.5,39.6,242.9z M36.8,231.4c1.6-0.5,3.3-2.2,2.7-4.4c-0.5-1.6-2.2-3.3-3.8-2.7c-1.6,0-3.3,2.2-2.7,3.8
						C33,230.3,35.2,231.4,36.8,231.4z M35.2,219.3c1.6,0,3.3-1.6,3.3-3.8c0-1.6-1.6-3.3-3.8-3.3c-1.6,0-3.3,1.6-3.3,3.8
						C31.3,218.2,33,219.3,35.2,219.3z M34.1,207.2c1.6,0,3.3-1.6,3.3-3.3s-1.6-3.3-3.3-3.3c-1.6,0-3.3,1.6-3.3,3.3
						S32.4,207.2,34.1,207.2z M34.1,195.1c1.6,0,3.3-1.6,3.3-3.3s-1.1-3.3-3.3-3.8c-1.6,0-3.3,1.1-3.8,3.3
						C30.8,193.5,32.4,195.1,34.1,195.1z M34.6,183c1.6,0,3.8-1.1,3.8-2.7s-1.1-3.8-2.7-3.8s-3.8,1.1-3.8,2.7
						C31.3,180.8,33,183,34.6,183z M36.3,171c2.2,0.5,3.8-0.5,4.4-2.7c0.5-1.6-0.5-3.8-2.7-3.8c-1.6-0.5-3.8,0.5-3.8,2.7
						C33.5,168.8,34.6,171,36.3,171z M39,159.4c1.6,0.5,3.8-0.5,4.4-2.2c0.5-1.6-0.5-3.8-2.2-4.4c-1.6-0.5-3.8,0.5-4.4,2.2
						C35.7,156.7,37.4,158.9,39,159.4z M42.3,147.9c1.6,0.5,3.8-0.5,4.4-2.2c0.5-1.6-0.5-3.8-2.2-4.4c-1.6-0.5-3.8,0-4.4,2.2
						C39.6,145.1,40.7,146.8,42.3,147.9z M46.7,136.3c1.6,0.5,3.8,0,4.4-1.6c0.5-1.6,0-3.8-1.6-4.4c-1.6-0.5-3.8,0-4.4,1.6
						C44,133.6,44.5,135.8,46.7,136.3z M51.6,125.4c1.6,1.1,3.8,0,4.4-1.6c1.1-1.6,0-3.8-1.6-4.4c-1.6-1.1-3.8-0.5-4.4,1.6
						C48.9,122.6,50,124.3,51.6,125.4z M57.1,114.4c1.6,1.1,3.8,0.5,4.9-1.1c1.1-1.6,0.5-3.8-1.1-4.9s-3.8-0.5-4.9,1.1
						C54.9,111.6,55.5,113.8,57.1,114.4z M63.7,104.5c1.6,1.1,3.8,0.5,4.9-0.5c1.1-1.6,0.5-3.8-0.5-4.9c-1.6-1.1-3.8-0.5-4.9,0.5
						C61.5,101.2,62.1,103.4,63.7,104.5z M70.9,94.6c1.6,1.1,3.8,1.1,4.9-0.5s1.1-3.3-0.5-4.9c-1.6-1.1-3.8-1.1-4.9,0.5
						C69.2,91.3,69.2,93.5,70.9,94.6z M83.5,80.3c-1.1-1.1-3.3-1.1-4.9,0c-1.1,1.6-1.1,3.8,0,4.9c1.6,1.1,3.8,1.1,4.9,0
						C85.2,84.2,84.6,82,83.5,80.3z M92.3,72.6C91.2,71,89,71,87.4,72.1s-1.6,3.3,0,4.9c1.1,1.6,3.3,1.6,4.9,0
						C93.4,75.9,93.4,73.7,92.3,72.6z M101.6,64.9c-1.1-1.6-3.3-1.6-4.9-0.5s-1.6,3.3-0.5,4.9s3.3,1.6,4.9,0.5
						C102.7,68.2,102.7,66,101.6,64.9z M111.5,57.8c-1.1-1.6-3.3-2.2-4.9-1.1c-1.6,1.1-2.2,3.3-1.1,4.9s3.3,2.2,4.9,1.1
						C112.1,61.6,112.6,59.4,111.5,57.8z M122,51.7c-1.1-1.6-2.7-2.2-4.9-1.1c-1.6,1.1-2.2,3.3-1.1,4.9c1.1,1.6,3.3,2.2,4.9,1.1
						C122.5,55.6,123.1,53.4,122,51.7z M133,46.2c-1.1-1.6-2.7-2.2-4.9-1.6c-1.6,1.1-2.2,2.7-1.1,4.9c1.1,1.6,2.7,2.2,4.4,1.6
						C133,50.1,133.5,47.9,133,46.2z M143.9,41.9c-0.5-1.6-2.7-2.7-4.4-2.2c-1.6,0.5-2.7,2.7-2.2,4.4c0.5,1.6,2.7,2.7,4.4,2.2
						C143.9,45.7,144.5,43.5,143.9,41.9z M155.5,38c-0.5-1.6-2.7-2.7-4.4-2.2c-1.6,0.5-2.7,2.7-2.2,4.4s2.7,2.7,4.4,2.2
						C154.9,41.3,156,39.7,155.5,38z M167,34.7c0-1.6-2.2-2.7-3.8-2.2s-3.3,2.2-2.7,4.4c0.5,1.6,2.2,2.7,4.4,2.7
						C166.5,38.6,167.6,36.9,167,34.7z M179.1,32.5c0-1.6-2.2-3.3-3.8-2.7c-2.2,0.5-3.3,2.2-2.7,3.8c0.5,1.6,2.2,3.3,3.8,2.7
						C178,36.4,179.1,34.7,179.1,32.5z M187.3,28.1c-2.2,0-3.3,1.6-3.3,3.8c0,1.6,1.6,3.3,3.8,3.3c1.6,0,3.3-1.6,3.3-3.8
						C191.2,29.8,189.5,28.1,187.3,28.1z M199.4,27.6c-2.2,0-3.3,1.6-3.3,3.3c0,1.6,1.6,3.3,3.3,3.3c2.2,0.5,3.8-1.1,3.8-3.3
						C203.3,29.2,201.6,27.6,199.4,27.6z M212.1,27.6c-2.2,0-3.8,1.6-3.8,3.3c0,1.6,1.6,3.3,3.3,3.3s3.3-1.1,3.8-3.3
						C215.4,29.8,213.7,28.1,212.1,27.6z M224.2,28.7c-2.2,0-3.8,1.1-3.8,2.7s1.1,3.8,2.7,3.8s3.3-1.1,3.8-2.7
						C227.4,30.9,226.3,29.2,224.2,28.7z M236.2,30.9c-1.6-0.5-3.8,1.1-3.8,2.7c-0.5,1.6,1.1,3.8,2.7,3.8c1.6,0.5,3.8-0.5,3.8-2.7
						C239.5,33.1,238.4,30.9,236.2,30.9z M248.3,33.6c-1.6-0.5-3.8,0.5-4.4,2.2c-0.5,1.6,0.5,3.8,2.2,4.4c1.6,0.5,3.8-0.5,4.4-2.2
						C251.6,35.8,250.5,34.2,248.3,33.6z M260.4,37.5c-1.6-0.5-3.8,0.5-4.4,2.2s0.5,3.8,2.2,4.4c1.6,0.5,3.8-0.5,4.4-2.2
						C263.2,39.7,262.1,38,260.4,37.5z M271.9,41.9c-1.6-1.1-3.8,0-4.4,1.6c-0.5,1.6,0,3.8,1.6,4.4c1.6,0.5,3.8,0,4.4-1.6
						C274.1,44.6,273.6,42.4,271.9,41.9z M284,51.7c1.1-1.6,0-3.8-1.6-4.4c-1.6-1.1-3.8,0-4.9,1.6s0,3.8,1.6,4.4
						C281.3,53.9,283.5,53.4,284,51.7z M294.5,57.8c1.1-1.6,0.5-3.8-1.1-4.9s-3.8-0.5-4.9,1.1s-0.5,3.8,1.1,4.9
						C291.7,60,293.4,59.4,294.5,57.8z M304.4,64.9c1.1-1.6,0.5-3.8-0.5-4.9c-1.6-1.1-3.8-0.5-4.9,0.5c-1.1,1.6-0.5,3.8,0.5,4.9
						C301.1,66.6,303.3,66,304.4,64.9z M313.7,67.7c-1.6-1.1-3.8-1.1-4.9,0.5c-1.1,1.1-1.1,3.3,0.5,4.4s3.3,1.1,4.9-0.5
						C315.3,71,314.8,68.8,313.7,67.7z M322.5,75.9c-1.6-1.1-3.8-1.1-4.9,0c-1.1,1.6-1.1,3.8,0,4.9s3.3,1.1,4.9,0
						C324.1,79.2,324.1,77,322.5,75.9z M331.3,89.6c1.6-1.1,1.6-3.3,0.5-4.9s-3.3-1.6-4.9,0c-1.6,1.1-1.6,3.3,0,4.9
						C327.4,90.7,329.6,90.7,331.3,89.6z M339.5,94c-1.1-1.6-3.3-1.6-4.9-0.5s-1.6,3.3-0.5,4.9s3.3,1.6,4.9,0.5
						C340.1,97.9,340.6,95.7,339.5,94z M345.6,108.9c1.6-1.1,2.2-3.3,1.1-4.9s-3.3-2.2-4.9-1.1s-2.2,3.3-1.1,4.9
						C341.7,109.4,343.9,110,345.6,108.9z M352.7,128.1c0.5,1.6,2.7,2.2,4.4,1.6c1.6-0.5,2.7-2.7,1.6-4.4c-1.1-1.6-2.7-2.2-4.9-1.6
						C352.2,124.8,351.6,126.5,352.7,128.1z M357.1,139.1c0.5,1.6,2.7,2.7,4.4,2.2c1.6-0.5,2.7-2.7,2.2-4.4
						c-0.5-1.6-2.7-2.7-4.4-2.2S356.6,137.4,357.1,139.1z M361.5,150.1c0.5,1.6,2.2,2.7,4.4,2.2c1.6-0.5,2.7-2.7,2.2-4.4
						s-2.7-2.7-4.4-2.2C361.5,146.8,360.9,148.4,361.5,150.1z M367,157.8c-1.6,0.5-2.7,2.2-2.7,4.4c0.5,1.6,2.2,2.7,4.4,2.7
						c1.6-0.5,2.7-2.2,2.7-4.4C370.8,158.3,368.6,157.2,367,157.8z M369.7,169.3c-1.6,0.5-3.3,2.2-2.7,3.8c0.5,1.6,2.2,3.3,3.8,2.7
						c1.6,0,3.3-2.2,2.7-3.8C373,170.4,371.4,168.8,369.7,169.3z M371.4,181.4c-1.6,0-3.3,1.6-3.3,3.8c0,1.6,1.6,3.3,3.8,3.3
						c1.6,0,3.3-1.6,3.3-3.8C375.2,182.5,373,180.8,371.4,181.4z M372.5,193.5c-1.6,0-3.3,1.6-3.3,3.3s1.6,3.3,3.3,3.3
						c1.6,0,3.3-1.6,3.3-3.3C375.8,194.6,374.1,193.5,372.5,193.5z"/>
				</g>
			</g>
		</g>
		<g>
			<path class="st3" d="M78,286.9c-24.2,0-46.1-4.4-66.5-13.7c-6.6-2.7-9.9-11-9.9-24.7v-92.8c0-1.1,0-1.6,0-2.7
				c3.3,1.6,7.1,2.7,11,3.8c19.2,7.1,39.6,11,61.5,11c42.9,0,86.8-13.7,129.1-26.9c41.2-13.2,84.1-26.4,125.3-26.4
				c19.2,0,36.8,2.7,53.8,8.8c4.4,1.6,8.2,3.3,12.6,4.9c6.6,2.7,9.3,10.4,9.9,23.6v93.4c0,1.1,0,1.6,0,2.7c-3.3-1.6-7.1-2.7-11-3.8
				c-19.2-7.1-39.6-11-61.5-11c-42.9,0-86.8,13.7-129.1,26.9C162.1,273.1,119.2,286.9,78,286.9z"/>
			<path class="st2" d="M328.5,115.5L328.5,115.5c19.2,0,36.8,2.7,53.3,8.8c4.4,1.6,8.2,3.3,12.6,4.9c5.5,2.7,8.8,9.9,8.8,22v93.4
				c0,0,0,0,0,0.5c-2.7-1.1-5.5-2.2-8.8-3.3c-19.8-7.1-40.1-11-62.1-11c-43.4,0-86.8,13.7-129.1,26.9
				c-41.1,13.2-83.4,26.4-124.6,26.4c-24.2,0-45.6-4.4-65.9-13.7c-6-2.7-8.8-10.4-8.8-23.1v-91.7v-0.5c2.7,1.1,5.5,2.2,8.8,3.3
				c19.8,7.1,40.1,11,62.1,11c43.4,0,86.8-13.7,129.1-26.9C245,129.2,287.3,115.5,328.5,115.5 M328.5,112.2
				c-83,0-168.7,53.3-253.8,53.3c-20.3,0-40.7-3.3-61-11c-4.4-1.6-8.8-2.7-12.6-4.9c-1.1,2.2-1.1,3.8-1.1,6v92.3
				c0,12.6,2.7,22.5,10.4,26.4c22,9.9,44.5,14.3,67.6,14.3c83,0,168.7-53.3,253.8-53.3c20.3,0,40.7,3.3,61,11
				c4.4,1.6,8.8,2.7,12.6,4.9c0.5-1.6,0.5-3.3,0.5-5.5v-93.4c0-12.1-2.7-21.4-10.4-25.3c-4.4-2.2-8.8-3.8-12.6-4.9
				C364.8,114.9,346.7,112.2,328.5,112.2L328.5,112.2z"/>
		</g>
		<g>
			<g>
				<g>
					<path class="st2" d="M115.4,236.3c0.5,1.6,1.1,2.7,1.6,3.3c1.1,0.5,2.2,0.5,3.8,0.5c3.3-0.5,7.1-4.9,11.5-11
						c0,0.5,0.5,2.2,0.5,2.7c-3.8,6.6-12.1,14.3-18.7,15.9c-1.6,0.5-3.8-0.5-4.4-4.4c-1.6-7.1-0.5-14.8,3.3-20.3
						c4.4-6.6,11-10.4,14.3-11c2.2-0.5,3.3,0.5,3.8,1.6c0.5,1.6-0.5,4.4-1.1,5.5c-3.3,5.5-8.8,9.9-14.3,12.1
						C114.8,231.9,114.8,234.1,115.4,236.3z M125.3,218.2c-0.5-1.6-1.6-2.7-3.8-2.2c-1.1,0-2.7,1.1-3.8,2.7c-1.6,2.7-2.2,6-2.7,9.3
						c1.6-0.5,7.7-3.3,9.3-6.6C125.3,221,125.3,219.3,125.3,218.2z"/>
					<path class="st2" d="M145,237.4c-2.2,3.3-6.6,4.9-7.7,5.5c0-7.7,1.1-19.2,2.2-30.2c1.1-9.3,3.3-23.1,5.5-29.1
						c1.6-1.6,4.4-3.8,6-3.8c-2.7,9.3-4.4,23.1-5.5,36.8C145,226.4,144.5,232.5,145,237.4z"/>
					<path class="st2" d="M162.6,233.6c-2.2,3.3-6.6,4.9-7.7,5.5c0-7.7,1.1-19.2,2.2-30.2c1.1-9.3,3.3-23.1,5.5-29.1
						c1.6-1.6,4.4-3.8,6-3.8c-2.7,9.3-4.4,23.1-5.5,36.8C162.6,222.6,162.6,228.1,162.6,233.6z"/>
					<path class="st2" d="M191.7,221.5c-4.4,6.6-11,11.5-14.8,12.1c-3.3,0.5-4.9-1.6-5.5-4.4c-1.1-5.5,0-13.2,3.3-18.1
						c4.9-7.1,11-12.6,15.9-13.7c3.3-0.5,4.9,1.1,5.5,4.4C197.8,207.2,196.7,213.8,191.7,221.5z M179.1,208.3
						c-2.2,3.8-2.7,9.3-2.2,13.7c1.1,3.8,2.2,6,5.5,5.5c5.5-1.1,10.4-10.4,8.2-20.3c-0.5-3.3-2.7-4.4-4.9-3.8
						C183.5,203.4,181.3,204.5,179.1,208.3z"/>
					<path class="st2" d="M57.1,234.1c-1.1,7.1-2.2,18.1-1.6,25.8c-1.6,2.2-8.8,7.1-11,7.7c-0.5-8.8,1.6-21.4,2.7-30.2
						c-2.2,0.5-7.1,2.2-9.9,3.3c0.5-2.2,3.3-6.6,5.5-7.7c1.6-0.5,3.3-1.1,5.5-1.6c1.6-9.3,3.8-20.3,5.5-29.7
						c2.2-2.2,8.2-4.9,11.5-5.5c-3.3,13.7-5.5,23.6-6.6,33c16.5-4.4,29.7-7.1,34.6-9.3c1.1-7.1,3.3-22.5,4.4-27.5
						c2.2-2.2,8.2-4.9,11-5.5c-2.2,8.8-3.8,21.4-5.5,33c-1.1,10.4-1.6,23.1-1.1,30.2c-1.6,2.7-8.2,7.1-11,7.7
						c-0.5-9.3,0-23.6,1.6-36.3c-2.2,2.2-6.6,4.4-9.3,6C78.6,227.5,65.4,231.4,57.1,234.1z"/>
				</g>
				<g>
					<path class="st2" d="M270.8,184.7c-3.3,0.5-5.5,2.7-7.7,5.5c-3.8,6.6-5.5,13.2-6,18.7c-1.6,2.7-4.9,4.4-6.6,4.4
						c2.2-10.4,2.7-22,2.2-27.5c1.1-1.6,6-5.5,7.1-6c0.5,1.6,0,8.8-0.5,13.7c5.5-8.8,9.3-15.4,14.3-16.5c0.5,0,1.6,0,2.2,0
						c0,1.1-1.6,4.9-2.7,6.6L270.8,184.7z"/>
					<path class="st2" d="M283.5,196.2c0.5,1.6,1.1,2.7,1.6,3.3c1.1,0.5,2.2,0.5,3.8,0.5c3.3-0.5,7.1-4.9,11.5-11
						c0,0.5,0.5,2.2,0.5,2.7c-3.8,6.6-12.1,14.3-18.7,15.9c-1.6,0.5-3.8-0.5-4.4-4.4c-1.6-7.1-0.5-14.8,3.3-20.3
						c4.4-7.1,11-10.4,14.3-11c2.2-0.5,3.3,0.5,3.8,1.6c0.5,1.6-0.5,4.4-1.1,5.5c-3.3,5.5-8.8,9.9-14.3,12.1
						C282.9,192.4,282.9,194.6,283.5,196.2z M292.8,178.6c-0.5-1.6-1.6-2.7-3.8-2.2c-1.1,0-2.7,1.1-3.8,2.7c-1.6,2.7-2.2,6-2.7,9.3
						c1.6-0.5,7.7-3.3,9.3-6.6C292.8,180.8,293.4,179.2,292.8,178.6z"/>
					<path class="st2" d="M319.7,179.2c4.9,1.1,8.2,2.7,8.8,6c0.5,1.6,0,3.3-1.1,4.9c-3.3,4.9-9.9,9.9-15.9,11
						c-5.5,1.1-9.3-0.5-9.9-3.8c0-2.2,1.6-4.9,3.3-5.5c2.2,4.4,6,7.1,9.9,6c2.2-0.5,4.4-1.6,5.5-3.8c1.1-1.6,1.6-3.3,1.1-4.4
						c-0.5-1.6-2.7-3.3-7.1-4.9c-6-1.6-7.7-3.3-8.2-5.5c0-1.1,0-2.7,1.1-3.8c2.2-3.3,8.2-8.8,16.5-10.4c1.6-0.5,3.3-0.5,4.4,0
						c0,1.1-1.6,3.8-2.7,4.9c-1.6-1.1-4.4-1.1-6.6-1.1c-2.7,0.5-4.9,1.6-6,3.3c-0.5,0.5-0.5,1.6-0.5,2.2
						C313.2,176.5,314.8,177.6,319.7,179.2z"/>
					<path class="st2" d="M358.8,164.4c0-1.1-0.5-1.6-1.6-1.6c-1.6,0.5-6.6,3.8-11,10.4c-2.7,4.4-3.8,11-4.4,17
						c-2.2,3.3-6.6,4.9-7.7,5.5c0.5-10.4,1.6-18.7,2.7-29.7c0.5-8.2,2.7-22.5,4.9-29.1c1.1-1.1,4.4-3.3,6-3.8
						c-1.6,5.5-3.3,15.9-4.4,25.8c-0.5,6.6-1.1,12.1-1.6,18.1c7.1-11.5,17-19.8,20.9-20.9c1.1,0,1.6,0.5,1.6,1.6
						c1.1,4.9-2.2,17-1.1,22.5c0.5,1.6,0.5,2.2,2.2,2.7c-1.6,2.7-6.6,7.7-8.8,8.2c0.5-3.3,1.1-9.9,1.6-15.4
						C359.3,166.6,359.3,165.5,358.8,164.4z"/>
					<path class="st2" d="M222.5,192.9c7.7-2.2,20.9-5.5,27.5-7.7c0,1.1-2.2,3.8-3.3,4.9c-3.3,2.2-13.2,5.5-25.3,8.8
						c-1.1,4.9-2.2,14.8-2.2,22c-1.1,2.2-8.8,7.7-9.9,8.2c0-11,3.8-34.1,7.7-51.1c2.2-2.2,6-4.9,9.9-6.6
						C225.2,178.6,223.6,186.9,222.5,192.9z M208.2,173.7c-0.5-1.6,5.5-8.2,7.7-9.9c10.4-3.3,31.3-7.7,43.4-12.1
						c0,1.1-3.8,6-7.1,7.7c-4.4,1.6-17,5.5-29.1,8.8C218.1,169.9,210.4,172.6,208.2,173.7z"/>
				</g>
			</g>
		</g>
	</g>
	<g>
		<path class="st2" d="M276.3,262.2c0,0-3.3,4.4-3.8,4.9c-15.9,13.7-50,0-68.7,3.3c-12.6,2.2-24.2,8.2-31.9,18.7
			c-4.4,6.6-7.7,18.1-6.6,26.4c0.5,3.8,1.6,7.7,0.5,11.5c-0.5,2.7-2.2,4.9-3.8,7.7c0.5,2.2,1.1,3.8,1.6,5.5c1.6-3.8,3.3-7.1,6.6-9.3
			c0.5,0,7.7,7.1,8.8,7.7c2.7,2.2,6,3.8,9.3,4.9c7.7,2.7,15.4,3.8,23.6,2.7c60.4-7.1,64.3-78.6,64.3-79.1
			C276.3,266,276.3,262.2,276.3,262.2z M205.5,299c-14.3,8.8-32.4,24.2-32.4,24.2c0.5-0.5,8.2-20.9,28-31.3
			c25.8-13.7,63.7-12.6,63.7-12.6S222,288.5,205.5,299z"/>
	</g>
</g>
</svg>
