<!-- Generator: Adobe Illustrator 19.2.0, SVG Export Plug-In  -->
<svg version="1.1"
	 xmlns="http://www.w3.org/2000/svg" xmlns:xlink="http://www.w3.org/1999/xlink" xmlns:a="http://ns.adobe.com/AdobeSVGViewerExtensions/3.0/"
	 x="0px" y="0px" width="29.4px" height="23.6px" viewBox="0 0 29.4 23.6" style="enable-background:new 0 0 29.4 23.6;"
	 xml:space="preserve">
<style type="text/css">
	.st0{fill:#FFFFFF;}
</style>
<defs>
</defs>
<g>
	<path class="st0" d="M29.4,3.1c-1.1,0.5-2,0.5-2.9,0c1.2-0.7,1.3-1.3,1.7-2.6c-1.2,0.7-2.4,1.2-3.8,1.4C23.4,0.7,21.8,0,20.1,0
		c-3.3,0-6,2.7-6,6c0,0.5,0.1,0.9,0.2,1.4C9.4,7.1,5,4.7,2,1.1C1.5,2,1.2,3,1.2,4.1c0,2.1,1.1,3.9,2.7,5C2.9,9,2,8.7,1.2,8.3
		c0,0,0,0,0,0.1c0,2.9,2.1,5.3,4.8,5.8c-0.9,0.2-1.8,0.3-2.7,0.1c0.8,2.4,3,4.1,5.6,4.1c-2.5,2-5.7,2.8-8.8,2.5
		c2.6,1.7,5.8,2.7,9.1,2.7c11,0,17-9.1,17-17c0-0.3,0-0.5,0-0.8C27.2,5,28.6,4.3,29.4,3.1z"/>
</g>
</svg>
