<!-- Generator: Adobe Illustrator 19.2.1, SVG Export Plug-In  -->
<svg version="1.1"
	 xmlns="http://www.w3.org/2000/svg" xmlns:xlink="http://www.w3.org/1999/xlink" xmlns:a="http://ns.adobe.com/AdobeSVGViewerExtensions/3.0/"
	 x="0px" y="0px" width="47.1px" height="47.8px" viewBox="0 0 47.1 47.8" style="enable-background:new 0 0 47.1 47.8;"
	 xml:space="preserve">
<style type="text/css">
	.st0{fill:#D2D5D7;}
	.st1{fill:#FBD490;}
	.st2{fill:#E6E6E6;}
	.st3{fill:#FAF5E5;}
</style>
<defs>
</defs>
<g>
	<g>
		<path class="st0" d="M7.4,29c-1.4-1.6-2.6-3.5-3.5-5.5c0,0,0-0.1-0.1-0.1c-0.2-0.4-0.2-0.9,0-1.4C1.4,22.8,0,23.9,0,25
			c0,1.8,3.5,3.3,8.9,4.3C8.4,29.3,7.9,29.1,7.4,29z"/>
	</g>
	<path class="st1" d="M45.1,4.9c0,0,0-0.1-0.1-0.1c-1-2.1-7.2-1.5-15.3,1.3c3.8,1.8,7.3,3.7,10,5.5c-3.3,2.4-7.9,5.1-13.1,7.4
		c-6.7,3-13,4.9-17.3,5.4c-0.5-0.2-1-0.4-1.4-0.6c-1-1.4-1.8-2.8-2.5-4.4c-1.5,1.6-2.1,2.9-1.7,3.8c0,0,0.1,0.1,0.1,0.1
		c0.9,2.1,2.1,3.9,3.5,5.5c4,0.9,9.4,1.4,15.3,1.4c8.8,0,16.4-1.2,20.1-3C47.4,21.1,48.5,12.6,45.1,4.9z"/>
	<g>
		<path class="st2" d="M42.8,27.5c-3.8,1.8-11.4,3-20.1,3c-5.2,0-9.9-0.4-13.7-1.1c-0.5-0.1-0.9-0.2-1.3-0.3c-0.1,0-0.1,0-0.2,0
			c0,0,0,0,0,0C2.8,28,0,26.6,0,25c0,0,0,0.1,0,0.1c0,12.5,10.1,22.6,22.6,22.6s22.6-10.1,22.6-22.6c0,0,0-0.1,0-0.1
			c0-0.4-0.1-0.7-0.4-1C44.3,25.2,43.6,26.4,42.8,27.5z"/>
	</g>
	<g>
		<path class="st3" d="M45.1,4.9c0,0,0-0.1-0.1-0.1c-0.2-0.3-0.5-0.6-0.9-0.8c0.4,0.2,0.7,0.5,0.9,0.8c1.2,2.8-7,9.1-18.4,14.3
			C15.2,24.2,5,26.1,3.8,23.4c0,0,0.1,0.1,0.1,0.1c0.9,2.1,2.1,3.9,3.5,5.5c4,0.9,9.4,1.4,15.3,1.4c8.8,0,16.4-1.2,20.1-3
			C47.4,21.1,48.5,12.6,45.1,4.9z"/>
	</g>
	<g>
		<path class="st2" d="M9.4,24.5c4.3-0.5,10.6-2.4,17.3-5.4c5.3-2.4,9.8-5,13.1-7.4c-3.1-2-6.9-4.1-11.2-6.1
			C17.2,0.4,6.9-1.5,5.7,1.3c0,0-0.1,0.1-0.1,0.1C2.2,9,3.4,17.6,7.9,23.9C8.4,24.1,8.8,24.3,9.4,24.5z"/>
	</g>
	<g>
		<path class="st0" d="M24.1,15.5c1.8,0.8,3.6,1.6,5.4,2.2c4.1-2,7.6-4.1,10.3-6.1c-3.1-2-6.9-4.1-11.2-6.1
			C17.2,0.4,6.9-1.5,5.7,1.3C4.5,4,12.7,10.4,24.1,15.5z"/>
	</g>
</g>
</svg>
