<!-- Generator: Adobe Illustrator 19.2.1, SVG Export Plug-In  -->
<svg version="1.1"
	 xmlns="http://www.w3.org/2000/svg" xmlns:xlink="http://www.w3.org/1999/xlink" xmlns:a="http://ns.adobe.com/AdobeSVGViewerExtensions/3.0/"
	 x="0px" y="0px" width="57.6px" height="57.6px" viewBox="0 0 57.6 57.6" style="enable-background:new 0 0 57.6 57.6;"
	 xml:space="preserve">
<style type="text/css">
	.st0{fill:#F0C419;}
	.st1{fill:#CB8252;}
	.st2{fill:#FBD490;}
	.st3{fill:#D7B888;}
</style>
<defs>
</defs>
<path class="st0" d="M22.1,35.5c0,5.3-5.7,10-5.7,10c0-4.2-2.1-8.4-2.1-8.4c0,3.3-4.9,3.3-4.9,3.3c-2.2-2.4,0-8.9,0-8.9
	C4,32.2,1.3,35.1,1.3,40c0,3.5,1.2,5.8,3.1,7.3c0,0-1.7-0.8-3.4-1.3c0.9,5.5,5.7,9.7,11.5,9.7c6.4,0,11.7-4.7,11.7-11.2
	S22.1,35.5,22.1,35.5z"/>
<path class="st1" d="M57.3,55.9L44,42.6v-8c0-0.6-0.4-1-1-1s-1,0.4-1,1v6L29.1,27.6c-0.4-0.4-1-0.4-1.4,0s-0.4,1,0,1.4l4.6,4.6H31
	c-0.6,0-1,0.4-1,1s0.4,1,1,1h3c0.1,0,0.1,0,0.2,0l15,15H45c-0.6,0-1,0.4-1,1s0.4,1,1,1h6c0.1,0,0.1,0,0.2,0l4.7,4.7
	c0.2,0.2,0.5,0.3,0.7,0.3s0.5-0.1,0.7-0.3C57.7,56.9,57.7,56.3,57.3,55.9z"/>
<path class="st2" d="M30.2,26.5l-3.8,3.8l0,0c-2.1,2.1-5.4,2.2-7.3,0.2l-3.5-3.5c-1.9-1.9-1.8-5.2,0.2-7.3l3.8-3.8
	c2.1-2.1,5.4-2.2,7.3-0.2l3.5,3.5C32.4,21.1,32.3,24.4,30.2,26.5z"/>
<path class="st3" d="M19.6,15.8l-3.8,3.8c-1.1,1.1-1.6,2.6-1.6,4c1.4,0,2.9-0.5,4-1.6l0,0l3.8-3.8c1.1-1.1,1.6-2.6,1.6-4
	C22.2,14.2,20.7,14.7,19.6,15.8z"/>
<path class="st1" d="M15.9,14.7c-0.4-0.4-1-0.4-1.4,0s-0.4,1,0,1.4l3,3c0.2,0.2,0.5,0.3,0.7,0.3s0.5-0.1,0.7-0.3
	c0.4-0.4,0.4-1,0-1.4L15.9,14.7z"/>
<path class="st2" d="M17,13.2L13.2,17l0,0c-2.1,2.1-5.4,2.2-7.3,0.2l-3.5-3.5c-1.9-1.9-1.8-5.2,0.2-7.3l3.8-3.8
	c2.1-2.1,5.4-2.2,7.3-0.2l3.5,3.5C19.2,7.9,19.1,11.1,17,13.2z"/>
<path class="st3" d="M6.4,2.6L2.6,6.4C1.5,7.5,1,9,1,10.4c1.4,0,2.9-0.5,4-1.6l0,0L8.8,5c1.1-1.1,1.6-2.6,1.6-4C9,1,7.5,1.5,6.4,2.6
	z"/>
<path class="st1" d="M1.7,0.3c-0.4-0.4-1-0.4-1.4,0s-0.4,1,0,1.4l4.1,4.1C4.6,6,4.9,6.1,5.1,6.1S5.6,6,5.8,5.8c0.4-0.4,0.4-1,0-1.4
	L1.7,0.3z"/>
</svg>
