<!-- Generator: Adobe Illustrator 18.1.1, SVG Export Plug-In  -->
<svg version="1.1"
   xmlns="http://www.w3.org/2000/svg" xmlns:xlink="http://www.w3.org/1999/xlink" xmlns:a="http://ns.adobe.com/AdobeSVGViewerExtensions/3.0/"
   x="0px" y="0px" width="94.5px" height="94.4px" viewBox="0 0 94.5 94.4" enable-background="new 0 0 94.5 94.4"
   xml:space="preserve">
<defs>
</defs>
<path fill="#CC66A1" d="M28.6,47.2c-2-0.7-3.9-1.8-5.6-3.5l-9.2-9.2c-0.6-0.6-1-1.2-1.5-1.8c0,0,0,0,0,0C5.4,33.9,0,39.9,0,47.2
  c0,8.1,6.6,14.7,14.7,14.7h13c8.1,0,14.7-6.6,14.7-14.7c0-0.7-0.1-1.4-0.2-2.1c-1.2,0.9-2.5,1.6-3.9,2.1
  C35.1,46.1,31.7,46.1,28.6,47.2z"/>
<path fill="none" d="M52.3,45.1c-0.6-0.4-1.1-0.9-1.6-1.4c-0.5-0.5-0.9-1-1.4-1.6c-0.7,0.1-1.4,0.2-2.1,0.2s-1.4-0.1-2.1-0.2
  c-0.4,0.6-0.9,1.1-1.4,1.6c-0.5,0.5-1,0.9-1.6,1.4c0.1,0.7,0.2,1.4,0.2,2.1c0,0.7-0.1,1.4-0.2,2.1c0.6,0.4,1.1,0.9,1.6,1.4l0,0
  c0.5,0.5,0.9,1,1.4,1.6c0.7-0.1,1.4-0.2,2.1-0.2s1.4,0.1,2.1,0.2c0.4-0.6,0.9-1.1,1.4-1.6l0,0c0.5-0.5,1-0.9,1.6-1.4
  c-0.1-0.7-0.2-1.4-0.2-2.1C52.1,46.5,52.2,45.8,52.3,45.1z"/>
<path fill="#F29C1F" d="M61.8,12.3C60.7,5.4,54.6,0,47.3,0S33.9,5.4,32.8,12.3c0.6,0.4,1.2,0.9,1.8,1.5l9.2,9.2
  c1.6,1.6,2.7,3.5,3.4,5.6c1.1,3.1,1.1,6.5,0,9.6c-0.5,1.4-1.2,2.7-2.1,4c0.7,0.1,1.4,0.2,2.1,0.2s1.4-0.1,2.1-0.2
  c1.5-0.2,2.9-0.7,4.3-1.3c3-1.4,5.5-3.8,7-6.8c0.9-1.9,1.6-4.1,1.6-6.4v-13C62.2,13.9,62,13.1,61.8,12.3z"/>
<path fill="#90BAE1" d="M59.9,80.6l-9.2-9.2c-1.6-1.6-2.8-3.5-3.5-5.6c-1.1-3.1-1.1-6.5,0-9.6c0.5-1.4,1.2-2.7,2.1-4
  c-0.7-0.1-1.4-0.2-2.1-0.2s-1.4,0.1-2.1,0.2c-1.5,0.2-2.9,0.7-4.3,1.3c-3,1.4-5.5,3.8-7,6.8c-0.9,1.9-1.7,4.1-1.7,6.4v13
  c0,0.8,0.3,1.6,0.4,2.3c1.1,7,7.3,12.3,14.5,12.3s13.4-5.4,14.5-12.3C61,81.7,60.5,81.2,59.9,80.6z"/>
<path fill="#B1E97C" d="M82.1,32.8c-0.4,0.6-0.9,1.2-1.5,1.8l-9.2,9.2c-1.6,1.6-3.5,2.8-5.6,3.5c-3.1,1.1-6.5,1.1-9.6,0
  c-1.4-0.5-2.7-1.2-4-2.1c-0.1,0.7-0.2,1.4-0.2,2.1c0,0.7,0.1,1.4,0.2,2.1c0.2,1.5,0.7,2.9,1.3,4.3c1.4,3,3.8,5.4,6.8,6.8
  c1.9,0.9,4.1,1.5,6.4,1.5h13c0.8,0,1.6-0.1,2.3-0.2c7-1.1,12.3-7.2,12.3-14.5S89.1,33.9,82.1,32.8z"/>
<path fill="#F3D55B" d="M80.6,13.8c-5.1-5.1-13.1-5.6-18.8-1.5c0.1,0.8,0.4,1.5,0.4,2.3v13c0,2.3-0.7,4.4-1.6,6.4
  c-1.4,3-3.9,5.4-6.9,6.8c-1.3,0.6-2.8,1.1-4.3,1.3c0.4,0.6,0.8,1.1,1.3,1.6c0.5,0.5,1,0.9,1.6,1.4c1.2,0.9,2.6,1.6,3.9,2.1
  c3.1,1.1,6.5,1.1,9.6,0c2-0.7,3.9-1.8,5.6-3.5l9.2-9.2c0.6-0.6,1-1.2,1.5-1.8C86.3,27,85.8,19,80.6,13.8z"/>
<path fill="#71C285" d="M82.1,61.7c-0.8,0.1-1.5,0.2-2.3,0.2h-13c-2.3,0-4.4-0.5-6.4-1.5c-3-1.4-5.4-3.8-6.8-6.8
  c-0.6-1.3-1.1-2.8-1.3-4.3c-0.6,0.4-1.1,0.9-1.6,1.4c-0.5,0.5-0.9,1-1.4,1.6c-0.9,1.2-1.6,2.6-2.1,4c-1.1,3.1-1.1,6.5,0,9.6
  c0.7,2,1.8,3.9,3.5,5.6l9.2,9.2c0.6,0.6,1.2,1,1.8,1.5c5.7,4.1,13.8,3.6,18.9-1.5C85.8,75.5,86.3,67.4,82.1,61.7z"/>
<path fill="#F38774" d="M47.2,28.6c-0.7-2-1.8-3.9-3.5-5.6l-9.2-9.2c-0.6-0.6-1.2-1-1.8-1.5C27.1,8.2,19,8.7,13.9,13.8
  C8.7,19,8.2,27.2,12.4,32.9c0.8-0.1,1.5,0,2.3,0h13c7.4,0,13.5,5.3,14.5,12.4c0,0,0-0.1,0-0.1c0.6-0.4,1.1-0.9,1.6-1.4
  s0.9-1.1,1.4-1.6c0.9-1.2,1.6-2.6,2.1-4C48.3,35.1,48.3,31.7,47.2,28.6z"/>
<path fill="#CC66A1" d="M27.7,32.9h-13c-0.8,0-1.6-0.1-2.3,0c0,0,0-0.1,0-0.1c0.4,0.6,0.9,1.2,1.5,1.7l9.2,9.2
  c1.6,1.6,3.5,2.7,5.6,3.4c3.1-1.1,6.5-1.1,9.6,0c1.4-0.5,2.7-1,3.9-1.9C41.1,38.2,35,32.9,27.7,32.9z"/>
<path fill="#A88CB7" d="M43.8,50.7c-0.5-0.5-1-0.9-1.6-1.4c-1.2-0.9-2.6-1.6-4-2.1c-3.1-1.1-6.5-1.1-9.6,0c-2,0.7-3.9,1.8-5.6,3.5
  l-9.2,9.2c-0.6,0.6-1,1.2-1.5,1.8c-4.1,5.7-3.6,13.8,1.5,18.9s13,5.6,18.7,1.5c-0.1-0.8-0.4-1.5-0.4-2.3v-13c0-2.3,0.7-4.4,1.7-6.4
  c1.4-3,3.9-5.4,6.9-6.8c1.3-0.6,2.8-1.1,4.3-1.3C44.7,51.7,44.3,51.2,43.8,50.7z"/>
</svg>
