<!-- Generator: Adobe Illustrator 18.1.1, SVG Export Plug-In  -->
<svg version="1.1"
   xmlns="http://www.w3.org/2000/svg" xmlns:xlink="http://www.w3.org/1999/xlink" xmlns:a="http://ns.adobe.com/AdobeSVGViewerExtensions/3.0/"
   x="0px" y="0px" width="100px" height="58px" viewBox="0 0 100 58" enable-background="new 0 0 100 58" xml:space="preserve">
<defs>
</defs>
<g>
  <path fill="#485762" d="M100,54.4c0,2-1.6,3.6-3.6,3.6H3.6c-2,0-3.6-1.6-3.6-3.6V3.6C0,1.6,1.6,0,3.6,0h92.8c2,0,3.6,1.6,3.6,3.6
    V54.4z"/>
  <rect x="16" fill="#57B0E3" width="73" height="58"/>
  
    <line fill="none" stroke="#0096E6" stroke-width="2" stroke-linecap="round" stroke-miterlimit="10" x1="77.4" y1="4.9" x2="84.3" y2="11.8"/>
  
    <line fill="none" stroke="#0096E6" stroke-width="2" stroke-linecap="round" stroke-miterlimit="10" x1="68.9" y1="4.9" x2="72.3" y2="8.3"/>
  
    <line fill="none" stroke="#0096E6" stroke-width="2" stroke-linecap="round" stroke-miterlimit="10" x1="75.7" y1="11.8" x2="75.7" y2="11.8"/>
  
    <line fill="none" stroke="#0096E6" stroke-width="2" stroke-linecap="round" stroke-miterlimit="10" x1="79.2" y1="15.2" x2="84.3" y2="20.3"/>
  
    <line fill="none" stroke="#0096E6" stroke-width="2" stroke-linecap="round" stroke-miterlimit="10" x1="60.3" y1="4.9" x2="75.7" y2="20.3"/>
  
    <line fill="none" stroke="#0096E6" stroke-width="2" stroke-linecap="round" stroke-miterlimit="10" x1="79.2" y1="23.8" x2="79.2" y2="23.8"/>
  <path fill="#667D8C" d="M92.9,6.6c0-0.4,0.2-0.9,0.5-1.2c0.3-0.3,0.8-0.5,1.2-0.5c0.5,0,0.9,0.2,1.2,0.5c0.6,0.6,0.6,1.8,0,2.4
    c-0.3,0.3-0.8,0.5-1.2,0.5s-0.9-0.2-1.2-0.5C93.1,7.5,92.9,7.1,92.9,6.6z"/>
  
    <line fill="none" stroke="#0096E6" stroke-width="2" stroke-linecap="round" stroke-miterlimit="10" x1="82.6" y1="27.2" x2="84.3" y2="28.9"/>
  <path fill="#D4DBDF" d="M93,34.1V23.8c0-0.9,0.6-1.7,1.5-1.7s1.5,0.8,1.5,1.7v10.3c0,0.9-0.6,1.7-1.5,1.7S93,35,93,34.1z"/>
  <path fill="#667D8C" d="M93,49.5v-1.7c0-0.9,0.6-1.7,1.5-1.7s1.5,0.8,1.5,1.7v1.7c0,0.9-0.6,1.7-1.5,1.7S93,50.5,93,49.5z"/>
  <path fill="#667D8C" d="M93,42.7v-1.7c0-0.9,0.6-1.7,1.5-1.7S96,40,96,40.9v1.7c0,0.9-0.6,1.7-1.5,1.7S93,43.6,93,42.7z"/>
  <path fill="#D4DBDF" d="M10,34.5c0,0.8-0.7,1.5-1.5,1.5h-2C5.7,36,5,35.3,5,34.5v-11C5,22.7,5.7,22,6.5,22h2c0.8,0,1.5,0.7,1.5,1.5
    V34.5z"/>
</g>
</svg>
