<!-- Generator: Adobe Illustrator 18.1.1, SVG Export Plug-In  -->
<svg version="1.1"
   xmlns="http://www.w3.org/2000/svg" xmlns:xlink="http://www.w3.org/1999/xlink" xmlns:a="http://ns.adobe.com/AdobeSVGViewerExtensions/3.0/"
   x="0px" y="0px" width="76px" height="70.2px" viewBox="0 0 76 70.2" enable-background="new 0 0 76 70.2" xml:space="preserve">
<defs>
</defs>
<g>
  <polygon fill="#57B0E3" points="13.6,67.3 26,64.5 26,54.9   "/>
  <polygon fill="#57B0E3" points="51,30.5 51,68.8 76,58.8 76,4.7  "/>
  <g>
    <polygon fill="#4FBA6F" points="26,30.5 3.3,7.9 0,8.6 0,70.2 3.1,69.6 26,46.8     "/>
    <polygon fill="#4FBA6F" points="26,2.9 10.1,6.4 26,22.3     "/>
    <polygon fill="#4FBA6F" points="71.7,1.7 51,8.6 51,22.4     "/>
    <polygon fill="#4AA562" points="38.5,34.6 51,22.4 51,8.6 26,2.9 26,22.3     "/>
    <polygon fill="#4AA562" points="26,30.5 26,46.8 34.2,38.6     "/>
    <polygon fill="#51A3CA" points="26,54.9 26,64.5 51,68.8 51,30.5     "/>
    <polygon fill="#F3D55B" points="26,22.3 10.1,6.4 3.5,7.9 26,30.5    "/>
    <polygon fill="#F3D55B" points="26,46.8 3.3,69.6 13.7,67.3 26,54.9    "/>
    <polygon fill="#F3D55B" points="51,30.5 76,4.7 76,0 71.3,1.7 51,22.4    "/>
    <polygon fill="#DDBE56" points="38.5,34.6 26,22.3 26,30.5 34.2,38.6 26,46.8 26,54.9 51,30.5 51,22.4     "/>
  </g>
</g>
</svg>
