<!-- Generator: Adobe Illustrator 19.2.1, SVG Export Plug-In  -->
<svg version="1.1"
	 xmlns="http://www.w3.org/2000/svg" xmlns:xlink="http://www.w3.org/1999/xlink" xmlns:a="http://ns.adobe.com/AdobeSVGViewerExtensions/3.0/"
	 x="0px" y="0px" width="52px" height="33px" viewBox="0 0 52 33" style="enable-background:new 0 0 52 33;" xml:space="preserve">
<style type="text/css">
	.st0{fill:#E5AF17;}
	.st1{fill:#CE9811;}
	.st2{fill:#FCC62B;}
	.st3{fill:#FFD947;}
	.st4{fill:#F0C419;}
</style>
<defs>
</defs>
<path class="st0" d="M26,25C11.6,25,0,18.9,0,12c0,0,0,8.3,0,8.4C0,27.4,11.6,33,26,33s26-5.6,26-12.6c0-0.2,0-8.4,0-8.4
	C52,18.9,40.4,25,26,25z"/>
<g>
	<path class="st1" d="M3,26.3c0.6,0.5,1.3,1.1,2,1.5v-8.3c-0.7-0.5-1.4-1-2-1.6V26.3z"/>
	<path class="st1" d="M47,19.6v8.3c0.7-0.5,1.4-1,2-1.5V18C48.4,18.6,47.7,19.1,47,19.6z"/>
	<path class="st1" d="M7,29.1c0.6,0.3,1.3,0.6,2,0.9v-8.2c-0.7-0.3-1.4-0.6-2-1V29.1z"/>
	<path class="st1" d="M43,30c0.7-0.3,1.4-0.6,2-0.9v-8.2c-0.6,0.3-1.3,0.7-2,1V30z"/>
	<path class="st1" d="M11,30.7c0.6,0.2,1.3,0.4,2,0.6v-8.1c-0.7-0.2-1.4-0.4-2-0.7V30.7z"/>
	<path class="st1" d="M39,31.4c0.7-0.2,1.4-0.4,2-0.6v-8.2c-0.6,0.2-1.3,0.5-2,0.7V31.4z"/>
	<path class="st1" d="M16,32.1c0.7,0.1,1.3,0.2,2,0.4v-8c-0.7-0.1-1.3-0.2-2-0.4V32.1z"/>
	<path class="st1" d="M34,32.4c0.7-0.1,1.3-0.2,2-0.4V24c-0.7,0.1-1.3,0.3-2,0.4V32.4z"/>
	<path class="st1" d="M22,32.9c0.7,0,1.3,0.1,2,0.1v-8c-0.7,0-1.3-0.1-2-0.1V32.9z"/>
	<path class="st1" d="M28,33c0.7,0,1.3-0.1,2-0.1v-8c-0.7,0.1-1.3,0.1-2,0.1V33z"/>
</g>
<path class="st2" d="M52,12c0,6.9-11.6,13-26,13S0,18.9,0,12S11.6,0,26,0S52,5.1,52,12z"/>
<path class="st3" d="M26,21c-13.7,0-22-5.3-22-9s8.3-9,22-9s22,5.3,22,9S39.7,21,26,21z"/>
<path class="st4" d="M32.8,13.4c0.8-0.2,1.3-0.7,1.1-1.3l-0.2-0.6c-0.1-0.5-0.7-0.8-1.3-1c-0.9-1.9-3.2-2.6-6.6-2.6
	c-0.2,0-0.3,0-0.5,0c-1.2,0-2.3-0.1-3.2-0.4c-0.4-0.1-0.7-0.3-0.9-0.4c-0.1-0.1-0.3,0-0.3,0.1c0,0.1,0,0.3,0,0.5
	c0.1,0.7,0,0.6-0.8,1.4c-0.4,0.4-0.8,0.9-1,1.5c-0.7,0.2-1.2,0.6-1.3,1l-0.2,0.6c-0.2,0.6,0.3,1.1,1.1,1.3c0.2,1.5,1.2,2.8,3.4,3.5
	l-0.1,1c0,0.3-0.3,0.5-0.6,0.7L17,20.1c2.6,0.5,5.5,0.9,8.8,0.9c3.2,0,6.1-0.3,8.6-0.8l-4.3-1.6c-0.3-0.1-0.6-0.4-0.6-0.7l-0.1-1
	C31.5,16.1,32.5,14.8,32.8,13.4z"/>
</svg>
