<!-- Generator: Adobe Illustrator 19.2.1, SVG Export Plug-In  -->
<svg version="1.1"
	 xmlns="http://www.w3.org/2000/svg" xmlns:xlink="http://www.w3.org/1999/xlink" xmlns:a="http://ns.adobe.com/AdobeSVGViewerExtensions/3.0/"
	 x="0px" y="0px" width="53.1px" height="57.8px" viewBox="0 0 53.1 57.8" style="enable-background:new 0 0 53.1 57.8;"
	 xml:space="preserve">
<style type="text/css">
	.st0{fill:#F4F4F4;}
	.st1{fill:#D8D8D8;}
	.st2{fill:#E6E6E6;}
	.st3{fill:none;stroke:#A46F3E;stroke-width:2;stroke-miterlimit:10;}
	.st4{fill:none;stroke:#EEAF4B;stroke-width:2;stroke-miterlimit:10;}
	.st5{fill:#FBD490;}
	.st6{fill:none;stroke:#AF7F58;stroke-width:2;stroke-miterlimit:10;}
	.st7{fill:#EDEDED;}
</style>
<defs>
</defs>
<g>
	<ellipse class="st0" cx="29" cy="54.8" rx="15" ry="3"/>
	<ellipse class="st1" cx="24" cy="54.8" rx="10" ry="2"/>
	<path class="st2" d="M46.1,32.6c0-3.1-10.3-5.6-23.1-5.6S0,29.5,0,32.6c0,0,0,0.1,0,0.1c0,12.7,10.3,23.1,23.1,23.1
		s23.1-10.3,23.1-23.1C46.1,32.7,46.1,32.6,46.1,32.6z"/>
	<line class="st3" x1="12" y1="7" x2="53" y2="11"/>
	<path class="st4" d="M16,23c-1.3-1.1-1.3-2.9,0-4s1.3-2.9,0-4s-1.3-2.9,0-4s1.3-2.9,0-4s-1.3-2.9,0-4"/>
	<path class="st4" d="M20,3c-1.3,1.1-1.3,2.9,0,4s1.3,2.9,0,4s-1.3,2.9,0,4s1.3,2.9,0,4s-1.3,2.9,0,4"/>
	<path class="st4" d="M24,23c-1.3-1.1-1.3-2.9,0-4s1.3-2.9,0-4s-1.3-2.9,0-4s1.3-2.9,0-4s-1.3-2.9,0-4"/>
	<path class="st4" d="M28,3c-1.3,1.1-1.3,2.9,0,4s1.3,2.9,0,4s-1.3,2.9,0,4s1.3,2.9,0,4s-1.3,2.9,0,4"/>
	<ellipse class="st5" cx="23.1" cy="32.6" rx="23.1" ry="5.6"/>
	<path class="st4" d="M29,35.8c1.1-1.3,2.9-1.3,4,0"/>
	<path class="st4" d="M35,34.8c1.1-1.3,2.9-1.3,4,0"/>
	<path class="st4" d="M39,32.8c1.1-1.3,2.9-1.3,4,0"/>
	<path class="st4" d="M33,31.8c1.1-1.3,2.9-1.3,4,0"/>
	<path class="st4" d="M27,32.8c1.1-1.3,2.9-1.3,4,0"/>
	<path class="st4" d="M27,29.8c1.1-1.3,2.9-1.3,4,0"/>
	<path class="st4" d="M21,31.8c1.1-1.3,2.9-1.3,4,0"/>
	<path class="st4" d="M22,35.8c1.1-1.3,2.9-1.3,4,0"/>
	<path class="st4" d="M16,35.8c1.1-1.3,2.9-1.3,4,0"/>
	<path class="st4" d="M4,34.8c1.1-1.3,2.9-1.3,4,0"/>
	<path class="st4" d="M11,34.8c1.1-1.3,2.9-1.3,4,0"/>
	<path class="st4" d="M14,31.8c1.1-1.3,2.9-1.3,4,0"/>
	<path class="st4" d="M6,31.8c1.1-1.3,2.9-1.3,4,0"/>
	<line class="st6" x1="9" y1="7" x2="52" y2="1"/>
	<path class="st7" d="M16.3,52.2C6.9,50.7,5,38.8,5,38.8c2.9,1.4,5.3,2.8,6.2,5c3.2,0.2,4.9,1.2,4.4,4.3c8.7,2,8.4,3.6,5.9,4.9
		C20,52.7,16.3,52.2,16.3,52.2z"/>
</g>
</svg>
