<!-- Generator: Adobe Illustrator 18.1.1, SVG Export Plug-In  -->
<svg version="1.1"
   xmlns="http://www.w3.org/2000/svg" xmlns:xlink="http://www.w3.org/1999/xlink" xmlns:a="http://ns.adobe.com/AdobeSVGViewerExtensions/3.0/"
   x="0px" y="0px" width="91.4px" height="88.5px" viewBox="0 0 91.4 88.5" enable-background="new 0 0 91.4 88.5"
   xml:space="preserve">
<defs>
</defs>
<g>
  <path fill="#5DA892" d="M23.6,23.6c-0.9,0-1.6-0.7-1.6-1.6c0-8.7-5.7-15.8-12.6-15.8c-0.9,0-1.6-0.7-1.6-1.6s0.7-1.6,1.6-1.6
    c8.7,0,15.8,8.5,15.8,18.9C25.2,22.9,24.5,23.6,23.6,23.6z"/>
  <path fill="#5DA892" d="M67.8,20.7c-0.9,0-1.6-0.7-1.6-1.6C66.2,10.4,71.6,5,80.4,5c0.9,0,1.6,0.7,1.6,1.6s-0.7,1.6-1.6,1.6
    c-7,0-11,4-11,11C69.3,20,68.6,20.7,67.8,20.7z"/>
  <path fill="#81CCB8" d="M46.3,88.5C64,88.7,73.9,81.5,79.4,74c5.7-7.8,7.5-17.8,5.7-27.3c-6.4-34.4-38.8-34.1-38.8-34.1
    S13.8,12.3,7.5,46.7C5.7,56.2,7.5,66.1,13.2,74C18.7,81.5,28.6,88.7,46.3,88.5z"/>
  <path fill="#14A085" d="M7.1,49.3c-0.7-0.7-1.6-1.1-2.5-1.1c-2.6,0-4.6,3.1-4.6,7c0,3.8,2.1,7,4.6,7c1.1,0,2.1-0.6,2.9-1.5
    C6.8,56.9,6.6,53.1,7.1,49.3z"/>
  <path fill="#14A085" d="M91.1,43.2c-0.9-3.7-3.6-6.3-6.1-5.7c-0.8,0.2-1.4,0.7-1.9,1.3c0.8,2.4,1.6,5,2.1,7.8
    c0.2,1.3,0.4,2.6,0.5,4c0.8,0.4,1.7,0.6,2.5,0.4C90.7,50.5,92,47,91.1,43.2z"/>
  <ellipse fill="#FFFFFF" cx="46.5" cy="34.9" rx="11.8" ry="9.5"/>
  <ellipse fill="#5DA892" cx="46.5" cy="34.9" rx="7.1" ry="4.7"/>
  <ellipse fill="#FFFFFF" cx="26" cy="44.3" rx="11.8" ry="9.5"/>
  <ellipse fill="#5DA892" cx="26" cy="44.3" rx="7.1" ry="4.7"/>
  <ellipse fill="#FFFFFF" cx="67" cy="44.3" rx="11.8" ry="9.5"/>
  <ellipse fill="#5DA892" cx="67" cy="44.3" rx="7.1" ry="4.7"/>
  <path fill="#5DA892" d="M71.8,63.6l-6.3-4.7c-0.7-0.5-1.7-0.4-2.2,0.3c-0.5,0.7-0.4,1.7,0.3,2.2l2.2,1.7c-2,2.5-8.4,9.7-17.2,11
    c-5.5,0.8-11.1-0.9-16.5-5l1.9-1.4c0.7-0.5,0.8-1.5,0.3-2.2c-0.5-0.7-1.5-0.8-2.2-0.3l-6.3,4.7c-0.7,0.5-0.8,1.5-0.3,2.2
    c0.3,0.4,0.8,0.6,1.3,0.6c0.3,0,0.7-0.1,0.9-0.3l1.9-1.4c0.1,0.1,0.1,0.1,0.1,0.2c5.3,4.2,10.7,6.3,16.2,6.3c1.1,0,2.2-0.1,3.3-0.2
    c10-1.5,17-9.5,19.2-12.3l1.6,1.2c0.3,0.2,0.6,0.3,0.9,0.3c0.5,0,1-0.2,1.3-0.6C72.7,65.1,72.5,64.1,71.8,63.6z"/>
  <circle fill="#14A085" cx="4.7" cy="4.7" r="4.7"/>
  <circle fill="#14A085" cx="85.1" cy="6.5" r="4.7"/>
</g>
</svg>
