<!-- Generator: Adobe Illustrator 19.2.1, SVG Export Plug-In  -->
<svg version="1.1"
	 xmlns="http://www.w3.org/2000/svg" xmlns:xlink="http://www.w3.org/1999/xlink" xmlns:a="http://ns.adobe.com/AdobeSVGViewerExtensions/3.0/"
	 x="0px" y="0px" width="58px" height="53px" viewBox="0 0 58 53" style="enable-background:new 0 0 58 53;" xml:space="preserve">
<style type="text/css">
	.st0{fill:#D2D5D7;}
	.st1{fill:#E6E6E6;}
	.st2{fill:none;stroke:#DBB579;stroke-width:2;stroke-linecap:round;stroke-miterlimit:10;}
	.st3{fill:none;stroke:#FBD490;stroke-width:2;stroke-linecap:round;stroke-miterlimit:10;}
	.st4{fill:#A46F3E;}
	.st5{fill:#4C312C;}
	.st6{fill:#F75B57;}
	.st7{fill:#FFFFFF;}
	.st8{fill:#88C057;}
</style>
<defs>
</defs>
<g>
	<path class="st0" d="M56,36H2c-1.1,0-2-0.9-2-2v0c0-1.1,0.9-2,2-2h54c1.1,0,2,0.9,2,2v0C58,35.1,57.1,36,56,36z"/>
	<path class="st1" d="M2.5,36C5.4,40.6,18,46.2,18,53h11h11c0-6.8,12.6-12.4,15.5-17H2.5z"/>
	<path class="st2" d="M9,29c0-5.5,4.5-10,10-10h2"/>
	<path class="st2" d="M15,29c0-2.2,1.8-4,4-4h5"/>
	<path class="st3" d="M23,22h-4c-3.9,0-7,3.1-7,7"/>
	<line class="st3" x1="19" y1="28" x2="24" y2="28"/>
	<path class="st3" d="M48,29c0-5.5-4.5-10-10-10h-7"/>
	<path class="st3" d="M42,29c0-2.2-1.8-4-4-4h-5"/>
	<path class="st2" d="M32,22h6c3.9,0,7,3.1,7,7"/>
	<line class="st2" x1="38" y1="28" x2="33" y2="28"/>
	<path class="st3" d="M16,17c0-1.1,0.9-2,2-2c7.2,0,9,6.8,9,14"/>
	<path class="st2" d="M12,19v-1c0-3.3,2.7-6,6-6c8.8,0,12,8.2,12,17"/>
	<circle class="st4" cx="25.5" cy="6.5" r="4.5"/>
	<circle class="st4" cx="43.5" cy="13.5" r="4.5"/>
	<circle class="st5" cx="33.5" cy="12.5" r="4.5"/>
	<circle class="st5" cx="39.5" cy="4.5" r="4.5"/>
	<path class="st6" d="M41.4,49H16.6c0.4,0.7,0.8,1.3,1,2h22.7C40.6,50.3,40.9,49.7,41.4,49z"/>
	<path class="st7" d="M41.4,49c0.5-0.7,1-1.3,1.6-2H15c0.6,0.7,1.2,1.3,1.6,2H41.4z"/>
	<path class="st8" d="M12.9,45c0.7,0.7,1.5,1.3,2.1,2h28c0.6-0.7,1.3-1.3,2.1-2H12.9z"/>
</g>
</svg>
