<!-- Generator: Adobe Illustrator 19.2.1, SVG Export Plug-In  -->
<svg version="1.1"
	 xmlns="http://www.w3.org/2000/svg" xmlns:xlink="http://www.w3.org/1999/xlink" xmlns:a="http://ns.adobe.com/AdobeSVGViewerExtensions/3.0/"
	 x="0px" y="0px" width="56px" height="47px" viewBox="0 0 56 47" style="enable-background:new 0 0 56 47;" xml:space="preserve">
<style type="text/css">
	.st0{fill:#6D8C60;}
	.st1{fill:#E8E8D3;}
	.st2{fill:#5F7A52;}
	.st3{fill:#526847;}
	.st4{fill:#D1D4D1;}
	.st5{fill:#A5A5A4;}
</style>
<defs>
</defs>
<rect y="0" class="st0" width="56" height="32"/>
<g>
	<path class="st1" d="M21.1,27c-3.7-2.3-6.1-6.4-6.1-11s2.4-8.7,6.1-11H11c0,0.2,0,0.3,0,0.5c0,3-2.5,5.5-5.5,5.5
		c-0.2,0-0.3,0-0.5,0V21c0.2,0,0.3,0,0.5,0c3,0,5.5,2.5,5.5,5.5c0,0.2,0,0.3,0,0.5H21.1z"/>
	<path class="st1" d="M50.5,11c-3,0-5.5-2.5-5.5-5.5c0-0.2,0-0.3,0-0.5H34.9c3.7,2.3,6.1,6.4,6.1,11s-2.4,8.7-6.1,11H45
		c0-0.2,0-0.3,0-0.5c0-3,2.5-5.5,5.5-5.5c0.2,0,0.3,0,0.5,0V11C50.8,11,50.7,11,50.5,11z"/>
</g>
<g>
	<path class="st1" d="M5.5,8C4.1,8,3,6.9,3,5.5S4.1,3,5.5,3S8,4.1,8,5.5S6.9,8,5.5,8z"/>
</g>
<g>
	<path class="st1" d="M50.5,8C49.1,8,48,6.9,48,5.5S49.1,3,50.5,3S53,4.1,53,5.5S51.9,8,50.5,8z"/>
</g>
<g>
	<path class="st1" d="M5.5,29C4.1,29,3,27.9,3,26.5S4.1,24,5.5,24S8,25.1,8,26.5S6.9,29,5.5,29z"/>
</g>
<g>
	<path class="st1" d="M50.5,29c-1.4,0-2.5-1.1-2.5-2.5s1.1-2.5,2.5-2.5s2.5,1.1,2.5,2.5S51.9,29,50.5,29z"/>
</g>
<g>
	<path class="st0" d="M22,4.5C17.8,6.6,15,11,15,16s2.8,9.4,7,11.5V4.5z"/>
	<path class="st0" d="M34,4.5v23.1c4.2-2.2,7-6.5,7-11.5S38.2,6.6,34,4.5z"/>
</g>
<g>
	<rect y="44" class="st2" width="22" height="3"/>
	<rect x="34" y="44" class="st2" width="22" height="3"/>
</g>
<g>
	<rect y="41" class="st3" width="22" height="3"/>
	<rect x="34" y="41" class="st3" width="22" height="3"/>
</g>
<g>
	<rect y="38" class="st2" width="22" height="3"/>
	<rect x="34" y="38" class="st2" width="22" height="3"/>
</g>
<g>
	<rect y="35" class="st3" width="22" height="3"/>
	<rect x="34" y="35" class="st3" width="22" height="3"/>
</g>
<g>
	<rect y="32" class="st2" width="22" height="3"/>
	<rect x="34" y="32" class="st2" width="22" height="3"/>
</g>
<rect x="22" class="st4" width="12" height="32"/>
<rect x="22" y="32" class="st5" width="12" height="15"/>
</svg>
