<!-- Generator: Adobe Illustrator 19.2.1, SVG Export Plug-In  -->
<svg version="1.1"
	 xmlns="http://www.w3.org/2000/svg" xmlns:xlink="http://www.w3.org/1999/xlink" xmlns:a="http://ns.adobe.com/AdobeSVGViewerExtensions/3.0/"
	 x="0px" y="0px" width="57px" height="43px" viewBox="0 0 57 43" style="enable-background:new 0 0 57 43;" xml:space="preserve">
<style type="text/css">
	.st0{fill:#E5AF17;}
	.st1{fill:#CE9811;}
	.st2{fill:#FFD947;}
	.st3{fill:#FCC62B;}
	.st4{fill:#F0C419;}
</style>
<defs>
</defs>
<path class="st0" d="M26,35C11.6,35,0,28.9,0,22c0,0,0,8.3,0,8.4C0,37.4,11.6,43,26,43s26-5.6,26-12.6c0-0.2,0-8.4,0-8.4
	C52,28.9,40.4,35,26,35z"/>
<g>
	<path class="st1" d="M3,36.3c0.6,0.5,1.3,1.1,2,1.5v-8.3c-0.7-0.5-1.4-1-2-1.6V36.3z"/>
	<path class="st1" d="M47,29.6v8.3c0.7-0.5,1.4-1,2-1.5V28C48.4,28.6,47.7,29.1,47,29.6z"/>
	<path class="st1" d="M7,39.1c0.6,0.3,1.3,0.6,2,0.9v-8.2c-0.7-0.3-1.4-0.6-2-1V39.1z"/>
	<path class="st1" d="M43,40c0.7-0.3,1.4-0.6,2-0.9v-8.2c-0.6,0.3-1.3,0.7-2,1V40z"/>
	<path class="st1" d="M11,40.7c0.6,0.2,1.3,0.4,2,0.6v-8.1c-0.7-0.2-1.4-0.4-2-0.7V40.7z"/>
	<path class="st1" d="M39,41.4c0.7-0.2,1.4-0.4,2-0.6v-8.2c-0.6,0.2-1.3,0.5-2,0.7V41.4z"/>
	<path class="st1" d="M16,42.1c0.7,0.1,1.3,0.2,2,0.4v-8c-0.7-0.1-1.3-0.2-2-0.4V42.1z"/>
	<path class="st1" d="M34,42.4c0.7-0.1,1.3-0.2,2-0.4V34c-0.7,0.1-1.3,0.3-2,0.4V42.4z"/>
	<path class="st1" d="M22,42.9c0.7,0,1.3,0.1,2,0.1v-8c-0.7,0-1.3-0.1-2-0.1V42.9z"/>
	<path class="st1" d="M28,43c0.7,0,1.3-0.1,2-0.1v-8c-0.7,0.1-1.3,0.1-2,0.1V43z"/>
</g>
<path class="st2" d="M31,33C16.6,33,5,27.4,5,20.4c0-0.1,0-3.2,0-5.7c-3.1,2-5,4.4-5,7.2c0,6.9,11.6,13,26,13
	c6.9,0,13.2-1.4,17.8-3.6C40.1,32.4,35.7,33,31,33z"/>
<path class="st0" d="M31,25C16.6,25,5,18.9,5,12c0,0,0,8.3,0,8.4C5,27.4,16.6,33,31,33s26-5.6,26-12.6c0-0.2,0-8.4,0-8.4
	C57,18.9,45.4,25,31,25z"/>
<g>
	<path class="st1" d="M8,26.3c0.6,0.5,1.3,1.1,2,1.5v-8.3c-0.7-0.5-1.4-1-2-1.6V26.3z"/>
	<path class="st1" d="M52,19.6v8.3c0.7-0.5,1.4-1,2-1.5V18C53.4,18.6,52.7,19.1,52,19.6z"/>
	<path class="st1" d="M12,29.1c0.6,0.3,1.3,0.6,2,0.9v-8.2c-0.7-0.3-1.4-0.6-2-1V29.1z"/>
	<path class="st1" d="M48,30c0.7-0.3,1.4-0.6,2-0.9v-8.2c-0.6,0.3-1.3,0.7-2,1V30z"/>
	<path class="st1" d="M16,30.7c0.6,0.2,1.3,0.4,2,0.6v-8.1c-0.7-0.2-1.4-0.4-2-0.7V30.7z"/>
	<path class="st1" d="M44,31.4c0.7-0.2,1.4-0.4,2-0.6v-8.2c-0.6,0.2-1.3,0.5-2,0.7V31.4z"/>
	<path class="st1" d="M21,32.1c0.7,0.1,1.3,0.2,2,0.4v-8c-0.7-0.1-1.3-0.2-2-0.4V32.1z"/>
	<path class="st1" d="M39,32.4c0.7-0.1,1.3-0.2,2-0.4V24c-0.7,0.1-1.3,0.3-2,0.4V32.4z"/>
	<path class="st1" d="M27,32.9c0.7,0,1.3,0.1,2,0.1v-8c-0.7,0-1.3-0.1-2-0.1V32.9z"/>
	<path class="st1" d="M33,33c0.7,0,1.3-0.1,2-0.1v-8c-0.7,0.1-1.3,0.1-2,0.1V33z"/>
</g>
<path class="st3" d="M57,12c0,6.9-11.6,13-26,13S5,18.9,5,12S16.6,0,31,0S57,5.1,57,12z"/>
<path class="st2" d="M31,21c-13.7,0-22-5.3-22-9s8.3-9,22-9s22,5.3,22,9S44.7,21,31,21z"/>
<path class="st4" d="M37.8,13.4c0.8-0.2,1.3-0.7,1.1-1.3l-0.2-0.6c-0.1-0.5-0.7-0.8-1.3-1c-0.9-1.9-3.2-2.6-6.6-2.6
	c-0.2,0-0.3,0-0.5,0c-1.2,0-2.3-0.1-3.2-0.4c-0.4-0.1-0.7-0.3-0.9-0.4c-0.1-0.1-0.3,0-0.3,0.1c0,0.1,0,0.3,0,0.5
	c0.1,0.7,0,0.6-0.8,1.4c-0.4,0.4-0.8,0.9-1,1.5c-0.7,0.2-1.2,0.6-1.3,1l-0.2,0.6c-0.2,0.6,0.3,1.1,1.1,1.3c0.2,1.5,1.2,2.8,3.4,3.5
	l-0.1,1c0,0.3-0.3,0.5-0.6,0.7L22,20.1c2.6,0.5,5.5,0.9,8.8,0.9c3.2,0,6.1-0.3,8.6-0.8l-4.3-1.6c-0.3-0.1-0.6-0.4-0.6-0.7l-0.1-1
	C36.5,16.1,37.5,14.8,37.8,13.4z"/>
</svg>
