<!-- Generator: Adobe Illustrator 19.2.1, SVG Export Plug-In  -->
<svg version="1.1"
	 xmlns="http://www.w3.org/2000/svg" xmlns:xlink="http://www.w3.org/1999/xlink" xmlns:a="http://ns.adobe.com/AdobeSVGViewerExtensions/3.0/"
	 x="0px" y="0px" width="58px" height="58px" viewBox="0 0 58 58" style="enable-background:new 0 0 58 58;" xml:space="preserve">
<style type="text/css">
	.st0{fill:#ECF0F1;}
	.st1{fill:#546A79;}
	.st2{fill:#ED7161;}
	.st3{fill:#F0C419;}
	.st4{fill:#4FBA6F;}
	.st5{fill:#95A5A5;}
	.st6{fill:#BDC3C7;}
	.st7{fill:#8697CB;}
	.st8{fill:#E64C3C;}
</style>
<defs>
</defs>
<rect class="st0" width="58" height="58"/>
<rect class="st1" width="58" height="12"/>
<circle class="st2" cx="6" cy="6" r="3"/>
<circle class="st3" cx="15" cy="6" r="3"/>
<circle class="st4" cx="24" cy="6" r="3"/>
<rect y="12" class="st5" width="7" height="46"/>
<g>
	<path class="st6" d="M3,18h1c0.6,0,1-0.4,1-1s-0.4-1-1-1H3c-0.6,0-1,0.4-1,1S2.4,18,3,18z"/>
	<path class="st6" d="M4,20H3c-0.6,0-1,0.4-1,1s0.4,1,1,1h1c0.6,0,1-0.4,1-1S4.6,20,4,20z"/>
	<path class="st6" d="M4,24H3c-0.6,0-1,0.4-1,1s0.4,1,1,1h1c0.6,0,1-0.4,1-1S4.6,24,4,24z"/>
	<path class="st6" d="M4,28H3c-0.6,0-1,0.4-1,1s0.4,1,1,1h1c0.6,0,1-0.4,1-1S4.6,28,4,28z"/>
	<path class="st6" d="M4,32H3c-0.6,0-1,0.4-1,1s0.4,1,1,1h1c0.6,0,1-0.4,1-1S4.6,32,4,32z"/>
	<path class="st6" d="M4,36H3c-0.6,0-1,0.4-1,1s0.4,1,1,1h1c0.6,0,1-0.4,1-1S4.6,36,4,36z"/>
	<path class="st6" d="M4,40H3c-0.6,0-1,0.4-1,1s0.4,1,1,1h1c0.6,0,1-0.4,1-1S4.6,40,4,40z"/>
	<path class="st6" d="M4,44H3c-0.6,0-1,0.4-1,1s0.4,1,1,1h1c0.6,0,1-0.4,1-1S4.6,44,4,44z"/>
	<path class="st6" d="M4,48H3c-0.6,0-1,0.4-1,1s0.4,1,1,1h1c0.6,0,1-0.4,1-1S4.6,48,4,48z"/>
	<path class="st6" d="M4,52H3c-0.6,0-1,0.4-1,1s0.4,1,1,1h1c0.6,0,1-0.4,1-1S4.6,52,4,52z"/>
</g>
<path class="st7" d="M25,18H12c-0.6,0-1-0.4-1-1s0.4-1,1-1h13c0.6,0,1,0.4,1,1S25.6,18,25,18z"/>
<path class="st3" d="M39,18H29c-0.6,0-1-0.4-1-1s0.4-1,1-1h10c0.6,0,1,0.4,1,1S39.6,18,39,18z"/>
<path class="st4" d="M45,18h-2c-0.6,0-1-0.4-1-1s0.4-1,1-1h2c0.6,0,1,0.4,1,1S45.6,18,45,18z"/>
<path class="st7" d="M50,22H35c-0.6,0-1-0.4-1-1s0.4-1,1-1h15c0.6,0,1,0.4,1,1S50.6,22,50,22z"/>
<path class="st8" d="M31,22H17c-0.6,0-1-0.4-1-1s0.4-1,1-1h14c0.6,0,1,0.4,1,1S31.6,22,31,22z"/>
<path class="st8" d="M13,22h-1c-0.6,0-1-0.4-1-1s0.4-1,1-1h1c0.6,0,1,0.4,1,1S13.6,22,13,22z"/>
<path class="st7" d="M21,26h-9c-0.6,0-1-0.4-1-1s0.4-1,1-1h9c0.6,0,1,0.4,1,1S21.6,26,21,26z"/>
<path class="st3" d="M27,26h-2c-0.6,0-1-0.4-1-1s0.4-1,1-1h2c0.6,0,1,0.4,1,1S27.6,26,27,26z"/>
<path class="st4" d="M45,26H31c-0.6,0-1-0.4-1-1s0.4-1,1-1h14c0.6,0,1,0.4,1,1S45.6,26,45,26z"/>
<path class="st3" d="M25,30H12c-0.6,0-1-0.4-1-1s0.4-1,1-1h13c0.6,0,1,0.4,1,1S25.6,30,25,30z"/>
<path class="st4" d="M39,30H29c-0.6,0-1-0.4-1-1s0.4-1,1-1h10c0.6,0,1,0.4,1,1S39.6,30,39,30z"/>
<path class="st3" d="M43,34h-8c-0.6,0-1-0.4-1-1s0.4-1,1-1h8c0.6,0,1,0.4,1,1S43.6,34,43,34z"/>
<path class="st7" d="M31,34H17c-0.6,0-1-0.4-1-1s0.4-1,1-1h14c0.6,0,1,0.4,1,1S31.6,34,31,34z"/>
<path class="st4" d="M13,34h-1c-0.6,0-1-0.4-1-1s0.4-1,1-1h1c0.6,0,1,0.4,1,1S13.6,34,13,34z"/>
<path class="st3" d="M21,38h-9c-0.6,0-1-0.4-1-1s0.4-1,1-1h9c0.6,0,1,0.4,1,1S21.6,38,21,38z"/>
<path class="st7" d="M27,38h-2c-0.6,0-1-0.4-1-1s0.4-1,1-1h2c0.6,0,1,0.4,1,1S27.6,38,27,38z"/>
<path class="st8" d="M46,38H31c-0.6,0-1-0.4-1-1s0.4-1,1-1h15c0.6,0,1,0.4,1,1S46.6,38,46,38z"/>
<path class="st7" d="M25,42H12c-0.6,0-1-0.4-1-1s0.4-1,1-1h13c0.6,0,1,0.4,1,1S25.6,42,25,42z"/>
<path class="st4" d="M39,42H29c-0.6,0-1-0.4-1-1s0.4-1,1-1h10c0.6,0,1,0.4,1,1S39.6,42,39,42z"/>
<path class="st8" d="M50,42h-7c-0.6,0-1-0.4-1-1s0.4-1,1-1h7c0.6,0,1,0.4,1,1S50.6,42,50,42z"/>
<path class="st7" d="M39,46h-4c-0.6,0-1-0.4-1-1s0.4-1,1-1h4c0.6,0,1,0.4,1,1S39.6,46,39,46z"/>
<path class="st8" d="M31,46H17c-0.6,0-1-0.4-1-1s0.4-1,1-1h14c0.6,0,1,0.4,1,1S31.6,46,31,46z"/>
<path class="st3" d="M13,46h-1c-0.6,0-1-0.4-1-1s0.4-1,1-1h1c0.6,0,1,0.4,1,1S13.6,46,13,46z"/>
<path class="st4" d="M21,50h-9c-0.6,0-1-0.4-1-1s0.4-1,1-1h9c0.6,0,1,0.4,1,1S21.6,50,21,50z"/>
<path class="st7" d="M27,50h-2c-0.6,0-1-0.4-1-1s0.4-1,1-1h2c0.6,0,1,0.4,1,1S27.6,50,27,50z"/>
<path class="st8" d="M38,50h-7c-0.6,0-1-0.4-1-1s0.4-1,1-1h7c0.6,0,1,0.4,1,1S38.6,50,38,50z"/>
<path class="st3" d="M43,50h-1c-0.6,0-1-0.4-1-1s0.4-1,1-1h1c0.6,0,1,0.4,1,1S43.6,50,43,50z"/>
</svg>
