<!-- Generator: Adobe Illustrator 19.2.1, SVG Export Plug-In  -->
<svg version="1.1"
	 xmlns="http://www.w3.org/2000/svg" xmlns:xlink="http://www.w3.org/1999/xlink" xmlns:a="http://ns.adobe.com/AdobeSVGViewerExtensions/3.0/"
	 x="0px" y="0px" width="35px" height="41px" viewBox="0 0 35 41" style="enable-background:new 0 0 35 41;" xml:space="preserve">
<style type="text/css">
	.st0{fill:none;stroke:#231F20;stroke-width:2;stroke-linecap:round;stroke-miterlimit:10;}
	.st1{fill:#DAE7EF;stroke:#BBD7EA;stroke-linecap:round;stroke-linejoin:round;stroke-miterlimit:10;}
	.st2{fill:#FFFFFF;}
	.st3{fill:#CC6329;}
	.st4{fill:#AD5123;}
	.st5{fill:#E28759;}
</style>
<defs>
</defs>
<g>
	<path class="st0" d="M15.9,22.3l-3.4,3.2c-0.8,0.8-2.1,0.7-2.8-0.1L6.4,22c-0.8-0.8-0.7-2.1,0.1-2.8L9.9,16
		c0.8-0.8,2.1-0.7,2.8,0.1l3.2,3.4C16.7,20.3,16.7,21.6,15.9,22.3z"/>
	<ellipse class="st1" cx="17.5" cy="2.5" rx="17" ry="2"/>
	<path class="st1" d="M17.5,4.5c-9.4,0-17-0.3-17-2l3,36c0,1.1,7.9,2,14,2s14-0.9,14-2l3-36C34.5,4.2,26.9,4.5,17.5,4.5z"/>
	<path class="st2" d="M26.6,19.8L23.2,23c-0.8,0.8-2.1,0.7-2.8-0.1l-3.2-3.4c-0.8-0.8-0.7-2.1,0.1-2.8l3.4-3.2
		c0.8-0.8,2.1-0.7,2.8,0.1l3.2,3.4C27.4,17.8,27.4,19.1,26.6,19.8z"/>
	<path class="st3" d="M17.6,19.5c-8,0-14.6-0.7-15.6-1.6c-0.1,0-0.1,0-0.2,0l1.3,16.1c2.5,0.9,9.1,1.5,14.4,1.5s11.9-0.6,14.4-1.5
		l1.3-16.1c0,0-0.1,0-0.1,0C32.1,18.8,25.7,19.5,17.6,19.5z"/>
	<g>
		<path class="st4" d="M25.8,16l0.9,1c0.5,0.6,0.7,1.4,0.4,2.1c3.8-0.3,6.2-0.9,6.2-1.5C33.2,17,30.3,16.4,25.8,16z"/>
	</g>
	<g>
		<path class="st4" d="M9.9,16c-4.9,0.3-8.1,0.9-8.1,1.6c0,0.5,1.9,1,4.9,1.4L9.9,16z"/>
		<path class="st4" d="M12.5,15.9c0.1,0.1,0.2,0.1,0.2,0.2l3.2,3.4c0,0,0,0,0,0c0.4,0,0.8,0,1.2,0c-0.7-0.8-0.7-2.1,0.1-2.8l1-0.9
			c-0.2,0-0.4,0-0.6,0C15.8,15.8,14.1,15.8,12.5,15.9z"/>
	</g>
	<path class="st2" d="M15.9,22.3l-3.4,3.2c-0.8,0.8-2.1,0.7-2.8-0.1L6.4,22c-0.8-0.8-0.7-2.1,0.1-2.8L9.9,16
		c0.8-0.8,2.1-0.7,2.8,0.1l3.2,3.4C16.7,20.3,16.7,21.6,15.9,22.3z"/>
	<g>
		<path class="st5" d="M6.7,18.9l-0.2,0.2c-0.8,0.8-0.8,2-0.1,2.8l3.2,3.4c0.8,0.8,2,0.8,2.8,0.1l3.4-3.2c0.8-0.7,0.8-2,0.1-2.8
			C12.4,19.4,9.2,19.2,6.7,18.9z"/>
	</g>
	<path class="st5" d="M23.5,28.5l-3.4,3.2c-0.8,0.8-2.1,0.7-2.8-0.1L14,28.2c-0.8-0.8-0.7-2.1,0.1-2.8l3.4-3.2
		c0.8-0.8,2.1-0.7,2.8,0.1l3.2,3.4C24.3,26.5,24.3,27.8,23.5,28.5z"/>
</g>
</svg>
