<!-- Generator: Adobe Illustrator 19.2.1, SVG Export Plug-In  -->
<svg version="1.1"
	 xmlns="http://www.w3.org/2000/svg" xmlns:xlink="http://www.w3.org/1999/xlink" xmlns:a="http://ns.adobe.com/AdobeSVGViewerExtensions/3.0/"
	 x="0px" y="0px" width="56px" height="28px" viewBox="0 0 56 28" style="enable-background:new 0 0 56 28;" xml:space="preserve">
<style type="text/css">
	.st0{fill:#EEAF4B;}
	.st1{fill:#F4C44E;}
	.st2{fill:#F1B501;}
</style>
<defs>
</defs>
<g>
	<path class="st0" d="M27.5,28L27.5,28c-1.5,0-2.8-1-3.1-2.4L18.9,4.8c-0.4-2.5,1.5-4.8,4-4.8h9.3c2.5,0,4.4,2.3,4,4.8l-5.5,20.8
		C30.3,27,29,28,27.5,28z"/>
	<path class="st1" d="M46.4,5.6c-3.3-2.4-7.9-3.8-10.6-3.4c0.4,0.8,0.5,1.6,0.4,2.5l-5.5,20.8c-0.1,0.3-0.2,0.6-0.4,0.9
		c0.5,0.3,1,0.5,1.5,0.5h0c4.8,1.5,12.2-8.1,16-13.6C49.8,10.5,49.2,7.6,46.4,5.6z"/>
	<path class="st1" d="M24.4,25.6L18.9,4.8c-0.2-0.9,0-1.8,0.4-2.6c-2.8-0.3-7.2,1-10.5,3.4c-2.8,2-3.4,4.9-1.5,7.8
		c3.8,5.5,11.3,15.2,16,13.6h0c0.5,0,1-0.2,1.4-0.4C24.6,26.3,24.5,25.9,24.4,25.6z"/>
	<g>
		<path class="st2" d="M7.3,13.4c-0.4-0.5-0.7-1.1-0.8-1.6c-2.7,2.7-4.8,5.9-6.1,9.4c-1.4,3.8,1.8,7.7,5.5,6.7l11.1-3.2
			C13.3,21.6,9.6,16.7,7.3,13.4z"/>
		<path class="st2" d="M55.7,21.2c-1.4-3.8-3.8-7.3-6.8-10.1c-0.2,0.8-0.5,1.5-1,2.3c-2.3,3.3-5.8,8-9.4,11l11.7,3.4
			C53.8,28.9,57.1,25,55.7,21.2z"/>
	</g>
	<path class="st1" d="M22.8,0c0,0-0.1,0-0.1,0l1.6,6.2c0.4,1.4,1.7,2.4,3.1,2.4s2.8-1,3.1-2.4L32.3,0c0,0-0.1,0-0.1,0H22.8z"/>
</g>
</svg>
