<!-- Generator: Adobe Illustrator 19.2.0, SVG Export Plug-In  -->
<svg version="1.1"
	 xmlns="http://www.w3.org/2000/svg" xmlns:xlink="http://www.w3.org/1999/xlink" xmlns:a="http://ns.adobe.com/AdobeSVGViewerExtensions/3.0/"
	 x="0px" y="0px" width="39.4px" height="17.2px" viewBox="0 0 39.4 17.2" style="enable-background:new 0 0 39.4 17.2;"
	 xml:space="preserve">
<style type="text/css">
	.st0{fill:#FFFFFF;}
</style>
<defs>
</defs>
<g>
	<path class="st0" d="M6.5,2.6L6.5,2.6C5.5,2.6,5.2,4,4.6,7.9c0,0.2-0.1,0.4-0.1,0.7C4.1,7.9,3.7,7.1,3.3,6.5
		C1.5,3.3,1.5,3.2,0.9,3.2c-0.2,0-0.5,0.1-0.6,0.3C-0.1,3.8-0.2,4,0.7,11.2c0.1,0.5,0.5,0.8,0.9,0.7c0.5-0.1,0.8-0.5,0.7-0.9
		C2.2,9.8,2,8.5,1.9,7.4c2.3,4,2.4,4.1,3,4.1c0.9,0,0.9-0.5,1.3-3.3C6.3,7.6,6.4,6.8,6.6,6C7,7.5,7.5,9.7,7.9,11.6
		c0.1,0.4,0.4,0.7,0.8,0.7c0.1,0,0.1,0,0.2,0c0.4-0.1,0.7-0.5,0.6-1C7.7,2.7,7.3,2.5,6.5,2.6z"/>
	<path class="st0" d="M13.8,10.8c0,0-0.6,0.4-1.3,0.2c-0.5-0.2-0.8-0.5-0.9-1c0-0.1,0-0.2,0-0.4c2.2,0.5,2.7,0.4,3-0.2
		c0.2-0.3,0.7-2.5,0.3-3.6c-0.2-0.5-0.5-0.7-0.7-0.8c-0.7-0.3-1.5-0.2-2.2,0.4c-1.2,0.9-2.3,3-2,4.8c0.2,1.1,0.9,1.9,2,2.3
		c0.3,0.1,0.7,0.2,1,0.2c0.8,0,1.5-0.3,1.9-0.6c0.4-0.3,0.4-0.8,0.1-1.2C14.7,10.6,14.2,10.5,13.8,10.8z M13,6.7
		c0.1-0.1,0.2-0.2,0.3-0.2c0,0.4,0,1.2-0.1,1.7c-0.3,0-0.7-0.1-1.2-0.2C12.3,7.5,12.6,7,13,6.7z"/>
	<path class="st0" d="M19.4,10.8c0,0-0.6,0.4-1.3,0.2c-0.5-0.2-0.8-0.5-0.9-1c0-0.1,0-0.2,0-0.4c2.2,0.5,2.7,0.4,3-0.2
		c0.2-0.3,0.7-2.5,0.3-3.6C20.3,5.3,20,5.1,19.8,5c-0.7-0.3-1.5-0.2-2.2,0.4c-1.2,0.9-2.3,3-2,4.8c0.2,1.1,0.9,1.9,2,2.3
		c0.3,0.1,0.7,0.2,1,0.2c0.8,0,1.5-0.3,1.9-0.6c0.4-0.3,0.4-0.8,0.1-1.2C20.3,10.6,19.8,10.5,19.4,10.8z M18.6,6.7
		c0.1-0.1,0.2-0.2,0.3-0.2c0,0.4,0,1.2-0.1,1.7c-0.3,0-0.7-0.1-1.2-0.2C17.9,7.5,18.2,7,18.6,6.7z"/>
	<path class="st0" d="M25.6,6.9C25.2,7,24.9,7,24.5,7c0,0,0,0,0,0c0-0.4,0-1.1,0-1.8c0-1.4-0.1-3.6,0-4.2c0.1-0.4-0.2-0.9-0.6-1
		c-0.4-0.1-0.9,0.2-1,0.6c-0.2,0.7-0.1,2.4-0.1,4.6c0,0.7,0,1.3,0,1.8c0,0,0,0,0,0.1c-0.2,0-0.5,0-0.7,0c-0.5,0-0.9,0.3-0.9,0.8
		c0,0.5,0.3,0.9,0.8,0.9c0.3,0,0.6,0,0.9,0c0.1,1.7,0.3,3.9,0.3,4c0,0.4,0.4,0.7,0.8,0.7c0,0,0.1,0,0.1,0c0.5,0,0.8-0.4,0.7-0.9
		c0,0-0.2-2.1-0.3-3.9c0.4,0,0.8-0.1,1.2-0.1c0.5-0.1,0.8-0.5,0.7-0.9C26.4,7.2,26,6.9,25.6,6.9z"/>
	<path class="st0" d="M31.7,6.6c-0.4,0-0.9,0.3-0.9,0.7c-0.3,2.6-1.1,3.4-1.7,3.7c-0.6-1-0.5-2.8-0.3-3.5c0.1-0.4-0.2-0.9-0.7-1
		c-0.4-0.1-0.9,0.2-1,0.7c-0.1,0.4-0.6,3.7,1.1,5.3c0.2,0.2,0.4,0.2,0.6,0.2c0.1,0,0.1,0,0.2,0c2-0.4,3.2-2.2,3.5-5.3
		C32.5,7,32.2,6.6,31.7,6.6z"/>
	<path class="st0" d="M39.3,6.8C39,5,37.6,3.8,36.1,4c-1.3,0.2-4.1,1.8-2.7,12.5c0.1,0.4,0.4,0.7,0.8,0.7c0,0,0.1,0,0.1,0
		c0.5-0.1,0.8-0.5,0.7-0.9c-0.2-1.6-0.3-3-0.4-4.2C38.6,11.1,39.7,8.6,39.3,6.8z M34.7,10.4c0.2-3.5,1.1-4.6,1.7-4.7
		c0,0,0.1,0,0.1,0c0.5,0,1.1,0.6,1.2,1.4C37.9,8.2,37.2,9.6,34.7,10.4z"/>
</g>
</svg>
