<!-- Generator: Adobe Illustrator 19.2.1, SVG Export Plug-In  -->
<svg version="1.1"
	 xmlns="http://www.w3.org/2000/svg" xmlns:xlink="http://www.w3.org/1999/xlink" xmlns:a="http://ns.adobe.com/AdobeSVGViewerExtensions/3.0/"
	 x="0px" y="0px" width="46px" height="57px" viewBox="0 0 46 57" style="enable-background:new 0 0 46 57;" xml:space="preserve">
<style type="text/css">
	.st0{fill:#F3D55B;}
	.st1{fill:#D1D4D1;}
	.st2{fill:#ECF0F1;}
	.st3{fill:#38454F;}
	.st4{fill:#48A0DC;}
</style>
<defs>
</defs>
<path class="st0" d="M25,5h-4c-0.6,0-1,0.4-1,1s0.4,1,1,1h1v4h2V7h1c0.6,0,1-0.4,1-1S25.6,5,25,5z"/>
<path class="st1" d="M23,12c-3.3,0-6-2.7-6-6s2.7-6,6-6s6,2.7,6,6S26.3,12,23,12z M23,2c-2.2,0-4,1.8-4,4s1.8,4,4,4s4-1.8,4-4
	S25.2,2,23,2z"/>
<circle class="st2" cx="23" cy="34" r="23"/>
<path class="st3" d="M24,54c-0.5,0-1-0.4-1-0.9c0-0.3,0.1-0.5,0.2-0.7S23.7,52,24,52c0.6,0,1.3-0.1,1.9-0.2c0.5-0.1,1.1,0.3,1.1,0.8
	c0,0,0,0.1,0,0.2c0,0.5-0.4,0.9-0.8,1C25.5,53.8,24.8,53.9,24,54C24.1,54,24.1,54,24,54z M20.1,53.8c0,0-0.1,0-0.1,0
	c-0.7-0.1-1.4-0.2-2-0.4c-0.3-0.1-0.5-0.2-0.6-0.5c-0.1-0.2-0.2-0.5-0.1-0.8c0.1-0.5,0.7-0.9,1.2-0.7c0.6,0.2,1.2,0.3,1.8,0.4
	c0.5,0.1,0.8,0.5,0.8,1c0,0,0,0.1,0,0.2C21,53.4,20.6,53.8,20.1,53.8z M29.8,52.7c-0.4,0-0.8-0.3-0.9-0.6c-0.1-0.2-0.1-0.5,0-0.8
	c0.1-0.2,0.3-0.4,0.5-0.5c0.6-0.2,1.2-0.5,1.7-0.8c0.5-0.2,1.1,0,1.4,0.4c0.1,0.1,0.1,0.3,0.1,0.5c0,0.3-0.1,0.6-0.4,0.8h0l-0.2,0.1
	c-0.6,0.3-1.2,0.6-1.9,0.8C30.1,52.7,30,52.7,29.8,52.7z M14.4,52c-0.1,0-0.3,0-0.5-0.1c-0.6-0.3-1.2-0.7-1.8-1
	c-0.2-0.1-0.4-0.4-0.4-0.6c-0.1-0.3,0-0.5,0.1-0.8c0.3-0.4,0.9-0.6,1.4-0.3c0.5,0.3,1.1,0.7,1.6,0.9c0.3,0.2,0.6,0.5,0.6,0.9
	c0,0.2,0,0.3-0.1,0.5C15.1,51.7,14.8,52,14.4,52z M35,49.7c-0.3,0-0.6-0.1-0.8-0.4C34,49.2,34,48.9,34,48.6c0-0.3,0.1-0.5,0.4-0.7
	c0.5-0.4,0.9-0.8,1.4-1.2l0,0c0,0,0,0,0,0c0.4-0.4,1-0.4,1.4,0c0.2,0.2,0.3,0.4,0.3,0.7c0,0.3-0.1,0.5-0.3,0.7v0c0,0,0,0,0,0
	c-0.5,0.5-1,0.9-1.5,1.4C35.4,49.7,35.2,49.7,35,49.7z M9.6,48.5c-0.3,0-0.5-0.1-0.7-0.3c0,0,0,0,0,0h0c0,0,0,0,0,0
	c-0.5-0.5-0.9-1-1.4-1.5c-0.2-0.2-0.2-0.5-0.2-0.7c0-0.3,0.2-0.5,0.4-0.7C8,44.8,8.7,44.9,9,45.3c0.4,0.5,0.8,1,1.3,1.4c0,0,0,0,0,0
	l0,0c0.2,0.2,0.3,0.4,0.3,0.7c0,0.3-0.1,0.5-0.3,0.7C10.1,48.4,9.9,48.5,9.6,48.5z M39,45.3c-0.2,0-0.4,0-0.5-0.2
	c-0.5-0.3-0.6-0.9-0.3-1.4c0.3-0.5,0.7-1.1,0.9-1.6c0.2-0.5,0.9-0.7,1.3-0.4c0.3,0.2,0.5,0.5,0.5,0.9c0,0.2,0,0.3-0.1,0.5
	c-0.3,0.6-0.7,1.2-1,1.8C39.6,45.1,39.3,45.3,39,45.3z M6.1,43.6c-0.4,0-0.7-0.2-0.9-0.5c-0.3-0.6-0.6-1.3-0.9-1.9
	c-0.1-0.2-0.1-0.5,0-0.8c0.1-0.2,0.3-0.4,0.6-0.5C5.4,39.7,6,40,6.2,40.5c0.2,0.6,0.5,1.2,0.8,1.7c0.1,0.1,0.1,0.3,0.1,0.5
	c0,0.4-0.2,0.7-0.5,0.9C6.4,43.6,6.2,43.6,6.1,43.6z M41.4,39.9c-0.1,0-0.2,0-0.3,0c-0.5-0.1-0.8-0.7-0.7-1.2
	c0.2-0.6,0.3-1.2,0.4-1.8c0.1-0.5,0.6-0.9,1.1-0.8c0.5,0.1,0.9,0.5,0.8,1c0,0,0,0.1,0,0.2c-0.1,0.7-0.2,1.4-0.4,2
	C42.2,39.6,41.8,39.9,41.4,39.9z M4.2,38c-0.5,0-0.9-0.4-1-0.8C3.1,36.4,3.1,35.7,3,35c0-0.3,0.1-0.5,0.2-0.7C3.5,34.1,3.7,34,4,34
	c0.5,0,1,0.4,1,1c0,0.6,0.1,1.2,0.2,1.9c0,0.1,0,0.1,0,0.2c0,0.5-0.4,0.9-0.8,1C4.3,38,4.3,38,4.2,38z M42,34c-0.5,0-1-0.4-1-1
	c0-0.6-0.1-1.2-0.2-1.9c0,0,0-0.1,0-0.1c0-0.5,0.4-0.9,0.8-1c0.5-0.1,1.1,0.3,1.1,0.8c0.1,0.7,0.2,1.4,0.2,2.1
	C43,33.5,42.6,33.9,42,34C42,34,42,34,42,34z M4.2,32c0,0-0.1,0-0.2,0c-0.5-0.1-0.8-0.5-0.8-1c0-0.1,0-0.1,0-0.2
	c0.1-0.7,0.2-1.4,0.4-2c0.1-0.5,0.7-0.9,1.2-0.7c0.3,0.1,0.5,0.2,0.6,0.5c0.1,0.2,0.2,0.5,0.1,0.8c-0.2,0.6-0.3,1.2-0.4,1.8
	C5.1,31.7,4.7,32,4.2,32z M40.7,28.2L40.7,28.2c-0.4,0-0.8-0.3-0.9-0.6c-0.2-0.5-0.4-1.1-0.7-1.6L39,25.8c-0.1-0.1-0.1-0.3-0.1-0.5
	c0-0.4,0.2-0.7,0.6-0.9c0.5-0.2,1.1,0,1.3,0.4c0.3,0.6,0.6,1.3,0.9,1.9c0.2,0.5-0.1,1.1-0.6,1.3C41,28.1,40.8,28.2,40.7,28.2z
	 M6.1,26.4c-0.2,0-0.3,0-0.5-0.1c-0.3-0.2-0.5-0.5-0.5-0.9c0-0.2,0-0.3,0.1-0.5c0.3-0.6,0.7-1.2,1-1.8c0.3-0.5,0.9-0.6,1.4-0.3
	C7.8,23,8,23.2,8,23.5c0.1,0.3,0,0.5-0.1,0.8c-0.4,0.5-0.7,1.1-0.9,1.6l0,0C6.8,26.2,6.4,26.4,6.1,26.4z M37.8,23
	c-0.3,0-0.6-0.1-0.8-0.4c-0.4-0.5-0.8-0.9-1.2-1.4l-0.1-0.1h0c-0.1-0.2-0.2-0.4-0.2-0.6c0-0.3,0.1-0.5,0.3-0.7c0.4-0.4,1-0.4,1.4,0
	c0,0,0,0,0,0l0,0c0.5,0.5,0.9,1,1.4,1.5c0.2,0.2,0.2,0.5,0.2,0.7c0,0.3-0.1,0.5-0.4,0.7C38.2,22.9,38,23,37.8,23z M9.5,21.6
	c-0.3,0-0.5-0.1-0.7-0.3c-0.2-0.2-0.3-0.4-0.3-0.7c0-0.3,0.1-0.5,0.3-0.7l0,0c0.5-0.5,1-0.9,1.5-1.4c0.4-0.3,1.1-0.3,1.4,0.1
	c0.3,0.4,0.3,1.1-0.2,1.4c-0.5,0.4-0.9,0.8-1.4,1.2l0,0C10.1,21.5,9.8,21.6,9.5,21.6z M33.3,19c-0.2,0-0.4-0.1-0.5-0.2
	c-0.5-0.3-1-0.6-1.6-0.9l-0.1,0c-0.3-0.2-0.6-0.5-0.6-0.9c0-0.2,0-0.3,0.1-0.5c0.2-0.5,0.9-0.7,1.4-0.4c0.6,0.3,1.2,0.7,1.8,1
	c0.2,0.1,0.4,0.4,0.4,0.6c0,0.3,0,0.5-0.1,0.8C34,18.9,33.7,19,33.3,19z M14.4,18.1c-0.4,0-0.7-0.2-0.9-0.5
	c-0.1-0.1-0.1-0.3-0.1-0.5c0-0.4,0.2-0.7,0.5-0.9c0.6-0.3,1.3-0.6,1.9-0.8c0.5-0.2,1.1,0.1,1.3,0.6c0.1,0.2,0.1,0.5,0,0.8
	c-0.1,0.2-0.3,0.4-0.6,0.5c-0.6,0.2-1.1,0.5-1.7,0.8l0,0C14.7,18,14.5,18.1,14.4,18.1z M27.9,16.6c-0.1,0-0.2,0-0.3,0
	c-0.6-0.2-1.2-0.3-1.8-0.4c-0.5-0.1-0.9-0.5-0.9-1c0,0,0-0.1,0-0.1c0.1-0.5,0.5-0.9,1.1-0.8l0,0c0,0,0.1,0,0.1,0
	c0.7,0.1,1.3,0.2,2,0.4c0.3,0.1,0.5,0.2,0.6,0.5c0.1,0.2,0.2,0.5,0.1,0.8C28.7,16.3,28.3,16.6,27.9,16.6z M20,16.2
	c-0.5,0-0.9-0.4-1-0.8c0,0,0-0.1,0-0.1c0-0.5,0.4-0.9,0.8-1c0.7-0.1,1.4-0.2,2.1-0.2c0.6,0,1,0.4,1.1,0.9c0,0.6-0.4,1-0.9,1.1
	c-0.6,0-1.3,0.1-1.9,0.2C20.1,16.2,20.1,16.2,20,16.2z"/>
<path class="st4" d="M20.7,36.3L20.7,36.3c-1.1-1.1-0.9-2.9,0.4-3.8L34,22.8c0.2-0.1,0.5,0.1,0.3,0.3L24.5,36
	C23.6,37.3,21.8,37.5,20.7,36.3z"/>
</svg>
