<!-- Generator: Adobe Illustrator 18.1.1, SVG Export Plug-In  -->
<svg version="1.1"
   xmlns="http://www.w3.org/2000/svg" xmlns:xlink="http://www.w3.org/1999/xlink" xmlns:a="http://ns.adobe.com/AdobeSVGViewerExtensions/3.0/"
   x="0px" y="0px" width="75.8px" height="75.8px" viewBox="0 0 75.8 75.8" enable-background="new 0 0 75.8 75.8"
   xml:space="preserve">
<defs>
</defs>
<rect x="38.8" y="40.1" fill="#535D73" width="3" height="26"/>
<rect x="53.6" y="4.1" transform="matrix(0.7071 0.7071 -0.7071 0.7071 29.7633 -33.2613)" fill="#535D73" width="2.9" height="30.3"/>
<rect x="21.4" y="31.2" transform="matrix(0.7071 0.7071 -0.7071 0.7071 43.085 -1.0999)" fill="#535D73" width="2.9" height="40.4"/>
<rect x="15.3" y="19.3" transform="matrix(0.7071 0.7071 -0.7071 0.7071 22.4008 -12.628)" fill="#535D73" width="22.2" height="2.9"/>
<rect x="38.4" y="46.5" transform="matrix(0.7071 0.7071 -0.7071 0.7071 49.5594 -23.8774)" fill="#535D73" width="30.3" height="2.9"/>
<circle fill="#4FBA6F" cx="68.6" cy="7.1" r="7.1"/>
<circle fill="#8697CB" cx="40" cy="68.6" r="7.1"/>
<circle fill="#65DDB9" cx="7.1" cy="65.8" r="7.1"/>
<circle fill="#E1705C" cx="17.2" cy="11.4" r="4.3"/>
<circle fill="#F0C419" cx="62.9" cy="57.2" r="4.3"/>
<circle fill="#5C81B8" cx="40" cy="34.3" r="10"/>
</svg>
