<!-- Generator: Adobe Illustrator 19.2.1, SVG Export Plug-In  -->
<svg version="1.1"
	 xmlns="http://www.w3.org/2000/svg" xmlns:xlink="http://www.w3.org/1999/xlink" xmlns:a="http://ns.adobe.com/AdobeSVGViewerExtensions/3.0/"
	 x="0px" y="0px" width="59px" height="53.2px" viewBox="0 0 59 53.2" style="enable-background:new 0 0 59 53.2;"
	 xml:space="preserve">
<style type="text/css">
	.st0{fill:#2C2F38;}
	.st1{fill:#E64C3C;}
	.st2{fill:#ECF0F1;}
	.st3{fill:none;stroke:#D1D4D1;stroke-width:2;stroke-linecap:round;stroke-miterlimit:10;}
	.st4{fill:#C03A2B;}
	.st5{fill:#556080;}
	.st6{fill:#FFFFFF;}
</style>
<defs>
</defs>
<path class="st0" d="M4,28.1H2.2c-1.2,0-2.2-1-2.2-2.2v-5.6c0-1.2,1-2.2,2.2-2.2H4V28.1z"/>
<path class="st1" d="M20.1,32.2L6.6,31.4c-1.5-0.1-2.6-1.3-2.6-2.8V17.5c0-1.3,1-2.3,2.3-2.4l13.7-0.8V32.2z"/>
<path class="st2" d="M42,45.2l-19.6-9.8c-1.4-0.7-2.3-2.2-2.3-3.7V14.7c0-1.5,0.8-3,2.2-3.7L41.9,0.5C44.7-1,48.1,1,48.1,4.2v37.2
	C48.1,44.5,44.8,46.6,42,45.2z"/>
<path class="st1" d="M49,18.1h-1v10h1c2.2,0,4-1.8,4-4v-2C53,19.9,51.2,18.1,49,18.1z"/>
<path class="st3" d="M56,17.1c1.4,2,2,4.1,2,6c0.1,2.6-1.2,4.8-2,6"/>
<path class="st4" d="M8.1,31.5v3.6h3c0.6,0,1,0.4,1,1s-0.4,1-1,1h-3v2h3c0.6,0,1,0.4,1,1s-0.4,1-1,1h-3v2h3c0.6,0,1,0.4,1,1
	s-0.4,1-1,1h-3v2h3c0.6,0,1,0.4,1,1s-0.4,1-1,1h-3v0.7c0,1.9,1.6,3.5,3.5,3.5s3.5-1.6,3.5-3.5V31.9L8.1,31.5z"/>
<path class="st1" d="M12.1,48.1c0-0.6-0.4-1-1-1h-3v2h3C11.6,49.1,12.1,48.6,12.1,48.1z"/>
<path class="st1" d="M12.1,44.1c0-0.6-0.4-1-1-1h-3v2h3C11.6,45.1,12.1,44.6,12.1,44.1z"/>
<path class="st1" d="M12.1,40.1c0-0.6-0.4-1-1-1h-3v2h3C11.6,41.1,12.1,40.6,12.1,40.1z"/>
<path class="st1" d="M12.1,36.1c0-0.6-0.4-1-1-1h-3v2h3C11.6,37.1,12.1,36.6,12.1,36.1z"/>
<path class="st5" d="M41.8,0.5l-1.8,1v42.7l1.9,1c2.8,1.4,6.1-0.6,6.1-3.7V4.2C48,1,44.6-1,41.8,0.5z"/>
<g>
	<path class="st6" d="M30.9,11.6c-0.2-0.5-0.8-0.7-1.3-0.5l-4.5,2.2c-1.3,0.7-2.1,2-2.1,3.5v2.2c0,0.6,0.4,1,1,1s1-0.4,1-1v-2.2
		c0-0.7,0.4-1.4,1-1.7l4.4-2.2C30.9,12.7,31.1,12.1,30.9,11.6z"/>
	<path class="st6" d="M24,21.1c-0.6,0-1,0.4-1,1v2c0,0.6,0.4,1,1,1s1-0.4,1-1v-2C25,21.5,24.6,21.1,24,21.1z"/>
</g>
</svg>
