<!-- Generator: Adobe Illustrator 19.2.1, SVG Export Plug-In  -->
<svg version="1.1"
	 xmlns="http://www.w3.org/2000/svg" xmlns:xlink="http://www.w3.org/1999/xlink" xmlns:a="http://ns.adobe.com/AdobeSVGViewerExtensions/3.0/"
	 x="0px" y="0px" width="52px" height="52px" viewBox="0 0 52 52" style="enable-background:new 0 0 52 52;" xml:space="preserve">
<style type="text/css">
	.st0{fill:#FBD490;}
	.st1{fill:#F0C419;}
	.st2{fill:#556080;}
</style>
<defs>
</defs>
<path class="st0" d="M41,27h-3c-0.6,0-1-0.4-1-1s0.4-1,1-1h3c0.6,0,1,0.4,1,1S41.6,27,41,27z"/>
<path class="st0" d="M51,27h-2c-0.6,0-1-0.4-1-1s0.4-1,1-1h2c0.6,0,1,0.4,1,1S51.6,27,51,27z"/>
<path class="st1" d="M44.4,44.4c-10.2,10.2-26.6,10.2-36.8,0s-10.2-26.6,0-36.8s26.6-10.2,36.8,0L26,26L44.4,44.4z"/>
<circle class="st2" cx="23" cy="12" r="3"/>
</svg>
