<!-- Generator: Adobe Illustrator 18.1.1, SVG Export Plug-In  -->
<svg version="1.1"
   xmlns="http://www.w3.org/2000/svg" xmlns:xlink="http://www.w3.org/1999/xlink" xmlns:a="http://ns.adobe.com/AdobeSVGViewerExtensions/3.0/"
   x="0px" y="0px" width="86px" height="86.2px" viewBox="0 0 86 86.2" enable-background="new 0 0 86 86.2" xml:space="preserve">
<defs>
</defs>
<g>
  <rect x="12" y="8" fill="#667D8C" width="24" height="13"/>
  <rect x="45" y="8" fill="#667D8C" width="23" height="13"/>
  <rect x="77" y="8" fill="#667D8C" width="9" height="13"/>
  <path fill="#A46F3E" d="M12,29H3V3.2C3,1.6,4.1,0,5.8,0h3.5C10.9,0,12,1.6,12,3.2V29z"/>
  <path fill="#A46F3E" d="M45,30h-9V3.2C36,1.6,37.3,0,38.9,0h3.5C44.1,0,45,1.6,45,3.2V30z"/>
  <path fill="#D2D5D7" d="M21.7,81H0V29h21.7c0.9,0,1.3,0.3,1.3,1.2v49C23,80.1,22.6,81,21.7,81z"/>
  <path fill="#D2D5D7" d="M42.4,85L42.4,85L36,77.6V30h16v1.4C52,59.3,48.6,71,42.4,85z"/>
  <path fill="none" stroke="#000000" stroke-width="2" stroke-linecap="round" stroke-miterlimit="10" d="M46.9,34.9"/>
  <path fill="#FFFFFF" d="M40.5,44.4c-0.9,0-1.5-0.7-1.5-1.6v-7.9c0-0.9,0.6-1.6,1.5-1.6s1.5,0.7,1.5,1.6v7.9
    C42,43.7,41.4,44.4,40.5,44.4z"/>
  <path fill="#FFFFFF" d="M4.5,44.4c-0.9,0-1.5-0.7-1.5-1.6v-7.9c0-0.9,0.6-1.6,1.5-1.6S6,34.1,6,34.9v7.9C6,43.7,5.4,44.4,4.5,44.4z
    "/>
  <path fill="#A46F3E" d="M77,29h-9V3.2C68,1.6,68.8,0,70.5,0H74c1.7,0,3,1.6,3,3.2V29z"/>
  <path fill="#D2D5D7" d="M73.8,86.2l0.1-0.2h0C68.7,79,66,70.6,66,61.8V29h14v-0.2C80,39.1,73.8,44.4,73.8,86.2z"/>
  <rect x="15" y="29" fill="#E6E6E6" width="4" height="52"/>
  <path fill="#FFFFFF" d="M70.5,44.4c-0.9,0-1.5-0.7-1.5-1.6v-7.9c0-0.9,0.6-1.6,1.5-1.6s1.5,0.7,1.5,1.6v7.9
    C72,43.7,71.4,44.4,70.5,44.4z"/>
</g>
</svg>
