<!-- Generator: Adobe Illustrator 18.1.1, SVG Export Plug-In  -->
<svg version="1.1"
   xmlns="http://www.w3.org/2000/svg" xmlns:xlink="http://www.w3.org/1999/xlink" xmlns:a="http://ns.adobe.com/AdobeSVGViewerExtensions/3.0/"
   x="0px" y="0px" width="101.8px" height="76.9px" viewBox="0 0 101.8 76.9" enable-background="new 0 0 101.8 76.9"
   xml:space="preserve">
<defs>
</defs>
<g>
  <path fill="#ECF0F1" d="M32,0.9h38.3h0h31.4c0,0-17.6,6-20.9,13h-8.7c0,3-1.7,4.6-1.7,7c0,11.5,5.2,21,10.5,21H32
    c-5.8,0-10.4-8.1-10.4-20.5C21.6,9,26.2,1.9,32,0.9z"/>
  <path fill="#687492" d="M11,46c0-1.2-0.9-2.1-2.1-2.1H2.1C0.9,43.9,0,44.8,0,46v28.8c0,1.2,0.9,2.1,2.1,2.1h6.8
    c1.2,0,2.1-0.9,2.1-2.1V46z"/>
  <rect x="11" y="55.9" fill="#8697CB" width="21" height="10"/>
  <path fill="#687492" d="M42,41.9H32v25.8c0,1.1,0.4,2.2,1.5,2.2h7c0.9,0,1.5-1,1.5-1.9V41.9z"/>
  <path fill="#8697CB" d="M70.3,20.9c0-2.4,0.2-5,0.6-7H79h1.7c1.2-2,4.2-5.1,7.6-7.3c1.8,3.7,2.8,8.7,2.8,14.3
    c0,11.5-4.7,20.9-10.5,20.9C75.5,41.8,70.3,32.4,70.3,20.9z"/>
  <circle fill="#687492" cx="47.7" cy="33.1" r="1.7"/>
  <circle fill="#687492" cx="54.7" cy="33.1" r="1.7"/>
  <circle fill="#687492" cx="61.6" cy="33.1" r="1.7"/>
  <path fill="#D1D4D1" d="M32,0.9h38.3h0h31.4c0,0-17.6,6-20.9,13H70.3h-3.5l-7,7H21.6C21.6,8.9,26.2,1.9,32,0.9z"/>
  <g>
    <path fill="#5E5F62" d="M87.1,7.5c-0.1,0-0.1,0.1-0.2,0.2C86.9,7.6,87,7.6,87.1,7.5z"/>
    <path fill="#5E5F62" d="M85.8,8.4L85.8,8.4C85.8,8.4,85.9,8.4,85.8,8.4C85.9,8.4,85.8,8.4,85.8,8.4z"/>
    <path fill="#5E5F62" d="M88.4,6.6C94.5,2.8,101.7,0,101.7,0s1.9,10.3-11.9,10.4C89.4,9.1,88.9,7.8,88.4,6.6z"/>
    <path fill="#5E5F62" d="M88.4,6.7c0,0-0.1,0.1-0.1,0.1C88.3,6.7,88.3,6.7,88.4,6.7z"/>
  </g>
  <path fill="#687492" d="M77.3,18.6c0-1.8,0.2-3.7,0.6-4.7h2.9c0.4-1,1.1-1.8,1.9-2.7c0.9,1.6,1.6,4.1,1.6,7.4
    c0,5.8-2.4,9.3-3.5,9.3C79.7,27.9,77.3,24.3,77.3,18.6z"/>
  <path fill="#D0E8F9" d="M81,24.9c0-0.8,0.3-2.2,1.7-2.2s1.7,0.7,1.7,2.2c0,2.8-1.2,4.4-1.7,4.4C82.1,29.3,81,27.6,81,24.9z"/>
</g>
</svg>
