<!-- Generator: Adobe Illustrator 19.2.1, SVG Export Plug-In  -->
<svg version="1.1"
	 xmlns="http://www.w3.org/2000/svg" xmlns:xlink="http://www.w3.org/1999/xlink" xmlns:a="http://ns.adobe.com/AdobeSVGViewerExtensions/3.0/"
	 x="0px" y="0px" width="59px" height="52.7px" viewBox="0 0 59 52.7" style="enable-background:new 0 0 59 52.7;"
	 xml:space="preserve">
<style type="text/css">
	.st0{fill:#D2D5D7;stroke:#E6E6E6;stroke-miterlimit:10;}
	.st1{fill:#E6E6E6;stroke:#D2D5D7;stroke-miterlimit:10;}
	.st2{fill:none;stroke:#E6E6E6;stroke-width:2;stroke-linecap:round;stroke-linejoin:round;stroke-miterlimit:10;}
	.st3{fill:none;stroke:#D2D5D7;stroke-width:2;stroke-linecap:round;stroke-miterlimit:10;}
	.st4{fill:none;stroke:#FFFFFF;stroke-width:2;stroke-linecap:round;stroke-miterlimit:10;}
</style>
<defs>
</defs>
<g>
	<path class="st0" d="M54.2,41.5c0.2,1.2,0.3,2.5,0.3,3.7c-16.4,3.9-33.6,3.9-50,0c0-1.3,0.1-2.5,0.3-3.7c-2.7,1.5-4.3,3-4.3,4.2
		c0,3.6,13,6.5,29,6.5s29-2.9,29-6.5C58.5,44.4,56.9,42.9,54.2,41.5z"/>
	<path class="st1" d="M4.5,45.2c0-13.8,11.2-25,25-25s25,11.2,25,25l0,0C38.1,49.1,20.9,49.1,4.5,45.2L4.5,45.2z"/>
	<path class="st2" d="M18.6,7c1.4,1.4,1.4,3.7,0,5.1s-1.4,3.7,0,5.1"/>
	<path class="st2" d="M40.6,7c1.4,1.4,1.4,3.7,0,5.1s-1.4,3.7,0,5.1"/>
	<path class="st2" d="M29.6,1c1.4,1.4,1.4,3.7,0,5.1s-1.4,3.7,0,5.1"/>
	<path class="st3" d="M29.5,20.2c1.3,0,2.5,0.1,3.8,0.3c0.1-0.4,0.2-0.8,0.2-1.3c0-2.2-1.8-4-4-4s-4,1.8-4,4c0,0.5,0.1,0.9,0.2,1.3
		C27,20.3,28.2,20.2,29.5,20.2z"/>
	<path class="st4" d="M24.8,24.7c1.5-0.3,3.1-0.5,4.7-0.5"/>
	<path class="st4" d="M9.5,41.2C10.6,35.4,14,30,19.2,27"/>
</g>
</svg>
