<!-- Generator: Adobe Illustrator 18.1.1, SVG Export Plug-In  -->
<svg version="1.1"
   xmlns="http://www.w3.org/2000/svg" xmlns:xlink="http://www.w3.org/1999/xlink" xmlns:a="http://ns.adobe.com/AdobeSVGViewerExtensions/3.0/"
   x="0px" y="0px" width="85px" height="76px" viewBox="0 0 85 76" enable-background="new 0 0 85 76" xml:space="preserve">
<defs>
</defs>
<path fill="#F18D46" d="M85,72c0,2.2-1.8,4-4,4h-4c-2.2,0-4-1.8-4-4V4c0-2.2,1.8-4,4-4h4c2.2,0,4,1.8,4,4V72z"/>
<polygon fill="#F0C419" points="73,65.7 9,45.4 9,31.4 73,11.2 "/>
<path fill="#D1D4D1" d="M42.2,67.2c-0.6,0-1.3-0.1-1.9-0.3l-22.2-7.2c-1.6-0.5-2.9-1.6-3.6-3.1c-0.8-1.5-0.9-3.2-0.4-4.7
  c0.8-2.6,3.2-4.3,5.9-4.3c0.6,0,1.3,0.1,1.9,0.3l22.2,7.2c1.6,0.5,2.9,1.6,3.6,3.1c0.8,1.5,0.9,3.2,0.4,4.7
  C47.3,65.5,44.9,67.2,42.2,67.2z M20,50.7c-1.3,0-2.6,0.9-3,2.2c-0.3,0.8-0.2,1.6,0.2,2.4c0.4,0.7,1,1.3,1.8,1.5L41.2,64
  c1.6,0.5,3.4-0.4,3.9-2c0.3-0.8,0.2-1.6-0.2-2.4c-0.4-0.7-1-1.3-1.8-1.5l-22.2-7.2C20.6,50.7,20.3,50.7,20,50.7z"/>
<path fill="#535D73" d="M9,48c0,1.7-1.3,3-3,3H3c-1.7,0-3-1.3-3-3V28c0-1.7,1.3-3,3-3h3c1.7,0,3,1.3,3,3V48z"/>
</svg>
