<!-- Generator: Adobe Illustrator 19.2.1, SVG Export Plug-In  -->
<svg version="1.1"
	 xmlns="http://www.w3.org/2000/svg" xmlns:xlink="http://www.w3.org/1999/xlink" xmlns:a="http://ns.adobe.com/AdobeSVGViewerExtensions/3.0/"
	 x="0px" y="0px" width="58px" height="40px" viewBox="0 0 58 40" style="enable-background:new 0 0 58 40;" xml:space="preserve">
<style type="text/css">
	.st0{fill:#E6E7E8;}
	.st1{fill:#BDC3C7;}
	.st2{fill:#546A79;}
	.st3{fill:#95A5A5;}
	.st4{fill:#38454F;}
	.st5{fill:#FFFFFF;}
</style>
<defs>
</defs>
<path class="st0" d="M56.4,10H49c-0.6,0-1.2-0.3-1.5-0.9C45,3.7,39.5,0,33.1,0c-6.4,0-11.9,3.7-14.4,9.1c-0.3,0.6-0.8,0.9-1.5,0.9
	H1.6C0.7,10,0,10.7,0,11.6V15h6c0.6,0,1,0.4,1,1s-0.4,1-1,1H0v4h6c0.6,0,1,0.4,1,1s-0.4,1-1,1H0v4h6c0.6,0,1,0.4,1,1s-0.4,1-1,1H0v4
	h6c0.6,0,1,0.4,1,1s-0.4,1-1,1H0v3.4C0,39.3,0.7,40,1.6,40h54.7c0.9,0,1.6-0.7,1.6-1.6l0-26.7C58,10.7,57.3,10,56.4,10z"/>
<g>
	<path class="st1" d="M7,16c0-0.6-0.4-1-1-1H0v1v1h6C6.6,17,7,16.6,7,16z"/>
	<path class="st1" d="M6,21H0v2h6c0.6,0,1-0.4,1-1S6.6,21,6,21z"/>
	<path class="st1" d="M6,27H0v2h6c0.6,0,1-0.4,1-1S6.6,27,6,27z"/>
	<path class="st1" d="M6,33H0v1v1h6c0.6,0,1-0.4,1-1S6.6,33,6,33z"/>
</g>
<path class="st2" d="M33.1,28c-6.6,0-12-5.4-12-12s5.4-12,12-12s12,5.4,12,12S39.7,28,33.1,28z"/>
<g>
	<circle class="st3" cx="50" cy="37" r="1"/>
	<circle class="st3" cx="54" cy="35" r="1"/>
	<circle class="st3" cx="50" cy="33" r="1"/>
	<circle class="st3" cx="50" cy="29" r="1"/>
	<circle class="st3" cx="54" cy="31" r="1"/>
	<circle class="st3" cx="54" cy="27" r="1"/>
	<circle class="st3" cx="50" cy="25" r="1"/>
	<circle class="st3" cx="50" cy="21" r="1"/>
	<circle class="st3" cx="54" cy="23" r="1"/>
	<circle class="st3" cx="54" cy="19" r="1"/>
	<circle class="st3" cx="50" cy="17" r="1"/>
	<circle class="st3" cx="50" cy="13" r="1"/>
	<circle class="st3" cx="54" cy="15" r="1"/>
</g>
<path class="st4" d="M7,10H3V7.6C3,7.3,3.3,7,3.6,7h2.8C6.7,7,7,7.3,7,7.6V10z"/>
<path class="st4" d="M14,10h-4V7.6C10,7.3,10.3,7,10.6,7h2.8C13.7,7,14,7.3,14,7.6V10z"/>
<rect x="11" y="32" class="st2" width="6" height="4"/>
<rect x="21" y="32" class="st2" width="6" height="4"/>
<circle class="st4" cx="33" cy="16" r="8"/>
<g>
	<path class="st5" d="M35.3,19.3C35.1,19.5,35,19.7,35,20s0.1,0.5,0.3,0.7c0.2,0.2,0.4,0.3,0.7,0.3c0.3,0,0.5-0.1,0.7-0.3
		c0.2-0.2,0.3-0.5,0.3-0.7s-0.1-0.5-0.3-0.7C36.3,18.9,35.7,18.9,35.3,19.3z"/>
	<path class="st5" d="M30.3,11.3C30.1,11.5,30,11.7,30,12s0.1,0.5,0.3,0.7c0.2,0.2,0.4,0.3,0.7,0.3c0.3,0,0.5-0.1,0.7-0.3
		c0.2-0.2,0.3-0.5,0.3-0.7s-0.1-0.5-0.3-0.7C31.3,10.9,30.7,10.9,30.3,11.3z"/>
	<path class="st5" d="M34,11c-0.6,0-1,0.4-1,1s0.4,1,1,1c1.1,0,2,1.4,2,3c0,0.6,0.4,1,1,1s1-0.4,1-1C38,13.2,36.2,11,34,11z"/>
</g>
</svg>
