<!-- Generator: Adobe Illustrator 18.1.1, SVG Export Plug-In  -->
<svg version="1.1"
   xmlns="http://www.w3.org/2000/svg" xmlns:xlink="http://www.w3.org/1999/xlink" xmlns:a="http://ns.adobe.com/AdobeSVGViewerExtensions/3.0/"
   x="0px" y="0px" width="83.5px" height="106.3px" viewBox="0 0 83.5 106.3" enable-background="new 0 0 83.5 106.3"
   xml:space="preserve">
<defs>
</defs>
<g>
  <path fill="none" stroke="#436B1C" stroke-width="2" stroke-linecap="round" stroke-miterlimit="10" d="M10.3,36.7
    c-1.6-2.6-4.4-5.1-7.7-5"/>
  <g>
    <path fill="#98C86A" d="M50.1,12.8C49.8,9,46.7,6,42.8,6c0,0,0,0,0,0c0.1-0.6,0-1.2-0.2-1.8c-0.5-1.8-2.1-3.1-3.9-3.4
      c-1.5-0.2-2.9,0.4-3.9,1.3c-0.9-0.8-2.1-1.4-3.5-1.4c-2.9,0-5.2,2.3-5.2,5.2c0,0,0,0,0,0c-3.5,0.3-6.2,3.2-6.2,6.7
      c0,0.5,0.1,1.1,0.2,1.6c-4.2,0.2-7.5,3.6-7.5,7.8c0,1.4,0.4,2.8,1.1,3.9c-1.3,1-2.1,2.6-2.1,4.4c0,1.6,0.7,3.1,1.8,4.1
      c4.7-3.8,9.6,9,15.4,19.2c1.9,3.4,22.7-0.2,24.4,1.9c1.9-1.7,3.1-31.3,3.2-33.9C56.4,17.7,53.8,14.1,50.1,12.8z"/>
  </g>
  <path fill="none" stroke="#000000" stroke-width="2" stroke-linecap="round" stroke-miterlimit="10" d="M8.3,33"/>
  <path fill="#EEAF4B" d="M52.7,51.5l1.4-0.8c2.6-1.5,5.8-1.5,8.3,0l1.4,0.8c2.6,1.5,5.8,1.5,8.3,0l3.9-1.7c0.6-1.6,1-2.8,1.1-3.3
    c3.7-11.7,6-24.1,6.3-36.5c0.1-5-4-12.7-10.8-9.2c-6.7,3.5-11.5,16.7-14.9,23c-4.8,8.9-8.6,18.7-11.3,28.6
    C48.6,53,50.9,52.7,52.7,51.5z"/>
  <path fill="#ED3F32" d="M2.2,49.6l2.6,1.6c3,1.8,6.8,1.8,9.8,0l0.7-0.4c2.6-1.5,5.8-1.5,8.3,0l1.4,0.8c1.5,0.9,3.2,1.3,4.9,1.1
    c1.2-4,0.8-9-1.1-12.4c-6.5-11.4-11.9-9.1-17.1-4.1c-1,1-2.2,1.6-3.5,2c-5.7,1.6-9.9,4.3-7.5,11.5C1.1,49.3,1.7,49.2,2.2,49.6z"/>
  <path fill="none" stroke="#A46F3E" stroke-width="2" stroke-linecap="round" stroke-miterlimit="10" d="M71.3,38.7
    c-1,2.8-4,4.3-6.8,3.4c-2.8-1-5.8,0.5-6.8,3.4"/>
  <path fill="none" stroke="#A46F3E" stroke-width="2" stroke-linecap="round" stroke-miterlimit="10" d="M75.9,25.1
    c-1,2.8-4,4.3-6.8,3.4c-2.8-1-5.8,0.5-6.8,3.4"/>
  <path fill="none" stroke="#A46F3E" stroke-width="2" stroke-linecap="round" stroke-miterlimit="10" d="M78.2,12.7
    c-0.8,2.3-3.3,3.6-5.7,2.8c-2.3-0.8-4.9,0.5-5.7,2.8"/>
  <g>
    <path fill="#DAE7EF" d="M33.9,27.4c-1.8,2.4-4.7,5.2-3.6,10.3l3,13.6h0l1.4-0.7c2.6-1.5,5.8-1.5,8.3,0.1l1.4,0.9
      c1.1,0.7,2.2,0.9,2.2,0.9c2-7.4,4.7-14.7,7.9-21.7c-1.5-3.8-4.7-5-7-6.3c0,0,0,0,0,0c-1.5-0.8-1.6-2.9-0.5-4.1
      c0.4-0.5,0.6-1.2,0.5-1.9l-0.2-1.1c-0.3-1.2-1.4-1.9-2.6-1.7l-11.8,2.6c-1.2,0.3-1.9,1.4-1.7,2.6l0.2,1.1c0.2,0.7,0.6,1.3,1.3,1.5
      c1.4,0.6,2.3,2.2,1.6,3.6C34.1,27.1,34,27.3,33.9,27.4z"/>
  </g>
  <path fill="#FFFFFF" d="M47.6,20.9l-16,3.5c-0.8,0.2-1.5-0.3-1.7-1.1l-0.8-3.5c-0.2-0.8,0.3-1.5,1.1-1.7l16-3.5
    c0.8-0.2,1.5,0.3,1.7,1.1l0.8,3.5C48.9,20,48.4,20.7,47.6,20.9z"/>
  <path fill="#FBD490" d="M79.5,49.2l-3.4,48.5c-0.2,4.9-4.3,8.5-9.1,8.5H12.4c-4.9,0-8.9-3.7-9.1-8.5L0,50.8
    c-0.1-1.1,1.1-1.8,2.1-1.2l2.6,1.6c3,1.8,6.8,1.8,9.8,0l0.7-0.4c2.6-1.5,5.8-1.5,8.3,0l1.4,0.8c2.6,1.5,5.8,1.5,8.3,0l1.4-0.8
    c2.6-1.5,5.8-1.5,8.3,0l1.4,0.8c2.6,1.5,5.8,1.5,8.3,0l1.4-0.8c2.6-1.5,5.8-1.5,8.3,0l1.4,0.8c2.6,1.5,5.8,1.5,8.3,0l6.6-2.9
    C79,48.4,79.5,48.8,79.5,49.2z"/>
  
    <line fill="none" stroke="#E0B877" stroke-width="2" stroke-linecap="round" stroke-miterlimit="10" x1="10.1" y1="79.3" x2="23.1" y2="79.3"/>
  
    <line fill="none" stroke="#E0B877" stroke-width="2" stroke-linecap="round" stroke-miterlimit="10" x1="10.1" y1="87.3" x2="27.1" y2="87.3"/>
  
    <line fill="none" stroke="#E0B877" stroke-width="2" stroke-linecap="round" stroke-miterlimit="10" x1="10.1" y1="95.3" x2="31.1" y2="95.3"/>
  
    <line fill="none" stroke="#E0B877" stroke-width="2" stroke-linecap="round" stroke-miterlimit="10" x1="39.1" y1="95.3" x2="43.1" y2="95.3"/>
</g>
</svg>
