<!-- Generator: Adobe Illustrator 19.2.1, SVG Export Plug-In  -->
<svg version="1.1"
	 xmlns="http://www.w3.org/2000/svg" xmlns:xlink="http://www.w3.org/1999/xlink" xmlns:a="http://ns.adobe.com/AdobeSVGViewerExtensions/3.0/"
	 x="0px" y="0px" width="55px" height="59px" viewBox="0 0 55 59" style="enable-background:new 0 0 55 59;" xml:space="preserve">
<style type="text/css">
	.st0{fill:#7F6E5D;}
	.st1{fill:none;stroke:#CBB292;stroke-width:2;stroke-linecap:round;stroke-miterlimit:10;}
	.st2{fill:#CBB292;}
	.st3{fill:#070707;stroke:#0096E6;stroke-miterlimit:10;}
	.st4{fill:#F4E6CE;}
	.st5{fill:none;stroke:#7F6E5D;stroke-width:2;stroke-linecap:round;stroke-linejoin:round;stroke-miterlimit:10;}
	.st6{fill:#A4E869;}
	.st7{fill:#F0C419;stroke:#F0C419;stroke-width:2;stroke-linecap:round;stroke-linejoin:round;stroke-miterlimit:10;}
</style>
<defs>
</defs>
<path class="st0" d="M47,22.9L47,22.9C46.6,28.5,37.8,33,27,33S7.4,28.5,7,22.9l0,0c-1.3,3.2-2,6.8-2,10.6C5,47.6,14.8,59,27,59
	s22-11.4,22-25.5C49,29.7,48.3,26.1,47,22.9z"/>
<path class="st1" d="M12,38c0,7.7,6.3,14,14,14"/>
<path class="st2" d="M34.3,14.7C32,14.2,29.6,14,27,14c-11,0-20,4.3-20,9.5S16,33,27,33s20-4.3,20-9.5c0-3.2-3.4-6.1-8.7-7.8"/>
<circle class="st3" cx="17" cy="23" r="1"/>
<path class="st4" d="M32.1,18.3C30.6,18.1,28.9,18,27,18c-10.4,0-16,3.9-16,5.5S16.6,29,27,29s16-3.9,16-5.5c0-1-2.3-3-6.8-4.3
	L32.1,18.3z"/>
<circle class="st2" cx="21" cy="23" r="1"/>
<circle class="st2" cx="24" cy="25" r="1"/>
<circle class="st2" cx="25" cy="21" r="1"/>
<line class="st5" x1="10.6" y1="10.4" x2="17" y2="23"/>
<path class="st6" d="M31,26.3c-0.3,0-0.7-0.1-1-0.3c-1-0.5-1.3-1.8-0.8-2.7l11-18.8C41,3.1,42.4,2.2,44,2c1.6-0.2,3.1,0.3,4.3,1.5
	l6.1,6.1c0.8,0.8,0.8,2,0,2.8c-0.8,0.8-2,0.8-2.8,0l-6.1-6.1c-0.3-0.3-0.7-0.3-0.9-0.3c-0.2,0-0.6,0.1-0.8,0.5l-11,18.7
	C32.4,25.9,31.7,26.3,31,26.3z"/>
<path class="st7" d="M2.3,15.3c-0.6-1,0.2-2.4,1.3-3.1s2.5-0.4,3,0.6c-0.6-1-0.1-2.3,1-2.9c1.1-0.6,2.5-0.4,3,0.6
	c-0.6-1-0.1-2.3,1-2.9s2.5-0.4,3,0.6c-0.6-1-0.1-2.3,1-2.9s2.5-0.4,3,0.6c-2.6-4.5-8.4-6.1-13-3.5S-0.3,10.7,2.3,15.3z"/>
</svg>
