<!-- Generator: Adobe Illustrator 18.1.1, SVG Export Plug-In  -->
<svg version="1.1"
   xmlns="http://www.w3.org/2000/svg" xmlns:xlink="http://www.w3.org/1999/xlink" xmlns:a="http://ns.adobe.com/AdobeSVGViewerExtensions/3.0/"
   x="0px" y="0px" width="88px" height="85.9px" viewBox="0 0 88 85.9" enable-background="new 0 0 88 85.9" xml:space="preserve">
<defs>
</defs>
<rect y="59.9" fill="#535D73" width="88" height="26"/>
<path fill="#FFFFFF" d="M82,74.9h-6v-3h6V74.9z M70,74.9h-6v-3h6V74.9z M58,74.9h-5v-3h5V74.9z M47,74.9h-6v-3h6V74.9z M35,74.9h-6
  v-3h6V74.9z M23,74.9h-5v-3h5V74.9z M12,74.9H6v-3h6V74.9z"/>
<path fill="#24AE5F" d="M64.3,7.8L64.3,7.8C53.9-2.6,37.1-2.6,26.7,7.8h0c-9.3,9.3-10.4,26.9-2.5,37.5l21.2,30.7l21.2-30.7
  C74.6,34.7,73.6,17.1,64.3,7.8z M45.8,35c-4.8,0-8.8-3.9-8.8-8.8s3.9-8.8,8.8-8.8s8.8,3.9,8.8,8.8S50.6,35,45.8,35z"/>
</svg>
