<!-- Generator: Adobe Illustrator 18.1.1, SVG Export Plug-In  -->
<svg version="1.1"
   xmlns="http://www.w3.org/2000/svg" xmlns:xlink="http://www.w3.org/1999/xlink" xmlns:a="http://ns.adobe.com/AdobeSVGViewerExtensions/3.0/"
   x="0px" y="0px" width="980.1px" height="1018px" viewBox="0 0 980.1 1018" enable-background="new 0 0 980.1 1018"
   xml:space="preserve">
<defs>
</defs>
<g>
  <g>
    <g>
      <path fill="#517F99" d="M745.1,588c0-20.3-16.6-37-36.9-37H223.1v10h485.1c15.5,0,28.1,12.5,28.1,28s-12.6,28-28.1,28h-63
        c-14.7,0-26.7,11.8-26.7,26.5c0,14.7,12,26.5,26.7,26.5h77.9v-9h-77.9c-9.9,0-17.9-8.1-17.9-18c0-9.9,8.1-18,17.9-18h63
        C728.5,625,745.1,608.3,745.1,588z"/>
      <path fill="#2B414E" d="M200.1,537.6c14,0.3,23.6,8.3,23.6,18.1c0,9.8-9.6,17.8-23.6,18.1V537.6z"/>
      <rect x="186.1" y="546" fill="#2B414E" width="14" height="20"/>
      <g>
        <rect x="190.1" y="550" fill="#F2F2F2" width="5" height="4"/>
        <rect x="190.1" y="558" fill="#F2F2F2" width="5" height="4"/>
      </g>
      <rect x="720.1" y="659" fill="#0C2C48" width="3" height="12"/>
      <polygon fill="#2B414E" points="729.3,678 723.1,672.6 723.1,658.3 729.3,652 729.1,652 729.1,678       "/>
      <rect x="729.1" y="652" fill="#344F5E" width="18" height="26"/>
      <rect x="732.1" y="656" fill="#0C2C48" width="12" height="18"/>
      <rect x="747.1" y="659" fill="#BBC2C6" width="11" height="12"/>
    </g>
  </g>
  <g>
    <path fill="#517F99" d="M873.1,721v62.7c0,20.3,16.7,36.9,37,36.9c20.3,0,37-16.6,37-36.9V99h-10v684.7c0,15.5-12.5,28.1-28,28.1
      c-15.5,0-28-12.6-28-28.1V721"/>
    <path fill="#2B414E" d="M960.7,77c-0.3,12-8.3,23.6-18.1,23.6c-9.8,0-17.8-11.6-18.1-23.6H960.7z"/>
    <rect x="932.1" y="62" fill="#2B414E" width="20" height="15"/>
    <g>
      <rect x="944.1" y="67" fill="#F2F2F2" width="6" height="5"/>
      <rect x="936.1" y="67" fill="#F2F2F2" width="4" height="5"/>
    </g>
    <rect x="872.1" y="719" fill="#0C2C48" width="11" height="3"/>
    <polygon fill="#2B414E" points="891.1,712.4 884.8,719 870.5,719 865.1,712.4 865.1,713 891.1,713     "/>
    <rect x="865.1" y="693" fill="#344F5E" width="26" height="20"/>
    <rect x="869.1" y="697" fill="#0C2C48" width="18" height="11"/>
    <rect x="870.1" y="682" fill="#BBC2C6" width="14" height="11"/>
  </g>
  <g>
    <g>
      <path fill="#517F99" d="M724.1,696.9c-20.3,0-37,16.6-37,36.9V821h10v-87.2c0-15.5,12.5-28.1,28-28.1s28,12.6,28,28.1v63
        c0,14.7,11.8,26.7,26.5,26.7c14.7,0,26.5-12,26.5-26.7V718h-8v78.8c0,9.9-8.6,17.9-18.5,17.9c-9.9,0-18.5-8.1-18.5-17.9v-63
        C761.1,713.5,744.5,696.9,724.1,696.9z"/>
      <path fill="#2B414E" d="M674.1,844c0.3-14,8.3-23.6,18.1-23.6c9.8,0,17.8,9.6,18.1,23.6H674.1z"/>
      <rect x="682.1" y="844" fill="#2B414E" width="20" height="14"/>
      <g>
        <rect x="686.1" y="848" fill="#F2F2F2" width="4" height="5"/>
        <rect x="694.1" y="848" fill="#F2F2F2" width="4" height="5"/>
      </g>
      <rect x="796.1" y="719" fill="#0C2C48" width="11" height="3"/>
      <polygon fill="#2B414E" points="814.1,712.7 809,719 794.7,719 788.1,712.7 788.1,713 814.1,713       "/>
      <rect x="788.1" y="693" fill="#344F5E" width="26" height="20"/>
      <rect x="792.1" y="697" fill="#0C2C48" width="18" height="11"/>
      <rect x="795.1" y="684" fill="#BBC2C6" width="14" height="9"/>
    </g>
  </g>
  <g>
    <g>
      <path fill="#517F99" d="M455.3,756c0.1,0,162,0,162.1,0c20.2,0.2,36.8,16.7,36.8,36.9V821h-9v-28.1c0-15.4-12.5-27.9-27.9-28.1
        c-0.1,0-161.8,0-161.9,0"/>
      <path fill="#2B414E" d="M667.4,844c-0.3-14-8.3-23.6-18.1-23.6s-17.8,9.6-18.1,23.6H667.4z"/>
      <rect x="639.1" y="844" fill="#2B414E" width="21" height="14"/>
      <g>
        <rect x="651.1" y="848" fill="#F2F2F2" width="5" height="5"/>
        <rect x="642.1" y="848" fill="#F2F2F2" width="5" height="5"/>
      </g>
      <rect x="453.1" y="755" fill="#0C2C48" width="2" height="11"/>
      <polygon fill="#2B414E" points="446.2,773 453.1,767.3 453.1,753 446.2,747 446.1,747 446.1,773       "/>
      <rect x="427.1" y="747" fill="#344F5E" width="19" height="26"/>
      <rect x="431.1" y="751" fill="#0C2C48" width="11" height="18"/>
      <rect x="416.1" y="754" fill="#BBC2C6" width="11" height="13"/>
    </g>
  </g>
  <g>
    <path fill="#DE8C27" d="M823.6,542.8c-48.6,0-27.5,13.5-27.5,13.5V584h27.8h27.2v-27.6C851.1,556.4,872.2,542.8,823.6,542.8"/>
    <polygon fill="#DE8C27" points="857.2,554.7 856.1,549.6 851.6,553.2     "/>
    <polygon fill="#DE8C27" points="790.7,554.4 791.8,549.6 802.1,547.1     "/>
    <path fill="#BBC2C6" d="M894.6,599.5c-2.6-14.6-12.3-25.5-30.4-25.5h-81.1c-18,0-27.6,11.7-30.4,25.5c0,0-4.3,19.2-4.1,20
      c8.5,36.5,150-0.4,150-0.4L894.6,599.5z"/>
    <path fill="#FFFFFF" d="M899.1,623c0-14.7-12.1-27-26.8-27h-97.2c-14.7,0-25.9,12.3-25.9,27v54h150V623z"/>
    <path fill="#667A82" d="M749.1,677v7.9c0,5.4,3.7,10.1,9,10.1h131.1c5.4,0,9.9-4.8,9.9-10.1V677H749.1z"/>
    <rect x="790.1" y="621" fill="#D6D7D6" width="5" height="49"/>
    <rect x="810.1" y="621" fill="#D6D7D6" width="6" height="49"/>
    <rect x="831.1" y="621" fill="#D6D7D6" width="5" height="49"/>
    <rect x="851.1" y="621" fill="#D6D7D6" width="6" height="49"/>
    <polygon fill="#2B414E" points="861.3,588 786.5,588 789.3,583 858.5,583     "/>
    <path fill="#DE8C27" d="M824.1,547.4c-50.1,0-29,13.5-29,13.5V588h28.8h29.2v-27.1C853.1,560.9,874.3,547.4,824.1,547.4"/>
    <path fill="#F7DE8D" d="M796.1,588v-27.5l-0.4-0.2c-1.4-0.9-4.8-3.6-4.1-5.9c0.7-2.3,5.7-6.1,32.4-6.1c26.6,0,31.7,3.9,32.4,6.1
      c0.7,2.3-3.1,5.1-4.5,5.9l-0.7,0.2V588H796.1z"/>
    <rect x="899.1" y="625" fill="#E65235" width="10" height="10"/>
    <rect x="899.1" y="640" fill="#2D4454" width="10" height="22"/>
    <path fill="#E4C87A" d="M811.8,557.7c0,1.8-1.5,3.3-3.3,3.3c-1.8,0-3.3-1.5-3.3-3.3s1.5-3.3,3.3-3.3
      C810.3,554.4,811.8,555.8,811.8,557.7"/>
    <path fill="#E4C87A" d="M839,564.2c0,1.3-1,2.3-2.3,2.3c-1.3,0-2.3-1-2.3-2.3c0-1.3,1-2.3,2.3-2.3C838,561.9,839,562.9,839,564.2"
      />
    <path fill="#E4C87A" d="M826.7,582.4c0,2-1.7,3.7-3.7,3.7c-2,0-3.7-1.7-3.7-3.7c0-2,1.7-3.7,3.7-3.7
      C825,578.7,826.7,580.3,826.7,582.4"/>
  </g>
  <g>
    <path fill="#293F4D" d="M196.8,484H18.6c-2.2,0-4.5,1.4-4.5,3.6V614h186V487.6C200.1,485.4,199,484,196.8,484z"/>
    <rect x="21.1" y="491" fill="#BBBFC2" width="172" height="116"/>
    <rect x="21.1" y="491" fill="#909AA0" width="172" height="5"/>
    <rect x="25.1" y="507" fill="#F2F2F2" width="164" height="96"/>
    <polygon fill="#BBBFC2" points="20.2,626 195.3,626 215.5,620 0,620    "/>
    <rect x="0.1" y="614" fill="#ECF0F2" width="215" height="6"/>
    <rect x="54.1" y="491" fill="#909AA0" width="11" height="5"/>
    <path fill="#ECF0F2" d="M52.8,491H21.1v5h37.7C58.8,494,56.1,491,52.8,491z"/>
    <g>
      <g>
        
          <rect x="59.3" y="493" transform="matrix(0.7071 0.7071 -0.7071 0.7071 366.9019 101.0389)" fill="#FFFFFF" width="4.3" height="0.9"/>
      </g>
      <g>
        
          <rect x="61.1" y="491.3" transform="matrix(0.7092 0.7051 -0.7051 0.7092 365.7702 100.1607)" fill="#FFFFFF" width="0.9" height="4.3"/>
      </g>
    </g>
    <rect x="96.1" y="491" fill="#909AA0" width="11" height="5"/>
    <g>
      <g>
        
          <rect x="102.3" y="493" transform="matrix(0.7071 0.7071 -0.7071 0.7071 379.4943 70.6618)" fill="#FFFFFF" width="4.3" height="0.9"/>
      </g>
      <g>
        
          <rect x="104" y="491.3" transform="matrix(0.7091 0.7051 -0.7051 0.7091 378.3068 69.8916)" fill="#FFFFFF" width="0.9" height="4.3"/>
      </g>
    </g>
    <path fill="#ECF0F2" d="M96.1,491H65.1v5h37C102.1,494,99.4,491,96.1,491z"/>
    <rect x="48.1" y="500" fill="#ECF0F2" width="141" height="5"/>
    <g>
      <g>
        <rect x="26.5" y="502" fill="#ECF0F2" width="4.1" height="0"/>
      </g>
      <g>
        <polygon fill="#ECF0F2" points="27.2,504.4 24.8,502 27.2,499.7 27.8,500.3 26,502 27.8,503.8         "/>
      </g>
    </g>
    <g>
      <g>
        <rect x="34.7" y="502" fill="#ECF0F2" width="5.5" height="0"/>
      </g>
      <g>
        <polygon fill="#ECF0F2" points="38.9,504.4 41.3,502 38.9,499.7 38.3,500.3 40.1,502 38.3,503.8         "/>
      </g>
    </g>
  </g>
  <g>
    <rect x="632.1" y="1012" fill="#F2CD55" width="7" height="1"/>
    <g>
      <path fill="#1AA285" d="M710.1,844h-80v40h7.3c2.7,0,4.7,1.4,4.7,4.1v27.4c0,2.7-2,4.5-4.7,4.5h-7.3v65h8.4c1.2,0,2.2,0.8,2.2,2
        c0,1.2-1,2-2.2,2h-8.4v29h80V844z"/>
      <polygon fill="#39B39B" points="643.1,951 643.1,908 694.1,908 694.1,888 647.1,888 647.1,844 649.1,844 649.1,888 695.1,888 
        695.1,908 645.1,908 645.1,949 690.1,949 690.1,1012 702.1,1012 702.1,858 703.1,858 703.1,1013 690.1,1013 690.1,951       "/>
      <path fill="#39B39B" d="M656.1,923v-53h31v-25h1v26h-31v51H695c0.7,0,1.2,0,1.6,0.5c1.6,2.3-0.8,9.3-1.1,10.1l-0.1,0.4h-27.2v8
        h26v66h4V844h1v164h-6v-66h-26v-11h27.5c1-2,2-6.9,1.1-8.2c-0.2-0.2-0.4,0.2-0.7,0.2H656.1z"/>
      <polygon fill="#39B39B" points="641.1,1008 641.1,1007 647.1,1007 647.1,1000 654.1,1000 654.1,1012 686.1,1012 686.1,993 
        647.1,993 647.1,972 672.1,972 672.1,957 645.1,957 645.1,956 673.1,956 673.1,974 649.1,974 649.1,992 686.1,992 686.1,1013 
        653.1,1013 653.1,1000 649.1,1000 649.1,1008       "/>
      <path fill="#2B414E" d="M770.1,843.5V825h-13v14.5c0,1.8-1.9,2.5-3.6,2.5H601.1v5h166.6C769.5,847,770.1,845.3,770.1,843.5z"/>
      <rect x="653.1" y="926" fill="#2B414E" width="27" height="34"/>
      <rect x="661.1" y="847" fill="#BBBFC2" width="33" height="21"/>
      <rect x="697.1" y="1000" fill="#BBBFC2" width="5" height="7"/>
      <rect x="686.1" y="1000" fill="#BBBFC2" width="7" height="7"/>
      <rect x="676.1" y="1000" fill="#BBBFC2" width="7" height="7"/>
      <rect x="667.1" y="1000" fill="#BBBFC2" width="5" height="7"/>
      <rect x="656.1" y="1000" fill="#BBBFC2" width="6" height="7"/>
      <rect x="632.1" y="1009" fill="#F2CD55" width="7" height="2"/>
      <rect x="632.1" y="1005" fill="#F2CD55" width="7" height="2"/>
      <rect x="632.1" y="1003" fill="#F2CD55" width="7" height="1"/>
      <rect x="632.1" y="998" fill="#F2CD55" width="7" height="2"/>
      <rect x="632.1" y="994" fill="#F2CD55" width="7" height="2"/>
      <rect x="632.1" y="992" fill="#F2CD55" width="7" height="1"/>
      <rect x="632.1" y="981" fill="#F2CD55" width="7" height="2"/>
      <rect x="632.1" y="978" fill="#F2CD55" width="7" height="1"/>
      <rect x="632.1" y="975" fill="#F2CD55" width="7" height="2"/>
      <rect x="632.1" y="972" fill="#F2CD55" width="7" height="2"/>
      <rect x="632.1" y="968" fill="#F2CD55" width="7" height="2"/>
      <rect x="632.1" y="966" fill="#F2CD55" width="7" height="1"/>
      <rect x="632.1" y="963" fill="#F2CD55" width="7" height="1"/>
      <rect x="632.1" y="959" fill="#F2CD55" width="7" height="2"/>
      <rect x="632.1" y="956" fill="#F2CD55" width="7" height="1"/>
      <rect x="632.1" y="953" fill="#F2CD55" width="7" height="2"/>
      <rect x="632.1" y="951" fill="#F2CD55" width="7" height="1"/>
      <rect x="632.1" y="946" fill="#F2CD55" width="7" height="2"/>
      <rect x="632.1" y="944" fill="#F2CD55" width="7" height="1"/>
      <rect x="632.1" y="941" fill="#F2CD55" width="7" height="1"/>
      <rect x="632.1" y="938" fill="#F2CD55" width="7" height="2"/>
      <rect x="632.1" y="934" fill="#F2CD55" width="7" height="1"/>
      <rect x="632.1" y="931" fill="#F2CD55" width="7" height="2"/>
      <rect x="632.1" y="929" fill="#F2CD55" width="7" height="1"/>
      <rect x="632.1" y="925" fill="#F2CD55" width="7" height="1"/>
      <rect x="632.1" y="922" fill="#F2CD55" width="7" height="1"/>
      <path fill="#2B414E" d="M694.1,904.8c0-1-0.8-1.8-1.8-1.8H692c-1,0-1.8,0.8-1.8,1.8v10.3c0,1,0.8,1.8,1.8,1.8h0.3
        c1,0,1.8-0.8,1.8-1.8V904.8z"/>
      <path fill="#2B414E" d="M694.1,882.8c0-1-0.8-1.8-1.8-1.8H692c-1,0-1.8,0.8-1.8,1.8v10.3c0,1,0.8,1.8,1.8,1.8h0.3
        c1,0,1.8-0.8,1.8-1.8V882.8z"/>
      <path fill="#2B414E" d="M681.1,904.8c0-1-0.8-1.8-1.8-1.8H679c-1,0-1.8,0.8-1.8,1.8v10.3c0,1,0.8,1.8,1.8,1.8h0.3
        c1,0,1.8-0.8,1.8-1.8V904.8z"/>
      <path fill="#2B414E" d="M681.1,882.8c0-1-0.8-1.8-1.8-1.8H679c-1,0-1.8,0.8-1.8,1.8v10.3c0,1,0.8,1.8,1.8,1.8h0.3
        c1,0,1.8-0.8,1.8-1.8V882.8z"/>
      <path fill="#2B414E" d="M669.1,904.8c0-1-0.8-1.8-1.8-1.8H667c-1,0-1.8,0.8-1.8,1.8v10.3c0,1,0.8,1.8,1.8,1.8h0.3
        c1,0,1.8-0.8,1.8-1.8V904.8z"/>
      <path fill="#2B414E" d="M669.1,882.8c0-1-0.8-1.8-1.8-1.8H667c-1,0-1.8,0.8-1.8,1.8v10.3c0,1,0.8,1.8,1.8,1.8h0.3
        c1,0,1.8-0.8,1.8-1.8V882.8z"/>
      <path fill="#2B414E" d="M658.1,904.8c0-1-0.8-1.8-1.8-1.8H656c-1,0-1.8,0.8-1.8,1.8v10.3c0,1,0.8,1.8,1.8,1.8h0.3
        c1,0,1.8-0.8,1.8-1.8V904.8z"/>
      <path fill="#2B414E" d="M658.1,882.8c0-1-0.8-1.8-1.8-1.8H656c-1,0-1.8,0.8-1.8,1.8v10.3c0,1,0.8,1.8,1.8,1.8h0.3
        c1,0,1.8-0.8,1.8-1.8V882.8z"/>
      <rect x="668.1" y="968" fill="#ECF0F2" width="7" height="7"/>
      <rect x="646.1" y="981" fill="#ECF0F2" width="7" height="6"/>
      <rect x="642.1" y="955" fill="#ECF0F2" width="4" height="4"/>
      <rect x="643.1" y="873" fill="#F2CD55" width="6" height="5"/>
      <rect x="702.1" y="870" fill="#F2CD55" width="3" height="3"/>
      <rect x="699.1" y="923" fill="#2B414E" width="3" height="3"/>
      <rect x="703.1" y="963" fill="#2B414E" width="3" height="3"/>
      <rect x="697.1" y="985" fill="#ECF0F2" width="5" height="4"/>
      <rect x="676.1" y="992" fill="#2B414E" width="3" height="4"/>
      <rect x="662.1" y="989" fill="#2B414E" width="3" height="3"/>
      <rect x="646.1" y="1005" fill="#2B414E" width="3" height="4"/>
      <circle fill="#2B414E" cx="639.2" cy="853.3" r="4.6"/>
      <circle fill="#2B414E" cx="637.3" cy="865" r="1.9"/>
      <circle fill="#2B414E" cx="703.1" cy="852.1" r="3.4"/>
      <circle fill="#2B414E" cx="690" cy="941.4" r="3.9"/>
      <circle fill="#ECF0F2" cx="702.6" cy="898.5" r="2.4"/>
      <circle fill="#2B414E" cx="697.8" cy="970.7" r="1.2"/>
    </g>
  </g>
  <g>
    <g>
      <path fill="#5F8463" d="M974.1,21V11h6V0h-64.2l-12.8,15.4V61h6.2c2.5,0,4.5,1.5,4.5,4s-2,4-4.5,4h-6.2v8h77V21H974.1z"/>
      <g>
        <polygon fill="#889E8A" points="922.1,44 914.1,44 914.1,14 928.1,14 928.1,9 931.1,9 931.1,15 915.1,15 915.1,43 922.1,43         
          "/>
        <polygon fill="#889E8A" points="973.1,40 962.1,40 962.1,37 972.1,37 972.1,17 946.1,17 946.1,9 948.1,9 948.1,15 973.1,15         
          "/>
        <polygon fill="#889E8A" points="977.1,70 915.1,70 915.1,59 910.1,59 910.1,47 925.1,47 925.1,48 913.1,48 913.1,58 917.1,58 
          917.1,69 974.1,69 974.1,44 962.1,44 962.1,43 977.1,43         "/>
        <polygon fill="#889E8A" points="973.1,66 920.1,66 920.1,55 925.1,55 925.1,57 921.1,57 921.1,63 972.1,63 972.1,52 961.1,52 
          961.1,51 973.1,51         "/>
      </g>
      <rect x="926.2" y="19.9" fill="#270805" width="35" height="42"/>
      <g>
        <polygon fill="#FFC90A" points="922.1,8.6 920.1,10.4 918.1,8.6 918.1,0 922.1,0        "/>
        <polygon fill="#FFC90A" points="931.1,8.6 929.6,10.4 928.1,8.6 928.1,0 931.1,0        "/>
        <polygon fill="#FFC90A" points="940.1,8.6 938.1,10.4 936.1,8.6 936.1,0 940.1,0        "/>
        <polygon fill="#FFC90A" points="948.1,8.6 947.1,10.4 946.1,8.6 946.1,0 948.1,0        "/>
        <polygon fill="#FFC90A" points="958.1,8.6 956.1,10.4 954.1,8.6 954.1,0 958.1,0        "/>
        <polygon fill="#FFC90A" points="967.1,8.6 965.1,10.4 963.1,8.6 963.1,0 967.1,0        "/>
      </g>
      <g>
        <g>
          <path fill="#ECF0F2" d="M929.1,25.5c0,0.3-0.2,0.5-0.5,0.5h-6c-0.3,0-0.5-0.2-0.5-0.5l0,0c0-0.3,0.2-0.5,0.5-0.5h6
            C928.9,25,929.1,25.2,929.1,25.5L929.1,25.5z"/>
          <path fill="#ECF0F2" d="M929.1,29.5c0,0.3-0.2,0.5-0.5,0.5h-6c-0.3,0-0.5-0.2-0.5-0.5l0,0c0-0.3,0.2-0.5,0.5-0.5h6
            C928.9,29,929.1,29.2,929.1,29.5L929.1,29.5z"/>
          <path fill="#ECF0F2" d="M929.1,33.5c0,0.3-0.2,0.5-0.5,0.5h-6c-0.3,0-0.5-0.2-0.5-0.5l0,0c0-0.3,0.2-0.5,0.5-0.5h6
            C928.9,33,929.1,33.2,929.1,33.5L929.1,33.5z"/>
          <path fill="#ECF0F2" d="M929.1,37.5c0,0.3-0.2,0.5-0.5,0.5h-6c-0.3,0-0.5-0.2-0.5-0.5l0,0c0-0.3,0.2-0.5,0.5-0.5h6
            C928.9,37,929.1,37.2,929.1,37.5L929.1,37.5z"/>
          <path fill="#ECF0F2" d="M929.1,41.5c0,0.3-0.2,0.5-0.5,0.5h-6c-0.3,0-0.5-0.2-0.5-0.5l0,0c0-0.3,0.2-0.5,0.5-0.5h6
            C928.9,41,929.1,41.2,929.1,41.5L929.1,41.5z"/>
          <path fill="#ECF0F2" d="M929.1,47.5c0,0.3-0.2,0.5-0.5,0.5h-6c-0.3,0-0.5-0.2-0.5-0.5l0,0c0-0.3,0.2-0.5,0.5-0.5h6
            C928.9,47,929.1,47.2,929.1,47.5L929.1,47.5z"/>
          <path fill="#ECF0F2" d="M929.1,51.5c0,0.3-0.2,0.5-0.5,0.5h-6c-0.3,0-0.5-0.2-0.5-0.5l0,0c0-0.3,0.2-0.5,0.5-0.5h6
            C928.9,51,929.1,51.2,929.1,51.5L929.1,51.5z"/>
          <path fill="#ECF0F2" d="M929.1,55.5c0,0.3-0.2,0.5-0.5,0.5h-6c-0.3,0-0.5-0.2-0.5-0.5l0,0c0-0.3,0.2-0.5,0.5-0.5h6
            C928.9,55,929.1,55.2,929.1,55.5L929.1,55.5z"/>
        </g>
        <g>
          <path fill="#ECF0F2" d="M965.1,25.5c0,0.3-0.2,0.5-0.5,0.5h-6c-0.3,0-0.5-0.2-0.5-0.5l0,0c0-0.3,0.2-0.5,0.5-0.5h6
            C964.9,25,965.1,25.2,965.1,25.5L965.1,25.5z"/>
          <path fill="#ECF0F2" d="M965.1,29.5c0,0.3-0.2,0.5-0.5,0.5h-6c-0.3,0-0.5-0.2-0.5-0.5l0,0c0-0.3,0.2-0.5,0.5-0.5h6
            C964.9,29,965.1,29.2,965.1,29.5L965.1,29.5z"/>
          <path fill="#ECF0F2" d="M965.1,33.5c0,0.3-0.2,0.5-0.5,0.5h-6c-0.3,0-0.5-0.2-0.5-0.5l0,0c0-0.3,0.2-0.5,0.5-0.5h6
            C964.9,33,965.1,33.2,965.1,33.5L965.1,33.5z"/>
          <path fill="#ECF0F2" d="M965.1,37.5c0,0.3-0.2,0.5-0.5,0.5h-6c-0.3,0-0.5-0.2-0.5-0.5l0,0c0-0.3,0.2-0.5,0.5-0.5h6
            C964.9,37,965.1,37.2,965.1,37.5L965.1,37.5z"/>
          <path fill="#ECF0F2" d="M965.1,41.5c0,0.3-0.2,0.5-0.5,0.5h-6c-0.3,0-0.5-0.2-0.5-0.5l0,0c0-0.3,0.2-0.5,0.5-0.5h6
            C964.9,41,965.1,41.2,965.1,41.5L965.1,41.5z"/>
          <path fill="#ECF0F2" d="M965.1,47.5c0,0.3-0.2,0.5-0.5,0.5h-6c-0.3,0-0.5-0.2-0.5-0.5l0,0c0-0.3,0.2-0.5,0.5-0.5h6
            C964.9,47,965.1,47.2,965.1,47.5L965.1,47.5z"/>
          <path fill="#ECF0F2" d="M965.1,51.5c0,0.3-0.2,0.5-0.5,0.5h-6c-0.3,0-0.5-0.2-0.5-0.5l0,0c0-0.3,0.2-0.5,0.5-0.5h6
            C964.9,51,965.1,51.2,965.1,51.5L965.1,51.5z"/>
          <path fill="#ECF0F2" d="M965.1,55.5c0,0.3-0.2,0.5-0.5,0.5h-6c-0.3,0-0.5-0.2-0.5-0.5l0,0c0-0.3,0.2-0.5,0.5-0.5h6
            C964.9,55,965.1,55.2,965.1,55.5L965.1,55.5z"/>
        </g>
      </g>
    </g>
  </g>
  <g>
    <path fill="#7AD36A" d="M271.9,725c2.8,45,40.6,81.7,86.9,81.7c46.3,0,84.1-36.7,86.9-81.7H271.9z"/>
    <path fill="#7AD36A" d="M277.7,725c2.8,42,38,75.9,81.1,75.9c43.1,0,78.3-33.9,81.1-75.9H277.7z"/>
    <path fill="#E22F37" d="M282,725c2.8,39,36.1,71.5,76.7,71.5c40.7,0,74-32.5,76.7-71.5H282z"/>
    <path fill="#30120D" d="M369,781.8c0,2.2-1.1,2.8-2.4,2.8c-1.3,0-2.4-0.6-2.4-2.8c0-2.2,2.4-5.1,2.4-5.1S369,779.7,369,781.8"/>
    <path fill="#30120D" d="M405.7,761.9c1.4,1.6,0.9,2.7-0.1,3.6c-1,0.8-2.2,1.1-3.5-0.6c-1.4-1.6-1.4-5.3-1.4-5.3
      S404.3,760.3,405.7,761.9"/>
    <path fill="#30120D" d="M415.3,739.3c2,0.6,2.2,1.7,1.9,2.9c-0.3,1.2-1.1,2-3.1,1.5c-2-0.6-4-3.5-4-3.5S413.3,738.7,415.3,739.3"
      />
    <path fill="#30120D" d="M393.5,743.8c1.8,1.1,1.7,2.2,1.1,3.3c-0.6,1.1-1.6,1.7-3.4,0.6c-1.8-1.1-3-4.4-3-4.4
      S391.8,742.7,393.5,743.8"/>
    <path fill="#30120D" d="M376.4,759.3c0.5,2-0.3,2.8-1.5,3.1c-1.2,0.3-2.3,0.1-2.9-1.9c-0.5-2,0.9-5.3,0.9-5.3
      S375.9,757.3,376.4,759.3"/>
    <path fill="#30120D" d="M357.8,762.1c-0.3,2-1.4,2.4-2.7,2.2c-1.2-0.2-2.2-0.9-1.9-2.9c0.3-2,3-4.4,3-4.4S358.1,760,357.8,762.1"
      />
    <path fill="#30120D" d="M339.3,757.4c-1.2,1.6-2.3,1.5-3.2,0.7c-0.9-0.8-1.3-1.8-0.1-3.5c1.2-1.6,4.5-2.5,4.5-2.5
      S340.5,755.7,339.3,757.4"/>
    <path fill="#30120D" d="M325.2,743.7c-1.7,1.2-2.6,0.7-3.3-0.3c-0.6-1-0.7-2.2,1-3.3c1.7-1.2,5.1-0.9,5.1-0.9
      S326.9,742.5,325.2,743.7"/>
    <path fill="#30120D" d="M390.4,773.8c1,1.9,0.3,3-0.9,3.5c-1.2,0.6-2.4,0.6-3.4-1.4c-1-1.9-0.1-5.7-0.1-5.7
      S389.4,771.9,390.4,773.8"/>
    <path fill="#30120D" d="M345.1,779.9c-0.6,1.8-1.6,2-2.7,1.6c-1.1-0.4-1.8-1.1-1.2-2.9c0.6-1.8,3.4-3.5,3.4-3.5
      S345.7,778.1,345.1,779.9"/>
    <path fill="#30120D" d="M323,769c-1.1,1.7-2.2,1.6-3.2,0.9c-1-0.7-1.6-1.7-0.5-3.3c1.1-1.7,4.4-2.7,4.4-2.7S324.1,767.3,323,769"
      />
    <path fill="#30120D" d="M309.5,756c-1.5,1-2.5,0.6-3.2-0.4c-0.7-0.9-0.8-2,0.8-3c1.5-1,4.8-0.8,4.8-0.8S311.1,755,309.5,756"/>
    <path fill="#30120D" d="M301.2,737.4c-1.8,0.4-2.5-0.4-2.8-1.5c-0.3-1.1-0.1-2.1,1.8-2.6c1.8-0.4,4.8,1,4.8,1
      S303,736.9,301.2,737.4"/>
  </g>
  <path fill="#7A421B" d="M254.6,984.1c-0.6-0.3-0.8-1.2-0.4-1.7c-0.4-0.2-1-0.3-1.3,0.1c-0.1,0.1-0.1,0.3-0.2,0.4
    c-0.2,0.2-0.6,0.1-0.8-0.2c-0.2-0.3-0.1-0.6-0.1-0.9c-0.4,0.4-0.6,0.9-0.5,1.4c0.5,0,0.9,0.4,1.4,0.5c0.5,0.2,1.2-0.2,1-0.7
    c-0.1,0.4,0,0.9,0.3,1.2"/>
  <rect x="30" y="513.4" fill="none" width="160" height="89.1"/>
  <text transform="matrix(1 0 0 1 29.9993 519.4629)"><tspan x="0" y="0" fill="#333333" font-family="'TWSSavory-Light'" font-size="7.5551">var ChannelTitle = React.createClass({</tspan><tspan x="0" y="12.6" fill="#333333" font-family="'TWSSavory-Light'" font-size="7.5551">  render: function() {</tspan><tspan x="0" y="25.2" fill="#333333" font-family="'TWSSavory-Light'" font-size="7.5551">    let { user } = this.props;</tspan><tspan x="0" y="50.4" fill="#333333" font-family="'TWSSavory-Light'" font-size="7.5551">    return (</tspan><tspan x="0" y="63" fill="#333333" font-family="'TWSSavory-Light'" font-size="7.5551">      &lt;section className=&quot;rankings-meta&quot;&gt;</tspan><tspan x="0" y="75.6" fill="#333333" font-family="'TWSSavory-Light'" font-size="7.5551">        &lt;div className=&quot;module-channel-filter&quot;</tspan></text>
</g>
</svg>
