<!-- Generator: Adobe Illustrator 18.1.1, SVG Export Plug-In  -->
<svg version="1.1"
   xmlns="http://www.w3.org/2000/svg" xmlns:xlink="http://www.w3.org/1999/xlink" xmlns:a="http://ns.adobe.com/AdobeSVGViewerExtensions/3.0/"
   x="0px" y="0px" width="63px" height="77px" viewBox="0 0 63 77" enable-background="new 0 0 63 77" xml:space="preserve">
<defs>
</defs>
<g>
  <path fill="#FFDB2B" d="M63,65c0,3.3-2.7,6-6,6H6c-3.3,0-6-2.7-6-6V15c0-3.3,2.7-6,6-6h51c3.3,0,6,2.7,6,6V65z"/>
  
    <line fill="none" stroke="#F18D46" stroke-width="2" stroke-linecap="round" stroke-linejoin="round" stroke-miterlimit="10" x1="20" y1="56" x2="44" y2="56"/>
  <rect x="26" y="57" fill="#FFFFFF" width="6" height="9"/>
  <rect x="32" y="57" fill="#ECF0F1" width="6" height="6"/>
  <circle fill="#D0E8F9" stroke="#687492" stroke-width="2" stroke-miterlimit="10" cx="18.2" cy="36.2" r="9"/>
  <circle fill="#D0E8F9" stroke="#687492" stroke-width="2" stroke-miterlimit="10" cx="45.2" cy="36.2" r="9"/>
  <path fill="#FEC722" d="M49.9,77H13.5c-0.7,0-1.5-0.8-1.5-1.6V71h39v4.4C51,76.2,50.7,77,49.9,77z"/>
  <path fill="#FEC722" d="M22.5,0h18.4C41.7,0,42,0.8,42,1.6V9H21V1.6C21,0.8,21.8,0,22.5,0z"/>
  <path fill="#F18D46" d="M11.9,52.4c-0.4,0-0.8-0.1-1.1-0.4s-0.4-0.7-0.4-1.1s0.1-0.8,0.4-1.1c0.6-0.6,1.6-0.6,2.1,0
    c0.3,0.3,0.4,0.7,0.4,1.1S13.3,51.7,13,52C12.7,52.2,12.3,52.4,11.9,52.4z"/>
  <path fill="#F18D46" d="M12.2,58.8c-0.4,0-0.8-0.2-1.1-0.4c-0.3-0.3-0.4-0.7-0.4-1.1c0-0.4,0.2-0.8,0.4-1.1c0.6-0.6,1.6-0.6,2.1,0
    c0.3,0.3,0.4,0.7,0.4,1.1c0,0.4-0.2,0.8-0.4,1.1C13,58.6,12.6,58.8,12.2,58.8z"/>
  <path fill="#F18D46" d="M7,60.1c-0.4,0-0.8-0.2-1.1-0.4c-0.3-0.3-0.4-0.7-0.4-1.1c0-0.4,0.2-0.8,0.4-1.1c0.6-0.6,1.6-0.6,2.1,0
    c0.3,0.3,0.4,0.7,0.4,1.1c0,0.4-0.2,0.8-0.4,1.1C7.8,59.9,7.4,60.1,7,60.1z"/>
  <path fill="#F18D46" d="M51.5,52.4c-0.4,0-0.8-0.2-1.1-0.4c-0.3-0.3-0.4-0.7-0.4-1.1s0.2-0.8,0.4-1.1c0.6-0.6,1.6-0.6,2.1,0
    c0.3,0.3,0.4,0.7,0.4,1.1s-0.2,0.8-0.4,1.1C52.3,52.2,51.9,52.4,51.5,52.4z"/>
  <path fill="#F18D46" d="M51.2,58.8c-0.4,0-0.8-0.2-1.1-0.4c-0.3-0.3-0.4-0.7-0.4-1.1c0-0.4,0.1-0.8,0.4-1.1c0.6-0.6,1.6-0.6,2.1,0
    c0.3,0.3,0.4,0.7,0.4,1.1s-0.2,0.8-0.4,1.1C52,58.6,51.6,58.8,51.2,58.8z"/>
  <path fill="#F18D46" d="M56.5,60.1c-0.4,0-0.8-0.2-1.1-0.4C55.1,59.3,55,59,55,58.6c0-0.4,0.1-0.8,0.4-1.1c0.6-0.6,1.6-0.6,2.1,0
    c0.3,0.3,0.4,0.7,0.4,1.1c0,0.4-0.2,0.8-0.4,1.1C57.3,59.9,56.9,60.1,56.5,60.1z"/>
  <path fill="none" stroke="#687492" stroke-width="2" stroke-miterlimit="10" d="M27.2,36.2c0-1.7,2-3,4.5-3s4.5,1.3,4.5,3"/>
  <polygon fill="#687492" points="63,22.4 51.7,32.1 53.5,34.4 63,26.3   "/>
  <polygon fill="#687492" points="0,26.6 9.7,34.4 11.5,32.1 0,22.7  "/>
</g>
</svg>
