<!-- Generator: Adobe Illustrator 18.1.1, SVG Export Plug-In  -->
<svg version="1.1"
   xmlns="http://www.w3.org/2000/svg" xmlns:xlink="http://www.w3.org/1999/xlink" xmlns:a="http://ns.adobe.com/AdobeSVGViewerExtensions/3.0/"
   x="0px" y="0px" width="86px" height="87.4px" viewBox="0 0 86 87.4" enable-background="new 0 0 86 87.4" xml:space="preserve">
<defs>
</defs>
<g>
  <path fill="#FFDB2B" d="M74.6,40.5V75c0,3-2.6,6.4-5.9,6.4H18c-3.3,0-6.4-3.4-6.4-6.4V40.5c0,0,31.3-1.3,40.5-15
    C52.1,25.5,62.6,47.8,74.6,40.5z"/>
  <path fill="#DABA6C" d="M85.7,66.1c-3.2-7.1-4.2-20-4.6-28.3c-0.3-6.4-2.1-12.7-5.7-18.1C69.7,11.1,63.3,7.1,57.6,4.6
    C49,0.8,39.1,0.5,30.3,3.7l5,5c2.4,2.4,2.5,5.6-0.5,7.1l-9.8,1.8l-5.7-5.7l0.6-3c-3.1,2.2-6.2,5.1-8.9,9.3
    c-0.2,0.4-0.5,0.8-0.7,1.2l1.6-0.3l5.7,5.7l-2,9.7c0,0.1-0.1,0.3-0.2,0.4c-1.7,2.6-4.6,2.3-6.8,0l-2.4-2.4C6.1,33.6,6,34.9,6,36.1
    C5.8,44.3,5,58.7,1.8,66.3c-0.7,1.6-0.2,3.5,1.4,4.2c1.6,0.7,6.4,1.2,8.4,1.5V40.5c0,0,31.3-1.3,40.5-15c0,0,10.5,22.3,22.5,15V72
    c3-0.6,7.3-0.9,9.2-1.6C85.5,69.7,86.5,67.8,85.7,66.1z"/>
  <circle fill="#FFFFFF" cx="57" cy="49.5" r="9"/>
  <circle fill="#687492" cx="57" cy="49.5" r="3"/>
  <circle fill="#FFFFFF" cx="30" cy="49.5" r="9"/>
  <circle fill="#687492" cx="30" cy="49.5" r="3"/>
  <path fill="#FEC722" d="M61,87.4H24.6c-0.7,0-1-1-1-1.7v-4.3h39v4.3C62.6,86.4,61.7,87.4,61,87.4z"/>
  <path fill="none" stroke="#687492" stroke-width="2" stroke-linecap="round" stroke-linejoin="round" stroke-miterlimit="10" d="
    M53.5,67.5c0,0-8.9,12.9-20.5,3.8"/>
  <path fill="#E64C3C" d="M21.5,2l-2.1,9.9l5.7,5.7l9.8-1.8c3-1.5,2.9-4.7,0.5-7.1l-6.9-6.9C26.1-0.5,23.1-0.8,21.5,2z"/>
  <path fill="#E64C3C" d="M12.1,19.1l-9.8,1.7c-3,1.5-2.9,4.7-0.5,7.1l6.9,6.9c2.2,2.2,5.1,2.6,6.8,0c0.1-0.1,0.1-0.3,0.2-0.4l2-9.7
    L12.1,19.1z"/>
  <g>
    <path fill="#F09372" d="M28.8,13c-0.3-0.8-1.1-1.2-1.9-0.9l-2.5,0.8l1.1-1.8c0.4-0.7,0.2-1.6-0.5-2.1c-0.7-0.4-1.6-0.2-2.1,0.5
      l-2.4,4c-0.4,0.7-0.2,1.6,0.5,2.1c0.1,0,0.1,0.1,0.2,0.1c0.2,0.6,0.8,0.9,1.4,0.9c0.2,0,0.3,0,0.5-0.1l4.8-1.6
      C28.6,14.7,29,13.8,28.8,13z"/>
    <path fill="#F09372" d="M15.9,20.9c0-0.1,0-0.1-0.1-0.2c-0.4-0.7-1.3-0.9-2.1-0.5l-4,2.4c-0.7,0.4-0.9,1.3-0.5,2.1
      c0.3,0.5,0.8,0.7,1.3,0.7c0.3,0,0.5-0.1,0.8-0.2l1.8-1.1l-0.8,2.5c-0.3,0.8,0.2,1.6,0.9,1.9c0.2,0.1,0.3,0.1,0.5,0.1
      c0.6,0,1.2-0.4,1.4-1l1.6-4.8C17,22,16.6,21.2,15.9,20.9z"/>
  </g>
  
    <rect x="13.5" y="13.2" transform="matrix(0.7071 -0.7071 0.7071 0.7071 -7.4981 18.4735)" fill="#C03A2B" width="10.2" height="10.2"/>
</g>
</svg>
