<!-- Generator: Adobe Illustrator 18.1.1, SVG Export Plug-In  -->
<svg version="1.1"
   xmlns="http://www.w3.org/2000/svg" xmlns:xlink="http://www.w3.org/1999/xlink" xmlns:a="http://ns.adobe.com/AdobeSVGViewerExtensions/3.0/"
   x="0px" y="0px" width="76.8px" height="85px" viewBox="0 0 76.8 85" enable-background="new 0 0 76.8 85" xml:space="preserve">
<defs>
</defs>
<g>
  <path fill="#FFDB2B" d="M37.9,29.4c-17,0-29.6,0.9-31.1,1.9c0,0.1,0,41.9,0,41.9c0,3.3,2.7,5.9,6,5.9h51c3.3,0,6-2.6,6-5.9
    c0,0,0.1-41.8,0-41.9C67.7,30.2,54.6,29.4,37.9,29.4z"/>
  <g>
    <path fill="#687492" d="M60.8,69.8c0.3-0.3,0.4-0.7,0.4-1.1s-0.2-0.8-0.4-1.1c-0.6-0.6-1.6-0.6-2.1,0c-0.3,0.3-0.4,0.7-0.4,1.1
      c0,0.4,0.2,0.8,0.4,1.1c0.3,0.3,0.7,0.4,1.1,0.4C60.1,70.2,60.5,70.1,60.8,69.8z"/>
    <path fill="#687492" d="M59.7,65.8c0.4,0,0.8-0.2,1.1-0.4c0.3-0.3,0.4-0.7,0.4-1.1s-0.2-0.8-0.4-1.1c-0.6-0.6-1.6-0.6-2.1,0
      c-0.3,0.3-0.4,0.7-0.4,1.1c0,0.4,0.2,0.8,0.4,1.1C58.9,65.6,59.3,65.8,59.7,65.8z"/>
    <path fill="#687492" d="M64.2,65.8c0.4,0,0.8-0.2,1.1-0.4c0.3-0.3,0.4-0.7,0.4-1.1s-0.2-0.8-0.4-1.1c-0.6-0.6-1.6-0.5-2.1,0
      c-0.3,0.3-0.4,0.7-0.4,1.1s0.2,0.8,0.4,1.1C63.4,65.6,63.8,65.8,64.2,65.8z"/>
    <path fill="#687492" d="M63.2,67.7c-0.3,0.3-0.4,0.7-0.4,1.1c0,0.4,0.2,0.8,0.4,1.1c0.3,0.3,0.7,0.4,1.1,0.4
      c0.4,0,0.8-0.2,1.1-0.4c0.3-0.3,0.4-0.7,0.4-1.1s-0.2-0.8-0.4-1.1C64.7,67.1,63.7,67.1,63.2,67.7z"/>
    <path fill="#687492" d="M60.2,72.2c-0.3,0.3-0.4,0.7-0.4,1.1s0.2,0.8,0.4,1.1c0.3,0.3,0.7,0.4,1.1,0.4c0.4,0,0.8-0.2,1.1-0.4
      c0.3-0.3,0.4-0.7,0.4-1.1s-0.2-0.8-0.4-1.1C61.7,71.6,60.7,71.6,60.2,72.2z"/>
    <path fill="#687492" d="M55.7,72.2c-0.3,0.3-0.4,0.7-0.4,1.1c0,0.4,0.2,0.8,0.4,1.1c0.3,0.3,0.7,0.4,1.1,0.4
      c0.4,0,0.8-0.2,1.1-0.4c0.3-0.3,0.4-0.7,0.4-1.1s-0.2-0.8-0.4-1.1C57.2,71.6,56.2,71.6,55.7,72.2z"/>
    <path fill="#687492" d="M56.3,69.8c0.3-0.3,0.4-0.7,0.4-1.1s-0.2-0.8-0.4-1.1c-0.6-0.6-1.6-0.6-2.1,0c-0.3,0.3-0.4,0.7-0.4,1.1
      c0,0.4,0.2,0.8,0.4,1.1c0.3,0.3,0.7,0.4,1.1,0.4C55.6,70.2,56,70.1,56.3,69.8z"/>
    <path fill="#687492" d="M51.2,72.2c-0.3,0.3-0.4,0.7-0.4,1.1s0.2,0.8,0.4,1.1c0.3,0.3,0.7,0.4,1.1,0.4c0.4,0,0.8-0.2,1.1-0.4
      c0.3-0.3,0.4-0.7,0.4-1.1s-0.2-0.8-0.4-1.1C52.7,71.6,51.7,71.6,51.2,72.2z"/>
    <path fill="#687492" d="M46.7,72.2c-0.3,0.3-0.4,0.7-0.4,1.1s0.2,0.8,0.4,1.1c0.3,0.3,0.7,0.4,1.1,0.4c0.4,0,0.8-0.2,1.1-0.4
      c0.3-0.3,0.4-0.7,0.4-1.1s-0.2-0.8-0.4-1.1C48.2,71.6,47.2,71.6,46.7,72.2z"/>
    <path fill="#687492" d="M42.2,72.2c-0.3,0.3-0.4,0.7-0.4,1.1s0.2,0.8,0.4,1.1c0.3,0.3,0.7,0.4,1.1,0.4c0.4,0,0.8-0.2,1.1-0.4
      c0.3-0.3,0.4-0.7,0.4-1.1s-0.2-0.8-0.4-1.1C43.7,71.6,42.7,71.6,42.2,72.2z"/>
    <path fill="#687492" d="M17.3,67.7c-0.6-0.6-1.6-0.6-2.1,0c-0.3,0.3-0.4,0.7-0.4,1.1s0.2,0.8,0.4,1.1c0.3,0.3,0.7,0.4,1.1,0.4
      c0.4,0,0.8-0.2,1.1-0.4c0.3-0.3,0.4-0.7,0.4-1.1S17.6,68,17.3,67.7z"/>
    <path fill="#687492" d="M16.2,65.8c0.4,0,0.8-0.2,1.1-0.4c0.3-0.3,0.4-0.7,0.4-1.1s-0.2-0.8-0.4-1.1c-0.5-0.6-1.6-0.6-2.1,0
      c-0.3,0.3-0.4,0.7-0.4,1.1s0.2,0.8,0.4,1.1C15.4,65.6,15.8,65.8,16.2,65.8z"/>
    <path fill="#687492" d="M11.7,65.8c0.4,0,0.8-0.2,1.1-0.4c0.3-0.3,0.4-0.7,0.4-1.1s-0.2-0.8-0.4-1.1c-0.6-0.6-1.6-0.5-2.1,0
      c-0.3,0.3-0.4,0.7-0.4,1.1c0,0.4,0.2,0.8,0.4,1.1C10.9,65.6,11.3,65.8,11.7,65.8z"/>
    <path fill="#687492" d="M12.8,67.7c-0.6-0.6-1.6-0.6-2.1,0c-0.3,0.3-0.4,0.7-0.4,1.1s0.2,0.8,0.4,1.1c0.3,0.3,0.7,0.4,1.1,0.4
      c0.4,0,0.8-0.2,1.1-0.4c0.3-0.3,0.4-0.7,0.4-1.1S13.1,68,12.8,67.7z"/>
    <path fill="#687492" d="M13.7,72.2c-0.3,0.3-0.4,0.7-0.4,1.1c0,0.4,0.2,0.8,0.4,1.1c0.3,0.3,0.7,0.4,1.1,0.4
      c0.4,0,0.8-0.2,1.1-0.4c0.3-0.3,0.4-0.7,0.4-1.1s-0.2-0.8-0.4-1.1C15.2,71.6,14.2,71.6,13.7,72.2z"/>
    <path fill="#687492" d="M18.2,72.2c-0.3,0.3-0.4,0.7-0.4,1.1s0.2,0.8,0.4,1.1c0.3,0.3,0.7,0.4,1.1,0.4c0.4,0,0.8-0.2,1.1-0.4
      c0.3-0.3,0.4-0.7,0.4-1.1s-0.2-0.8-0.4-1.1C19.7,71.6,18.7,71.6,18.2,72.2z"/>
    <path fill="#687492" d="M21.8,67.7c-0.5-0.6-1.6-0.6-2.1,0c-0.3,0.3-0.4,0.7-0.4,1.1s0.2,0.8,0.4,1.1c0.3,0.3,0.7,0.4,1.1,0.4
      c0.4,0,0.8-0.2,1.1-0.4c0.3-0.3,0.4-0.7,0.4-1.1S22.1,68,21.8,67.7z"/>
    <path fill="#687492" d="M22.7,72.2c-0.3,0.3-0.4,0.7-0.4,1.1s0.2,0.8,0.4,1.1c0.3,0.3,0.7,0.4,1.1,0.4c0.4,0,0.8-0.2,1.1-0.4
      c0.3-0.3,0.4-0.7,0.4-1.1s-0.2-0.8-0.4-1.1C24.2,71.6,23.2,71.6,22.7,72.2z"/>
    <path fill="#687492" d="M28.7,72.2c-0.3,0.3-0.4,0.7-0.4,1.1s0.2,0.8,0.4,1.1c0.3,0.3,0.7,0.4,1.1,0.4c0.4,0,0.8-0.2,1.1-0.4
      c0.3-0.3,0.4-0.7,0.4-1.1s-0.2-0.8-0.4-1.1C30.2,71.6,29.2,71.6,28.7,72.2z"/>
    <path fill="#687492" d="M33.2,72.2c-0.3,0.3-0.4,0.7-0.4,1.1c0,0.4,0.2,0.8,0.4,1.1c0.3,0.3,0.7,0.4,1.1,0.4
      c0.4,0,0.8-0.2,1.1-0.4c0.3-0.3,0.4-0.7,0.4-1.1c0-0.4-0.2-0.8-0.4-1.1C34.7,71.6,33.7,71.6,33.2,72.2z"/>
    <path fill="#687492" d="M37.7,72.2c-0.3,0.3-0.4,0.7-0.4,1.1s0.2,0.8,0.4,1.1c0.3,0.3,0.7,0.4,1.1,0.4c0.4,0,0.8-0.2,1.1-0.4
      c0.3-0.3,0.4-0.7,0.4-1.1s-0.2-0.8-0.4-1.1C39.2,71.6,38.2,71.6,37.7,72.2z"/>
  </g>
  <path fill="#8697CB" d="M38.3,37c0,0-7.8,15-16.1,15s-15-6-15-15h31.4"/>
  <path fill="#8697CB" d="M68.7,37c0,0-6.7,15-15,15s-15-6-15-15H68.7"/>
  
    <polygon fill="#FFFFFF" stroke="#F18D46" stroke-width="2" stroke-linecap="round" stroke-linejoin="round" stroke-miterlimit="10" points="
    47.6,67 28.2,67 28.2,67 47.6,58.2   "/>
  <path fill="#E64C3C" d="M48.5,18H27.1C0.4,18-5.7,26.3,5,31.9l1.8,0.9c-2.3-1.2,11.4-2.4,31-2.4s34.3,1.1,32,2.3l1.3-0.4l1-0.4
    C82.9,26.3,75.3,18,48.5,18z"/>
  <g>
    <path fill="#C03A2B" d="M27.3,18h21.4c7.2,0,12.9,0.6,17.2,1.6C61.6,11.5,53.2,0,43.5,0H32.4c-9.7,0-18.1,11.5-22.3,19.6
      C14.4,18.6,20.1,18,27.3,18z"/>
  </g>
  <path fill="#FEC722" d="M56.5,85H20.1c-0.7,0-1.5-0.3-1.5-1.1V79h39v4.9C57.6,84.7,57.2,85,56.5,85z"/>
  
    <line fill="none" stroke="#90BAE1" stroke-width="2" stroke-linecap="round" stroke-miterlimit="10" x1="13.2" y1="41.8" x2="17.7" y2="37.2"/>
  
    <line fill="none" stroke="#90BAE1" stroke-width="2" stroke-linecap="round" stroke-miterlimit="10" x1="19.2" y1="44.8" x2="26.7" y2="37.2"/>
  
    <line fill="none" stroke="#90BAE1" stroke-width="2" stroke-linecap="round" stroke-miterlimit="10" x1="44.7" y1="41.8" x2="49.2" y2="37.2"/>
  
    <line fill="none" stroke="#90BAE1" stroke-width="2" stroke-linecap="round" stroke-miterlimit="10" x1="50.7" y1="44.8" x2="58.2" y2="37.2"/>
  <path fill="#687492" d="M22.2,53.8c-9.1,0-16.5-7.3-16.5-16.4c0-0.8,0.7-1.4,1.5-1.4h31.1c0.8,0,1.5,0.5,1.5,1.4
    C39.8,46.2,31.6,53.8,22.2,53.8z M8.8,39c0.7,6,6.5,12,13.4,12c7.2,0,13.6-6,14.5-12H8.8z"/>
  <path fill="#687492" d="M53.7,53.8c-9.1,0-16.5-7.3-16.5-16.4c0-0.8,0.7-1.4,1.5-1.4h30c0.8,0,1.5,0.5,1.5,1.4
    C70.2,46.5,62.8,53.8,53.7,53.8z M40.3,39c0.7,6,6.5,12,13.4,12s12.7-6,13.4-12H40.3z"/>
</g>
</svg>
