<!-- Generator: Adobe Illustrator 18.1.1, SVG Export Plug-In  -->
<svg version="1.1"
   xmlns="http://www.w3.org/2000/svg" xmlns:xlink="http://www.w3.org/1999/xlink" xmlns:a="http://ns.adobe.com/AdobeSVGViewerExtensions/3.0/"
   x="0px" y="0px" width="83px" height="87px" viewBox="0 0 83 87" enable-background="new 0 0 83 87" xml:space="preserve">
<defs>
</defs>
<g>
  <path fill="#FFDB2B" d="M10,30v45c0,3.3,2.4,6,5.7,6h51c3.3,0,6.3-2.7,6.3-6V30H10z"/>
  <g>
    <path fill="#D0E8F9" stroke="#35495E" stroke-width="2" stroke-miterlimit="10" d="M9.7,38.1c0,4.7,0.4,17.8,9,18.7
      c20.8,2.1,22.5-14.1,22.5-18.7C31.4,32.9,19.5,32.9,9.7,38.1z"/>
    <path fill="#D0E8F9" stroke="#35495E" stroke-width="2" stroke-miterlimit="10" d="M41.2,38.1c0,4.7,1.7,20.8,22.5,18.7
      c8.6-0.9,9-14.1,9-18.7C62.9,32.9,51,32.9,41.2,38.1z"/>
  </g>
  <path fill="#7F8C8D" d="M83,26.5c0,1.9-1.6,3.5-3.5,3.5h-76C1.6,30,0,28.4,0,26.5v-3C0,21.5,1.6,20,3.5,20h76
    c1.9,0,3.5,1.6,3.5,3.5V26.5z"/>
  <path fill="#BDC3C7" d="M70.4,20H11.9l3.5-8.3c0-0.3,1.4-3.5,1.4-3.8c1.1-4.6,6.3-8.8,10.8-7.2l11.3,4c1.8,0.6,3.7,0.6,5.4,0.1
    l9.9-4.3c3.2-1.1,6.9-0.2,9,2.5c0.9,1.1,3.4,7.2,3.6,8.7L70.4,20z"/>
  <circle fill="#687492" cx="25.4" cy="46.5" r="3"/>
  <circle fill="#687492" cx="56.9" cy="46.5" r="3"/>
  <path fill="#FEC722" d="M59.4,87H23c-0.7,0-1-0.6-1-1.3V81h39v4.7C61,86.4,60.1,87,59.4,87z"/>
  <path fill="#687492" d="M51.7,60h-21c-3.3,0-5.7,2.7-5.7,6v15h33V66C58,62.7,55,60,51.7,60z"/>
  <path fill="none" stroke="#35495E" stroke-width="2" stroke-linecap="round" stroke-miterlimit="10" d="M17.2,43.5
    c3.5-3.5,9.2-3.5,12.7,0"/>
  <path fill="none" stroke="#35495E" stroke-width="2" stroke-linecap="round" stroke-miterlimit="10" d="M53.2,43.5
    c3.5-3.5,9.2-3.5,12.7,0"/>
  <path fill="#FFDB2B" d="M42.7,74H46v3h1.1c2.5,0,4.9-2.5,4.9-5.1v-0.6c0-3.7-3.3-6.3-7.1-6.3h-2.3h-3h-2.3c-3.7,0-6.4,2.5-6.4,6.3
    v0.6c0,2.5,1.8,5.1,4.3,5.1H37v-3h2.7H42.7z"/>
  
    <line fill="none" stroke="#E57E25" stroke-width="2" stroke-linecap="round" stroke-linejoin="round" stroke-miterlimit="10" x1="38" y1="69" x2="44" y2="69"/>
  <path fill="#FEC722" d="M64,67.5V72c0,0.8,0.7,1.5,1.5,1.5S67,72.8,67,72v-4.5c0-3.3,2-6,6-6v-3C68,58.5,64,62.5,64,67.5z"/>
  <path fill="#FEC722" d="M16,67.5V72c0,0.8,0.7,1.5,1.5,1.5S19,72.8,19,72v-4.5c0-5-4-9-9-9v3C13,61.5,16,64.2,16,67.5z"/>
</g>
</svg>
