<!-- Generator: Adobe Illustrator 18.1.1, SVG Export Plug-In  -->
<svg version="1.1"
   xmlns="http://www.w3.org/2000/svg" xmlns:xlink="http://www.w3.org/1999/xlink" xmlns:a="http://ns.adobe.com/AdobeSVGViewerExtensions/3.0/"
   x="0px" y="0px" width="76.6px" height="86.5px" viewBox="0 0 76.6 86.5" enable-background="new 0 0 76.6 86.5"
   xml:space="preserve">
<defs>
</defs>
<g>
  <path fill="#FFDB2B" d="M53.8,24c-16.2-2.5-22.6,6-22.6,6c-11.6-1.1-16.3-4.5-16.3-4.5c-2.5,2.9-5.3,4.4-7.3,5.2v18.8V75
    c0,3.3,2.2,5.5,5.5,5.5h51c3.3,0,6.5-2.2,6.5-5.5V49.5V27C57.5,34.1,53.8,24,53.8,24z"/>
  <path fill="#F29C1F" d="M54.8,62.7c-0.5-0.7-1.4-0.8-2.1-0.3l-1.8,1.4c-8.1-5.4-17,0.1-21.5,4.6l-1.9-1.4c-0.7-0.5-1.6-0.4-2.1,0.3
    c-0.5,0.7-0.4,1.6,0.3,2.1l6,4.5c0.3,0.2,0.6,0.3,0.9,0.3c0.5,0,0.9-0.2,1.2-0.6c0.5-0.7,0.4-1.6-0.3-2.1l-1.6-1.2
    c2.7-2.5,9.7-8.1,16.5-4.5l-1.6,1.2c-0.7,0.5-0.8,1.4-0.3,2.1c0.3,0.4,0.7,0.6,1.2,0.6c0.3,0,0.6-0.1,0.9-0.3l6-4.5
    C55.1,64.3,55.3,63.4,54.8,62.7z"/>
  <circle fill="#FFFFFF" cx="51.7" cy="45" r="9"/>
  <circle fill="#FFFFFF" cx="24.7" cy="45" r="9"/>
  <path fill="#FEC722" d="M58.3,86.5H21.9c-0.7,0-1.3-0.1-1.3-0.8v-5.2h39v5.2C59.5,86.4,59,86.5,58.3,86.5z"/>
  <path fill="#AC744F" d="M76.3,27c-0.9-6.7-4-11.2-6.8-13.6c-1.4-1.1-2.2-2.8-2.7-4.5c-1.2-4.7-5.6-7.1-10.2-7.4
    c-2.9-0.2-5.5,0.7-8.4,1.9c-0.9,0.4-2,0-2.4-0.9C44-2.3,33.8,0.1,25.9,8c-0.4,0.4-1,0.2-1.1-0.3c-0.3-1.8-0.4-5.2,1.7-6.2
    c0,0-6.6-3.7-12.3,1.2c-1.7,1.5-2.9,3.6-3.4,5.8c-0.1,0.5-0.3,1.1-0.4,1.7c-0.3,1.5-2.3,2.1-3.4,0.9c0,0,0,0-0.1-0.1
    c-1-1.2-2.6-1-3.2,0.4c-3.2,7.4-8.3,23.9,3.7,38.1V30.7c2-0.8,4.8-2.3,7.3-5.2c0,0,4.8,3.4,16.4,4.5c0,0,6.4-8.5,22.7-6
    c0,0,3.7,10.1,16.7,3v22.5C70.5,49.5,78.3,41.6,76.3,27z"/>
  <g>
    <path fill="#F0C419" d="M60.6,73.1c0.3-0.3,0.4-0.7,0.4-1.1s-0.2-0.8-0.4-1.1c-0.6-0.6-1.6-0.6-2.1,0c-0.3,0.3-0.4,0.7-0.4,1.1
      s0.2,0.8,0.4,1.1c0.3,0.3,0.7,0.4,1.1,0.4S60.3,73.3,60.6,73.1z"/>
    <path fill="#F0C419" d="M59.6,69c0.4,0,0.8-0.2,1.1-0.4c0.3-0.3,0.4-0.7,0.4-1.1s-0.2-0.8-0.4-1.1c-0.6-0.6-1.6-0.6-2.1,0
      c-0.3,0.3-0.4,0.7-0.4,1.1c0,0.4,0.2,0.8,0.4,1.1C58.8,68.8,59.2,69,59.6,69z"/>
    <path fill="#F0C419" d="M64.1,69c0.4,0,0.8-0.2,1.1-0.4c0.3-0.3,0.4-0.7,0.4-1.1s-0.2-0.8-0.4-1.1c-0.6-0.6-1.6-0.6-2.1,0
      c-0.3,0.3-0.4,0.7-0.4,1.1c0,0.4,0.2,0.8,0.4,1.1C63.3,68.8,63.7,69,64.1,69z"/>
    <path fill="#F0C419" d="M63,70.9c-0.3,0.3-0.4,0.7-0.4,1.1s0.2,0.8,0.4,1.1c0.3,0.3,0.7,0.4,1.1,0.4s0.8-0.2,1.1-0.4
      c0.3-0.3,0.4-0.7,0.4-1.1s-0.2-0.8-0.4-1.1C64.6,70.4,63.6,70.4,63,70.9z"/>
    <path fill="#F0C419" d="M60,75.4c-0.3,0.3-0.4,0.7-0.4,1.1s0.2,0.8,0.4,1.1c0.3,0.3,0.7,0.4,1.1,0.4s0.8-0.2,1.1-0.4
      c0.3-0.3,0.4-0.7,0.4-1.1s-0.2-0.8-0.4-1.1C61.6,74.9,60.6,74.9,60,75.4z"/>
    <path fill="#F0C419" d="M55.5,75.4c-0.3,0.3-0.4,0.7-0.4,1.1c0,0.4,0.1,0.8,0.4,1.1c0.3,0.3,0.7,0.4,1.1,0.4s0.8-0.2,1.1-0.4
      c0.3-0.3,0.4-0.7,0.4-1.1s-0.2-0.8-0.4-1.1C57.1,74.9,56.1,74.9,55.5,75.4z"/>
    <path fill="#F0C419" d="M56.1,73.1c0.3-0.3,0.4-0.7,0.4-1.1s-0.2-0.8-0.4-1.1c-0.6-0.6-1.6-0.6-2.1,0c-0.3,0.3-0.4,0.7-0.4,1.1
      c0,0.4,0.2,0.8,0.4,1.1c0.3,0.3,0.7,0.4,1.1,0.4S55.8,73.3,56.1,73.1z"/>
    <path fill="#F0C419" d="M51,75.4c-0.3,0.3-0.4,0.7-0.4,1.1s0.2,0.8,0.4,1.1c0.3,0.3,0.7,0.4,1.1,0.4s0.8-0.2,1.1-0.4
      c0.3-0.3,0.4-0.7,0.4-1.1s-0.2-0.8-0.4-1.1C52.6,74.9,51.6,74.9,51,75.4z"/>
    <path fill="#F0C419" d="M45,75.4c-0.3,0.3-0.4,0.7-0.4,1.1c0,0.4,0.1,0.8,0.4,1.1c0.3,0.3,0.7,0.4,1.1,0.4s0.8-0.2,1.1-0.4
      c0.3-0.3,0.4-0.7,0.4-1.1s-0.2-0.8-0.4-1.1C46.6,74.9,45.6,74.9,45,75.4z"/>
    <path fill="#F0C419" d="M18.6,70.9c-0.6-0.6-1.6-0.6-2.1,0c-0.3,0.3-0.4,0.7-0.4,1.1s0.2,0.8,0.4,1.1c0.3,0.3,0.7,0.4,1.1,0.4
      s0.8-0.2,1.1-0.4c0.3-0.3,0.4-0.7,0.4-1.1S18.9,71.2,18.6,70.9z"/>
    <path fill="#F0C419" d="M17.6,69c0.4,0,0.8-0.2,1.1-0.4c0.3-0.3,0.4-0.7,0.4-1.1c0-0.4-0.2-0.8-0.4-1.1c-0.6-0.6-1.6-0.5-2.1,0
      c-0.3,0.3-0.4,0.7-0.4,1.1c0,0.4,0.2,0.8,0.4,1.1C16.8,68.8,17.2,69,17.6,69z"/>
    <path fill="#F0C419" d="M13.1,69c0.4,0,0.8-0.2,1.1-0.4c0.3-0.3,0.4-0.7,0.4-1.1c0-0.4-0.2-0.8-0.4-1.1c-0.6-0.6-1.6-0.5-2.1,0
      c-0.3,0.3-0.4,0.7-0.4,1.1c0,0.4,0.2,0.8,0.4,1.1C12.3,68.8,12.7,69,13.1,69z"/>
    <path fill="#F0C419" d="M14.1,70.9c-0.6-0.6-1.6-0.6-2.1,0c-0.3,0.3-0.4,0.7-0.4,1.1s0.2,0.8,0.4,1.1c0.3,0.3,0.7,0.4,1.1,0.4
      s0.8-0.2,1.1-0.4c0.3-0.3,0.4-0.7,0.4-1.1S14.4,71.2,14.1,70.9z"/>
    <path fill="#F0C419" d="M15,75.4c-0.3,0.3-0.4,0.7-0.4,1.1c0,0.4,0.1,0.8,0.4,1.1c0.3,0.3,0.7,0.4,1.1,0.4s0.8-0.2,1.1-0.4
      c0.3-0.3,0.4-0.7,0.4-1.1s-0.2-0.8-0.4-1.1C16.6,74.9,15.6,74.9,15,75.4z"/>
    <path fill="#F0C419" d="M19.5,75.4c-0.3,0.3-0.4,0.7-0.4,1.1s0.2,0.8,0.4,1.1c0.3,0.3,0.7,0.4,1.1,0.4s0.8-0.2,1.1-0.4
      c0.3-0.3,0.4-0.7,0.4-1.1s-0.2-0.8-0.4-1.1C21.1,74.9,20.1,74.9,19.5,75.4z"/>
    <path fill="#F0C419" d="M23.1,70.9c-0.6-0.6-1.6-0.5-2.1,0c-0.3,0.3-0.4,0.7-0.4,1.1s0.2,0.8,0.4,1.1c0.3,0.3,0.7,0.4,1.1,0.4
      s0.8-0.2,1.1-0.4c0.3-0.3,0.4-0.7,0.4-1.1S23.4,71.2,23.1,70.9z"/>
    <path fill="#F0C419" d="M24,75.4c-0.3,0.3-0.4,0.7-0.4,1.1s0.2,0.8,0.4,1.1c0.3,0.3,0.7,0.4,1.1,0.4s0.8-0.2,1.1-0.4
      c0.3-0.3,0.4-0.7,0.4-1.1s-0.2-0.8-0.4-1.1C25.6,74.9,24.6,74.9,24,75.4z"/>
    <path fill="#F0C419" d="M30,75.4c-0.3,0.3-0.4,0.7-0.4,1.1s0.1,0.8,0.4,1.1c0.3,0.3,0.7,0.4,1.1,0.4s0.8-0.2,1.1-0.4
      c0.3-0.3,0.4-0.7,0.4-1.1s-0.2-0.8-0.4-1.1C31.6,74.9,30.6,74.9,30,75.4z"/>
    <path fill="#F0C419" d="M34.5,75.4c-0.3,0.3-0.4,0.7-0.4,1.1s0.2,0.8,0.4,1.1c0.3,0.3,0.7,0.4,1.1,0.4s0.8-0.2,1.1-0.4
      c0.3-0.3,0.4-0.7,0.4-1.1s-0.2-0.8-0.4-1.1C36.1,74.9,35.1,74.9,34.5,75.4z"/>
    <path fill="#F0C419" d="M39,75.4c-0.3,0.3-0.4,0.7-0.4,1.1s0.2,0.8,0.4,1.1c0.3,0.3,0.7,0.4,1.1,0.4s0.8-0.2,1.1-0.4
      c0.3-0.3,0.4-0.7,0.4-1.1s-0.2-0.8-0.4-1.1C40.6,74.9,39.6,74.9,39,75.4z"/>
  </g>
  <circle fill="#687492" cx="27.3" cy="42.7" r="2.2"/>
  <circle fill="#687492" cx="54.3" cy="42.7" r="2.2"/>
</g>
</svg>
