<!-- Generator: Adobe Illustrator 18.1.1, SVG Export Plug-In  -->
<svg version="1.1"
   xmlns="http://www.w3.org/2000/svg" xmlns:xlink="http://www.w3.org/1999/xlink" xmlns:a="http://ns.adobe.com/AdobeSVGViewerExtensions/3.0/"
   x="0px" y="0px" width="84.5px" height="85.9px" viewBox="0 0 84.5 85.9" enable-background="new 0 0 84.5 85.9"
   xml:space="preserve">
<defs>
</defs>
<g>
  <path fill="#FFDB2B" d="M65,52.2c-19.7,2.1-21.3-8.1-21.3-12.8l0,0c4.7-2.7,9.9-4,15.1-4C54,30.6,51,24,51,24
    c-4.1,6-11.4,9.8-19.4,12l-0.2,0c2.9,0.7,5.8,1.8,8.5,3.4c0,4.7-1.6,14.9-21.3,12.8c-8.2-0.9-8-8.5-8-13.2l-0.1,34.7
    c0,3,2.7,6.2,6,6.2h50.7c3.3,0,6.3-3.1,6.3-6.2l0.1-34l0,0C73.6,44.4,73.1,51.3,65,52.2z"/>
  <path fill="#2F2B46" d="M84.2,64.6c-3.2-7.1-4.2-20-4.6-28.3c-0.3-6.4-2.1-12.7-5.7-18.1C68.2,9.6,61.8,5.6,56.1,3.1
    C46.7-1,35.8-1,26.4,3.1C21,5.5,14.6,8.9,9.7,16.7C6.3,22,4.6,28.3,4.5,34.6c-0.2,8.2-0.9,22.6-4.2,30.2c-0.7,1.6,0,3.7,1.6,4.4
    c1.6,0.7,6.4,0.7,8.6,1.7h0l0.1-31.7c0,4.7-0.3,12.2,8,13.1c19.7,2.1,21.3-8.1,21.3-12.9c-2.7-1.6-5.6-2.7-8.5-3.4l0.2,0
    c8.1-2.2,15.4-6,19.4-12c0,0,3,6.6,7.8,11.4c-5.2,0-10.4,1.3-15.1,4c0,4.7,1.6,14.9,21.3,12.8c8.1-0.9,8.5-7.9,8.5-12.6l-0.1,30.9
    c3-0.6,7.1-0.9,9-1.6C84.2,68.2,85,66.3,84.2,64.6z"/>
  <path fill="#FFFFFF" d="M28.6,59.9c0,8,6,13.5,13.5,13.5s13.5-5.5,13.5-13.5H28.6z"/>
  <path fill="#D1D4D1" d="M53.1,67.9H31c-0.8,0-1.5-0.7-1.5-1.5s0.7-1.5,1.5-1.5h22.1c0.8,0,1.5,0.7,1.5,1.5S53.9,67.9,53.1,67.9z"/>
  <path fill="#D1D4D1" d="M38,73.5c-0.8,0-1.5-0.7-1.5-1.5V60c0-0.8,0.7-1.5,1.5-1.5s1.5,0.7,1.5,1.5v12C39.5,72.8,38.9,73.5,38,73.5
    z"/>
  <path fill="#D1D4D1" d="M47,73.5c-0.8,0-1.5-0.7-1.5-1.5V60c0-0.8,0.7-1.5,1.5-1.5s1.5,0.7,1.5,1.5v12C48.5,72.8,47.9,73.5,47,73.5
    z"/>
  <path fill="#FEC722" d="M59.5,85.9H23.1c-0.7,0-1.6-1-1.6-1.7v-4.3h39v4.3C60.5,84.9,60.2,85.9,59.5,85.9z"/>
  <path fill="#687492" d="M46.3,37.9h-8.9c-8.7-4-18.3-3.8-26.8,1c0,4.7-0.3,12.3,8,13.1c17.6,1.9,20.8-6.2,21.3-11.2h4
    c0.5,5,3.7,13.1,21.3,11.2c8.2-0.9,8.5-8.2,8.5-12.9l0,0C65.2,34.4,55,33.9,46.3,37.9z"/>
  <g>
    <path fill="#8697CB" d="M22.1,38.6c-0.6-0.6-1.5-0.6-2.1,0l-4.7,4.7c-0.6,0.6-0.6,1.5,0,2.1c0.3,0.3,0.7,0.4,1.1,0.4
      c0.4,0,0.8-0.1,1.1-0.4l4.7-4.7C22.6,40.1,22.6,39.1,22.1,38.6z"/>
    <path fill="#8697CB" d="M29.4,38.6l-7.9,7.9c-0.6,0.6-0.6,1.5,0,2.1c0.3,0.3,0.7,0.4,1.1,0.4s0.8-0.1,1.1-0.4l7.9-7.9
      c0.6-0.6,0.6-1.5,0-2.1C30.9,38,30,38,29.4,38.6z"/>
    <path fill="#8697CB" d="M56.7,38.6c-0.6-0.6-1.5-0.6-2.1,0l-4.7,4.7c-0.6,0.6-0.6,1.5,0,2.1c0.3,0.3,0.7,0.4,1.1,0.4
      s0.8-0.1,1.1-0.4l4.7-4.7C57.2,40.1,57.2,39.1,56.7,38.6z"/>
    <path fill="#8697CB" d="M66.1,38.6c-0.6-0.6-1.5-0.6-2.1,0l-7.9,7.9c-0.6,0.6-0.6,1.5,0,2.1c0.3,0.3,0.7,0.4,1.1,0.4
      s0.8-0.1,1.1-0.4l7.9-7.9C66.7,40.1,66.7,39.1,66.1,38.6z"/>
  </g>
  <path fill="#F0785A" d="M42.1,75c-8.3,0-15-6.5-15-14.8c0-0.8,0.7-1.3,1.5-1.3h27c0.8,0,1.5,0.5,1.5,1.3C57.1,68.5,50.3,75,42.1,75
    z M30.2,61.9c0.7,6,5.8,10.5,11.9,10.5S53.2,67.9,54,61.9H30.2z"/>
</g>
</svg>
