<!-- Generator: Adobe Illustrator 18.1.1, SVG Export Plug-In  -->
<svg version="1.1"
   xmlns="http://www.w3.org/2000/svg" xmlns:xlink="http://www.w3.org/1999/xlink" xmlns:a="http://ns.adobe.com/AdobeSVGViewerExtensions/3.0/"
   x="0px" y="0px" width="411.8px" height="145.7px" viewBox="0 0 411.8 145.7" enable-background="new 0 0 411.8 145.7"
   xml:space="preserve">
<defs>
</defs>
<g>
  <g>
    <path fill="#FFFFFF" d="M146.9,105.8c2.1,0.8,5.8,2.3,5.8,8.4v15.1c0,2.8,0.3,4.3,1.3,5.4c0.8,0.9,2.3,1.2,4.8,1.2h4.6v10h-8.9
      c-4.3,0-7.4-1.1-9.5-3.2c-2.5-2.5-3.5-5.5-3.5-9.3c0,0,0-13.9,0-16.1c0-2.3-0.5-3.9-1.4-4.9c-1-1-2.3-1.6-4.3-1.6h-4v-10h4
      c2,0,3.3-0.6,4.3-1.5c1-1,1.4-2.7,1.4-5V78.1c0-3.8,1-6.8,3.5-9.3c2.1-2.1,5.1-3.2,9.5-3.2h8.9v10h-4.6c-2.5,0-3.9,0.3-4.8,1.2
      c-1,1-1.3,2.5-1.3,5.4v15.3C152.7,103.5,149,104.9,146.9,105.8z"/>
  </g>
</g>
<g>
  <g>
    <path fill="#FFFFFF" d="M390.9,82.1c0-2.8-0.3-4.3-1.3-5.4c-0.8-0.9-2.3-1.2-4.8-1.2h-4.6v-10h8.9c4.3,0,7.4,1.1,9.5,3.2
      c2.5,2.5,3.5,5.5,3.5,9.3v16.1c0,2.3,0.4,4,1.4,5c1,0.9,2.3,1.5,4.3,1.5h4v10h-4c-2,0-3.3,0.6-4.3,1.6c-0.9,0.9-1.4,2.6-1.4,4.9
      c0,2.2,0,16.1,0,16.1c0,3.8-1,6.8-3.5,9.3c-2.1,2.1-5.1,3.2-9.5,3.2h-8.9v-10h4.6c2.5,0,3.9-0.3,4.8-1.2c1-1,1.3-2.5,1.3-5.4
      v-15.1c0-6.1,3.7-7.6,5.8-8.4c-2.1-0.8-5.8-2.3-5.8-8.4V82.1z"/>
  </g>
</g>
<g>
  <path fill="#FFFFFF" d="M209.8,110.7v26.6h-11.9v-27.2c0-3.7-1.1-6.4-5.1-6.4c-3.4,0-7.1,2.5-7.1,5.9v27.8h-11.8V70.7h11.5v26.5
    c1.4-2,4.5-3.9,8.9-3.9C203.8,93.3,209.8,99.7,209.8,110.7z"/>
  <path fill="#FFFFFF" d="M251.8,112.6v24.8h-11v-3.4c-1.4,1.8-4.5,4-9.5,4c-7.8,0-15.3-5.5-15.3-14.9c0-9.4,7.6-14.1,15.3-14.1h8.6
    v-0.8c0-3.2-1.8-5.4-5.3-5.4c-3.4,0-4.9,1.4-5,2.9h-11.5c0.7-6.9,8-12.5,16.2-12.5C244.8,93.3,251.8,100.3,251.8,112.6z
     M239.9,118.5h-7c-3.4,0-5.1,2.2-5.1,4.9c0,2.7,1.7,4.9,5.1,4.9c3.4,0,7-2.5,7-5.9V118.5z"/>
  <path fill="#FFFFFF" d="M294.3,122.6c-1.1,8.6-8.5,15.2-17.5,15.2c-9.9,0-18-8-18-17.9v-8.8c0-9.9,8.1-17.9,18-17.9
    c8.9,0,16.3,6.5,17.4,15.1h-11.8c-0.3-2.6-2.9-4.6-5.8-4.6c-3.3,0-5.9,2.8-5.9,6.1v11.5c0,3.3,2.5,5.9,5.8,5.9c2.9,0,5.6-1.7,6-4.6
    H294.3z"/>
  <path fill="#FFFFFF" d="M313.7,109.3h1.9l10-15.5h12.2l-13,20.2l15.7,23.2h-12l-11.9-17.6h-2.9v17.6h-11.8V70.7h11.8V109.3z"/>
  <path fill="#FFFFFF" d="M374.8,124c0,8.6-6.6,13.9-16.8,13.9c-10.1,0-16.9-6.6-16.9-16.6h11c0,4.4,2.2,6.8,5.9,6.8
    c3.7,0,5.9-1.7,5.9-4.1c0-2.2-1.5-3.3-10.1-5.4c-10-2.5-11.9-7.4-11.9-12.9c0-5.5,4.4-12.5,16.1-12.5c11.5,0,16.4,7,16.5,15.5h-11
    c-0.1-3.7-2.1-5.7-5.4-5.7c-3.3,0-5.1,1.2-5.1,3.3s1.9,3.5,8.6,5.3C369,113.5,374.8,116.3,374.8,124z"/>
</g>
<g>
  <path fill="#FFFFFF" d="M193.7,31.9h-8v35h-11.9v-35H169v-9.1h4.9v-9.6C173.8,5.3,177,0,186.4,0h7.3v10h-4.9
    c-2.1,0-3.2,1.9-3.2,5.3v7.6h8V31.9z"/>
  <path fill="#FFFFFF" d="M231.7,40.8v8.8c0,9.9-8.1,17.9-18,17.9c-9.9,0-17.9-8-17.9-17.9v-8.8c0-9.9,8-18,17.9-18
    C223.6,22.8,231.7,30.9,231.7,40.8z M219.8,39.4c0-3.3-2.8-6.1-6.1-6.1c-3.3,0-6.1,2.8-6.1,6.1v11.5c0,3.3,2.8,6.1,6.1,6.1
    c3.3,0,6.1-2.8,6.1-6.1V39.4z"/>
  <path fill="#FFFFFF" d="M272.7,40.8v8.8c0,9.9-8.1,17.9-18,17.9c-9.9,0-17.9-8-17.9-17.9v-8.8c0-9.9,8-18,17.9-18
    C264.6,22.8,272.7,30.9,272.7,40.8z M260.8,39.4c0-3.3-2.8-6.1-6.1-6.1c-3.3,0-6.1,2.8-6.1,6.1v11.5c0,3.3,2.8,6.1,6.1,6.1
    c3.3,0,6.1-2.8,6.1-6.1V39.4z"/>
  <path fill="#FFFFFF" d="M277.7,50v-9.7c0-11,6-17.5,15.5-17.5c4.5,0,7.5,1.9,8.9,3.9V0.3h11.5v66.7h-11v-3.4c-1.4,1.8-4.5,4-9.5,4
    C283.7,67.5,277.7,61.1,277.7,50z M289.5,40.8v9.9c0,3.9,1.3,6.4,5.3,6.4c3.3,0,6.9-2.5,6.9-5.8V39.1c0-3.3-3.7-5.9-6.9-5.9
    C290.3,33.3,289.5,36.2,289.5,40.8z"/>
</g>
<g>
  <polygon fill="#7AD36A" points="85.2,0 75.6,16.7 75.6,16.7 105.6,68.8 75.6,120.9 15.5,120.9 15.5,120.9 5.9,136.9 85.2,136.9 
    124.8,68.5  "/>
  <polygon fill="#E22F37" points="75.6,16.5 44,70.9 44.1,70.9 52.4,85.7 44,100.4 27.2,100.5 27.2,100.6 15.5,120.9 75.6,120.9 
    105.6,68.7  "/>
  <polygon fill="#1A1A1A" points="64.3,64.9 66.5,68.9 64.3,72.9 59.9,72.9 57.7,68.9 59.9,64.9   "/>
  <polygon fill="#1A1A1A" points="64.3,102.9 66.5,106.9 64.3,110.9 59.9,110.9 57.7,106.9 59.9,102.9   "/>
  <polygon fill="#1A1A1A" points="76.6,47.9 78.8,51.9 76.6,55.9 72.1,55.9 69.9,51.9 72.2,47.9   "/>
  <polygon fill="#1A1A1A" points="76.6,83.9 78.8,87.9 76.6,91.9 72.1,91.9 69.9,87.9 72.2,83.9   "/>
  <polygon fill="#1A1A1A" points="88.6,64.9 90.8,68.9 88.6,72.9 84.2,72.9 82,68.9 84.2,64.9   "/>
  <polygon fill="#7AD36A" points="23.2,71.9 21,67.9 23.3,63.9 27.7,63.9 29.9,67.9 27.7,71.9   "/>
  <polygon fill="#7AD36A" points="2.2,71.9 0,67.9 2.2,63.9 6.7,63.9 8.9,67.9 6.6,71.9   "/>
  <polygon fill="#7AD36A" points="12.5,88.9 10.3,85.4 12.5,81.9 16.9,81.9 19.1,85.4 16.9,88.9   "/>
</g>
</svg>
