<!-- Generator: Adobe Illustrator 19.2.0, SVG Export Plug-In  -->
<svg version="1.1"
	 xmlns="http://www.w3.org/2000/svg" xmlns:xlink="http://www.w3.org/1999/xlink" xmlns:a="http://ns.adobe.com/AdobeSVGViewerExtensions/3.0/"
	 x="0px" y="0px" width="195px" height="119.4px" viewBox="0 0 195 119.4" style="enable-background:new 0 0 195 119.4;"
	 xml:space="preserve">
<style type="text/css">
	.st0{fill:#FFFFFF;}
</style>
<defs>
</defs>
<g>
	<g>
		<path class="st0" d="M16.9,96.7h3.8v22.4h-4.2L3.8,102.7v16.4H0V96.7h3.8l13,16.7V96.7z"/>
		<path class="st0" d="M49.2,96.7v3.5h-12v6h10.7v3.3H37.1v6h12.4v3.5H33.3V96.7H49.2z"/>
		<path class="st0" d="M69.2,100.2v19.1h-3.8v-19.1h-6.9v-3.5h17.4v3.5H69.2z"/>
		<path class="st0" d="M93.3,99.7c-1.2,0-2,0.2-2.7,0.7c-0.7,0.5-1,1.2-1,2c0,0.8,0.3,1.7,1,2c0.7,0.5,2.2,1,4.5,1.5
			c2.3,0.5,4,1.3,5.2,2.3c1.2,1,1.7,2.5,1.7,4.5s-0.7,3.5-2.2,4.8c-1.5,1.2-3.3,1.8-5.9,1.8c-3.5,0-6.7-1.2-9.4-3.7l2.3-2.8
			c2.3,2,4.7,3,7,3c1.2,0,2.2-0.3,2.8-0.8s1-1.2,1-2c0-0.8-0.3-1.5-1-2c-0.7-0.5-1.8-1-3.5-1.3c-1.7-0.3-2.8-0.8-3.7-1.2
			c-0.8-0.3-1.7-0.8-2.3-1.3c-1.3-1-2-2.5-2-4.7s0.8-3.7,2.3-4.8c1.5-1.2,3.3-1.7,5.7-1.7c1.5,0,2.8,0.2,4.3,0.7
			c1.3,0.5,2.7,1.2,3.7,2l-2,2.8c-0.7-0.7-1.5-1.2-2.7-1.5C95.6,99.8,94.5,99.7,93.3,99.7z"/>
		<path class="st0" d="M121.9,119.2h-3.8v-8.9l-8.4-13.5h4.2l6.2,10.2l6.2-10.2h4.2l-8.4,13.5L121.9,119.2L121.9,119.2z"/>
		<path class="st0" d="M156.4,96.7h3.8v22.4H156l-12.7-16.4v16.4h-3.8V96.7h3.8l13,16.7C156.4,113.4,156.4,96.7,156.4,96.7z"/>
		<path class="st0" d="M191.6,116.1c-2.3,2.2-5,3.3-8.4,3.3c-3.3,0-6.2-1.2-8.4-3.3c-2.2-2.2-3.3-5-3.3-8.4c0-3.3,1.2-6,3.3-8.4
			c2.2-2.3,5-3.3,8.4-3.3c3.3,0,6.2,1.2,8.4,3.3c2.2,2.2,3.3,5,3.3,8.4C195.1,111,194,113.9,191.6,116.1z M188.8,102
			c-1.5-1.5-3.3-2.3-5.7-2.3c-2.2,0-4.2,0.8-5.7,2.3c-1.5,1.5-2.3,3.5-2.3,5.7c0,2.2,0.8,4.2,2.3,5.7c1.5,1.5,3.3,2.3,5.7,2.3
			c2.2,0,4.2-0.8,5.7-2.3c1.5-1.5,2.3-3.5,2.3-5.7C191.1,105.5,190.5,103.5,188.8,102z"/>
	</g>
	<path class="st0" d="M121.9,13.7L98.7,0.3C98.3,0.2,98,0,97.5,0c-0.5,0-0.8,0.2-1,0.3L73.1,13.9c-0.7,0.3-1,1.2-1,1.8v26.9
		c0,0.7,0.5,1.5,1,1.8L96.5,58c0.3,0.2,0.7,0.3,1,0.3s0.8-0.2,1-0.3l23.4-13.5c0.7-0.3,1-1.2,1-1.8V15.6
		C123.1,14.9,122.6,14,121.9,13.7z M118.7,40.5c0,0.5-0.3,1.2-0.8,1.3l-2.5,1.5l-3,1.7l0,0l-7.5,4.3c-0.2,0-0.3,0.2-0.5,0.2
		c-0.3,0-0.7-0.2-0.8-0.5L82.9,13.2v31.9l-5.9-3.3c-0.5-0.2-0.8-0.8-0.8-1.3V17.7c0-0.5,0.3-1.2,0.8-1.3l5.7-3.3l7.5-4.3
		c0.2,0,0.3-0.2,0.5-0.2c0.3,0,0.7,0.2,0.8,0.5l20.6,35.6V13.9c0-0.3,0.2-0.7,0.5-0.7c0.2,0,0.2,0,0.3,0.2l5,2.8
		c0.5,0.2,0.8,0.8,0.8,1.3C118.7,17.7,118.7,40.5,118.7,40.5z"/>
</g>
</svg>
