<!-- Generator: Adobe Illustrator 18.1.1, SVG Export Plug-In  -->
<svg version="1.1"
   xmlns="http://www.w3.org/2000/svg" xmlns:xlink="http://www.w3.org/1999/xlink" xmlns:a="http://ns.adobe.com/AdobeSVGViewerExtensions/3.0/"
   x="0px" y="0px" width="230px" height="119.7px" viewBox="0 0 230 119.7" style="enable-background:new 0 0 230 119.7;"
   xml:space="preserve">
<style type="text/css">
  .st0{fill:#FFFFFF;}
</style>
<defs>
</defs>
<g>
  <g>
    <path class="st0" d="M12.4,86.9c1.7,0.6,4.7,1.9,4.7,6.9v12.4c0,2.3,0.3,3.6,1.1,4.4c0.7,0.8,1.9,1,3.9,1H26v8.2h-7.3
      c-3.6,0-6-0.9-7.8-2.6C8.9,115,8,112.5,8,109.4c0,0,0-11.4,0-13.2c0-1.9-0.4-3.2-1.2-4c-0.8-0.8-1.9-1.3-3.6-1.3H0v-8.2h3.3
      c1.6,0,2.7-0.5,3.6-1.2C7.7,80.7,8,79.3,8,77.4V64.1c0-3.1,0.8-5.6,2.9-7.6c1.7-1.7,4.2-2.6,7.8-2.6H26v8.2h-3.8
      c-2.1,0-3.2,0.2-3.9,1c-0.8,0.8-1.1,2.1-1.1,4.4V80C17.2,85,14.2,86.2,12.4,86.9z"/>
  </g>
</g>
<g>
  <g>
    <path class="st0" d="M212.8,67.4c0-2.3-0.3-3.6-1.1-4.4c-0.7-0.8-1.9-1-3.9-1H204v-8.2h7.3c3.6,0,6,0.9,7.8,2.6
      c2.1,2.1,2.9,4.5,2.9,7.6v13.3c0,1.9,0.3,3.3,1.2,4.1c0.8,0.8,1.9,1.2,3.6,1.2h3.3v8.2h-3.3c-1.6,0-2.7,0.5-3.6,1.3
      c-0.8,0.8-1.2,2.1-1.2,4c0,1.8,0,13.2,0,13.2c0,3.1-0.8,5.6-2.9,7.6c-1.7,1.7-4.2,2.6-7.8,2.6H204v-8.2h3.8c2.1,0,3.2-0.2,3.9-1
      c0.8-0.8,1.1-2.1,1.1-4.4V93.8c0-5,3-6.3,4.7-6.9c-1.7-0.7-4.7-1.9-4.7-6.9V67.4z"/>
  </g>
</g>
<g>
  <path class="st0" d="M64.1,91v21.8h-9.8V90.5c0-3-0.9-5.3-4.2-5.3c-2.8,0-5.8,2.1-5.8,4.8v22.8h-9.7V58.1H44v21.8
    c1.2-1.6,3.7-3.2,7.4-3.2C59.1,76.6,64.1,81.9,64.1,91z"/>
  <path class="st0" d="M98.5,92.5v20.3h-9.1V110c-1.2,1.5-3.7,3.3-7.8,3.3c-6.4,0-12.6-4.5-12.6-12.2s6.3-11.5,12.6-11.5h7.1v-0.7
    c0-2.6-1.4-4.4-4.3-4.4c-2.8,0-4,1.2-4.1,2.4h-9.5c0.5-5.7,6.6-10.2,13.3-10.2C92.8,76.6,98.5,82.4,98.5,92.5z M88.8,97.4H83
    c-2.8,0-4.2,1.8-4.2,4.1c0,2.2,1.4,4.1,4.2,4.1c2.8,0,5.8-2.1,5.8-4.8V97.4z"/>
  <path class="st0" d="M133.5,100.7c-0.9,7.1-7,12.5-14.4,12.5c-8.1,0-14.8-6.6-14.8-14.7v-7.2c0-8.1,6.7-14.7,14.8-14.7
    c7.3,0,13.4,5.4,14.3,12.4h-9.7c-0.3-2.1-2.4-3.8-4.7-3.8c-2.7,0-4.9,2.3-4.9,5v9.5c0,2.7,2.1,4.8,4.7,4.8c2.4,0,4.6-1.4,4.9-3.8
    H133.5z"/>
  <path class="st0" d="M149.5,89.8h1.6l8.2-12.7h10l-10.7,16.6l12.9,19.1h-9.8l-9.8-14.4h-2.4v14.4h-9.7V58.1h9.7V89.8z"/>
  <path class="st0" d="M199.6,101.9c0,7.1-5.4,11.4-13.8,11.4c-8.3,0-13.9-5.4-13.9-13.6h9c0,3.6,1.8,5.6,4.8,5.6
    c3,0,4.9-1.4,4.9-3.4c0-1.8-1.2-2.7-8.3-4.5c-8.2-2.1-9.8-6.1-9.8-10.6c0-4.5,3.6-10.2,13.2-10.2c9.5,0,13.5,5.8,13.5,12.7h-9.1
    c-0.1-3-1.7-4.7-4.5-4.7c-2.7,0-4.2,1-4.2,2.7c0,1.8,1.6,2.9,7.1,4.3C194.9,93.2,199.6,95.5,199.6,101.9z"/>
</g>
<g>
  <path class="st0" d="M50.9,26.2h-6.6V55h-9.8V26.2h-4v-7.5h4v-7.9C34.5,4.3,37.1,0,44.9,0h6v8.2h-4c-1.7,0-2.6,1.6-2.6,4.3v6.3h6.6
    V26.2z"/>
  <path class="st0" d="M82.1,33.5v7.2c0,8.1-6.7,14.7-14.8,14.7c-8.1,0-14.7-6.6-14.7-14.7v-7.2c0-8.1,6.6-14.8,14.7-14.8
    C75.4,18.8,82.1,25.4,82.1,33.5z M72.3,32.4c0-2.7-2.3-5-5-5c-2.7,0-5,2.3-5,5v9.5c0,2.7,2.3,5,5,5c2.7,0,5-2.3,5-5V32.4z"/>
  <path class="st0" d="M115.7,33.5v7.2c0,8.1-6.7,14.7-14.8,14.7c-8.1,0-14.7-6.6-14.7-14.7v-7.2c0-8.1,6.6-14.8,14.7-14.8
    C109.1,18.8,115.7,25.4,115.7,33.5z M106,32.4c0-2.7-2.3-5-5-5c-2.7,0-5,2.3-5,5v9.5c0,2.7,2.3,5,5,5c2.7,0,5-2.3,5-5V32.4z"/>
  <path class="st0" d="M119.8,41.1v-8c0-9.1,4.9-14.4,12.7-14.4c3.7,0,6.2,1.6,7.4,3.2V0.2h9.4V55h-9v-2.8c-1.2,1.5-3.7,3.3-7.8,3.3
    C124.8,55.4,119.8,50.2,119.8,41.1z M129.5,33.5v8.1c0,3.2,1.1,5.2,4.3,5.2c2.7,0,5.7-2.1,5.7-4.7v-10c0-2.7-3-4.8-5.7-4.8
    C130.2,27.3,129.5,29.8,129.5,33.5z"/>
</g>
</svg>
