<!-- Generator: Adobe Illustrator 19.2.1, SVG Export Plug-In  -->
<svg version="1.1"
	 xmlns="http://www.w3.org/2000/svg" xmlns:xlink="http://www.w3.org/1999/xlink" xmlns:a="http://ns.adobe.com/AdobeSVGViewerExtensions/3.0/"
	 x="0px" y="0px" width="39.2px" height="57px" viewBox="0 0 39.2 57" style="enable-background:new 0 0 39.2 57;"
	 xml:space="preserve">
<style type="text/css">
	.st0{fill:#F2E377;}
	.st1{fill:#F3D55B;}
	.st2{fill:#F0C419;}
	.st3{fill:#546A79;}
	.st4{fill:#38454F;}
</style>
<defs>
</defs>
<path class="st0" d="M19.6,57C8.8,57,0,48.2,0,37.4s8.8-19.6,19.6-19.6s19.6,8.8,19.6,19.6S30.4,57,19.6,57z"/>
<circle class="st1" cx="19.6" cy="37.4" r="15.1"/>
<polygon class="st2" points="19.6,26.3 22.9,32.9 30.2,34 24.9,39.2 26.1,46.5 19.6,43 13,46.5 14.3,39.2 9,34 16.3,32.9 "/>
<path class="st3" d="M19.6,17.8c2.2,0,4.3,0.4,6.3,1.1L37.2,0h-10L16.3,18.1C17.4,17.9,18.5,17.8,19.6,17.8z"/>
<path class="st4" d="M16.3,18.1l3.4-5.6L12.2,0h-10l11.3,18.8C14.4,18.5,15.4,18.3,16.3,18.1z"/>
</svg>
