<!-- Generator: Adobe Illustrator 19.2.0, SVG Export Plug-In  -->
<svg version="1.1"
	 xmlns="http://www.w3.org/2000/svg" xmlns:xlink="http://www.w3.org/1999/xlink" xmlns:a="http://ns.adobe.com/AdobeSVGViewerExtensions/3.0/"
	 x="0px" y="0px" width="17.3px" height="17.3px" viewBox="0 0 17.3 17.3" style="enable-background:new 0 0 17.3 17.3;"
	 xml:space="preserve">
<style type="text/css">
	.st0{fill:#E7A33E;}
	.st1{fill:none;stroke:#231F20;stroke-width:2;stroke-linecap:round;stroke-miterlimit:10;}
	.st2{fill:#E2D8BF;}
	.st3{fill:#A35A2D;}
	.st4{fill:#FFEE76;}
</style>
<defs>
</defs>
<g>
	<path class="st0" d="M16.1,4.4l-0.6-0.6c-0.5-0.5-1.3-0.6-1.9-0.4v3.1c0,0.6-0.5,1.1-1.1,1.1c-0.3,0-0.6-0.1-0.8-0.3V8
		c0,0.4-0.3,0.8-0.8,0.8c-0.4,0-0.8-0.3-0.8-0.8V7c-2,2.2-4.1,4.2-6.5,5.9c-0.7,0.7-0.7,1.9,0,2.6l0.6,0.6c0.7,0.7,1.9,0.7,2.6,0
		c3.4-2.5,6.4-5.6,9-8.9l0.2-0.2C16.8,6.2,16.8,5.1,16.1,4.4z"/>
	<g>
		<path class="st0" d="M12.8,2c-0.8-0.5-1.8-0.3-2.5,0.3C10,2.6,9.8,3,9.7,3.3C9.6,3.6,9.4,3.8,9.2,3.8c-0.4,0.1-0.7,0.3-1,0.6
			C7.9,4.7,7.8,5,7.7,5.4C7.6,5.6,7.4,5.8,7.2,5.9C6.8,6,6.5,6.1,6.2,6.4C5.9,6.7,5.7,7,5.7,7.4C5.6,7.6,5.4,7.8,5.1,7.9
			C4.8,8,4.5,8.2,4.2,8.4c-0.3,0.3-0.5,0.6-0.6,1C3.6,9.7,3.4,9.9,3.1,9.9c-0.4,0.1-0.7,0.3-1,0.6c-0.7,0.7-0.8,1.7-0.4,2.5
			C5.8,9.7,9.5,6.1,12.8,2z"/>
	</g>
	<path class="st1" d="M1.5,14.5c0,0-0.6,0.6,0,1.3"/>
	<path class="st1" d="M15.8,1.5c0,0-0.6-0.6-1.3,0"/>
	<path class="st2" d="M5.8,13.5c-0.2,0-0.3-0.1-0.3-0.3v-0.4c0-0.2,0.1-0.3,0.3-0.3s0.3,0.1,0.3,0.3v0.4C6.1,13.4,5.9,13.5,5.8,13.5
		z"/>
	<path class="st2" d="M4.9,15.2c-0.2,0-0.3-0.1-0.3-0.3v-0.4c0-0.2,0.1-0.3,0.3-0.3s0.3,0.1,0.3,0.3v0.4C5.2,15.1,5.1,15.2,4.9,15.2
		z"/>
	<path class="st2" d="M6.6,15.2c-0.2,0-0.3-0.1-0.3-0.3v-0.4c0-0.2,0.1-0.3,0.3-0.3s0.3,0.1,0.3,0.3v0.4C6.9,15.1,6.8,15.2,6.6,15.2
		z"/>
	<path class="st2" d="M7.1,13.1c-0.2,0-0.3-0.1-0.3-0.3v-0.4c0-0.2,0.1-0.3,0.3-0.3s0.3,0.1,0.3,0.3v0.4C7.4,13,7.2,13.1,7.1,13.1z"
		/>
	<path class="st2" d="M8.1,11.6c-0.2,0-0.3-0.1-0.3-0.3v-0.4c0-0.2,0.1-0.3,0.3-0.3c0.2,0,0.3,0.1,0.3,0.3v0.4
		C8.4,11.5,8.3,11.6,8.1,11.6z"/>
	<path class="st2" d="M8.5,13.8c-0.2,0-0.3-0.1-0.3-0.3V13c0-0.2,0.1-0.3,0.3-0.3c0.2,0,0.3,0.1,0.3,0.3v0.4
		C8.8,13.6,8.7,13.8,8.5,13.8z"/>
	<path class="st2" d="M9.4,12c-0.2,0-0.3-0.1-0.3-0.3v-0.4c0-0.2,0.1-0.3,0.3-0.3c0.2,0,0.3,0.1,0.3,0.3v0.4C9.7,11.9,9.6,12,9.4,12
		z"/>
	<path class="st2" d="M9.8,10.3c-0.2,0-0.3-0.1-0.3-0.3V9.6c0-0.2,0.1-0.3,0.3-0.3c0.2,0,0.3,0.1,0.3,0.3V10
		C10.1,10.2,10,10.3,9.8,10.3z"/>
	<path class="st2" d="M11.1,11.6c-0.2,0-0.3-0.1-0.3-0.3v-0.4c0-0.2,0.1-0.3,0.3-0.3c0.2,0,0.3,0.1,0.3,0.3v0.4
		C11.4,11.5,11.3,11.6,11.1,11.6z"/>
	<path class="st2" d="M14.9,6.9c-0.2,0-0.3-0.1-0.3-0.3V6.2c0-0.2,0.1-0.3,0.3-0.3c0.2,0,0.3,0.1,0.3,0.3v0.4
		C15.2,6.8,15.1,6.9,14.9,6.9z"/>
	<path class="st2" d="M14.5,5.2c-0.2,0-0.3-0.1-0.3-0.3V4.5c0-0.2,0.1-0.3,0.3-0.3c0.2,0,0.3,0.1,0.3,0.3v0.4
		C14.8,5.1,14.7,5.2,14.5,5.2z"/>
	<path class="st3" d="M16.7,0.7l-0.2-0.2c-0.7-0.7-1.9-0.7-2.6,0l-0.6,0.7C9.7,6,5.3,10.3,0.5,14c-0.7,0.7-0.7,1.9,0,2.6l0.2,0.2
		c0.7,0.7,1.9,0.7,2.6,0c0.3-0.2,0.6-0.5,1-0.7l-0.5-0.5c-0.1-0.1-0.2-0.2-0.2-0.3c-0.2-0.3-0.3-0.6-0.3-1c0-0.5,0.2-0.9,0.5-1.3
		c0.5-0.4,1-0.7,1.4-1.1c0.1-0.1,0.1-0.1,0.2-0.2c0.4-0.4,0.8-0.7,1.3-1.1c0.1-0.1,0.2-0.2,0.3-0.3c0.4-0.3,0.8-0.7,1.1-1.1
		c0.1-0.1,0.3-0.2,0.4-0.4c0.4-0.4,0.7-0.7,1-1.1C9.8,7.5,10,7.2,10.3,7v1c0,0.4,0.3,0.8,0.8,0.8c0.4,0,0.8-0.3,0.8-0.8V7.2
		c0.2,0.2,0.5,0.3,0.8,0.3c0.6,0,1.1-0.5,1.1-1.1V3.3c0.6-0.2,1.3-0.1,1.8,0.3c0,0,0.1,0.1,0.1,0.1c0,0,0,0,0,0L16,4.3
		C16,4.2,16.1,4.1,16.2,4l0.6-0.7C17.4,2.6,17.4,1.4,16.7,0.7z"/>
	<path class="st4" d="M12.1,4.6c-0.1,0-0.1,0-0.2-0.1c-0.1-0.1-0.1-0.3,0-0.4l0.3-0.4c0.1-0.1,0.3-0.1,0.4,0c0.1,0.1,0.1,0.3,0,0.4
		l-0.3,0.4C12.2,4.5,12.1,4.6,12.1,4.6z"/>
	<path class="st4" d="M10.1,7.2c-0.1,0-0.3-0.1-0.4-0.2C9.4,6.9,9.4,6.5,9.6,6.2L11.5,4c0.2-0.3,0.6-0.3,0.9-0.1
		c0.3,0.2,0.3,0.6,0.1,0.9L10.5,7C10.4,7.2,10.2,7.2,10.1,7.2z"/>
	<path class="st4" d="M12.7,7.5l-0.4,0c-0.5,0-0.9-0.4-0.9-0.9V3.3c0-0.5,0.4-0.9,0.9-0.9h0.4c0.5,0,0.9,0.4,0.9,0.9v3.4
		C13.6,7.2,13.2,7.5,12.7,7.5z"/>
	<path class="st4" d="M11.2,8.7h-0.3c-0.3,0-0.6-0.3-0.6-0.6V5.7c0-0.3,0.3-0.6,0.6-0.6l0.3,0c0.3,0,0.6,0.3,0.6,0.6v2.4
		C11.8,8.5,11.5,8.7,11.2,8.7z"/>
</g>
</svg>
