<!-- Generator: Adobe Illustrator 19.2.0, SVG Export Plug-In  -->
<svg version="1.1"
	 xmlns="http://www.w3.org/2000/svg" xmlns:xlink="http://www.w3.org/1999/xlink" xmlns:a="http://ns.adobe.com/AdobeSVGViewerExtensions/3.0/"
	 x="0px" y="0px" width="18.9px" height="20.1px" viewBox="0 0 18.9 20.1" style="enable-background:new 0 0 18.9 20.1;"
	 xml:space="preserve">
<style type="text/css">
	.st0{fill:#F75B57;}
	.st1{fill:none;stroke:#F98282;stroke-width:2;stroke-linecap:round;stroke-miterlimit:10;}
	.st2{fill:#A46F3E;}
	.st3{fill:none;stroke:#C18B5F;stroke-linecap:round;stroke-linejoin:round;stroke-miterlimit:10;}
	.st4{fill:#FFF5BB;}
	.st5{fill:none;stroke:#6A3311;stroke-linecap:round;stroke-miterlimit:10;}
	.st6{fill:none;stroke:#F9DA49;stroke-linecap:round;stroke-linejoin:round;stroke-miterlimit:10;}
</style>
<defs>
</defs>
<g>
	<path class="st0" d="M2.6,7.4C1.4,6.1,1.2,4.2,2.3,3.1l0.3-0.3c1.1-1.1,3-0.9,4.3,0.3c1.2,1.2,1.2,3.1,0,4.3S3.8,8.5,2.6,7.4z"/>
	<path class="st1" d="M3.4,3.5c0.5,0.5,1.2,0.5,1.7,0"/>
	<path class="st2" d="M2,12.4l1.6,4c1.1,2,1.9,2.5,4,3.3c1.4,0.5,4,0.5,5.3,0c2.1-0.8,2.9-1.3,4-3.3l1.6-4c-0.9-0.9-2.4,0.1-3.3,1
		c-0.9-0.9-2.4-0.3-3.3,0.6c-0.9-0.9-2.4-0.9-3.3,0c-0.9-0.9-2.4-1.6-3.3-0.6C4.4,12.5,2.9,11.5,2,12.4z"/>
	<line class="st3" x1="5.7" y1="15.4" x2="6.7" y2="17.5"/>
	<line class="st3" x1="15" y1="15.4" x2="14" y2="17.5"/>
	<line class="st3" x1="12" y1="16.1" x2="11.6" y2="18.3"/>
	<line class="st3" x1="8.6" y1="16.1" x2="9" y2="18.3"/>
	<path class="st4" d="M17.5,9.3c0.1-0.2,0.1-0.4,0.1-0.6c0-1-0.8-1.9-2.1-2.6c0,0,0-5.8-4.7-5.3c0,0,1.5,2.5-0.6,2.5
		c-1,0-2,0.1-2.8,0.4c0.7,1.2,0.5,2.7-0.5,3.7c-1,1-2.6,1.2-3.8,0.4c-0.2,0.3-0.3,0.6-0.3,1c0,0.2,0,0.4,0.1,0.6
		c-0.9,0.6-1.4,1.4-1.4,2.2c0,0.6,0.2,1.1,0.7,1.6L2,12.4c0.9-0.9,2.4,0.1,3.3,1c0.9-0.9,2.4-0.3,3.3,0.6c0.9-0.9,2.4-0.9,3.3,0
		c0.9-0.9,2.4-1.6,3.3-0.6c0.9-0.9,2.4-1.9,3.3-1c0.2-0.3,0.2-0.6,0.2-1C18.9,10.6,18.4,9.9,17.5,9.3z"/>
	<path class="st5" d="M4.1,2.7c0,0-0.2-2.7-3.6-2.2"/>
	<path class="st6" d="M14.5,6.5C13.3,6.8,11.9,7,10.3,7"/>
	<path class="st6" d="M5,10.3C4.6,10.1,4.2,10,3.9,9.8"/>
	<path class="st6" d="M12.6,11c-1.5,0.2-3,0.2-4.5,0"/>
	<path class="st6" d="M16.6,9.8c-0.6,0.3-1.3,0.6-2.1,0.8"/>
</g>
</svg>
