<!-- Generator: Adobe Illustrator 19.2.0, SVG Export Plug-In  -->
<svg version="1.1"
	 xmlns="http://www.w3.org/2000/svg" xmlns:xlink="http://www.w3.org/1999/xlink" xmlns:a="http://ns.adobe.com/AdobeSVGViewerExtensions/3.0/"
	 x="0px" y="0px" width="24.1px" height="17.6px" viewBox="0 0 24.1 17.6" style="enable-background:new 0 0 24.1 17.6;"
	 xml:space="preserve">
<style type="text/css">
	.st0{fill:#F4C647;}
	.st1{fill:#F9E295;}
	.st2{fill:#EEAF4B;}
	.st3{fill:#FCDF76;}
</style>
<defs>
</defs>
<g>
	<path class="st0" d="M19.3,5.2v2.4l2.1,0.3l0-4.9c0-1.4-4.8-2.9-10.7-2.9C4.8,0,0,1.5,0,2.9l0,7.8c0,1.4,4.6,3.1,10.5,3.1
		c0.1,0,0.1,0,0.2,0V6l-2-3.1L19.3,5.2z"/>
	<path class="st1" d="M10.7,10.3V6l-2-3.1l10.6,2.2v2.4l-6-0.6v4.3C13.3,11.2,10.7,10.3,10.7,10.3z"/>
	<path class="st2" d="M10.7,0C4.8,0,0,1.5,0,2.9S4.6,6,10.5,6c0.1,0,0.1,0,0.2,0l-2-3.1l10.8,2.2c1.2-0.4,1.9-1.7,1.9-2.2
		C21.4,1.5,16.6,0,10.7,0z"/>
	<path class="st0" d="M15.5,9.2v8.4c3.5,0,6.7-0.4,8.6-1.1V8.1L13.3,6.7L15.5,9.2z"/>
	<path class="st2" d="M13.3,6.7l2.1,2.5c3.5,0,6.7-0.4,8.6-1.1L13.3,6.7z"/>
	<polygon class="st3" points="15.5,9.2 15.5,17.6 13.3,15 13.3,6.7 	"/>
</g>
</svg>
