<!-- Generator: Adobe Illustrator 19.2.0, SVG Export Plug-In  -->
<svg version="1.1"
	 xmlns="http://www.w3.org/2000/svg" xmlns:xlink="http://www.w3.org/1999/xlink" xmlns:a="http://ns.adobe.com/AdobeSVGViewerExtensions/3.0/"
	 x="0px" y="0px" width="17.4px" height="17.2px" viewBox="0 0 17.4 17.2" style="enable-background:new 0 0 17.4 17.2;"
	 xml:space="preserve">
<style type="text/css">
	.st0{fill:#994530;}
	.st1{fill:#E1705C;stroke:#C64940;stroke-miterlimit:10;}
	.st2{fill:#E6E6E6;stroke:#7A3726;stroke-miterlimit:10;}
	.st3{fill:none;stroke:#C64940;stroke-miterlimit:10;}
</style>
<defs>
</defs>
<g>
	<path class="st0" d="M0.3,13.5c0,0,1.1,2.4,4,3.4c0.6,0.2,1.3,0.3,2,0.3c2.7,0.2,9.3-0.3,10.9-6.6c0.5-2,0.3-4.1-0.5-5.9
		C15.6,1.9,13.1-1.6,8,0.8C5.1,2.1,5.3,4.4,5.9,5.9c0.8,1.9-0.8,3.9-2.8,3.6C0.6,9.2-0.6,10.7,0.3,13.5z"/>
	<path class="st1" d="M1.6,12.9c0.1,0.3,1.1,1.9,3.2,2.6c0.5,0.2,1,0.2,1.6,0.3l0.1,0c0.3,0,0.6,0,0.9,0c6.4,0,8-3.9,8.4-5.6
		c0.4-1.6,0.2-3.4-0.4-5.1c-1-2.5-2.5-3.8-4.4-3.8c-0.8,0-1.6,0.2-2.6,0.6C7.4,2.5,6.1,3.4,7,5.7C7.4,6.8,7.3,8,6.6,9
		c-0.8,1.1-2.1,1.7-3.5,1.5c-0.2,0-0.3,0-0.5,0c-0.4,0-0.9,0.1-1.1,0.4C1.3,11.3,1.3,12,1.6,12.9z"/>
	<circle class="st2" cx="11.3" cy="4.4" r="1.4"/>
	<path class="st3" d="M8.6,15.8c0.2-0.9-0.5-1.5-1.3-2.1c-0.9-0.6-1.6-1.6-1.7-2.8c-0.1-0.5-0.2-0.8-0.2-0.8s1,3.1,4.5,1.4
		c3.9-1.9,5.7-0.9,5.7-0.9"/>
	<path class="st3" d="M7.1,8.1c0,0,1,1.8,3.8,0.9c0,0,3.9-2.1,5.1-0.9"/>
</g>
</svg>
