<?xml version="1.0" encoding="utf-8"?>
<!-- Generator: Adobe Illustrator 19.2.0, SVG Export Plug-In . SVG Version: 6.00 Build 0)  -->
<svg version="1.1" id="Ebene_1" xmlns="http://www.w3.org/2000/svg" xmlns:xlink="http://www.w3.org/1999/xlink" x="0px" y="0px"
	 viewBox="0 0 1440 1120.9" style="enable-background:new 0 0 1440 1120.9;" xml:space="preserve">
<style type="text/css">
	.st0{clip-path:url(#SVGID_2_);}
	.st1{opacity:0.7;}
	.st2{opacity:0.3;}
	.st3{fill:#FFFFFF;}
	.st4{fill:#953C9C;}
	.st5{fill:#009CE2;}
	.st6{fill:#FDBB00;}
	.st7{fill:#65BC2C;}
	.st8{fill:#F68600;}
	.st9{fill:#E03E3B;}
</style>
<g>
	<path class="st9" d="M729.7,425.3v13h-2.1l-4.6-7.7v7.7h-2.5v-13h2.1l4.6,7.7v-7.7H729.7z"/>
	<path class="st9" d="M738.3,433.2v1.7c0,1.9-1.6,3.5-3.5,3.5c-1.9,0-3.5-1.6-3.5-3.5v-1.7c0-1.9,1.6-3.5,3.5-3.5
		C736.7,429.7,738.3,431.2,738.3,433.2z M736,432.9c0-0.6-0.5-1.2-1.2-1.2c-0.7,0-1.2,0.5-1.2,1.2v2.2c0,0.6,0.5,1.2,1.2,1.2
		c0.6,0,1.2-0.5,1.2-1.2V432.9z"/>
	<path class="st9" d="M739.4,434.9v-1.9c0-2.1,1.2-3.4,3-3.4c0.9,0,1.5,0.4,1.7,0.8v-5.1h2.2v12.9h-2.1v-0.7
		c-0.3,0.4-0.9,0.8-1.8,0.8C740.6,438.3,739.4,437.1,739.4,434.9z M741.7,433.2v1.9c0,0.8,0.3,1.2,1,1.2c0.6,0,1.3-0.5,1.3-1.1v-2.4
		c0-0.6-0.7-1.1-1.3-1.1C741.9,431.7,741.7,432.3,741.7,433.2z"/>
	<path class="st9" d="M754.9,433.2v1.2h-4.7v0.7c0,0.6,0.5,1.2,1.2,1.2c0.6,0,1-0.4,1.2-0.9h2.3c-0.3,1.7-1.7,3-3.4,3
		c-1.9,0-3.5-1.6-3.5-3.5v-1.7c0-1.9,1.6-3.5,3.5-3.5C753.3,429.7,754.9,431.2,754.9,433.2z M752.6,432.9c0-0.7-0.5-1.3-1.2-1.3
		c-0.7,0-1.2,0.6-1.2,1.3H752.6z"/>
	<path class="st9" d="M756.2,438.2v-2.5h2.5v2.5H756.2z"/>
	<path class="st9" d="M766.3,434.6c0,2.5-1.7,3.7-3.8,3.7c-1.3,0-2.2-0.4-3.2-1.4l1.8-1.7c0.3,0.5,0.6,0.7,1.3,0.7
		c0.7,0,1.3-0.5,1.3-1.7v-9h2.5C766.3,425.3,766.3,434,766.3,434.6z"/>
	<path class="st9" d="M776.4,434.4c0,2.6-2.3,3.9-4.4,3.9c-2.1,0-4.4-1.2-4.4-4h2.6c0,1,0.6,1.8,1.9,1.8c1.3,0,1.9-0.8,1.9-1.7
		c0-0.8-0.4-1.3-2.3-1.8s-3.9-1.3-3.9-3.8c0-1.9,1.3-3.8,4.2-3.8s4.2,1.9,4.2,3.6h-2.6c0-0.7-0.5-1.4-1.7-1.4
		c-1.1,0-1.6,0.7-1.6,1.5c0,0.7,0.3,1.1,2.3,1.7C774.5,431.1,776.4,431.7,776.4,434.4z"/>
</g>
<g>
	<path class="st4" d="M631,508.7c0,2.6-2.3,3.9-4.4,3.9c-2.1,0-4.4-1.2-4.4-4h2.6c0,1,0.6,1.8,1.9,1.8c1.3,0,1.9-0.8,1.9-1.7
		c0-0.8-0.4-1.3-2.3-1.8s-3.9-1.3-3.9-3.8c0-1.9,1.3-3.8,4.2-3.8s4.2,1.9,4.2,3.6h-2.6c0-0.7-0.5-1.4-1.7-1.4
		c-1.1,0-1.6,0.7-1.6,1.5c0,0.7,0.3,1.1,2.3,1.7C629.1,505.4,631,506,631,508.7z"/>
	<path class="st4" d="M639.1,507.4v1.2h-4.7v0.7c0,0.6,0.5,1.2,1.2,1.2c0.6,0,1-0.4,1.2-0.9h2.3c-0.3,1.7-1.7,3-3.4,3
		c-1.9,0-3.5-1.6-3.5-3.5v-1.7c0-1.9,1.6-3.5,3.5-3.5C637.5,503.9,639.1,505.5,639.1,507.4z M636.8,507.2c0-0.7-0.5-1.3-1.2-1.3
		c-0.7,0-1.2,0.6-1.2,1.3H636.8z"/>
	<path class="st4" d="M646.9,507.7v4.8h-2.1v-0.7c-0.3,0.4-0.9,0.8-1.8,0.8c-1.5,0-3-1.1-3-2.9s1.5-2.7,3-2.7h1.7v-0.2
		c0-0.6-0.3-1-1-1c-0.7,0-0.9,0.3-1,0.6h-2.2c0.1-1.3,1.6-2.4,3.2-2.4C645.5,503.9,646.9,505.3,646.9,507.7z M644.6,508.8h-1.4
		c-0.7,0-1,0.4-1,1c0,0.5,0.3,1,1,1s1.4-0.5,1.4-1.1V508.8z"/>
	<path class="st4" d="M654.6,509.9c0,1.7-1.3,2.7-3.3,2.7c-2,0-3.3-1.3-3.3-3.2h2.1c0,0.9,0.4,1.3,1.1,1.3c0.7,0,1.2-0.3,1.2-0.8
		c0-0.4-0.3-0.6-2-1.1c-1.9-0.5-2.3-1.4-2.3-2.5c0-1.1,0.9-2.4,3.1-2.4c2.2,0,3.2,1.4,3.2,3h-2.1c0-0.7-0.4-1.1-1.1-1.1
		c-0.6,0-1,0.2-1,0.6s0.4,0.7,1.7,1C653.5,507.9,654.6,508.4,654.6,509.9z"/>
	<path class="st4" d="M662.6,507.4v1.7c0,1.9-1.6,3.5-3.5,3.5c-1.9,0-3.5-1.6-3.5-3.5v-1.7c0-1.9,1.6-3.5,3.5-3.5
		C661,503.9,662.6,505.5,662.6,507.4z M660.3,507.2c0-0.6-0.5-1.2-1.2-1.2c-0.7,0-1.2,0.5-1.2,1.2v2.2c0,0.6,0.5,1.2,1.2,1.2
		c0.6,0,1.2-0.5,1.2-1.2V507.2z"/>
	<path class="st4" d="M671.1,507.3v5.2h-2.3v-5.3c0-0.8-0.3-1.3-1-1.3c-0.6,0-1.4,0.5-1.4,1.1v5.4h-2.3v-8.4h2.1v0.7
		c0.3-0.4,0.9-0.8,1.8-0.8C669.9,503.9,671.1,505.2,671.1,507.3z"/>
	<path class="st4" d="M679.2,507.7v4.8h-2.1v-0.7c-0.3,0.4-0.9,0.8-1.8,0.8c-1.5,0-3-1.1-3-2.9s1.5-2.7,3-2.7h1.7v-0.2
		c0-0.6-0.3-1-1-1c-0.7,0-0.9,0.3-1,0.6h-2.2c0.1-1.3,1.6-2.4,3.2-2.4C677.9,503.9,679.2,505.3,679.2,507.7z M676.9,508.8h-1.4
		c-0.7,0-1,0.4-1,1c0,0.5,0.3,1,1,1s1.4-0.5,1.4-1.1V508.8z"/>
	<path class="st4" d="M683.3,509.8c0,0.6,0.2,0.7,0.5,0.7h0.9v2h-1.4c-1.6,0-2.2-1.1-2.2-2.5v-10.4h2.3V509.8z"/>
	<path class="st4" d="M685.6,499.6h2.3v2.6h-2.3V499.6z M685.6,504.1h2.3v8.4h-2.3V504.1z"/>
	<path class="st4" d="M692.3,505v4.6c0,0.6,0.2,1,0.6,1h1v1.9h-1.4c-1.9,0-2.5-1-2.5-2.6v-5h-0.9v-1.8h0.9v-2.6h2.3v2.6h1.6v1.8
		H692.3z"/>
	<path class="st4" d="M702,504.1l-3.9,12.5h-2l1.1-3.6l-2.9-8.9h2.2l1.7,5.7c0.6-1.9,1.1-3.8,1.7-5.7H702z"/>
</g>
<g>
	<path class="st5" d="M731.4,623.3v13h-2.6v-5.4h-3.3v5.4H723v-13h2.6v5.3h3.3v-5.3H731.4z"/>
	<path class="st5" d="M740.1,627.8l-3.9,12.5h-2l1.1-3.6l-2.9-8.9h2.2l1.7,5.7c0.6-1.9,1.1-3.8,1.7-5.7H740.1z"/>
	<path class="st5" d="M747.7,631.1v1.9c0,2.2-1.2,3.4-3,3.4c-0.9,0-1.5-0.4-1.7-0.7v4.6h-2.2v-12.5h2.1v0.7c0.3-0.4,0.9-0.8,1.8-0.8
		C746.5,627.7,747.7,629,747.7,631.1z M745.4,632.9V631c0-0.8-0.3-1.3-1-1.3c-0.7,0-1.4,0.5-1.4,1.1v2.4c0,0.6,0.7,1.1,1.4,1.1
		C745.2,634.4,745.4,633.8,745.4,632.9z"/>
	<path class="st5" d="M755.8,631.2v1.2h-4.7v0.7c0,0.6,0.5,1.2,1.2,1.2c0.6,0,1-0.4,1.2-0.9h2.3c-0.3,1.7-1.7,3-3.4,3
		c-1.9,0-3.5-1.6-3.5-3.5v-1.7c0-1.9,1.6-3.5,3.5-3.5C754.3,627.7,755.8,629.3,755.8,631.2z M753.5,631c0-0.7-0.5-1.3-1.2-1.3
		c-0.7,0-1.2,0.6-1.2,1.3H753.5z"/>
	<path class="st5" d="M762,629.7c-0.2,0-0.4-0.1-0.6-0.1c-1.2,0-1.8,0.8-1.8,1.4v5.2h-2.3v-8.4h2.1v0.8c0.2-0.2,0.7-0.9,2.2-0.9
		c0.1,0,0.2,0,0.3,0V629.7z"/>
	<path class="st5" d="M765.1,633.6c0,0.6,0.2,0.7,0.5,0.7h0.9v2h-1.4c-1.6,0-2.2-1.1-2.2-2.5v-10.4h2.3V633.6z"/>
	<path class="st5" d="M774.1,631.2v1.7c0,1.9-1.6,3.5-3.5,3.5c-1.9,0-3.5-1.6-3.5-3.5v-1.7c0-1.9,1.6-3.5,3.5-3.5
		C772.5,627.7,774.1,629.3,774.1,631.2z M771.8,630.9c0-0.6-0.5-1.2-1.2-1.2c-0.7,0-1.2,0.5-1.2,1.2v2.2c0,0.6,0.5,1.2,1.2,1.2
		c0.6,0,1.2-0.5,1.2-1.2V630.9z"/>
	<path class="st5" d="M782.1,633.4c-0.2,1.7-1.7,3-3.4,3c-1.9,0-3.5-1.6-3.5-3.5v-1.7c0-1.9,1.6-3.5,3.5-3.5c1.7,0,3.2,1.3,3.4,2.9
		h-2.3c-0.1-0.5-0.6-0.9-1.1-0.9c-0.6,0-1.2,0.5-1.2,1.2v2.2c0,0.6,0.5,1.1,1.1,1.1c0.6,0,1.1-0.3,1.2-0.9H782.1z"/>
	<path class="st5" d="M789.7,631.5v4.8h-2.1v-0.7c-0.3,0.4-0.9,0.8-1.8,0.8c-1.5,0-3-1.1-3-2.9s1.5-2.7,3-2.7h1.7v-0.2
		c0-0.6-0.3-1-1-1c-0.7,0-0.9,0.3-1,0.6h-2.2c0.1-1.3,1.6-2.4,3.2-2.4C788.4,627.7,789.7,629.1,789.7,631.5z M787.4,632.6h-1.4
		c-0.7,0-1,0.4-1,1c0,0.5,0.3,1,1,1s1.4-0.5,1.4-1.1V632.6z"/>
	<path class="st5" d="M793.8,633.6c0,0.6,0.2,0.7,0.5,0.7h0.9v2h-1.4c-1.6,0-2.2-1.1-2.2-2.5v-10.4h2.3V633.6z"/>
	<path class="st5" d="M796.1,623.3h2.3v2.6h-2.3V623.3z M796.1,627.8h2.3v8.4h-2.3V627.8z"/>
	<path class="st5" d="M806.2,634.3v2h-6.5v-2c1.3-1.5,2.6-3,3.9-4.5h-3.8v-2h6.4v1.8c-1.3,1.6-2.7,3.1-4.1,4.7H806.2z"/>
	<path class="st5" d="M813.9,631.5v4.8h-2.1v-0.7c-0.3,0.4-0.9,0.8-1.8,0.8c-1.5,0-3-1.1-3-2.9s1.5-2.7,3-2.7h1.7v-0.2
		c0-0.6-0.3-1-1-1c-0.7,0-0.9,0.3-1,0.6h-2.2c0.1-1.3,1.6-2.4,3.2-2.4C812.6,627.7,813.9,629.1,813.9,631.5z M811.6,632.6h-1.4
		c-0.7,0-1,0.4-1,1c0,0.5,0.3,1,1,1s1.4-0.5,1.4-1.1V632.6z"/>
	<path class="st5" d="M818.3,628.8v4.6c0,0.6,0.2,1,0.6,1h1v1.9h-1.4c-1.9,0-2.5-1-2.5-2.6v-5H815V627h0.9v-2.6h2.3v2.6h1.6v1.8
		H818.3z"/>
	<path class="st5" d="M821.3,623.3h2.3v2.6h-2.3V623.3z M821.3,627.8h2.3v8.4h-2.3V627.8z"/>
	<path class="st5" d="M832.1,631.2v1.7c0,1.9-1.6,3.5-3.5,3.5c-1.9,0-3.5-1.6-3.5-3.5v-1.7c0-1.9,1.6-3.5,3.5-3.5
		C830.5,627.7,832.1,629.3,832.1,631.2z M829.8,630.9c0-0.6-0.5-1.2-1.2-1.2c-0.7,0-1.2,0.5-1.2,1.2v2.2c0,0.6,0.5,1.2,1.2,1.2
		c0.6,0,1.2-0.5,1.2-1.2V630.9z"/>
	<path class="st5" d="M840.6,631.1v5.2h-2.3V631c0-0.8-0.3-1.3-1-1.3c-0.6,0-1.4,0.5-1.4,1.1v5.4h-2.3v-8.4h2.1v0.7
		c0.3-0.4,0.9-0.8,1.8-0.8C839.4,627.7,840.6,629,840.6,631.1z"/>
</g>
<g>
	<path class="st5" d="M685.7,576h-3.1v10.7h-2.5V576h-3v-2.2h8.6V576z"/>
	<path class="st5" d="M691.1,580.2c-0.2,0-0.4-0.1-0.6-0.1c-1.2,0-1.8,0.8-1.8,1.4v5.2h-2.3v-8.4h2.1v0.8c0.2-0.2,0.7-0.9,2.2-0.9
		c0.1,0,0.2,0,0.3,0V580.2z"/>
	<path class="st5" d="M698.3,582v4.8h-2.1v-0.7c-0.3,0.4-0.9,0.8-1.8,0.8c-1.5,0-3-1.1-3-2.9s1.5-2.7,3-2.7h1.7v-0.2
		c0-0.6-0.3-1-1-1c-0.7,0-0.9,0.3-1,0.6h-2.2c0.1-1.3,1.6-2.4,3.2-2.4C696.9,578.2,698.3,579.6,698.3,582z M696,583.1h-1.4
		c-0.7,0-1,0.4-1,1c0,0.5,0.3,1,1,1s1.4-0.5,1.4-1.1V583.1z"/>
	<path class="st5" d="M706.5,583.9c-0.2,1.7-1.7,3-3.4,3c-1.9,0-3.5-1.6-3.5-3.5v-1.7c0-1.9,1.6-3.5,3.5-3.5c1.7,0,3.2,1.3,3.4,2.9
		h-2.3c-0.1-0.5-0.6-0.9-1.1-0.9c-0.6,0-1.2,0.5-1.2,1.2v2.2c0,0.6,0.5,1.1,1.1,1.1c0.6,0,1.1-0.3,1.2-0.9H706.5z"/>
	<path class="st5" d="M710.3,581.3h0.4l1.9-3h2.4l-2.5,3.9l3.1,4.5h-2.3l-2.3-3.4h-0.6v3.4H708v-12.9h2.3V581.3z"/>
	<path class="st5" d="M716.2,573.8h2.3v2.6h-2.3V573.8z M716.2,578.3h2.3v8.4h-2.3V578.3z"/>
	<path class="st5" d="M727.3,581.6v5.2H725v-5.3c0-0.8-0.3-1.3-1-1.3c-0.6,0-1.4,0.5-1.4,1.1v5.4h-2.3v-8.4h2.1v0.7
		c0.3-0.4,0.9-0.8,1.8-0.8C726.2,578.2,727.3,579.5,727.3,581.6z"/>
	<path class="st5" d="M735.8,578.3v8.9c0,0.3,0,0.6,0,0.9c-0.2,1.5-1.5,2.8-3.4,2.8c-2,0-3.2-1.3-3.3-2.9h2.2c0,0.4,0.5,0.9,1.2,0.9
		c0.7,0,1.2-0.6,1.2-1.1v-1.7c-0.3,0.4-0.9,0.7-1.7,0.7c-1.8,0-3-1.2-3-3.4v-1.9c0-2.1,1.2-3.4,3-3.4c0.9,0,1.6,0.5,1.8,0.8v-0.7
		H735.8z M733.5,581.4c0-0.6-0.7-1.1-1.4-1.1c-0.8,0-1,0.5-1,1.3v1.9c0,0.9,0.1,1.4,1,1.4c0.6,0,1.4-0.5,1.4-1.1V581.4z"/>
</g>
<g>
	<path class="st6" d="M592.4,162.4c-0.4,2-2.2,3.6-4.3,3.6c-2.4,0-4.4-2-4.4-4.4v-4.4c0-2.4,2-4.4,4.4-4.4c2.2,0,4.1,1.7,4.3,3.8
		H590c-0.1-0.9-0.9-1.6-1.9-1.6c-1,0-1.9,0.8-1.9,1.9v5c0,1,0.9,1.9,1.9,1.9c0.9,0,1.6-0.6,1.8-1.4H592.4z"/>
	<path class="st6" d="M600.3,160.8v1.7c0,1.9-1.6,3.5-3.5,3.5c-1.9,0-3.5-1.6-3.5-3.5v-1.7c0-1.9,1.6-3.5,3.5-3.5
		C598.7,157.3,600.3,158.9,600.3,160.8z M598,160.6c0-0.6-0.5-1.2-1.2-1.2c-0.7,0-1.2,0.5-1.2,1.2v2.2c0,0.6,0.5,1.2,1.2,1.2
		c0.6,0,1.2-0.5,1.2-1.2V160.6z"/>
	<path class="st6" d="M601.5,162.6v-1.9c0-2.1,1.2-3.4,3-3.4c0.9,0,1.5,0.4,1.7,0.8V153h2.2v12.9h-2.1v-0.7
		c-0.3,0.4-0.9,0.8-1.8,0.8C602.6,166,601.5,164.8,601.5,162.6z M603.8,160.8v1.9c0,0.8,0.3,1.2,1,1.2c0.6,0,1.3-0.5,1.3-1.1v-2.4
		c0-0.6-0.7-1.1-1.3-1.1C603.9,159.4,603.8,159.9,603.8,160.8z"/>
	<path class="st6" d="M616.9,160.8v1.2h-4.7v0.7c0,0.6,0.5,1.2,1.2,1.2c0.6,0,1-0.4,1.2-0.9h2.3c-0.3,1.7-1.7,3-3.4,3
		c-1.9,0-3.5-1.6-3.5-3.5v-1.7c0-1.9,1.6-3.5,3.5-3.5C615.4,157.3,616.9,158.9,616.9,160.8z M614.6,160.6c0-0.7-0.5-1.3-1.2-1.3
		c-0.7,0-1.2,0.6-1.2,1.3H614.6z"/>
	<path class="st6" d="M623.1,159.3c-0.2,0-0.4-0.1-0.6-0.1c-1.2,0-1.8,0.8-1.8,1.4v5.2h-2.3v-8.4h2.1v0.8c0.2-0.2,0.7-0.9,2.2-0.9
		c0.1,0,0.2,0,0.3,0V159.3z"/>
	<path class="st6" d="M629.9,163.3c0,1.7-1.3,2.7-3.3,2.7c-2,0-3.3-1.3-3.3-3.2h2.1c0,0.9,0.4,1.3,1.1,1.3c0.7,0,1.2-0.3,1.2-0.8
		c0-0.4-0.3-0.6-2-1.1c-1.9-0.5-2.3-1.4-2.3-2.5c0-1.1,0.9-2.4,3.1-2.4c2.2,0,3.2,1.4,3.2,3h-2.1c0-0.7-0.4-1.1-1.1-1.1
		c-0.6,0-1,0.2-1,0.6s0.4,0.7,1.7,1C628.8,161.3,629.9,161.8,629.9,163.3z"/>
</g>
<g>
	<path class="st8" d="M767.9,231.5v4.4c0,2.6-1.9,4.3-4.2,4.3h-4.6v-13h4.5C766,227.2,767.9,228.9,767.9,231.5z M765.4,231.2
		c0-1-0.7-1.8-1.8-1.8h-1.9v8.5h1.9c1,0,1.8-0.8,1.8-1.8V231.2z"/>
	<path class="st8" d="M776,235.1v1.7c0,1.9-1.6,3.5-3.5,3.5c-1.9,0-3.5-1.6-3.5-3.5v-1.7c0-1.9,1.6-3.5,3.5-3.5
		C774.4,231.6,776,233.2,776,235.1z M773.7,234.8c0-0.6-0.5-1.2-1.2-1.2c-0.7,0-1.2,0.5-1.2,1.2v2.2c0,0.6,0.5,1.2,1.2,1.2
		c0.6,0,1.2-0.5,1.2-1.2V234.8z"/>
	<path class="st8" d="M784,237.3c-0.2,1.7-1.7,3-3.4,3c-1.9,0-3.5-1.6-3.5-3.5v-1.7c0-1.9,1.6-3.5,3.5-3.5c1.7,0,3.2,1.3,3.4,2.9
		h-2.3c-0.1-0.5-0.6-0.9-1.1-0.9c-0.6,0-1.2,0.5-1.2,1.2v2.2c0,0.6,0.5,1.1,1.1,1.1c0.6,0,1.1-0.3,1.2-0.9H784z"/>
	<path class="st8" d="M787.8,234.7h0.4l1.9-3h2.4l-2.5,3.9l3.1,4.5h-2.3l-2.3-3.4h-0.6v3.4h-2.3v-12.9h2.3V234.7z"/>
	<path class="st8" d="M799.8,235.1v1.2h-4.7v0.7c0,0.6,0.5,1.2,1.2,1.2c0.6,0,1-0.4,1.2-0.9h2.3c-0.3,1.7-1.7,3-3.4,3
		c-1.9,0-3.5-1.6-3.5-3.5v-1.7c0-1.9,1.6-3.5,3.5-3.5C798.2,231.6,799.8,233.2,799.8,235.1z M797.5,234.9c0-0.7-0.5-1.3-1.2-1.3
		c-0.7,0-1.2,0.6-1.2,1.3H797.5z"/>
	<path class="st8" d="M806,233.6c-0.2,0-0.4-0.1-0.6-0.1c-1.2,0-1.8,0.8-1.8,1.4v5.2h-2.3v-8.4h2.1v0.8c0.2-0.2,0.7-0.9,2.2-0.9
		c0.1,0,0.2,0,0.3,0V233.6z"/>
</g>
<g>
	<path class="st8" d="M472.7,310.6c0,2.6-2.3,3.9-4.4,3.9c-2.1,0-4.4-1.2-4.4-4h2.6c0,1,0.6,1.8,1.9,1.8c1.3,0,1.9-0.8,1.9-1.7
		c0-0.8-0.4-1.3-2.3-1.8s-3.9-1.3-3.9-3.8c0-1.9,1.3-3.8,4.2-3.8s4.2,1.9,4.2,3.6h-2.6c0-0.7-0.5-1.4-1.7-1.4
		c-1.1,0-1.6,0.7-1.6,1.5c0,0.7,0.3,1.1,2.3,1.7C470.8,307.3,472.7,308,472.7,310.6z"/>
	<path class="st8" d="M480.8,309.4v1.2h-4.7v0.7c0,0.6,0.5,1.2,1.2,1.2c0.6,0,1-0.4,1.2-0.9h2.3c-0.3,1.7-1.7,3-3.4,3
		c-1.9,0-3.5-1.6-3.5-3.5v-1.7c0-1.9,1.6-3.5,3.5-3.5C479.3,305.9,480.8,307.5,480.8,309.4z M478.5,309.1c0-0.7-0.5-1.3-1.2-1.3
		c-0.7,0-1.2,0.6-1.2,1.3H478.5z"/>
	<path class="st8" d="M494.1,309.3v5.2h-2.3v-5.4c0-0.7-0.3-1.2-1.1-1.2c-0.6,0-1.4,0.6-1.4,1.2v5.3h-2.3v-5.4c0-0.7-0.2-1.2-1-1.2
		c-0.6,0-1.5,0.4-1.5,1.1v5.5h-2.3V306h2.1v0.7c0.3-0.4,1-0.8,1.9-0.8c0.9,0,1.7,0.4,2.2,1.1c0.6-0.7,1.4-1.1,2.4-1.1
		C492.7,305.9,494.1,306.9,494.1,309.3z"/>
	<path class="st8" d="M502.3,309.6v4.8h-2.1v-0.7c-0.3,0.4-0.9,0.8-1.8,0.8c-1.5,0-3-1.1-3-2.9s1.5-2.7,3-2.7h1.7v-0.2
		c0-0.6-0.3-1-1-1c-0.7,0-0.9,0.3-1,0.6h-2.2c0.1-1.3,1.6-2.4,3.2-2.4C500.9,305.9,502.3,307.2,502.3,309.6z M500,310.8h-1.4
		c-0.7,0-1,0.4-1,1c0,0.5,0.3,1,1,1s1.4-0.5,1.4-1.1V310.8z"/>
	<path class="st8" d="M511,309.3v5.2h-2.3v-5.3c0-0.8-0.3-1.3-1-1.3c-0.6,0-1.4,0.5-1.4,1.1v5.4h-2.3V306h2.1v0.7
		c0.3-0.4,0.9-0.8,1.8-0.8C509.9,305.9,511,307.1,511,309.3z"/>
	<path class="st8" d="M515.4,306.9v4.6c0,0.6,0.2,1,0.6,1h1v1.9h-1.4c-1.9,0-2.5-1-2.5-2.6v-5h-0.9v-1.8h0.9v-2.6h2.3v2.6h1.6v1.8
		H515.4z"/>
	<path class="st8" d="M518.4,301.5h2.3v2.6h-2.3V301.5z M518.4,306h2.3v8.4h-2.3V306z"/>
	<path class="st8" d="M529.1,311.6c-0.2,1.7-1.7,3-3.4,3c-1.9,0-3.5-1.6-3.5-3.5v-1.7c0-1.9,1.6-3.5,3.5-3.5c1.7,0,3.2,1.3,3.4,2.9
		h-2.3c-0.1-0.5-0.6-0.9-1.1-0.9c-0.6,0-1.2,0.5-1.2,1.2v2.2c0,0.6,0.5,1.1,1.1,1.1c0.6,0,1.1-0.3,1.2-0.9H529.1z"/>
	<path class="st8" d="M544,311.5h-3.9l-0.8,2.9h-2.3l3.9-13h2.5l3.8,13h-2.3L544,311.5z M543.3,309.2l-1.3-4.4l-1.3,4.4H543.3z"/>
	<path class="st8" d="M554.8,309.3v5.2h-2.3v-5.3c0-0.8-0.3-1.3-1-1.3c-0.6,0-1.4,0.5-1.4,1.1v5.4h-2.3V306h2.1v0.7
		c0.3-0.4,0.9-0.8,1.8-0.8C553.7,305.9,554.8,307.1,554.8,309.3z"/>
	<path class="st8" d="M563,309.6v4.8h-2.1v-0.7c-0.3,0.4-0.9,0.8-1.8,0.8c-1.5,0-3-1.1-3-2.9s1.5-2.7,3-2.7h1.7v-0.2
		c0-0.6-0.3-1-1-1c-0.7,0-0.9,0.3-1,0.6h-2.2c0.1-1.3,1.6-2.4,3.2-2.4C561.6,305.9,563,307.2,563,309.6z M560.7,310.8h-1.4
		c-0.7,0-1,0.4-1,1c0,0.5,0.3,1,1,1s1.4-0.5,1.4-1.1V310.8z"/>
	<path class="st8" d="M567,311.8c0,0.6,0.2,0.7,0.5,0.7h0.9v2H567c-1.6,0-2.2-1.1-2.2-2.5v-10.4h2.3V311.8z"/>
	<path class="st8" d="M576,306l-3.9,12.5h-2l1.1-3.6l-2.9-8.9h2.2l1.7,5.7c0.6-1.9,1.1-3.8,1.7-5.7H576z"/>
	<path class="st8" d="M582.7,311.9c0,1.7-1.3,2.7-3.3,2.7c-2,0-3.3-1.3-3.3-3.2h2.1c0,0.9,0.4,1.3,1.1,1.3c0.7,0,1.2-0.3,1.2-0.8
		c0-0.4-0.3-0.6-2-1.1c-1.9-0.5-2.3-1.4-2.3-2.5c0-1.1,0.9-2.4,3.1-2.4c2.2,0,3.2,1.4,3.2,3h-2.1c0-0.7-0.4-1.1-1.1-1.1
		c-0.6,0-1,0.2-1,0.6s0.4,0.7,1.7,1C581.5,309.8,582.7,310.3,582.7,311.9z"/>
	<path class="st8" d="M584,301.5h2.3v2.6H584V301.5z M584,306h2.3v8.4H584V306z"/>
	<path class="st8" d="M594.1,311.9c0,1.7-1.3,2.7-3.3,2.7c-2,0-3.3-1.3-3.3-3.2h2.1c0,0.9,0.4,1.3,1.1,1.3c0.7,0,1.2-0.3,1.2-0.8
		c0-0.4-0.3-0.6-2-1.1c-1.9-0.5-2.3-1.4-2.3-2.5c0-1.1,0.9-2.4,3.1-2.4c2.2,0,3.2,1.4,3.2,3h-2.1c0-0.7-0.4-1.1-1.1-1.1
		c-0.6,0-1,0.2-1,0.6s0.4,0.7,1.7,1C593,309.8,594.1,310.3,594.1,311.9z"/>
</g>
<g>
	<path class="st9" d="M640.9,388.7c-0.6-1.4-1.2-2.9-1.8-4.3c-0.1,0-0.2,0-0.3,0H637v4.3h-2.5v-13h4.4c2.2,0,3.9,1.6,3.9,3.5v1.6
		c0,1.1-0.6,2.1-1.5,2.8l2.1,5H640.9z M640.2,380.8v-1.5c0-0.6-0.5-1.3-1.5-1.3H637v4h1.8C639.7,382.1,640.2,381.4,640.2,380.8z"/>
	<path class="st9" d="M650.7,383.6v1.2H646v0.7c0,0.6,0.5,1.2,1.2,1.2c0.6,0,1-0.4,1.2-0.9h2.3c-0.3,1.7-1.7,3-3.4,3
		c-1.9,0-3.5-1.6-3.5-3.5v-1.7c0-1.9,1.6-3.5,3.5-3.5C649.1,380.2,650.7,381.7,650.7,383.6z M648.4,383.4c0-0.7-0.5-1.3-1.2-1.3
		c-0.7,0-1.2,0.6-1.2,1.3H648.4z"/>
	<path class="st9" d="M658.5,383.9v4.8h-2.1V388c-0.3,0.4-0.9,0.8-1.8,0.8c-1.5,0-3-1.1-3-2.9s1.5-2.7,3-2.7h1.7V383
		c0-0.6-0.3-1-1-1c-0.7,0-0.9,0.3-1,0.6H652c0.1-1.3,1.6-2.4,3.2-2.4C657.2,380.2,658.5,381.5,658.5,383.9z M656.2,385.1h-1.4
		c-0.7,0-1,0.4-1,1c0,0.5,0.3,1,1,1s1.4-0.5,1.4-1.1V385.1z"/>
	<path class="st9" d="M666.8,385.9c-0.2,1.7-1.7,3-3.4,3c-1.9,0-3.5-1.6-3.5-3.5v-1.7c0-1.9,1.6-3.5,3.5-3.5c1.7,0,3.2,1.3,3.4,2.9
		h-2.3c-0.1-0.5-0.6-0.9-1.1-0.9c-0.6,0-1.2,0.5-1.2,1.2v2.2c0,0.6,0.5,1.1,1.1,1.1c0.6,0,1.1-0.3,1.2-0.9H666.8z"/>
	<path class="st9" d="M670.8,381.2v4.6c0,0.6,0.2,1,0.6,1h1v1.9h-1.4c-1.9,0-2.5-1-2.5-2.6v-5h-0.9v-1.8h0.9v-2.6h2.3v2.6h1.6v1.8
		H670.8z"/>
	<path class="st9" d="M673.6,388.7v-2.5h2.5v2.5H673.6z"/>
	<path class="st9" d="M683.7,385.1c0,2.5-1.7,3.7-3.8,3.7c-1.3,0-2.2-0.4-3.1-1.4l1.8-1.7c0.3,0.5,0.6,0.7,1.3,0.7
		c0.7,0,1.3-0.5,1.3-1.7v-9h2.5C683.7,375.8,683.7,384.5,683.7,385.1z"/>
	<path class="st9" d="M693.8,384.9c0,2.6-2.3,3.9-4.4,3.9c-2.1,0-4.4-1.2-4.4-4h2.6c0,1,0.6,1.8,1.9,1.8c1.3,0,1.9-0.8,1.9-1.7
		c0-0.8-0.4-1.3-2.3-1.8s-3.9-1.3-3.9-3.8c0-1.9,1.3-3.8,4.2-3.8c2.9,0,4.2,1.9,4.2,3.6H691c0-0.7-0.5-1.4-1.7-1.4
		c-1.1,0-1.6,0.7-1.6,1.5c0,0.7,0.3,1.1,2.3,1.7C691.9,381.6,693.8,382.2,693.8,384.9z"/>
</g>
<g>
	<path class="st9" d="M900.7,404v2.5c0,1.8-1.6,3.5-3.9,3.5h-1.9v3.5h-2.5v-13h4.4C899,400.5,900.7,402.1,900.7,404z M898.1,404.1
		c0-0.6-0.5-1.3-1.5-1.3h-1.8v4.9h1.8c1,0,1.5-0.7,1.5-1.3V404.1z"/>
	<path class="st9" d="M906.6,406.9c-0.2,0-0.4-0.1-0.6-0.1c-1.2,0-1.8,0.8-1.8,1.4v5.2h-2.3V405h2.1v0.8c0.2-0.2,0.7-0.9,2.2-0.9
		c0.1,0,0.2,0,0.3,0V406.9z"/>
	<path class="st9" d="M913.9,408.4v1.2h-4.7v0.7c0,0.6,0.5,1.2,1.2,1.2c0.6,0,1-0.4,1.2-0.9h2.3c-0.3,1.7-1.7,3-3.4,3
		c-1.9,0-3.5-1.6-3.5-3.5v-1.7c0-1.9,1.6-3.5,3.5-3.5C912.3,404.9,913.9,406.5,913.9,408.4z M911.6,408.2c0-0.7-0.5-1.3-1.2-1.3
		c-0.7,0-1.2,0.6-1.2,1.3H911.6z"/>
	<path class="st9" d="M921.3,411.5v2h-6.5v-2c1.3-1.5,2.6-3,3.9-4.5h-3.8v-2h6.4v1.8c-1.3,1.6-2.7,3.1-4.1,4.7H921.3z"/>
	<path class="st9" d="M922.7,400.5h2.3v2.6h-2.3V400.5z M922.7,405h2.3v8.4h-2.3V405z"/>
</g>
</svg>
