<?xml version="1.0" encoding="utf-8"?>
<!-- Generator: Adobe Illustrator 19.2.0, SVG Export Plug-In . SVG Version: 6.00 Build 0)  -->
<svg version="1.1" id="Ebene_1" xmlns="http://www.w3.org/2000/svg" xmlns:xlink="http://www.w3.org/1999/xlink" x="0px" y="0px"
	 viewBox="0 0 1440 1120.9" style="enable-background:new 0 0 1440 1120.9;" xml:space="preserve">
<style type="text/css">
	.st0{clip-path:url(#SVGID_2_);}
	.st1{opacity:0.7;}
	.st2{opacity:0.3;}
	.st3{fill:#FFFFFF;}
	.st4{fill:#953C9C;}
	.st5{fill:#009CE2;}
	.st6{fill:#FDBB00;}
	.st7{fill:#65BC2C;}
	.st8{fill:#F68600;}
	.st9{fill:#E03E3B;}
</style>
<g>
	<g>
		<path class="st3" d="M107.2,263.8c0-5.4,1.4-10.3,3.8-14c2.5-3.5,6-6,10-6c4.1,0,7.6,2.5,10,6c2.4,3.7,3.9,8.6,3.9,14
			s-1.5,10.3-3.9,14c-2.5,3.6-6,6.1-10,6.1c-4.1,0-7.6-2.5-10-6.1C108.6,274.1,107.2,269.2,107.2,263.8z M110,263.8
			c0,4.9,1.3,9.3,3.4,12.4c2.1,3,4.8,4.8,7.7,4.8s5.6-1.8,7.7-4.8c2.1-3.1,3.4-7.5,3.4-12.4s-1.4-9.3-3.4-12.4
			c-2.1-3.1-4.8-4.8-7.7-4.8s-5.6,1.7-7.7,4.8C111.3,254.5,110,258.9,110,263.8z"/>
		<path class="st3" d="M151.5,247.8l-5.7,3.3c-0.2,0.1-0.5,0.2-0.7,0.2c-0.5,0-1-0.3-1.2-0.7c-0.4-0.7-0.2-1.5,0.5-1.9l7.7-4.7
			c0.6-0.3,1.5-0.1,1.9,0.5c0.2,0.3,0.2,0.7,0.2,1v36.8c0,0.7-0.6,1.4-1.4,1.4c-0.7,0-1.4-0.6-1.4-1.4V247.8z"/>
		<path class="st3" d="M166.6,278.1c1.6,0,2.9,1.3,2.9,2.9s-1.3,2.9-2.9,2.9c-1.6,0-2.9-1.3-2.9-2.9S165,278.1,166.6,278.1z"/>
		<path class="st3" d="M174,263.9c0-0.6,0.5-1,1.1-1h12.2c0.6,0,1.1,0.4,1.1,1c0,0.7-0.5,1.1-1.1,1.1h-12.2
			C174.4,265.1,174,264.6,174,263.9z"/>
		<path class="st3" d="M195.3,263.8c0-5.4,1.4-10.3,3.8-14c2.5-3.5,6-6,10-6c4.1,0,7.6,2.5,10,6c2.4,3.7,3.9,8.6,3.9,14
			s-1.5,10.3-3.9,14c-2.5,3.6-6,6.1-10,6.1c-4.1,0-7.6-2.5-10-6.1C196.6,274.1,195.3,269.2,195.3,263.8z M198.1,263.8
			c0,4.9,1.3,9.3,3.4,12.4c2.1,3,4.8,4.8,7.7,4.8s5.6-1.8,7.7-4.8c2.1-3.1,3.4-7.5,3.4-12.4s-1.4-9.3-3.4-12.4
			c-2.1-3.1-4.8-4.8-7.7-4.8s-5.6,1.7-7.7,4.8C199.4,254.5,198.1,258.9,198.1,263.8z"/>
		<path class="st3" d="M257,246.3l-10.4,10.6c2.5,0.5,4.9,1.7,6.9,3.7c2.6,2.6,4,6.1,4,9.6c0,3.5-1.3,7-4,9.6c-2.6,2.6-6.1,4-9.6,4
			c-3.4,0-6.9-1.3-9.6-4c-0.6-0.5-0.6-1.4,0-2c0.5-0.6,1.4-0.6,2,0c2.1,2.1,4.8,3.1,7.6,3.1s5.5-1,7.6-3.1c2.1-2.1,3.1-4.9,3.1-7.6
			s-1-5.5-3.1-7.6c-2.1-2.1-4.8-3.1-7.6-3.1c-0.5,0-0.9-0.2-1.1-0.6h-0.1c-0.6-0.6-0.6-1.5,0-2.1l10-10.2h-15.3
			c-0.8,0-1.4-0.6-1.4-1.4s0.6-1.4,1.4-1.4H256c0.8,0,1.4,0.6,1.4,1.4c0,0.2-0.1,0.5-0.2,0.6C257.2,246,257.1,246.2,257,246.3z"/>
		<path class="st3" d="M270.1,278.1c1.6,0,2.9,1.3,2.9,2.9s-1.3,2.9-2.9,2.9c-1.6,0-2.9-1.3-2.9-2.9S268.5,278.1,270.1,278.1z"/>
		<path class="st3" d="M131.4,325.3h-18.3l-3.5,9.4c-0.2,0.6-0.7,0.9-1.3,0.9c-0.1,0-0.3-0.1-0.5-0.1c-0.7-0.3-1.1-1.1-0.8-1.8
			l13.9-37.2c0.2-0.5,0.8-0.9,1.4-0.9c0.6,0,1.2,0.3,1.4,0.9l13.9,37.2c0.3,0.7-0.1,1.5-0.7,1.8c-0.2,0-0.3,0.1-0.5,0.1
			c-0.5,0-1.1-0.3-1.3-0.9L131.4,325.3z M114.2,322.5h16.2l-8.1-21.5L114.2,322.5z"/>
		<path class="st3" d="M143.9,322.1v-0.6v-0.6v-12c0-0.7,0.6-1.4,1.4-1.4c0.8,0,1.4,0.6,1.4,1.4v4.1c2.4-3.3,6.3-5.4,10.6-5.4
			c7.6,0,13.6,6.2,13.6,13.9c0,7.6-6,14-13.6,14c-4.4,0-8.2-2.2-10.6-5.5v16c0,0.7-0.6,1.4-1.4,1.4c-0.7,0-1.4-0.6-1.4-1.4V322.1z
			 M146.7,321.5c0,6.2,4.9,11.2,10.6,11.2c6-0.1,10.8-5,10.8-11.2s-4.8-11.1-10.8-11.1c-5.7,0-10.4,4.7-10.6,10.6V321.5z"/>
		<path class="st3" d="M179.6,309c0-0.8,0.6-1.4,1.4-1.4c0.7,0,1.3,0.6,1.3,1.4v6.2c0.1-0.2,0.2-0.5,0.4-0.7
			c2.1-3.3,5.8-6.9,11.2-6.9c0.7,0,1.4,0.6,1.4,1.4c0,0.7-0.6,1.4-1.4,1.4c-3.7,0-6.2,2.1-8.1,4.6c-1.9,2.5-3,5.4-3.4,6.5
			c-0.1,0.2-0.1,0.3-0.1,0.5v12.3c0,0.8-0.6,1.4-1.3,1.4c-0.8,0-1.4-0.6-1.4-1.4V309z"/>
		<path class="st3" d="M202.8,299.8c0-0.7,0.6-1.4,1.4-1.4c0.8,0,1.4,0.6,1.4,1.4v1.3c0,0.8-0.6,1.5-1.4,1.5c-0.7,0-1.4-0.7-1.4-1.5
			V299.8z M202.8,309c0-0.8,0.6-1.4,1.4-1.4c0.8,0,1.4,0.6,1.4,1.4v25.3c0,0.7-0.6,1.4-1.4,1.4c-0.7,0-1.4-0.6-1.4-1.4V309z"/>
		<path class="st3" d="M216.1,296.9c0-0.7,0.6-1.4,1.4-1.4c0.8,0,1.4,0.6,1.4,1.4v37.3c0,0.7-0.6,1.4-1.4,1.4
			c-0.7,0-1.4-0.6-1.4-1.4V296.9z"/>
		<path class="st3" d="M240.8,333.2l18.7-16.9c2.2-2.1,3.4-4.8,3.4-7.7c0-2.5-0.9-4.9-2.7-6.9c-2-2.2-4.8-3.4-7.6-3.4
			c-2.5,0-5,0.9-7,2.6l-1.9,1.8c-0.6,0.6-1.5,0.5-1.9-0.1c-0.6-0.6-0.5-1.5,0.1-1.9l1.9-1.8c2.5-2.2,5.7-3.4,8.9-3.4
			c3.5,0,7,1.4,9.6,4.3c2.3,2.5,3.4,5.7,3.4,8.8c0,3.5-1.4,7.1-4.3,9.7l-16,14.5h18.9c0.7,0,1.4,0.6,1.4,1.4c0,0.7-0.6,1.4-1.4,1.4
			H242h-0.2c-0.4,0-0.8-0.1-1-0.4C240.3,334.6,240.3,333.8,240.8,333.2z"/>
		<path class="st3" d="M273.3,315.6c0-5.4,1.4-10.3,3.8-14c2.5-3.5,6-6,10-6c4.1,0,7.6,2.5,10,6c2.4,3.7,3.9,8.6,3.9,14
			s-1.5,10.3-3.9,14c-2.5,3.6-6,6.1-10,6.1c-4.1,0-7.6-2.5-10-6.1C274.6,325.9,273.3,321,273.3,315.6z M276.1,315.6
			c0,4.9,1.3,9.3,3.4,12.4c2.1,3,4.8,4.8,7.7,4.8c2.9,0,5.6-1.8,7.7-4.8c2.1-3.1,3.4-7.5,3.4-12.4s-1.4-9.3-3.4-12.4
			c-2.1-3.1-4.8-4.8-7.7-4.8c-2.9,0-5.6,1.7-7.7,4.8C277.4,306.3,276.1,310.7,276.1,315.6z"/>
		<path class="st3" d="M317.6,299.6l-5.7,3.3c-0.2,0.1-0.5,0.2-0.7,0.2c-0.5,0-1-0.3-1.2-0.7c-0.4-0.7-0.2-1.5,0.5-1.9l7.7-4.7
			c0.6-0.3,1.5-0.1,1.9,0.5c0.2,0.3,0.2,0.7,0.2,1v36.8c0,0.7-0.6,1.4-1.4,1.4c-0.7,0-1.4-0.6-1.4-1.4V299.6z"/>
		<path class="st3" d="M332.6,304.3c2.7-4.9,7.4-8.5,14-8.7c0.7-0.1,1.4,0.6,1.4,1.3c0,0.8-0.6,1.4-1.4,1.5
			c-5.6,0.2-9.2,3.1-11.7,7.3c-1.4,2.3-2.3,5.2-2.9,8c2.4-2.7,6-4.5,9.9-4.5c7.4,0,13.3,6,13.3,13.2c0,7.3-5.9,13.2-13.3,13.2
			c-7.2,0-13-5.7-13.2-12.8c-0.1-0.9-0.1-1.7-0.1-2.6C328.8,314.9,329.9,309.1,332.6,304.3z M331.7,322.7c0,0.3,0.1,0.5,0.1,0.7
			c0,0.2,0,0.3-0.1,0.4c0.7,5.1,5.1,9,10.4,9c5.8,0,10.5-4.7,10.5-10.4s-4.7-10.4-10.5-10.4c-5.7,0-10.4,4.7-10.4,10.4V322.7z"/>
	</g>
</g>
<g>
	<g>
		<path class="st3" d="M86.4,194.1c1.7,0.6,4.7,1.9,4.7,6.9v12.4c0,2.3,0.3,3.6,1.1,4.4c0.7,0.8,1.9,1,3.9,1h3.8v8.2h-7.3
			c-3.6,0-6-0.9-7.8-2.6c-2.1-2.1-2.9-4.5-2.9-7.6c0,0,0-11.4,0-13.2c0-1.9-0.4-3.2-1.2-4c-0.8-0.8-1.9-1.3-3.6-1.3h-3.3V190h3.3
			c1.6,0,2.7-0.5,3.6-1.2c0.8-0.8,1.2-2.2,1.2-4.1v-13.3c0-3.1,0.8-5.6,2.9-7.6c1.7-1.7,4.2-2.6,7.8-2.6h7.3v8.2h-3.8
			c-2.1,0-3.2,0.2-3.9,1c-0.8,0.8-1.1,2.1-1.1,4.4v12.6C91.1,192.2,88.1,193.4,86.4,194.1z"/>
	</g>
</g>
<g>
	<g>
		<path class="st3" d="M286.7,174.7c0-2.3-0.3-3.6-1.1-4.4c-0.7-0.8-1.9-1-3.9-1h-3.8v-8.2h7.3c3.6,0,6,0.9,7.8,2.6
			c2.1,2.1,2.9,4.5,2.9,7.6v13.3c0,1.9,0.3,3.3,1.2,4.1c0.8,0.8,1.9,1.2,3.6,1.2h3.3v8.2h-3.3c-1.6,0-2.7,0.5-3.6,1.3
			c-0.8,0.8-1.2,2.1-1.2,4c0,1.8,0,13.2,0,13.2c0,3.1-0.8,5.6-2.9,7.6c-1.7,1.7-4.2,2.6-7.8,2.6h-7.3v-8.2h3.8c2.1,0,3.2-0.2,3.9-1
			c0.8-0.8,1.1-2.1,1.1-4.4V201c0-5,3-6.3,4.7-6.9c-1.7-0.7-4.7-1.9-4.7-6.9V174.7z"/>
	</g>
</g>
<g>
	<path class="st3" d="M138,198.2V220h-9.8v-22.3c0-3-0.9-5.3-4.2-5.3c-2.8,0-5.8,2.1-5.8,4.8V220h-9.7v-54.8h9.4v21.8
		c1.2-1.6,3.7-3.2,7.4-3.2C133,183.8,138,189.1,138,198.2z"/>
	<path class="st3" d="M172.5,199.7V220h-9.1v-2.8c-1.2,1.5-3.7,3.3-7.8,3.3c-6.4,0-12.6-4.5-12.6-12.2s6.3-11.5,12.6-11.5h7.1v-0.7
		c0-2.6-1.4-4.4-4.3-4.4c-2.8,0-4,1.2-4.1,2.4h-9.5c0.5-5.7,6.6-10.2,13.3-10.2C166.8,183.8,172.5,189.6,172.5,199.7z M162.7,204.6
		h-5.8c-2.8,0-4.2,1.8-4.2,4.1c0,2.2,1.4,4.1,4.2,4.1c2.8,0,5.8-2.1,5.8-4.8V204.6z"/>
	<path class="st3" d="M207.4,207.9c-0.9,7.1-7,12.5-14.4,12.5c-8.1,0-14.8-6.6-14.8-14.7v-7.2c0-8.1,6.7-14.7,14.8-14.7
		c7.3,0,13.4,5.4,14.3,12.4h-9.7c-0.3-2.1-2.4-3.8-4.7-3.8c-2.7,0-4.9,2.3-4.9,5v9.5c0,2.7,2.1,4.8,4.7,4.8c2.4,0,4.6-1.4,4.9-3.8
		H207.4z"/>
	<path class="st3" d="M223.4,197h1.6l8.2-12.7h10l-10.7,16.6l12.9,19.1h-9.8l-9.8-14.4h-2.4V220h-9.7v-54.8h9.7V197z"/>
	<path class="st3" d="M273.5,209.1c0,7.1-5.4,11.4-13.8,11.4c-8.3,0-13.9-5.4-13.9-13.6h9c0,3.6,1.8,5.6,4.8,5.6
		c3,0,4.9-1.4,4.9-3.4c0-1.8-1.2-2.7-8.3-4.5c-8.2-2.1-9.8-6.1-9.8-10.6c0-4.5,3.6-10.2,13.2-10.2c9.5,0,13.5,5.8,13.5,12.7h-9.1
		c-0.1-3-1.7-4.7-4.5-4.7c-2.7,0-4.2,1-4.2,2.7c0,1.8,1.6,2.9,7.1,4.3C268.8,200.4,273.5,202.7,273.5,209.1z"/>
</g>
<g>
	<path class="st3" d="M124.8,133.5h-6.6v28.7h-9.8v-28.7h-4V126h4v-7.9c0-6.5,2.6-10.9,10.4-10.9h6v8.2h-4c-1.7,0-2.6,1.6-2.6,4.3
		v6.3h6.6V133.5z"/>
	<path class="st3" d="M156,140.7v7.2c0,8.1-6.7,14.7-14.8,14.7c-8.1,0-14.7-6.6-14.7-14.7v-7.2c0-8.1,6.6-14.8,14.7-14.8
		C149.3,126,156,132.6,156,140.7z M146.2,139.6c0-2.7-2.3-5-5-5c-2.7,0-5,2.3-5,5v9.5c0,2.7,2.3,5,5,5c2.7,0,5-2.3,5-5V139.6z"/>
	<path class="st3" d="M189.6,140.7v7.2c0,8.1-6.7,14.7-14.8,14.7c-8.1,0-14.7-6.6-14.7-14.7v-7.2c0-8.1,6.6-14.8,14.7-14.8
		C183,126,189.6,132.6,189.6,140.7z M179.9,139.6c0-2.7-2.3-5-5-5c-2.7,0-5,2.3-5,5v9.5c0,2.7,2.3,5,5,5c2.7,0,5-2.3,5-5V139.6z"/>
	<path class="st3" d="M193.8,148.3v-8c0-9.1,4.9-14.4,12.7-14.4c3.7,0,6.2,1.6,7.4,3.2v-21.8h9.4v54.8h-9v-2.8
		c-1.2,1.5-3.7,3.3-7.8,3.3C198.7,162.7,193.8,157.4,193.8,148.3z M203.4,140.7v8.1c0,3.2,1.1,5.2,4.3,5.2c2.7,0,5.7-2.1,5.7-4.7
		v-10c0-2.7-3-4.8-5.7-4.8C204.1,134.6,203.4,137,203.4,140.7z"/>
</g>
</svg>
