<?xml version="1.0" encoding="utf-8"?>
<!-- Generator: Adobe Illustrator 19.2.0, SVG Export Plug-In . SVG Version: 6.00 Build 0)  -->
<svg version="1.1" id="Ebene_1" xmlns="http://www.w3.org/2000/svg" xmlns:xlink="http://www.w3.org/1999/xlink" x="0px" y="0px"
	 viewBox="0 0 1440 1120.9" style="enable-background:new 0 0 1440 1120.9;" xml:space="preserve">
<style type="text/css">
	.st0{fill:#FFFFFF;}
	.st1{fill:#87AC2D;}
	.st2{fill:#0E1020;}
	.st3{fill:#FDFDFC;}
</style>
<g>
	<g>
		<path class="st0" d="M107.2,263.8c0-5.4,1.4-10.3,3.8-14c2.5-3.5,6-6,10-6c4.1,0,7.6,2.5,10,6c2.4,3.7,3.9,8.6,3.9,14
			s-1.5,10.3-3.9,14c-2.5,3.6-6,6.1-10,6.1c-4.1,0-7.6-2.5-10-6.1C108.6,274.1,107.2,269.2,107.2,263.8z M110,263.8
			c0,4.9,1.3,9.3,3.4,12.4c2.1,3,4.8,4.8,7.7,4.8s5.6-1.8,7.7-4.8c2.1-3.1,3.4-7.5,3.4-12.4s-1.4-9.3-3.4-12.4
			c-2.1-3.1-4.8-4.8-7.7-4.8s-5.6,1.7-7.7,4.8C111.3,254.5,110,258.9,110,263.8z"/>
		<path class="st0" d="M151.5,247.8l-5.7,3.3c-0.2,0.1-0.5,0.2-0.7,0.2c-0.5,0-1-0.3-1.2-0.7c-0.4-0.7-0.2-1.5,0.5-1.9l7.7-4.7
			c0.6-0.3,1.5-0.1,1.9,0.5c0.2,0.3,0.2,0.7,0.2,1v36.8c0,0.7-0.6,1.4-1.4,1.4c-0.7,0-1.4-0.6-1.4-1.4L151.5,247.8L151.5,247.8z"/>
		<path class="st0" d="M166.6,278.1c1.6,0,2.9,1.3,2.9,2.9s-1.3,2.9-2.9,2.9c-1.6,0-2.9-1.3-2.9-2.9S165,278.1,166.6,278.1z"/>
		<path class="st0" d="M174,263.9c0-0.6,0.5-1,1.1-1h12.2c0.6,0,1.1,0.4,1.1,1c0,0.7-0.5,1.1-1.1,1.1h-12.2
			C174.4,265.1,174,264.6,174,263.9z"/>
		<path class="st0" d="M195.3,263.8c0-5.4,1.4-10.3,3.8-14c2.5-3.5,6-6,10-6c4.1,0,7.6,2.5,10,6c2.4,3.7,3.9,8.6,3.9,14
			s-1.5,10.3-3.9,14c-2.5,3.6-6,6.1-10,6.1c-4.1,0-7.6-2.5-10-6.1C196.6,274.1,195.3,269.2,195.3,263.8z M198.1,263.8
			c0,4.9,1.3,9.3,3.4,12.4c2.1,3,4.8,4.8,7.7,4.8s5.6-1.8,7.7-4.8c2.1-3.1,3.4-7.5,3.4-12.4s-1.4-9.3-3.4-12.4
			c-2.1-3.1-4.8-4.8-7.7-4.8s-5.6,1.7-7.7,4.8C199.4,254.5,198.1,258.9,198.1,263.8z"/>
		<path class="st0" d="M257,246.3l-10.4,10.6c2.5,0.5,4.9,1.7,6.9,3.7c2.6,2.6,4,6.1,4,9.6s-1.3,7-4,9.6c-2.6,2.6-6.1,4-9.6,4
			c-3.4,0-6.9-1.3-9.6-4c-0.6-0.5-0.6-1.4,0-2c0.5-0.6,1.4-0.6,2,0c2.1,2.1,4.8,3.1,7.6,3.1s5.5-1,7.6-3.1s3.1-4.9,3.1-7.6
			s-1-5.5-3.1-7.6s-4.8-3.1-7.6-3.1c-0.5,0-0.9-0.2-1.1-0.6h-0.1c-0.6-0.6-0.6-1.5,0-2.1l10-10.2h-15.3c-0.8,0-1.4-0.6-1.4-1.4
			s0.6-1.4,1.4-1.4H256c0.8,0,1.4,0.6,1.4,1.4c0,0.2-0.1,0.5-0.2,0.6C257.2,246,257.1,246.2,257,246.3z"/>
		<path class="st0" d="M270.1,278.1c1.6,0,2.9,1.3,2.9,2.9s-1.3,2.9-2.9,2.9s-2.9-1.3-2.9-2.9S268.5,278.1,270.1,278.1z"/>
		<path class="st0" d="M131.4,325.3h-18.3l-3.5,9.4c-0.2,0.6-0.7,0.9-1.3,0.9c-0.1,0-0.3-0.1-0.5-0.1c-0.7-0.3-1.1-1.1-0.8-1.8
			l13.9-37.2c0.2-0.5,0.8-0.9,1.4-0.9s1.2,0.3,1.4,0.9l13.9,37.2c0.3,0.7-0.1,1.5-0.7,1.8c-0.2,0-0.3,0.1-0.5,0.1
			c-0.5,0-1.1-0.3-1.3-0.9L131.4,325.3z M114.2,322.5h16.2l-8.1-21.5L114.2,322.5z"/>
		<path class="st0" d="M143.9,322.1v-0.6v-0.6v-12c0-0.7,0.6-1.4,1.4-1.4c0.8,0,1.4,0.6,1.4,1.4v4.1c2.4-3.3,6.3-5.4,10.6-5.4
			c7.6,0,13.6,6.2,13.6,13.9c0,7.6-6,14-13.6,14c-4.4,0-8.2-2.2-10.6-5.5v16c0,0.7-0.6,1.4-1.4,1.4c-0.7,0-1.4-0.6-1.4-1.4V322.1z
			 M146.7,321.5c0,6.2,4.9,11.2,10.6,11.2c6-0.1,10.8-5,10.8-11.2s-4.8-11.1-10.8-11.1c-5.7,0-10.4,4.7-10.6,10.6V321.5z"/>
		<path class="st0" d="M179.6,309c0-0.8,0.6-1.4,1.4-1.4c0.7,0,1.3,0.6,1.3,1.4v6.2c0.1-0.2,0.2-0.5,0.4-0.7
			c2.1-3.3,5.8-6.9,11.2-6.9c0.7,0,1.4,0.6,1.4,1.4c0,0.7-0.6,1.4-1.4,1.4c-3.7,0-6.2,2.1-8.1,4.6c-1.9,2.5-3,5.4-3.4,6.5
			c-0.1,0.2-0.1,0.3-0.1,0.5v12.3c0,0.8-0.6,1.4-1.3,1.4c-0.8,0-1.4-0.6-1.4-1.4L179.6,309L179.6,309z"/>
		<path class="st0" d="M202.8,299.8c0-0.7,0.6-1.4,1.4-1.4c0.8,0,1.4,0.6,1.4,1.4v1.3c0,0.8-0.6,1.5-1.4,1.5c-0.7,0-1.4-0.7-1.4-1.5
			V299.8z M202.8,309c0-0.8,0.6-1.4,1.4-1.4c0.8,0,1.4,0.6,1.4,1.4v25.3c0,0.7-0.6,1.4-1.4,1.4c-0.7,0-1.4-0.6-1.4-1.4V309z"/>
		<path class="st0" d="M216.1,296.9c0-0.7,0.6-1.4,1.4-1.4c0.8,0,1.4,0.6,1.4,1.4v37.3c0,0.7-0.6,1.4-1.4,1.4
			c-0.7,0-1.4-0.6-1.4-1.4V296.9z"/>
		<path class="st0" d="M240.8,333.2l18.7-16.9c2.2-2.1,3.4-4.8,3.4-7.7c0-2.5-0.9-4.9-2.7-6.9c-2-2.2-4.8-3.4-7.6-3.4
			c-2.5,0-5,0.9-7,2.6l-1.9,1.8c-0.6,0.6-1.5,0.5-1.9-0.1c-0.6-0.6-0.5-1.5,0.1-1.9l1.9-1.8c2.5-2.2,5.7-3.4,8.9-3.4
			c3.5,0,7,1.4,9.6,4.3c2.3,2.5,3.4,5.7,3.4,8.8c0,3.5-1.4,7.1-4.3,9.7l-16,14.5h18.9c0.7,0,1.4,0.6,1.4,1.4c0,0.7-0.6,1.4-1.4,1.4
			H242h-0.2c-0.4,0-0.8-0.1-1-0.4C240.3,334.6,240.3,333.8,240.8,333.2z"/>
		<path class="st0" d="M273.3,315.6c0-5.4,1.4-10.3,3.8-14c2.5-3.5,6-6,10-6c4.1,0,7.6,2.5,10,6c2.4,3.7,3.9,8.6,3.9,14
			s-1.5,10.3-3.9,14c-2.5,3.6-6,6.1-10,6.1c-4.1,0-7.6-2.5-10-6.1C274.6,325.9,273.3,321,273.3,315.6z M276.1,315.6
			c0,4.9,1.3,9.3,3.4,12.4c2.1,3,4.8,4.8,7.7,4.8c2.9,0,5.6-1.8,7.7-4.8c2.1-3.1,3.4-7.5,3.4-12.4s-1.4-9.3-3.4-12.4
			c-2.1-3.1-4.8-4.8-7.7-4.8c-2.9,0-5.6,1.7-7.7,4.8S276.1,310.7,276.1,315.6z"/>
		<path class="st0" d="M317.6,299.6l-5.7,3.3c-0.2,0.1-0.5,0.2-0.7,0.2c-0.5,0-1-0.3-1.2-0.7c-0.4-0.7-0.2-1.5,0.5-1.9l7.7-4.7
			c0.6-0.3,1.5-0.1,1.9,0.5c0.2,0.3,0.2,0.7,0.2,1v36.8c0,0.7-0.6,1.4-1.4,1.4c-0.7,0-1.4-0.6-1.4-1.4v-34.5L317.6,299.6
			L317.6,299.6z"/>
		<path class="st0" d="M332.6,304.3c2.7-4.9,7.4-8.5,14-8.7c0.7-0.1,1.4,0.6,1.4,1.3c0,0.8-0.6,1.4-1.4,1.5
			c-5.6,0.2-9.2,3.1-11.7,7.3c-1.4,2.3-2.3,5.2-2.9,8c2.4-2.7,6-4.5,9.9-4.5c7.4,0,13.3,6,13.3,13.2c0,7.3-5.9,13.2-13.3,13.2
			c-7.2,0-13-5.7-13.2-12.8c-0.1-0.9-0.1-1.7-0.1-2.6C328.8,314.9,329.9,309.1,332.6,304.3z M331.7,322.7c0,0.3,0.1,0.5,0.1,0.7
			s0,0.3-0.1,0.4c0.7,5.1,5.1,9,10.4,9c5.8,0,10.5-4.7,10.5-10.4s-4.7-10.4-10.5-10.4c-5.7,0-10.4,4.7-10.4,10.4V322.7z"/>
	</g>
</g>
<g>
	<g>
		<path class="st0" d="M86.4,194.1c1.7,0.6,4.7,1.9,4.7,6.9v12.4c0,2.3,0.3,3.6,1.1,4.4c0.7,0.8,1.9,1,3.9,1h3.8v8.2h-7.3
			c-3.6,0-6-0.9-7.8-2.6c-2.1-2.1-2.9-4.5-2.9-7.6c0,0,0-11.4,0-13.2c0-1.9-0.4-3.2-1.2-4c-0.8-0.8-1.9-1.3-3.6-1.3h-3.3V190h3.3
			c1.6,0,2.7-0.5,3.6-1.2c0.8-0.8,1.2-2.2,1.2-4.1v-13.3c0-3.1,0.8-5.6,2.9-7.6c1.7-1.7,4.2-2.6,7.8-2.6h7.3v8.2h-3.8
			c-2.1,0-3.2,0.2-3.9,1c-0.8,0.8-1.1,2.1-1.1,4.4v12.6C91.1,192.2,88.1,193.4,86.4,194.1z"/>
	</g>
</g>
<g>
	<g>
		<path class="st0" d="M286.7,174.7c0-2.3-0.3-3.6-1.1-4.4c-0.7-0.8-1.9-1-3.9-1h-3.8v-8.2h7.3c3.6,0,6,0.9,7.8,2.6
			c2.1,2.1,2.9,4.5,2.9,7.6v13.3c0,1.9,0.3,3.3,1.2,4.1c0.8,0.8,1.9,1.2,3.6,1.2h3.3v8.2h-3.3c-1.6,0-2.7,0.5-3.6,1.3
			c-0.8,0.8-1.2,2.1-1.2,4c0,1.8,0,13.2,0,13.2c0,3.1-0.8,5.6-2.9,7.6c-1.7,1.7-4.2,2.6-7.8,2.6h-7.3v-8.2h3.8c2.1,0,3.2-0.2,3.9-1
			c0.8-0.8,1.1-2.1,1.1-4.4V201c0-5,3-6.3,4.7-6.9c-1.7-0.7-4.7-1.9-4.7-6.9V174.7z"/>
	</g>
</g>
<g>
	<path class="st0" d="M138,198.2V220h-9.8v-22.3c0-3-0.9-5.3-4.2-5.3c-2.8,0-5.8,2.1-5.8,4.8V220h-9.7v-54.8h9.4V187
		c1.2-1.6,3.7-3.2,7.4-3.2C133,183.8,138,189.1,138,198.2z"/>
	<path class="st0" d="M172.5,199.7V220h-9.1v-2.8c-1.2,1.5-3.7,3.3-7.8,3.3c-6.4,0-12.6-4.5-12.6-12.2s6.3-11.5,12.6-11.5h7.1v-0.7
		c0-2.6-1.4-4.4-4.3-4.4c-2.8,0-4,1.2-4.1,2.4h-9.5c0.5-5.7,6.6-10.2,13.3-10.2C166.8,183.8,172.5,189.6,172.5,199.7z M162.7,204.6
		h-5.8c-2.8,0-4.2,1.8-4.2,4.1c0,2.2,1.4,4.1,4.2,4.1s5.8-2.1,5.8-4.8V204.6z"/>
	<path class="st0" d="M207.4,207.9c-0.9,7.1-7,12.5-14.4,12.5c-8.1,0-14.8-6.6-14.8-14.7v-7.2c0-8.1,6.7-14.7,14.8-14.7
		c7.3,0,13.4,5.4,14.3,12.4h-9.7c-0.3-2.1-2.4-3.8-4.7-3.8c-2.7,0-4.9,2.3-4.9,5v9.5c0,2.7,2.1,4.8,4.7,4.8c2.4,0,4.6-1.4,4.9-3.8
		H207.4z"/>
	<path class="st0" d="M223.4,197h1.6l8.2-12.7h10l-10.7,16.6l12.9,19.1h-9.8l-9.8-14.4h-2.4V220h-9.7v-54.8h9.7V197z"/>
	<path class="st0" d="M273.5,209.1c0,7.1-5.4,11.4-13.8,11.4c-8.3,0-13.9-5.4-13.9-13.6h9c0,3.6,1.8,5.6,4.8,5.6s4.9-1.4,4.9-3.4
		c0-1.8-1.2-2.7-8.3-4.5c-8.2-2.1-9.8-6.1-9.8-10.6s3.6-10.2,13.2-10.2c9.5,0,13.5,5.8,13.5,12.7H264c-0.1-3-1.7-4.7-4.5-4.7
		c-2.7,0-4.2,1-4.2,2.7c0,1.8,1.6,2.9,7.1,4.3C268.8,200.4,273.5,202.7,273.5,209.1z"/>
</g>
<g>
	<path class="st0" d="M124.8,133.5h-6.6v28.7h-9.8v-28.7h-4V126h4v-7.9c0-6.5,2.6-10.9,10.4-10.9h6v8.2h-4c-1.7,0-2.6,1.6-2.6,4.3
		v6.3h6.6V133.5z"/>
	<path class="st0" d="M156,140.7v7.2c0,8.1-6.7,14.7-14.8,14.7s-14.7-6.6-14.7-14.7v-7.2c0-8.1,6.6-14.8,14.7-14.8
		C149.3,126,156,132.6,156,140.7z M146.2,139.6c0-2.7-2.3-5-5-5s-5,2.3-5,5v9.5c0,2.7,2.3,5,5,5s5-2.3,5-5V139.6z"/>
	<path class="st0" d="M189.6,140.7v7.2c0,8.1-6.7,14.7-14.8,14.7s-14.7-6.6-14.7-14.7v-7.2c0-8.1,6.6-14.8,14.7-14.8
		C183,126,189.6,132.6,189.6,140.7z M179.9,139.6c0-2.7-2.3-5-5-5s-5,2.3-5,5v9.5c0,2.7,2.3,5,5,5s5-2.3,5-5V139.6z"/>
	<path class="st0" d="M193.8,148.3v-8c0-9.1,4.9-14.4,12.7-14.4c3.7,0,6.2,1.6,7.4,3.2v-21.8h9.4v54.8h-9v-2.8
		c-1.2,1.5-3.7,3.3-7.8,3.3C198.7,162.7,193.8,157.4,193.8,148.3z M203.4,140.7v8.1c0,3.2,1.1,5.2,4.3,5.2c2.7,0,5.7-2.1,5.7-4.7
		v-10c0-2.7-3-4.8-5.7-4.8C204.1,134.6,203.4,137,203.4,140.7z"/>
</g>
<g>
	<path class="st0" d="M115,378.5v2c0,2.3-1.3,3.6-3.1,3.6c-0.9,0-1.6-0.4-1.9-0.8v4.9h-2.3v-13h2.2v0.7c0.3-0.4,0.9-0.8,1.9-0.8
		C113.7,375,115,376.3,115,378.5z M112.5,380.4v-2c0-0.8-0.3-1.3-1-1.3c-0.7,0-1.4,0.5-1.4,1.2v2.4c0,0.7,0.7,1.2,1.4,1.2
		C112.4,381.9,112.5,381.3,112.5,380.4z"/>
	<path class="st0" d="M123.5,378.6v1.8c0,2-1.6,3.6-3.6,3.6s-3.6-1.6-3.6-3.6v-1.8c0-2,1.6-3.6,3.6-3.6S123.5,376.6,123.5,378.6z
		 M121.1,378.3c0-0.7-0.6-1.3-1.3-1.3c-0.7,0-1.3,0.6-1.3,1.3v2.4c0,0.7,0.6,1.3,1.3,1.3c0.7,0,1.3-0.6,1.3-1.3V378.3z"/>
	<path class="st0" d="M127.6,381l1.5-5.9h2.2c0.5,2,1,3.9,1.5,5.9l1.6-5.9h2.3l-2.6,8.8h-2.5l-1.4-4.9c-0.4,1.6-1,3.3-1.4,4.9h-2.5
		l-2.6-8.8h2.3L127.6,381z"/>
	<path class="st0" d="M144,378.6v1.3h-4.9v0.8c0,0.6,0.6,1.3,1.3,1.3c0.6,0,1.1-0.4,1.2-1h2.4c-0.3,1.8-1.8,3.1-3.6,3.1
		c-2,0-3.6-1.6-3.6-3.6v-1.8c0-2,1.6-3.6,3.6-3.6C142.4,375,144,376.6,144,378.6z M141.7,378.4c0-0.7-0.5-1.3-1.3-1.3
		c-0.8,0-1.3,0.7-1.3,1.3H141.7z"/>
	<path class="st0" d="M150.5,377c-0.2,0-0.4-0.1-0.6-0.1c-1.3,0-1.9,0.9-1.9,1.5v5.4h-2.4V375h2.2v0.8c0.1-0.2,0.7-1,2.3-1
		c0.1,0,0.2,0,0.4,0V377z"/>
	<path class="st0" d="M158.2,378.6v1.3h-4.9v0.8c0,0.6,0.6,1.3,1.3,1.3c0.6,0,1.1-0.4,1.2-1h2.4c-0.3,1.8-1.8,3.1-3.6,3.1
		c-2,0-3.6-1.6-3.6-3.6v-1.8c0-2,1.6-3.6,3.6-3.6C156.5,375,158.2,376.6,158.2,378.6z M155.7,378.4c0-0.7-0.5-1.3-1.3-1.3
		c-0.8,0-1.3,0.7-1.3,1.3H155.7z"/>
	<path class="st0" d="M159.4,380.5v-2c0-2.2,1.3-3.6,3.1-3.6c0.9,0,1.6,0.4,1.9,0.8v-5.4h2.3v13.6h-2.2v-0.7
		c-0.3,0.4-0.9,0.8-1.9,0.8C160.5,384,159.4,382.7,159.4,380.5z M161.7,378.6v2c0,0.8,0.3,1.3,1,1.3c0.7,0,1.4-0.5,1.4-1.2v-2.4
		c0-0.7-0.7-1.2-1.4-1.2C161.9,377.1,161.7,377.7,161.7,378.6z"/>
	<path class="st0" d="M178.8,383.2v0.7h-2.2v-13.6h2.3v5.4c0.3-0.4,0.9-0.8,1.9-0.8c1.9,0,3.1,1.3,3.1,3.6v2c0,2.3-1.3,3.6-3.1,3.6
		C179.7,384,179.1,383.6,178.8,383.2z M178.9,378.3v2.4c0,0.7,0.7,1.2,1.4,1.2c0.8,0,1-0.6,1-1.3v-2c0-1-0.1-1.6-1-1.6
		C179.7,377.1,178.9,377.6,178.9,378.3z"/>
	<path class="st0" d="M192.3,375.1l-4.1,13h-2.1l1.1-3.8l-3.1-9.3h2.3l1.9,6c0.6-2,1.2-4,1.8-6H192.3z"/>
</g>
<g>
	<g>
		<g>
			<path class="st0" d="M108.7,437.7c0.8-3.3,5-6,10-6c7.1,0,9.3,6.8,9.3,6.8c-6,1-11.4,2.2-16.9,0.1l0,0l0.1,0.1
				C110.3,438.4,109.4,438.1,108.7,437.7z"/>
		</g>
		<g>
			<path class="st0" d="M189.5,457.7c-0.8,3.3-5,6-10,6c-7.1,0-9.3-6.8-9.3-6.8c6-1,11.4-2.2,16.9-0.1l0,0l-0.1-0.1
				C187.9,457,188.7,457.3,189.5,457.7z"/>
		</g>
	</g>
	<path class="st1" d="M158.7,457.7c-0.8,3.3-5,6-10,6c-7.1,0-9.3-6.8-9.3-6.8c6-1,11.4-2.2,16.9-0.1l0,0l-0.1-0.1
		C157.1,457,158,457.3,158.7,457.7z"/>
	<g>
		<g>
			<g>
				<g>
					<g>
						<g>
							<g>
								<path class="st0" d="M187.1,457c-0.6-1.9-0.2-4.7,1-6.4s1.2-4.3,0-5.8c-1.2-1.6-1.6-4.5-1-6.4c0.6-1.9-0.2-4.4-1.8-5.6
									c-1.6-1.2-2.9-3.7-2.9-5.7s-1.6-4.1-3.5-4.7c-1.9-0.6-3.9-2.6-4.5-4.5c-0.6-1.9-2.8-3.5-4.7-3.5s-4.6-1.3-5.7-2.9
									c-1.2-1.6-3.7-2.4-5.6-1.8c-1.9,0.6-4.7,0.2-6.4-1c-1.6-1.2-4.3-1.2-5.8,0c-1.6,1.2-4.5,1.6-6.4,1s-4.4,0.2-5.6,1.8
									c-1.2,1.6-3.7,2.9-5.7,2.9s-4.1,1.6-4.7,3.5c-0.6,1.9-2.6,3.9-4.5,4.5s-3.6,2.5-3.6,4.2c0,1.7,0.1,3.1,0.1,3
									c0.1,0,0.1,0.2,0.1,0.5s-1.2,1.5-2.7,2.5c-1.5,1.1-2.8,3.7-2.2,5.4c0.5,1.7,1,3.1,1.1,3.1c0,0,0.1,0.1,0.2,0.3
									c0.1,0.2-0.7,1.5-1.7,2.9s-1.6,4.5-0.4,6.1c1.1,1.6,2.1,2.8,2.1,2.8s0.1,0,0.1,0.1c0.1,0.1-0.3,1.4-0.9,3
									c-0.5,1.6-0.1,5,1.5,6.1c1.6,1.2,2.9,3.7,2.9,5.7s1.6,4.1,3.5,4.7c1.9,0.6,3.9,2.6,4.5,4.5c0.6,1.9,2.8,3.5,4.8,3.5
									s4.5,1.3,5.7,2.9c1.2,1.6,3.7,2.4,5.6,1.8s4.7-0.2,6.3,1c1.6,1.2,4.3,1.2,5.9,0c1.6-1.2,4.4-1.6,6.3-1
									c1.9,0.6,4.4-0.2,5.6-1.8s3.7-2.9,5.7-2.9s4.1-1.6,4.7-3.5c0.6-1.9,2.6-3.9,4.5-4.5c1.9-0.6,3.5-2.8,3.5-4.7
									c0-2,1.3-4.6,2.9-5.7C186.9,461.4,187.7,458.9,187.1,457z"/>
								<circle class="st0" cx="149.4" cy="447.4" r="29.5"/>
							</g>
						</g>
					</g>
					<path class="st2" d="M182.8,448.8c-0.4,0-0.7,0.3-0.7,0.6s0.3,0.7,0.6,0.7c0.4,0.1,0.7-0.3,0.8-0.6
						C183.5,449.1,183.2,448.8,182.8,448.8z M182.7,451.1c-0.4-0.1-0.7,0.2-0.8,0.6c-0.1,0.4,0.2,0.7,0.6,0.8
						c0.4,0.1,0.7-0.2,0.8-0.6C183.3,451.5,183.1,451.2,182.7,451.1z M182.4,453.6c-0.4-0.1-0.8,0.2-0.8,0.5s0.2,0.7,0.5,0.8
						c0.4,0.1,0.8-0.2,0.8-0.5C182.9,453.9,182.7,453.6,182.4,453.6z M181.9,455.9c-0.4-0.1-0.8,0.1-0.9,0.5
						c-0.1,0.4,0.1,0.8,0.5,0.9c0.4,0.1,0.8-0.1,0.9-0.5C182.5,456.4,182.2,456,181.9,455.9z M181.2,458.2c-0.4-0.1-0.8,0.1-0.9,0.4
						s0.1,0.8,0.4,0.9c0.4,0.2,0.8-0.1,0.9-0.4C181.7,458.7,181.5,458.3,181.2,458.2z M180.4,460.5c-0.4-0.2-0.8,0.1-0.9,0.4
						s0,0.8,0.3,0.9c0.3,0.2,0.8,0,0.9-0.4C180.9,461,180.7,460.6,180.4,460.5z M179.3,462.7c-0.3-0.2-0.8-0.1-0.9,0.3
						c-0.2,0.3-0.1,0.8,0.3,0.9s0.8,0.1,0.9-0.3C179.8,463.3,179.7,462.8,179.3,462.7z M178.2,464.8c-0.3-0.2-0.8-0.1-0.9,0.2
						c-0.2,0.3-0.1,0.8,0.2,0.9c0.3,0.2,0.8,0.1,1-0.2C178.6,465.4,178.5,465,178.2,464.8z M176.9,466.8c-0.3-0.2-0.8-0.2-1,0.2
						c-0.2,0.3-0.2,0.8,0.2,1c0.3,0.2,0.8,0.2,1-0.2C177.3,467.5,177.2,467,176.9,466.8z M175.4,468.8c-0.3-0.2-0.7-0.2-1,0.1
						c-0.2,0.3-0.2,0.7,0.1,1c0.3,0.3,0.7,0.2,1-0.1C175.8,469.4,175.8,469,175.4,468.8z M172.9,470.6c-0.3,0.3-0.3,0.7,0,1
						c0.3,0.3,0.7,0.3,1,0c0.3-0.3,0.3-0.7,0-1C173.6,470.3,173.2,470.3,172.9,470.6z M171.2,472.3c-0.3,0.3-0.3,0.6-0.1,1
						c0.3,0.3,0.7,0.3,1,0.1c0.3-0.3,0.3-0.7,0.1-1C171.9,472,171.5,472,171.2,472.3z M169.5,473.8c-0.3,0.2-0.3,0.6-0.1,1
						c0.2,0.3,0.6,0.4,1,0.1c0.3-0.2,0.4-0.6,0.1-1S169.7,473.5,169.5,473.8z M167.5,475.1c-0.3,0.2-0.4,0.6-0.2,0.9
						c0.2,0.3,0.6,0.4,1,0.2c0.3-0.2,0.4-0.6,0.2-1C168.3,475,167.8,475,167.5,475.1z M165.5,476.4c-0.3,0.2-0.4,0.6-0.3,0.9
						c0.2,0.3,0.6,0.4,0.9,0.3c0.3-0.2,0.4-0.6,0.3-0.9C166.3,476.3,165.9,476.2,165.5,476.4z M163.4,477.5
						c-0.3,0.2-0.5,0.5-0.3,0.9c0.2,0.3,0.6,0.5,0.9,0.3c0.3-0.2,0.5-0.6,0.3-0.9C164.2,477.5,163.7,477.3,163.4,477.5z
						 M161.3,478.4c-0.3,0.2-0.5,0.5-0.4,0.9c0.1,0.4,0.5,0.5,0.9,0.4c0.4-0.2,0.5-0.5,0.4-0.9C162,478.5,161.6,478.3,161.3,478.4z
						 M159.1,479.2c-0.4,0.1-0.5,0.5-0.4,0.9c0.1,0.4,0.5,0.6,0.9,0.5c0.4-0.1,0.6-0.5,0.4-0.9C159.8,479.3,159.4,479.1,159.1,479.2
						z M156.8,479.9c-0.4,0.1-0.6,0.4-0.5,0.8c0.1,0.4,0.4,0.6,0.8,0.5c0.4-0.1,0.6-0.4,0.5-0.8C157.5,480,157.2,479.8,156.8,479.9z
						 M154.5,480.3c-0.4,0.1-0.6,0.4-0.6,0.8c0.1,0.4,0.4,0.6,0.8,0.6c0.4-0.1,0.6-0.4,0.6-0.8C155.2,480.5,154.9,480.3,154.5,480.3
						z M152.2,480.6c-0.4,0.1-0.6,0.4-0.6,0.8s0.4,0.6,0.8,0.6s0.6-0.4,0.6-0.8C152.9,480.8,152.5,480.6,152.2,480.6z M149.8,480.7
						c-0.4,0-0.6,0.3-0.6,0.7s0.3,0.7,0.7,0.6c0.4,0,0.7-0.3,0.6-0.7C150.5,481.1,150.2,480.7,149.8,480.7z M147.4,480.7
						c-0.4,0-0.7,0.3-0.7,0.6c-0.1,0.4,0.3,0.7,0.6,0.8c0.4,0,0.7-0.3,0.7-0.6C148.1,481.1,147.8,480.7,147.4,480.7z M145.1,480.5
						c-0.4-0.1-0.7,0.2-0.8,0.6c-0.1,0.4,0.2,0.7,0.6,0.8c0.4,0.1,0.8-0.2,0.8-0.6C145.7,480.9,145.4,480.6,145.1,480.5z
						 M142.7,480.1c-0.4-0.1-0.7,0.2-0.8,0.5c-0.1,0.4,0.2,0.8,0.5,0.8c0.4,0.1,0.8-0.2,0.8-0.5
						C143.4,480.6,143.1,480.2,142.7,480.1z M140.5,479.6c-0.4-0.1-0.8,0.1-0.9,0.5c-0.1,0.4,0.1,0.8,0.5,0.9
						c0.4,0.1,0.8-0.1,0.9-0.5C141,480.1,140.8,479.7,140.5,479.6z M138.2,478.9c-0.4-0.1-0.8,0.1-0.9,0.4c-0.2,0.4,0.1,0.8,0.4,0.9
						c0.4,0.1,0.8-0.1,0.9-0.4C138.7,479.4,138.5,479,138.2,478.9z M136,478c-0.3-0.2-0.8,0-0.9,0.3c-0.2,0.3,0,0.8,0.4,0.9
						c0.3,0.2,0.8,0,0.9-0.4C136.5,478.6,136.3,478.2,136,478z M133.9,477c-0.3-0.2-0.8-0.1-0.9,0.3c-0.2,0.3-0.1,0.8,0.3,0.9
						c0.3,0.2,0.8,0.1,0.9-0.3C134.3,477.6,134.2,477.2,133.9,477z M131.8,475.9c-0.3-0.2-0.8-0.1-0.9,0.2c-0.2,0.3-0.1,0.8,0.2,1
						c0.3,0.2,0.8,0.1,1-0.2C132.2,476.5,132.1,476.1,131.8,475.9z M129.8,474.6c-0.3-0.2-0.8-0.2-1,0.2s-0.2,0.8,0.2,1
						c0.3,0.2,0.8,0.2,1-0.2C130.2,475.2,130.2,474.8,129.8,474.6z M127,473.2c-0.3,0.3-0.2,0.7,0.1,1c0.3,0.3,0.8,0.2,1-0.1
						c0.2-0.3,0.2-0.7-0.1-1C127.7,472.9,127.2,472.9,127,473.2z M125.2,471.6c-0.3,0.3-0.3,0.7,0,1s0.7,0.3,1,0s0.3-0.7,0-1
						C125.9,471.3,125.5,471.3,125.2,471.6z M123.6,469.8c-0.3,0.3-0.3,0.7-0.1,1c0.3,0.3,0.7,0.3,1,0.1c0.3-0.3,0.3-0.7,0.1-1
						C124.3,469.6,123.9,469.6,123.6,469.8z M122.1,468c-0.3,0.2-0.4,0.6-0.1,1c0.2,0.3,0.6,0.4,1,0.1c0.3-0.2,0.3-0.6,0.1-1
						C122.8,467.7,122.4,467.7,122.1,468z M120.7,466c-0.3,0.2-0.4,0.6-0.2,1c0.2,0.3,0.6,0.4,1,0.2c0.3-0.2,0.4-0.6,0.2-1
						C121.5,465.9,121,465.8,120.7,466z M119.3,462.1c-0.2-0.3-0.5-0.5-0.9-0.3c-0.3,0.2-0.5,0.6-0.3,0.9c0.2,0.3,0.6,0.5,0.9,0.3
						C119.4,462.8,119.5,462.4,119.3,462.1z M118.4,459.9c-0.2-0.3-0.5-0.5-0.9-0.4c-0.4,0.1-0.5,0.5-0.4,0.9
						c0.2,0.4,0.5,0.5,0.9,0.4C118.3,460.6,118.5,460.3,118.4,459.9z M117.6,457.7c-0.1-0.4-0.5-0.5-0.9-0.4
						c-0.4,0.1-0.6,0.5-0.5,0.9c0.1,0.4,0.5,0.6,0.9,0.4C117.5,458.4,117.7,458,117.6,457.7z M116.5,456.2c0.4-0.1,0.6-0.5,0.5-0.8
						c-0.1-0.4-0.4-0.6-0.8-0.5c-0.4,0.1-0.6,0.4-0.5,0.8C115.7,456.1,116.1,456.3,116.5,456.2z M115.9,453.9
						c0.4-0.1,0.6-0.4,0.5-0.8c-0.1-0.4-0.4-0.6-0.8-0.6c-0.4,0.1-0.6,0.4-0.6,0.8C115.2,453.7,115.5,453.9,115.9,453.9z
						 M115.6,451.5c0.4-0.1,0.6-0.4,0.6-0.8c-0.1-0.4-0.4-0.6-0.8-0.6s-0.6,0.4-0.6,0.8C114.8,451.2,115.2,451.5,115.6,451.5z
						 M115.4,449.1c0.4,0,0.7-0.3,0.6-0.7c0-0.4-0.3-0.6-0.7-0.6c-0.4,0-0.7,0.3-0.6,0.7C114.7,448.8,115,449.1,115.4,449.1z
						 M115.4,446.7c0.4,0,0.7-0.3,0.7-0.6s-0.3-0.7-0.6-0.7c-0.4,0-0.7,0.3-0.8,0.6C114.7,446.3,115,446.7,115.4,446.7z
						 M115.5,444.3c0.4,0.1,0.7-0.2,0.8-0.6c0.1-0.4-0.2-0.7-0.6-0.8c-0.4-0.1-0.7,0.2-0.8,0.6C114.9,443.9,115.2,444.2,115.5,444.3
						z M115.9,441.9c0.4,0.1,0.8-0.2,0.8-0.5s-0.2-0.7-0.5-0.8c-0.4-0.1-0.8,0.2-0.8,0.5S115.5,441.8,115.9,441.9z M116.3,439.5
						c0.4,0.1,0.8-0.1,0.9-0.5c0.1-0.4-0.1-0.8-0.5-0.9s-0.8,0.1-0.9,0.5C115.8,439.1,116,439.4,116.3,439.5z M117.1,437.2
						c0.4,0.1,0.8-0.1,0.9-0.4c0.1-0.4-0.1-0.8-0.4-0.9c-0.4-0.2-0.8,0.1-0.9,0.4C116.5,436.7,116.7,437.1,117.1,437.2z M117.9,435
						c0.4,0.2,0.8-0.1,0.9-0.4c0.2-0.3,0-0.8-0.3-0.9s-0.8,0-0.9,0.4C117.3,434.4,117.5,434.8,117.9,435z M118.8,432.7
						c0.3,0.2,0.8,0.1,0.9-0.3c0.2-0.3,0.1-0.8-0.3-0.9s-0.8-0.1-0.9,0.3C118.4,432.2,118.5,432.6,118.8,432.7z M120,430.6
						c0.3,0.2,0.8,0.1,0.9-0.2c0.2-0.3,0.1-0.8-0.2-0.9c-0.3-0.2-0.8-0.1-1,0.2C119.5,430,119.7,430.5,120,430.6z M121.3,428.6
						c0.3,0.2,0.8,0.2,1-0.2c0.2-0.3,0.2-0.8-0.2-1c-0.3-0.2-0.8-0.2-1,0.2C120.9,427.9,121,428.4,121.3,428.6z M122.7,426.7
						c0.3,0.2,0.7,0.2,1-0.1c0.2-0.3,0.2-0.7-0.1-1c-0.3-0.3-0.7-0.2-1,0.1C122.4,426,122.4,426.4,122.7,426.7z M125.2,423.9
						c-0.3-0.3-0.7-0.3-1,0c-0.3,0.3-0.3,0.7,0,1c0.3,0.3,0.7,0.3,1,0S125.5,424.1,125.2,423.9z M127,422.2c-0.3-0.3-0.7-0.3-1-0.1
						s-0.3,0.7-0.1,1s0.7,0.3,1,0.1C127.2,422.9,127.2,422.5,127,422.2z M128.9,420.7c-0.2-0.3-0.6-0.4-1-0.1
						c-0.3,0.2-0.4,0.6-0.1,1c0.2,0.3,0.6,0.3,1,0.1C129.1,421.4,129.1,421,128.9,420.7z M130.9,419.3c-0.2-0.3-0.6-0.4-1-0.2
						c-0.3,0.2-0.4,0.6-0.2,1c0.2,0.3,0.6,0.4,1,0.2C131,420.1,131.1,419.6,130.9,419.3z M132.9,418.1c-0.2-0.3-0.6-0.4-0.9-0.3
						c-0.3,0.2-0.4,0.6-0.3,0.9c0.2,0.3,0.6,0.4,0.9,0.3C133,418.8,133.1,418.5,132.9,418.1z M135.1,417c-0.2-0.3-0.6-0.5-0.9-0.3
						c-0.3,0.2-0.5,0.6-0.3,0.9c0.2,0.3,0.6,0.5,0.9,0.3C135.1,417.8,135.2,417.4,135.1,417z M137.3,416.1c-0.1-0.4-0.5-0.5-0.9-0.4
						c-0.4,0.2-0.5,0.5-0.4,0.9c0.2,0.3,0.5,0.5,0.9,0.4C137.3,416.8,137.4,416.5,137.3,416.1z M139.6,415.3
						c-0.1-0.4-0.5-0.6-0.9-0.5c-0.4,0.1-0.6,0.5-0.4,0.9c0.1,0.4,0.5,0.5,0.9,0.4C139.5,416.1,139.7,415.7,139.6,415.3z
						 M141.9,414.7c-0.1-0.4-0.4-0.6-0.8-0.5c-0.4,0.1-0.6,0.4-0.5,0.8s0.5,0.6,0.8,0.5C141.8,415.5,142,415.1,141.9,414.7z
						 M144.3,414.3c-0.1-0.4-0.4-0.6-0.8-0.6c-0.4,0.1-0.6,0.4-0.5,0.8c0.1,0.4,0.4,0.6,0.8,0.5C144.1,415,144.3,414.7,144.3,414.3z
						 M146,413.4c-0.4,0-0.6,0.4-0.6,0.8c0.1,0.4,0.4,0.6,0.8,0.6c0.4-0.1,0.6-0.4,0.6-0.8C146.7,413.7,146.3,413.4,146,413.4z
						 M148.4,413.3c-0.4,0-0.7,0.3-0.6,0.7c0,0.4,0.3,0.7,0.7,0.6c0.4,0,0.6-0.3,0.6-0.7C149.1,413.6,148.8,413.3,148.4,413.3z
						 M150.9,413.3c-0.4,0-0.7,0.3-0.7,0.6c0,0.4,0.3,0.7,0.6,0.7c0.4,0.1,0.7-0.3,0.7-0.6C151.6,413.7,151.2,413.3,150.9,413.3z
						 M153.3,413.6c-0.4-0.1-0.8,0.2-0.8,0.6c-0.1,0.4,0.2,0.7,0.6,0.8c0.4,0.1,0.7-0.2,0.8-0.6
						C153.9,413.9,153.7,413.6,153.3,413.6z M155.7,413.9c-0.4-0.1-0.8,0.2-0.8,0.5c-0.1,0.4,0.2,0.8,0.5,0.8
						c0.4,0.1,0.7-0.2,0.8-0.5C156.4,414.4,156.1,414,155.7,413.9z M158.1,414.5c-0.4-0.1-0.8,0.1-0.9,0.5c-0.1,0.4,0.1,0.8,0.5,0.9
						c0.4,0.1,0.8-0.1,0.9-0.5C158.7,415,158.5,414.6,158.1,414.5z M160.5,415.2c-0.4-0.1-0.8,0.1-0.9,0.4s0.1,0.8,0.4,0.9
						s0.8-0.1,0.9-0.4C161.1,415.8,160.8,415.3,160.5,415.2z M162.8,416.1c-0.4-0.2-0.8,0-0.9,0.4c-0.2,0.4,0.1,0.8,0.4,0.9
						c0.3,0.2,0.8,0,0.9-0.3C163.3,416.7,163.1,416.2,162.8,416.1z M165.3,418.1c0.2-0.3,0.1-0.8-0.3-0.9c-0.3-0.2-0.8-0.1-0.9,0.3
						c-0.2,0.3-0.1,0.8,0.3,0.9C164.7,418.6,165.1,418.4,165.3,418.1z M167.4,419.3c0.2-0.3,0.1-0.8-0.2-1c-0.3-0.2-0.8-0.1-1,0.2
						c-0.2,0.3-0.1,0.8,0.2,0.9C166.7,419.8,167.1,419.6,167.4,419.3z M169.3,420.7c0.2-0.3,0.2-0.8-0.2-1c-0.3-0.2-0.8-0.2-1,0.2
						c-0.2,0.3-0.2,0.8,0.2,1S169.1,421,169.3,420.7z M171.1,421.3c-0.3-0.3-0.8-0.2-1,0.1s-0.2,0.7,0.1,1c0.3,0.3,0.7,0.2,1-0.1
						C171.5,421.9,171.4,421.5,171.1,421.3z M172.9,422.9c-0.3-0.3-0.7-0.3-1,0c-0.3,0.3-0.3,0.7,0,1c0.3,0.3,0.7,0.3,1,0
						C173.2,423.6,173.2,423.2,172.9,422.9z M174.6,425.6c0.3-0.3,0.3-0.7,0.1-1c-0.3-0.3-0.7-0.3-1-0.1s-0.3,0.7-0.1,1
						C173.9,425.8,174.3,425.9,174.6,425.6z M176.2,426.5c-0.2-0.3-0.7-0.4-1-0.1c-0.3,0.2-0.3,0.6-0.1,1c0.2,0.3,0.6,0.3,1,0.1
						C176.4,427.2,176.5,426.8,176.2,426.5z M177.5,429.5c0.3-0.2,0.4-0.6,0.2-1c-0.2-0.3-0.6-0.4-1-0.2c-0.3,0.2-0.4,0.6-0.2,1
						C176.7,429.6,177.2,429.7,177.5,429.5z M178.9,433.4c0.2,0.3,0.5,0.5,0.9,0.3c0.3-0.2,0.5-0.6,0.3-0.9s-0.6-0.5-0.9-0.3
						C178.8,432.6,178.7,433,178.9,433.4z M179.8,435.6c0.2,0.3,0.5,0.5,0.9,0.4c0.4-0.1,0.5-0.5,0.4-0.9s-0.5-0.5-0.9-0.4
						C179.9,434.8,179.7,435.2,179.8,435.6z M180.6,437.8c0.1,0.4,0.5,0.5,0.9,0.4c0.4-0.1,0.6-0.5,0.5-0.9s-0.5-0.6-0.9-0.4
						C180.7,437,180.5,437.4,180.6,437.8z M181.8,439.2c-0.4,0.1-0.6,0.5-0.5,0.8c0.1,0.4,0.4,0.6,0.8,0.5c0.4-0.1,0.6-0.4,0.5-0.8
						C182.5,439.3,182.1,439.1,181.8,439.2z M182.3,441.5c-0.4,0.1-0.6,0.4-0.5,0.8c0.1,0.4,0.4,0.6,0.8,0.6s0.6-0.4,0.6-0.8
						C183,441.8,182.6,441.5,182.3,441.5z M182.6,444c-0.4,0.1-0.6,0.4-0.6,0.8s0.4,0.6,0.8,0.6c0.4,0,0.6-0.4,0.6-0.8
						C183.4,444.2,183,443.9,182.6,444z M182.8,446.3c-0.4,0-0.7,0.3-0.6,0.7c0,0.4,0.3,0.6,0.7,0.6s0.7-0.3,0.6-0.7
						C183.5,446.6,183.2,446.3,182.8,446.3z"/>
				</g>
			</g>
		</g>
		<g>
			<path class="st0" d="M124.2,464.9c-4.9,0-9.2-0.9-13.3-2.8c-1.3-0.6-1.9-2.2-1.9-5v-18.4c0-0.2,0-0.4,0.1-0.5
				c0.6,0.3,1.4,0.5,2.2,0.8c3.8,1.5,7.9,2.2,12.3,2.2c8.6,0,17.3-2.8,25.7-5.4c8.2-2.6,16.7-5.3,24.9-5.3c3.9,0,7.4,0.6,10.7,1.8
				c0.9,0.3,1.7,0.6,2.5,1c1.3,0.6,1.9,2.1,1.9,4.7v18.7c0,0.2,0,0.4-0.1,0.5c-0.6-0.3-1.4-0.5-2.2-0.8c-3.8-1.5-7.9-2.2-12.3-2.2
				c-8.6,0-17.3,2.8-25.7,5.4C140.9,462.2,132.4,464.9,124.2,464.9z"/>
			<path class="st2" d="M174,430.8L174,430.8c3.8,0,7.3,0.6,10.6,1.7c0.8,0.3,1.7,0.6,2.5,1c1.1,0.5,1.7,2,1.7,4.4v18.7
				c0,0.1,0,0.1,0,0.1c-0.5-0.2-1.1-0.4-1.8-0.6c-3.9-1.5-8-2.2-12.4-2.2c-8.6,0-17.4,2.8-25.8,5.4c-8.2,2.6-16.7,5.2-24.8,5.2
				c-4.8,0-9.1-0.9-13.2-2.8c-1.2-0.5-1.7-2-1.7-4.6v-18.4c0-0.1,0-0.1,0-0.1c0.5,0.2,1.1,0.4,1.8,0.6c3.9,1.5,8,2.2,12.4,2.2
				c8.6,0,17.4-2.8,25.8-5.4C157.4,433.5,165.9,430.8,174,430.8 M174,430.2c-16.6,0-33.6,10.7-50.6,10.7c-4.1,0-8.1-0.6-12.2-2.2
				c-0.9-0.3-1.8-0.6-2.5-1c-0.1,0.3-0.1,0.7-0.1,1v18.4c0,2.5,0.5,4.5,2.2,5.2c4.4,2,8.9,2.8,13.4,2.8c16.6,0,33.6-10.7,50.6-10.7
				c4.1,0,8.1,0.6,12.2,2.2c0.9,0.3,1.8,0.6,2.5,1c0.1-0.3,0.1-0.7,0.1-1V438c-0.1-2.4-0.5-4.3-2.2-5c-0.9-0.4-1.7-0.8-2.6-1
				C181.3,430.7,177.7,430.2,174,430.2L174,430.2z"/>
		</g>
		<g>
			<g>
				<g>
					<path class="st2" d="M131.6,454.9c0.1,0.3,0.2,0.6,0.4,0.7c0.2,0.2,0.4,0.2,0.8,0.1c0.6-0.2,1.5-1,2.3-2.2
						c0,0.1,0.1,0.4,0.1,0.5c-0.8,1.3-2.4,2.9-3.7,3.1c-0.3,0.1-0.8-0.2-0.9-0.9c-0.3-1.5-0.1-2.9,0.6-4c0.9-1.3,2.2-2,2.8-2.2
						c0.4-0.1,0.7,0.1,0.8,0.3c0.1,0.4-0.1,0.9-0.3,1.1c-0.6,1.1-1.8,1.9-2.9,2.4C131.5,454,131.5,454.5,131.6,454.9z M133.6,451.3
						c-0.1-0.3-0.3-0.5-0.8-0.4c-0.2,0.1-0.6,0.3-0.8,0.5c-0.3,0.5-0.5,1.2-0.5,1.8c0.3-0.1,1.5-0.6,1.9-1.3
						C133.5,451.8,133.6,451.5,133.6,451.3z"/>
					<path class="st2" d="M137.5,455.1c-0.4,0.6-1.2,1-1.5,1.1c0.1-1.6,0.2-3.9,0.5-6c0.2-1.8,0.7-4.6,1.1-5.9
						c0.3-0.3,0.9-0.8,1.2-0.8c-0.5,1.8-0.9,4.6-1.1,7.3C137.4,452.9,137.4,454.1,137.5,455.1z"/>
					<path class="st2" d="M141,454.3c-0.4,0.6-1.2,1-1.5,1.1c0.1-1.6,0.2-3.9,0.5-6c0.2-1.8,0.7-4.6,1.1-5.9
						c0.3-0.3,0.9-0.8,1.2-0.8c-0.5,1.8-0.9,4.6-1.1,7.3C141,452.1,141,453.3,141,454.3z"/>
					<path class="st2" d="M146.8,451.9c-0.9,1.3-2.2,2.3-3,2.4c-0.6,0.2-1-0.3-1.1-0.9c-0.3-1.1,0.1-2.6,0.7-3.6
						c0.9-1.5,2.2-2.5,3.2-2.7c0.6-0.2,1,0.3,1.1,0.9C148,449.1,147.7,450.4,146.8,451.9z M144.3,449.3c-0.5,0.8-0.6,1.9-0.4,2.7
						c0.2,0.8,0.5,1.2,1.1,1c1.1-0.2,2-2.1,1.6-4c-0.2-0.7-0.5-0.9-1-0.8C145.2,448.3,144.8,448.6,144.3,449.3z"/>
					<path class="st2" d="M120,454.4c-0.2,1.5-0.4,3.6-0.4,5.1c-0.3,0.5-1.8,1.5-2.2,1.6c-0.1-1.7,0.3-4.3,0.5-6.1
						c-0.5,0.1-1.4,0.4-2,0.6c0.1-0.4,0.6-1.3,1.1-1.6c0.3-0.1,0.6-0.2,1.1-0.3c0.3-1.9,0.7-4.1,1.1-5.9c0.5-0.4,1.7-1,2.3-1.1
						c-0.7,2.8-1,4.7-1.3,6.6c3.3-0.9,5.9-1.5,6.8-1.8c0.2-1.5,0.6-4.5,0.9-5.5c0.5-0.4,1.7-1,2.2-1.1c-0.4,1.8-0.8,4.3-1.1,6.6
						c-0.2,2-0.3,4.6-0.2,6c-0.4,0.6-1.6,1.5-2.2,1.6c-0.1-1.9,0-4.7,0.3-7.2c-0.4,0.4-1.3,0.9-1.9,1.1
						C124.2,453.2,121.6,454,120,454.4z"/>
				</g>
				<g>
					<path class="st2" d="M162.6,444.7c-0.7,0.2-1.1,0.6-1.5,1.1c-0.8,1.2-1,2.7-1.2,3.8c-0.4,0.5-1,0.9-1.3,0.9
						c0.4-2,0.5-4.4,0.4-5.5c0.2-0.4,1.1-1.1,1.5-1.2c0.1,0.4,0.1,1.8-0.1,2.8c1-1.8,1.9-3.1,2.9-3.3c0.2-0.1,0.3-0.1,0.4,0
						c0.1,0.2-0.3,1-0.6,1.3L162.6,444.7z"/>
					<path class="st2" d="M165,446.9c0.1,0.3,0.2,0.6,0.4,0.7c0.2,0.2,0.4,0.2,0.8,0.1c0.6-0.2,1.5-1,2.3-2.2
						c0.1,0.1,0.1,0.4,0.1,0.5c-0.8,1.3-2.4,2.9-3.7,3.1c-0.3,0.1-0.8-0.2-0.9-0.9c-0.3-1.5-0.1-2.9,0.6-4c0.9-1.3,2.2-2.1,2.8-2.2
						c0.4-0.1,0.7,0.1,0.8,0.3c0.1,0.4-0.1,0.9-0.3,1.1c-0.6,1.1-1.8,1.9-2.9,2.4C164.9,446.1,165,446.6,165,446.9z M167,443.4
						c-0.1-0.3-0.3-0.5-0.8-0.4c-0.2,0.1-0.6,0.3-0.8,0.5c-0.3,0.5-0.5,1.2-0.5,1.8c0.3-0.1,1.5-0.6,1.9-1.3
						C167,443.9,167,443.5,167,443.4z"/>
					<path class="st2" d="M172.4,443.5c1,0.3,1.6,0.5,1.8,1.2c0.1,0.3-0.1,0.6-0.2,1c-0.6,1-2,1.9-3.2,2.2c-1.1,0.3-1.8-0.2-2-0.8
						c0.1-0.4,0.3-1,0.6-1.1c0.4,0.9,1.1,1.5,2,1.2c0.5-0.1,0.9-0.3,1.1-0.7c0.3-0.4,0.3-0.6,0.2-0.9c-0.1-0.4-0.5-0.6-1.5-0.9
						c-1.2-0.3-1.5-0.6-1.6-1.1c-0.1-0.2,0.1-0.5,0.2-0.8c0.4-0.7,1.6-1.7,3.3-2.1c0.3-0.1,0.6-0.1,0.9-0.1c0.1,0.2-0.3,0.8-0.5,1
						c-0.3-0.2-0.9-0.3-1.3-0.2c-0.5,0.1-1,0.4-1.2,0.7c-0.1,0.1-0.2,0.3-0.1,0.5C171.1,443,171.3,443.2,172.4,443.5z"/>
					<path class="st2" d="M180.1,440.6c-0.1-0.2-0.1-0.3-0.3-0.3c-0.3,0.1-1.3,0.8-2.2,2c-0.5,0.9-0.8,2.2-0.9,3.3
						c-0.5,0.6-1.3,1-1.5,1.1c0.1-2,0.3-3.8,0.5-6c0.2-1.6,0.5-4.5,1-5.8c0.2-0.3,0.9-0.7,1.2-0.8c-0.3,1.1-0.6,3.2-0.8,5.1
						c-0.2,1.3-0.2,2.5-0.3,3.6c1.5-2.3,3.4-4,4.2-4.2c0.2-0.1,0.3,0.1,0.4,0.3c0.2,1-0.4,3.4-0.2,4.4c0.1,0.3,0.2,0.5,0.4,0.5
						c-0.3,0.5-1.3,1.6-1.7,1.7c-0.1-0.5-0.1-1.8,0.1-2.9C180.2,441.1,180.2,440.8,180.1,440.6z"/>
					<path class="st2" d="M153,446.2c1.6-0.4,4.2-1.1,5.5-1.5c0.1,0.2-0.4,0.8-0.7,1c-0.7,0.4-2.6,1.1-5,1.8c-0.2,1-0.4,3-0.4,4.4
						c-0.3,0.4-1.8,1.6-2,1.6c-0.1-2.2,0.8-6.7,1.5-10.2c0.4-0.4,1.2-1,2-1.3C153.4,443.4,153.2,445,153,446.2z M150.1,442.5
						c-0.1-0.3,1.1-1.6,1.6-1.9c2.1-0.7,6.3-1.6,8.7-2.4c0.1,0.2-0.8,1.2-1.4,1.5c-0.9,0.4-3.5,1.1-5.8,1.7
						C152.2,441.7,150.6,442.2,150.1,442.5z"/>
				</g>
			</g>
		</g>
	</g>
	<g>
		<path class="st2" d="M163.7,460c0,0-0.7,0.9-0.8,1c-3.1,2.7-10-0.1-13.7,0.7c-2.5,0.5-4.9,1.6-6.4,3.8c-0.9,1.3-1.6,3.6-1.2,5.2
			c0.2,0.8,0.3,1.6,0.1,2.3c-0.1,0.5-0.4,1-0.8,1.5c0.1,0.4,0.2,0.8,0.3,1.1c0.3-0.8,0.7-1.5,1.3-1.8c0.1-0.1,1.5,1.3,1.7,1.5
			c0.6,0.4,1.2,0.8,1.9,1c1.5,0.6,3.1,0.7,4.7,0.5c12-1.5,12.8-15.7,12.8-15.8C163.7,460.8,163.7,460,163.7,460z M149.6,467.4
			c-2.9,1.8-6.5,4.9-6.5,4.9c0.2-0.1,1.6-4.1,5.7-6.3c5.2-2.8,12.7-2.5,12.7-2.5S152.9,465.4,149.6,467.4z"/>
	</g>
</g>
<g>
	<g>
		<path class="st0" d="M249.9,455.6v-4.9h-2.4v4.9h-4.8v-13.9h4.8v5.2h2.4v-5.2h4.7v13.9L249.9,455.6L249.9,455.6z"/>
		<path class="st0" d="M261.1,449.1v-0.4c0-0.2-0.1-0.4-0.4-0.4c-0.8,0-2.4,0.3-3.9,0.7l-0.7-3.5c1.9-0.4,3.7-0.8,5.8-0.8
			c2.8,0,3.8,1,3.8,3.2c0,1.3-0.1,3-0.1,4.5c0,0.4,0.3,0.5,1.1,0.5l-0.4,3c-0.7,0-1.2,0.1-1.8,0.1c-1,0-1.9-0.3-2.4-0.9h-0.2
			c-0.6,0.5-1.4,0.9-2.7,0.9c-2.2,0-3.3-1.3-3.3-3.3C255.8,450,257.7,449.3,261.1,449.1z M261.2,452.3v-0.9
			c-0.8,0.1-1.2,0.3-1.2,0.9c0,0.4,0.2,0.6,0.5,0.6C261,453,261.2,452.8,261.2,452.3z"/>
		<path class="st0" d="M272.6,452.5c0.7,0,1.4-0.1,2.3-0.3l0.5,3.1c-1.2,0.3-2.1,0.6-3.3,0.6c-3.4,0-5-2.1-5-5.4
			c0-3.3,1.7-5.8,5.1-5.8c1.4,0,2.4,0.2,3.4,0.6l-0.5,3.5c-0.8-0.3-1.8-0.6-2.5-0.6c-0.7,0-0.9,0.8-0.9,2.2
			C271.7,451.8,271.8,452.5,272.6,452.5z"/>
		<path class="st0" d="M282.2,455.6l-1.3-3.5h-0.1v3.5h-4.6v-13.4l4.6-0.9v7.4h0.1l1.6-2.8l4.9-0.9l-2.5,5.6
			c0.8,1.7,1.6,3.5,2.4,5.2H282.2z"/>
		<path class="st0" d="M297.9,449c0,0.7-0.1,1.5-0.2,2.5h-5.6c0.1,0.9,0.6,1.2,1.5,1.2c0.8,0,1.7-0.2,3.4-0.5l0.4,3
			c-1.5,0.4-2.9,0.6-4.4,0.6c-3.6,0-5.5-2.2-5.5-5.5c0-3.6,1.8-5.7,5.6-5.7C296.8,444.6,297.9,446.4,297.9,449z M292,449.4h1.6v-0.4
			c0-0.5-0.2-0.8-0.8-0.8C292.2,448.2,292,448.7,292,449.4z"/>
		<path class="st0" d="M303.7,455.6H299v-10.7h4l0.1,0.7h0.1c0.7-0.7,1.5-0.9,3.3-0.9l-0.1,3.7h-1.5c-0.9,0-1.2,0.2-1.2,1.2v2.7
			L303.7,455.6L303.7,455.6z"/>
		<path class="st0" d="M317,441.9l-0.5,3.9c-1.6-0.3-2.9-0.6-3.6-0.6c-0.6,0-0.9,0.1-0.9,0.5c0,0.3,0.4,0.4,0.9,0.6
			c1.5,0.7,4.6,1.4,4.6,4.6c0,3.1-1.8,4.8-5.2,4.8c-1.9,0-3.3-0.2-4.8-0.6l0.3-3.8c2,0.5,3.1,0.8,4.1,0.8c0.5,0,0.7-0.2,0.7-0.5
			c0-0.3-0.3-0.5-0.8-0.7c-1.5-0.7-4.7-1.4-4.7-4.8c0-3,1.9-4.7,5.1-4.7C313.9,441.5,315.5,441.7,317,441.9z"/>
		<path class="st0" d="M318.8,452.9v-4.9h-1.2v-3h1.4l0.3-2h4.1v2h2v3h-2.1v4.1c0,0.2,0.1,0.3,0.3,0.3c0.4,0,0.9,0,1.8-0.1l-0.1,3.2
			c-1.1,0.1-2.1,0.2-3.2,0.2C320,455.9,318.8,455.2,318.8,452.9z"/>
		<path class="st0" d="M336.9,450.1c0,4.1-1.6,5.8-5.3,5.8c-3.8,0-5.4-1.7-5.4-5.6c0-4,1.7-5.6,5.4-5.6
			C335.3,444.6,336.9,446.3,336.9,450.1z M330.9,450v0.5c0,1.8,0,2.3,0.8,2.3c0.6,0,0.7-0.4,0.7-2.2V450c0-1.6,0-2.1-0.7-2.1
			C330.9,447.9,330.9,448.4,330.9,450z"/>
		<path class="st0" d="M338,442.2l4.6-0.9v10.6c0,0.4,0.2,0.6,0.8,0.6l-0.3,3.4h-1.8c-2.2,0-3.3-0.9-3.3-3L338,442.2L338,442.2z"/>
		<path class="st0" d="M344,455.6l-0.1-2.5l3.5-4.7h-3.6v-3.5h9.4l0.1,2.4l-3.4,5h3.1l-1.4,3.3H344z"/>
	</g>
	<path class="st3" d="M235.5,451.8c1.7,0,3-1.4,3-3c0-1.7-1.4-3-3-3c-1.4,0-2.6,1-2.9,2.3v0.3h-0.7v-0.3c0,0,0,0,0,0
		c-0.3-1.4-1.6-2.5-3.1-2.5c-1.4,0-2.7,1-3.1,2.3h-2.2c2.5-2.3,2-6.2,2-6.2h11.4v-8.6l-2.3,3.2v-3.3l-2.3,3.2v-3.2l-2,3h-11.4v5.7
		v7.8c0.5,0,0.9-0.1,1.4-0.1v5c0,0,2,1.7,5.3,3.9h0l7.5,4.5l2.9-6c0.2-0.3,0.3-0.5,0.4-0.8l0,0h0c0.4-0.9,0.5-1.8,0.5-2.3v-0.9
		l-1.7,2.6h-4.8l-7.5-4.5l-0.8-2.2c0.1,0,0.1-0.1,0.2-0.1h3.3c0,1.8,1.4,3.2,3.2,3.2c1.5,0,2.8-1.1,3.1-2.5v-0.3h0.7v0.3
		C232.9,450.8,234.1,451.8,235.5,451.8z M228.7,451.4c-1.4,0-2.6-1.2-2.6-2.6c0-1.4,1.2-2.6,2.6-2.6c1.4,0,2.6,1.2,2.6,2.6
		C231.3,450.2,230.2,451.4,228.7,451.4z M235.5,446.3c1.4,0,2.5,1.1,2.5,2.5c0,1.4-1.1,2.5-2.5,2.5c-1.2,0-2.3-0.9-2.4-2.1h0v-0.8
		C233.3,447.2,234.3,446.3,235.5,446.3z"/>
</g>
</svg>
