<?xml version="1.0" encoding="utf-8"?>
<!-- Generator: Adobe Illustrator 19.2.0, SVG Export Plug-In . SVG Version: 6.00 Build 0)  -->
<svg version="1.1" id="Ebene_1" xmlns="http://www.w3.org/2000/svg" xmlns:xlink="http://www.w3.org/1999/xlink" x="0px" y="0px"
	 viewBox="0 0 1440 1120.9" style="enable-background:new 0 0 1440 1120.9;" xml:space="preserve">
<style type="text/css">
	.st0{clip-path:url(#SVGID_2_);}
	.st1{opacity:0.7;}
	.st2{opacity:0.3;}
	.st3{fill:#FFFFFF;}
	.st4{fill:#953C9C;}
	.st5{fill:#009CE2;}
	.st6{fill:#FDBB00;}
	.st7{fill:#65BC2C;}
	.st8{fill:#F68600;}
	.st9{fill:#E03E3B;}
</style>
<g>
	<path class="st4" d="M836.4,524.3v13h-2.5v-6.7c-0.7,1.5-1.5,3.1-2.2,4.6h-1.7c-0.7-1.5-1.5-3.1-2.2-4.6v6.7h-2.5v-13h2.3l3.4,7.1
		c1.1-2.4,2.2-4.7,3.3-7.1H836.4z"/>
	<path class="st4" d="M844.7,532.4v4.8h-2.1v-0.7c-0.3,0.4-0.9,0.8-1.8,0.8c-1.5,0-3-1.1-3-2.9s1.5-2.7,3-2.7h1.7v-0.2
		c0-0.6-0.3-1-1-1c-0.7,0-0.9,0.3-1,0.6h-2.2c0.1-1.3,1.6-2.4,3.2-2.4C843.4,528.7,844.7,530.1,844.7,532.4z M842.4,533.6h-1.4
		c-0.7,0-1,0.4-1,1c0,0.5,0.3,1,1,1s1.4-0.5,1.4-1.1V533.6z"/>
	<path class="st4" d="M853.5,532.1v5.2h-2.3V532c0-0.8-0.3-1.3-1-1.3c-0.6,0-1.4,0.5-1.4,1.1v5.4h-2.3v-8.4h2.1v0.7
		c0.3-0.4,0.9-0.8,1.8-0.8C852.3,528.7,853.5,529.9,853.5,532.1z"/>
	<path class="st4" d="M855.2,534v-5.2h2.3v5.3c0,0.8,0.3,1.2,1,1.2c0.6,0,1.4-0.5,1.4-1.1v-5.4h2.3v8.4h-2.1v-0.7
		c-0.3,0.4-0.9,0.8-1.8,0.8C856.4,537.4,855.2,536.1,855.2,534z"/>
	<path class="st4" d="M868.2,530.5h-1.6v6.8h-2.3v-6.8h-0.9v-1.8h0.9v-1.9c0-1.5,0.6-2.6,2.5-2.6h1.4v1.9h-0.9c-0.4,0-0.6,0.4-0.6,1
		v1.5h1.6V530.5z"/>
	<path class="st4" d="M875.5,532.4v4.8h-2.1v-0.7c-0.3,0.4-0.9,0.8-1.8,0.8c-1.5,0-3-1.1-3-2.9s1.5-2.7,3-2.7h1.7v-0.2
		c0-0.6-0.3-1-1-1c-0.7,0-0.9,0.3-1,0.6H869c0.1-1.3,1.6-2.4,3.2-2.4C874.2,528.7,875.5,530.1,875.5,532.4z M873.2,533.6h-1.4
		c-0.7,0-1,0.4-1,1c0,0.5,0.3,1,1,1s1.4-0.5,1.4-1.1V533.6z"/>
	<path class="st4" d="M883.8,534.4c-0.2,1.7-1.7,3-3.4,3c-1.9,0-3.5-1.6-3.5-3.5v-1.7c0-1.9,1.6-3.5,3.5-3.5c1.7,0,3.2,1.3,3.4,2.9
		h-2.3c-0.1-0.5-0.6-0.9-1.1-0.9c-0.6,0-1.2,0.5-1.2,1.2v2.2c0,0.6,0.5,1.1,1.1,1.1c0.6,0,1.1-0.3,1.2-0.9H883.8z"/>
	<path class="st4" d="M887.8,529.7v4.6c0,0.6,0.2,1,0.6,1h1v1.9H888c-1.9,0-2.5-1-2.5-2.6v-5h-0.9V528h0.9v-2.6h2.3v2.6h1.6v1.8
		H887.8z"/>
	<path class="st4" d="M890.7,534v-5.2h2.3v5.3c0,0.8,0.3,1.2,1,1.2c0.6,0,1.4-0.5,1.4-1.1v-5.4h2.3v8.4h-2.1v-0.7
		c-0.3,0.4-0.9,0.8-1.8,0.8C891.9,537.4,890.7,536.1,890.7,534z"/>
	<path class="st4" d="M904.3,530.7c-0.2,0-0.4-0.1-0.6-0.1c-1.2,0-1.8,0.8-1.8,1.4v5.2h-2.3v-8.4h2.1v0.8c0.2-0.2,0.7-0.9,2.2-0.9
		c0.1,0,0.2,0,0.3,0V530.7z"/>
	<path class="st4" d="M905.1,524.3h2.3v2.6h-2.3V524.3z M905.1,528.8h2.3v8.4h-2.3V528.8z"/>
	<path class="st4" d="M916.3,532.1v5.2H914V532c0-0.8-0.3-1.3-1-1.3c-0.6,0-1.4,0.5-1.4,1.1v5.4h-2.3v-8.4h2.1v0.7
		c0.3-0.4,0.9-0.8,1.8-0.8C915.1,528.7,916.3,529.9,916.3,532.1z"/>
	<path class="st4" d="M924.7,528.8v8.9c0,0.3,0,0.6,0,0.9c-0.2,1.5-1.5,2.8-3.4,2.8c-2,0-3.2-1.3-3.3-2.9h2.2c0,0.4,0.5,0.9,1.2,0.9
		c0.7,0,1.2-0.6,1.2-1.1v-1.7c-0.3,0.4-0.9,0.7-1.7,0.7c-1.8,0-3-1.2-3-3.4v-1.9c0-2.1,1.2-3.4,3-3.4c0.9,0,1.6,0.5,1.8,0.8v-0.7
		H924.7z M922.4,531.9c0-0.6-0.7-1.1-1.4-1.1c-0.8,0-1,0.5-1,1.3v1.9c0,0.9,0.1,1.4,1,1.4c0.6,0,1.4-0.5,1.4-1.1V531.9z"/>
</g>
<g>
	<path class="st4" d="M497.2,463c-0.6-1.4-1.2-2.9-1.8-4.3c-0.1,0-0.2,0-0.3,0h-1.9v4.3h-2.5v-13h4.4c2.2,0,3.9,1.6,3.9,3.5v1.6
		c0,1.1-0.6,2.1-1.5,2.8l2.1,5H497.2z M496.4,455.1v-1.5c0-0.6-0.5-1.3-1.5-1.3h-1.8v4h1.8C495.9,456.4,496.4,455.7,496.4,455.1z"/>
	<path class="st4" d="M506.9,457.9v1.2h-4.7v0.7c0,0.6,0.5,1.2,1.2,1.2c0.6,0,1-0.4,1.2-0.9h2.3c-0.3,1.7-1.7,3-3.4,3
		c-1.9,0-3.5-1.6-3.5-3.5v-1.7c0-1.9,1.6-3.5,3.5-3.5C505.3,454.4,506.9,456,506.9,457.9z M504.6,457.7c0-0.7-0.5-1.3-1.2-1.3
		c-0.7,0-1.2,0.6-1.2,1.3H504.6z"/>
	<path class="st4" d="M514.3,460.4c0,1.7-1.3,2.7-3.3,2.7c-2,0-3.3-1.3-3.3-3.2h2.1c0,0.9,0.4,1.3,1.1,1.3c0.7,0,1.2-0.3,1.2-0.8
		c0-0.4-0.3-0.6-2-1.1c-1.9-0.5-2.3-1.4-2.3-2.5c0-1.1,0.9-2.4,3.1-2.4c2.2,0,3.2,1.4,3.2,3h-2.1c0-0.7-0.4-1.1-1.1-1.1
		c-0.6,0-1,0.2-1,0.6s0.4,0.7,1.7,1C513.2,458.4,514.3,458.9,514.3,460.4z"/>
	<path class="st4" d="M517.9,455.5v4.6c0,0.6,0.2,1,0.6,1h1v1.9H518c-1.9,0-2.5-1-2.5-2.6v-5h-0.9v-1.8h0.9v-2.6h2.3v2.6h1.6v1.8
		H517.9z"/>
	<path class="st4" d="M527.2,458.2v4.8h-2.1v-0.7c-0.3,0.4-0.9,0.8-1.8,0.8c-1.5,0-3-1.1-3-2.9s1.5-2.7,3-2.7h1.7v-0.2
		c0-0.6-0.3-1-1-1c-0.7,0-0.9,0.3-1,0.6h-2.2c0.1-1.3,1.6-2.4,3.2-2.4C525.9,454.4,527.2,455.8,527.2,458.2z M524.9,459.3h-1.4
		c-0.7,0-1,0.4-1,1c0,0.5,0.3,1,1,1s1.4-0.5,1.4-1.1V459.3z"/>
	<path class="st4" d="M528.9,459.7v-5.2h2.3v5.3c0,0.8,0.3,1.2,1,1.2c0.6,0,1.4-0.5,1.4-1.1v-5.4h2.3v8.4h-2.1v-0.7
		c-0.3,0.4-0.9,0.8-1.8,0.8C530.1,463.1,528.9,461.9,528.9,459.7z"/>
	<path class="st4" d="M542.5,456.4c-0.2,0-0.4-0.1-0.6-0.1c-1.2,0-1.8,0.8-1.8,1.4v5.2h-2.3v-8.4h2.1v0.8c0.2-0.2,0.7-0.9,2.2-0.9
		c0.1,0,0.2,0,0.3,0V456.4z"/>
	<path class="st4" d="M549.7,458.2v4.8h-2.1v-0.7c-0.3,0.4-0.9,0.8-1.8,0.8c-1.5,0-3-1.1-3-2.9s1.5-2.7,3-2.7h1.7v-0.2
		c0-0.6-0.3-1-1-1c-0.7,0-0.9,0.3-1,0.6h-2.2c0.1-1.3,1.6-2.4,3.2-2.4C548.3,454.4,549.7,455.8,549.7,458.2z M547.4,459.3H546
		c-0.7,0-1,0.4-1,1c0,0.5,0.3,1,1,1s1.4-0.5,1.4-1.1V459.3z"/>
	<path class="st4" d="M558.4,457.8v5.2h-2.3v-5.3c0-0.8-0.3-1.3-1-1.3c-0.6,0-1.4,0.5-1.4,1.1v5.4h-2.3v-8.4h2.1v0.7
		c0.3-0.4,0.9-0.8,1.8-0.8C557.2,454.4,558.4,455.7,558.4,457.8z"/>
	<path class="st4" d="M562.8,455.5v4.6c0,0.6,0.2,1,0.6,1h1v1.9h-1.4c-1.9,0-2.5-1-2.5-2.6v-5h-0.9v-1.8h0.9v-2.6h2.3v2.6h1.6v1.8
		H562.8z"/>
	<path class="st4" d="M576,452.2v3.2h4.1v2.2H576v5.4h-2.5v-13h7.5v2.2H576z"/>
	<path class="st4" d="M582.3,450h2.3v2.6h-2.3V450z M582.3,454.5h2.3v8.4h-2.3V454.5z"/>
	<path class="st4" d="M593.5,457.8v5.2h-2.3v-5.3c0-0.8-0.3-1.3-1-1.3c-0.6,0-1.4,0.5-1.4,1.1v5.4h-2.3v-8.4h2.1v0.7
		c0.3-0.4,0.9-0.8,1.8-0.8C592.3,454.4,593.5,455.7,593.5,457.8z"/>
	<path class="st4" d="M594.9,459.7v-1.9c0-2.1,1.2-3.4,3-3.4c0.9,0,1.5,0.4,1.7,0.8V450h2.2V463h-2.1v-0.7c-0.3,0.4-0.9,0.8-1.8,0.8
		C596.1,463.1,594.9,461.9,594.9,459.7z M597.2,457.9v1.9c0,0.8,0.3,1.2,1,1.2c0.6,0,1.3-0.5,1.3-1.1v-2.4c0-0.6-0.7-1.1-1.3-1.1
		C597.4,456.5,597.2,457,597.2,457.9z"/>
	<path class="st4" d="M603.8,450h2.3v2.6h-2.3V450z M603.8,454.5h2.3v8.4h-2.3V454.5z"/>
	<path class="st4" d="M615,457.8v5.2h-2.3v-5.3c0-0.8-0.3-1.3-1-1.3c-0.6,0-1.4,0.5-1.4,1.1v5.4H608v-8.4h2.1v0.7
		c0.3-0.4,0.9-0.8,1.8-0.8C613.8,454.4,615,455.7,615,457.8z"/>
	<path class="st4" d="M623.4,454.5v8.9c0,0.3,0,0.6,0,0.9c-0.2,1.5-1.5,2.8-3.4,2.8c-2,0-3.2-1.3-3.3-2.9h2.2c0,0.4,0.5,0.9,1.2,0.9
		c0.7,0,1.2-0.6,1.2-1.1v-1.7c-0.3,0.4-0.9,0.7-1.7,0.7c-1.8,0-3-1.2-3-3.4v-1.9c0-2.1,1.2-3.4,3-3.4c0.9,0,1.6,0.5,1.8,0.8v-0.7
		H623.4z M621.1,457.6c0-0.6-0.7-1.1-1.4-1.1c-0.8,0-1,0.5-1,1.3v1.9c0,0.9,0.1,1.4,1,1.4c0.6,0,1.4-0.5,1.4-1.1V457.6z"/>
</g>
<g>
	<path class="st5" d="M645.1,582.5c0,2.4-2,4.4-4.4,4.4c-2.4,0-4.4-2-4.4-4.4v-4.4c0-2.4,2-4.4,4.4-4.4c2.2,0,4.1,1.7,4.3,3.8h-2.5
		c-0.1-0.9-0.9-1.6-1.9-1.6c-1,0-1.9,0.8-1.9,1.9v5c0,0.9,0.8,1.9,1.9,1.9c1,0,1.9-0.9,1.9-1.9v-1h-1.9v-2h4.4V582.5z"/>
	<path class="st5" d="M646.7,573.8h2.3v2.6h-2.3V573.8z M646.7,578.3h2.3v8.4h-2.3V578.3z"/>
	<path class="st5" d="M655,580h-1.6v6.8h-2.3V580h-0.9v-1.8h0.9v-1.9c0-1.5,0.6-2.6,2.5-2.6h1.4v1.9h-0.9c-0.4,0-0.6,0.4-0.6,1v1.5
		h1.6V580z"/>
	<path class="st5" d="M658.7,579.2v4.6c0,0.6,0.2,1,0.6,1h1v1.9h-1.4c-1.9,0-2.5-1-2.5-2.6v-5h-0.9v-1.8h0.9v-2.6h2.3v2.6h1.6v1.8
		H658.7z"/>
	<path class="st5" d="M667.6,584.2c0,1.7-1.3,2.7-3.3,2.7c-2,0-3.3-1.3-3.3-3.2h2.1c0,0.9,0.4,1.3,1.1,1.3c0.7,0,1.2-0.3,1.2-0.8
		c0-0.4-0.3-0.6-2-1.1c-1.9-0.5-2.3-1.4-2.3-2.5c0-1.1,0.9-2.4,3.1-2.4c2.2,0,3.2,1.4,3.2,3h-2.1c0-0.7-0.4-1.1-1.1-1.1
		c-0.6,0-1,0.2-1,0.6s0.4,0.7,1.7,1C666.5,582.1,667.6,582.7,667.6,584.2z"/>
</g>
<g>
	<path class="st6" d="M652.7,157.2v4.4c0,2.6-1.9,4.3-4.2,4.3H644v-13h4.5C650.9,152.9,652.7,154.6,652.7,157.2z M650.2,156.9
		c0-1-0.7-1.8-1.8-1.8h-1.9v8.5h1.9c1,0,1.8-0.8,1.8-1.8V156.9z"/>
	<path class="st6" d="M660.8,160.8v1.2h-4.7v0.7c0,0.6,0.5,1.2,1.2,1.2c0.6,0,1-0.4,1.2-0.9h2.3c-0.3,1.7-1.7,3-3.4,3
		c-1.9,0-3.5-1.6-3.5-3.5v-1.7c0-1.9,1.6-3.5,3.5-3.5C659.3,157.3,660.8,158.9,660.8,160.8z M658.5,160.6c0-0.7-0.5-1.3-1.2-1.3
		c-0.7,0-1.2,0.6-1.2,1.3H658.5z"/>
	<path class="st6" d="M668.3,163.3c0,1.7-1.3,2.7-3.3,2.7c-2,0-3.3-1.3-3.3-3.2h2.1c0,0.9,0.4,1.3,1.1,1.3c0.7,0,1.2-0.3,1.2-0.8
		c0-0.4-0.3-0.6-2-1.1c-1.9-0.5-2.3-1.4-2.3-2.5c0-1.1,0.9-2.4,3.1-2.4c2.2,0,3.2,1.4,3.2,3h-2.1c0-0.7-0.4-1.1-1.1-1.1
		c-0.6,0-1,0.2-1,0.6s0.4,0.7,1.7,1C667.2,161.3,668.3,161.8,668.3,163.3z"/>
	<path class="st6" d="M669.6,153h2.3v2.6h-2.3V153z M669.6,157.4h2.3v8.4h-2.3V157.4z"/>
	<path class="st6" d="M680.4,157.4v8.9c0,0.3,0,0.6,0,0.9c-0.2,1.5-1.5,2.8-3.4,2.8c-2,0-3.2-1.3-3.3-2.9h2.2c0,0.4,0.5,0.9,1.2,0.9
		c0.7,0,1.2-0.6,1.2-1.1v-1.7c-0.3,0.4-0.9,0.7-1.7,0.7c-1.8,0-3-1.2-3-3.4v-1.9c0-2.1,1.2-3.4,3-3.4c0.9,0,1.6,0.5,1.8,0.8v-0.7
		H680.4z M678.1,160.5c0-0.6-0.7-1.1-1.4-1.1c-0.8,0-1,0.5-1,1.3v1.9c0,0.9,0.1,1.4,1,1.4c0.6,0,1.4-0.5,1.4-1.1V160.5z"/>
	<path class="st6" d="M689.3,160.7v5.2H687v-5.3c0-0.8-0.3-1.3-1-1.3c-0.6,0-1.4,0.5-1.4,1.1v5.4h-2.3v-8.4h2.1v0.7
		c0.3-0.4,0.9-0.8,1.8-0.8C688.1,157.3,689.3,158.6,689.3,160.7z"/>
	<path class="st6" d="M697.7,160.8v1.2H693v0.7c0,0.6,0.5,1.2,1.2,1.2c0.6,0,1-0.4,1.2-0.9h2.3c-0.3,1.7-1.7,3-3.4,3
		c-1.9,0-3.5-1.6-3.5-3.5v-1.7c0-1.9,1.6-3.5,3.5-3.5C696.1,157.3,697.7,158.9,697.7,160.8z M695.4,160.6c0-0.7-0.5-1.3-1.2-1.3
		c-0.7,0-1.2,0.6-1.2,1.3H695.4z"/>
	<path class="st6" d="M703.9,159.3c-0.2,0-0.4-0.1-0.6-0.1c-1.2,0-1.8,0.8-1.8,1.4v5.2h-2.3v-8.4h2.1v0.8c0.2-0.2,0.7-0.9,2.2-0.9
		c0.1,0,0.2,0,0.3,0V159.3z"/>
	<path class="st6" d="M710.7,163.3c0,1.7-1.3,2.7-3.3,2.7c-2,0-3.3-1.3-3.3-3.2h2.1c0,0.9,0.4,1.3,1.1,1.3c0.7,0,1.2-0.3,1.2-0.8
		c0-0.4-0.3-0.6-2-1.1c-1.9-0.5-2.3-1.4-2.3-2.5c0-1.1,0.9-2.4,3.1-2.4c2.2,0,3.2,1.4,3.2,3h-2.1c0-0.7-0.4-1.1-1.1-1.1
		c-0.6,0-1,0.2-1,0.6s0.4,0.7,1.7,1C709.6,161.3,710.7,161.8,710.7,163.3z"/>
</g>
<g>
	<path class="st8" d="M542.8,231.5v4.4c0,2.4-2,4.4-4.4,4.4c-2.4,0-4.4-2-4.4-4.4v-4.4c0-2.4,2-4.4,4.4-4.4
		C540.8,227.1,542.8,229.1,542.8,231.5z M540.3,231.2c0-1-0.8-1.9-1.9-1.9s-1.9,0.8-1.9,1.9v5c0,1,0.9,1.9,1.9,1.9s1.9-0.9,1.9-1.9
		V231.2z"/>
	<path class="st8" d="M551.4,235v1.9c0,2.2-1.2,3.4-3,3.4c-0.9,0-1.5-0.4-1.7-0.7v4.6h-2.2v-12.5h2.1v0.7c0.3-0.4,0.9-0.8,1.8-0.8
		C550.2,231.6,551.4,232.9,551.4,235z M549.1,236.8v-1.9c0-0.8-0.3-1.3-1-1.3c-0.7,0-1.4,0.5-1.4,1.1v2.4c0,0.6,0.7,1.1,1.4,1.1
		C548.9,238.3,549.1,237.7,549.1,236.8z"/>
	<path class="st8" d="M559.5,235.1v1.2h-4.7v0.7c0,0.6,0.5,1.2,1.2,1.2c0.6,0,1-0.4,1.2-0.9h2.3c-0.3,1.7-1.7,3-3.4,3
		c-1.9,0-3.5-1.6-3.5-3.5v-1.7c0-1.9,1.6-3.5,3.5-3.5C557.9,231.6,559.5,233.2,559.5,235.1z M557.2,234.9c0-0.7-0.5-1.3-1.2-1.3
		c-0.7,0-1.2,0.6-1.2,1.3H557.2z"/>
	<path class="st8" d="M568,235v5.2h-2.3v-5.3c0-0.8-0.3-1.3-1-1.3c-0.6,0-1.4,0.5-1.4,1.1v5.4H561v-8.4h2.1v0.7
		c0.3-0.4,0.9-0.8,1.8-0.8C566.8,231.6,568,232.9,568,235z"/>
	<path class="st8" d="M586.2,231.5v4.4c0,2.6-1.9,4.3-4.2,4.3h-4.6v-13h4.5C584.3,227.2,586.2,228.9,586.2,231.5z M583.7,231.2
		c0-1-0.7-1.8-1.8-1.8H580v8.5h1.9c1,0,1.8-0.8,1.8-1.8V231.2z"/>
	<path class="st8" d="M594.1,235.4v4.8h-2.1v-0.7c-0.3,0.4-0.9,0.8-1.8,0.8c-1.5,0-3-1.1-3-2.9s1.5-2.7,3-2.7h1.7v-0.2
		c0-0.6-0.3-1-1-1c-0.7,0-0.9,0.3-1,0.6h-2.2c0.1-1.3,1.6-2.4,3.2-2.4C592.7,231.6,594.1,233,594.1,235.4z M591.8,236.5h-1.4
		c-0.7,0-1,0.4-1,1c0,0.5,0.3,1,1,1s1.4-0.5,1.4-1.1V236.5z"/>
	<path class="st8" d="M598.4,232.7v4.6c0,0.6,0.2,1,0.6,1h1v1.9h-1.4c-1.9,0-2.5-1-2.5-2.6v-5h-0.9v-1.8h0.9v-2.6h2.3v2.6h1.6v1.8
		H598.4z"/>
	<path class="st8" d="M607.7,235.4v4.8h-2.1v-0.7c-0.3,0.4-0.9,0.8-1.8,0.8c-1.5,0-3-1.1-3-2.9s1.5-2.7,3-2.7h1.7v-0.2
		c0-0.6-0.3-1-1-1c-0.7,0-0.9,0.3-1,0.6h-2.2c0.1-1.3,1.6-2.4,3.2-2.4C606.4,231.6,607.7,233,607.7,235.4z M605.4,236.5H604
		c-0.7,0-1,0.4-1,1c0,0.5,0.3,1,1,1s1.4-0.5,1.4-1.1V236.5z"/>
</g>
<g>
	<path class="st8" d="M471.5,330.5v4.4c0,2.6-1.9,4.3-4.2,4.3h-4.6v-13h4.5C469.6,326.2,471.5,327.9,471.5,330.5z M469,330.2
		c0-1-0.7-1.8-1.8-1.8h-1.9v8.5h1.9c1,0,1.8-0.8,1.8-1.8V330.2z"/>
	<path class="st8" d="M479.4,334.4v4.8h-2.1v-0.7c-0.3,0.4-0.9,0.8-1.8,0.8c-1.5,0-3-1.1-3-2.9s1.5-2.7,3-2.7h1.7v-0.2
		c0-0.6-0.3-1-1-1c-0.7,0-0.9,0.3-1,0.6h-2.2c0.1-1.3,1.6-2.4,3.2-2.4C478,330.6,479.4,332,479.4,334.4z M477.1,335.5h-1.4
		c-0.7,0-1,0.4-1,1c0,0.5,0.3,1,1,1s1.4-0.5,1.4-1.1V335.5z"/>
	<path class="st8" d="M483.7,331.7v4.6c0,0.6,0.2,1,0.6,1h1v1.9h-1.4c-1.9,0-2.5-1-2.5-2.6v-5h-0.9v-1.8h0.9v-2.6h2.3v2.6h1.6v1.8
		H483.7z"/>
	<path class="st8" d="M493,334.4v4.8h-2.1v-0.7c-0.3,0.4-0.9,0.8-1.8,0.8c-1.5,0-3-1.1-3-2.9s1.5-2.7,3-2.7h1.7v-0.2
		c0-0.6-0.3-1-1-1c-0.7,0-0.9,0.3-1,0.6h-2.2c0.1-1.3,1.6-2.4,3.2-2.4C491.7,330.6,493,332,493,334.4z M490.7,335.5h-1.4
		c-0.7,0-1,0.4-1,1c0,0.5,0.3,1,1,1s1.4-0.5,1.4-1.1V335.5z"/>
	<path class="st8" d="M513.7,326.2v13h-2.5v-6.7c-0.7,1.5-1.5,3.1-2.2,4.6h-1.7c-0.7-1.5-1.5-3.1-2.2-4.6v6.7h-2.5v-13h2.3l3.4,7.1
		c1.1-2.4,2.2-4.7,3.3-7.1H513.7z"/>
	<path class="st8" d="M515.7,326.3h2.3v2.6h-2.3V326.3z M515.7,330.8h2.3v8.4h-2.3V330.8z"/>
	<path class="st8" d="M526.9,334v5.2h-2.3v-5.3c0-0.8-0.3-1.3-1-1.3c-0.6,0-1.4,0.5-1.4,1.1v5.4h-2.3v-8.4h2.1v0.7
		c0.3-0.4,0.9-0.8,1.8-0.8C525.7,330.6,526.9,331.9,526.9,334z"/>
	<path class="st8" d="M528.7,326.3h2.3v2.6h-2.3V326.3z M528.7,330.8h2.3v8.4h-2.3V330.8z"/>
	<path class="st8" d="M539.9,334v5.2h-2.3v-5.3c0-0.8-0.3-1.3-1-1.3c-0.6,0-1.4,0.5-1.4,1.1v5.4h-2.3v-8.4h2.1v0.7
		c0.3-0.4,0.9-0.8,1.8-0.8C538.7,330.6,539.9,331.9,539.9,334z"/>
	<path class="st8" d="M548.3,330.8v8.9c0,0.3,0,0.6,0,0.9c-0.2,1.5-1.5,2.8-3.4,2.8c-2,0-3.2-1.3-3.3-2.9h2.2c0,0.4,0.5,0.9,1.2,0.9
		c0.7,0,1.2-0.6,1.2-1.1v-1.7c-0.3,0.4-0.9,0.7-1.7,0.7c-1.8,0-3-1.2-3-3.4V334c0-2.1,1.2-3.4,3-3.4c0.9,0,1.6,0.5,1.8,0.8v-0.7
		H548.3z M546,333.8c0-0.6-0.7-1.1-1.4-1.1c-0.8,0-1,0.5-1,1.3v1.9c0,0.9,0.1,1.4,1,1.4c0.6,0,1.4-0.5,1.4-1.1V333.8z"/>
</g>
<g>
	<path class="st8" d="M960.8,261.4c-0.4,2-2.2,3.6-4.3,3.6c-2.4,0-4.4-2-4.4-4.4v-4.4c0-2.4,2-4.4,4.4-4.4c2.2,0,4.1,1.7,4.3,3.8
		h-2.5c-0.1-0.9-0.9-1.6-1.9-1.6c-1,0-1.9,0.8-1.9,1.9v5c0,1,0.9,1.9,1.9,1.9c0.9,0,1.6-0.6,1.8-1.4H960.8z"/>
	<path class="st8" d="M970.2,257.4l-0.3,1.9h1.3v2h-1.7l-0.6,3.6h-2.2l0.6-3.6h-1.9l-0.6,3.6h-2.2l0.6-3.6h-1.3v-2h1.6l0.3-1.9h-1.3
		v-2h1.7l0.6-3.5h2.2l-0.5,3.5h1.9l0.6-3.5h2.2l-0.5,3.5h1.3v2H970.2z M966,257.4l-0.3,1.9h1.9l0.3-1.9H966z"/>
</g>
<g>
	<path class="st8" d="M743.1,305.8v4.4c0,2.4-2,4.4-4.4,4.4c-2.4,0-4.4-2-4.4-4.4v-4.4c0-2.4,2-4.4,4.4-4.4
		C741.1,301.4,743.1,303.3,743.1,305.8z M740.6,305.5c0-1-0.8-1.9-1.9-1.9s-1.9,0.8-1.9,1.9v5c0,1,0.9,1.9,1.9,1.9s1.9-0.9,1.9-1.9
		V305.5z"/>
	<path class="st8" d="M746.8,313.8v0.7h-2.1v-12.9h2.2v5.1c0.3-0.4,0.9-0.8,1.7-0.8c1.8,0,3,1.3,3,3.4v1.9c0,2.2-1.2,3.4-3,3.4
		C747.7,314.6,747.1,314.1,746.8,313.8z M747,309v2.4c0,0.6,0.7,1.1,1.4,1.1c0.8,0,1-0.5,1-1.2v-1.9c0-0.9-0.2-1.5-1-1.5
		C747.7,307.9,747,308.4,747,309z"/>
	<path class="st8" d="M755.5,306v9.9c0,1.6-0.6,2.6-2.4,2.6h-1.4v-1.9h0.9c0.4,0,0.6-0.3,0.6-1V306H755.5z M753.2,301.5h2.3v2.6
		h-2.3V301.5z"/>
	<path class="st8" d="M763.9,309.4v1.2h-4.7v0.7c0,0.6,0.5,1.2,1.2,1.2c0.6,0,1-0.4,1.2-0.9h2.3c-0.3,1.7-1.7,3-3.4,3
		c-1.9,0-3.5-1.6-3.5-3.5v-1.7c0-1.9,1.6-3.5,3.5-3.5C762.4,305.9,763.9,307.5,763.9,309.4z M761.6,309.1c0-0.7-0.5-1.3-1.2-1.3
		c-0.7,0-1.2,0.6-1.2,1.3H761.6z"/>
	<path class="st8" d="M771.9,311.6c-0.2,1.7-1.7,3-3.4,3c-1.9,0-3.5-1.6-3.5-3.5v-1.7c0-1.9,1.6-3.5,3.5-3.5c1.7,0,3.2,1.3,3.4,2.9
		h-2.3c-0.1-0.5-0.6-0.9-1.1-0.9c-0.6,0-1.2,0.5-1.2,1.2v2.2c0,0.6,0.5,1.1,1.1,1.1c0.6,0,1.1-0.3,1.2-0.9H771.9z"/>
	<path class="st8" d="M775.9,306.9v4.6c0,0.6,0.2,1,0.6,1h1v1.9h-1.4c-1.9,0-2.5-1-2.5-2.6v-5h-0.9v-1.8h0.9v-2.6h2.3v2.6h1.6v1.8
		H775.9z"/>
	<path class="st8" d="M793.1,314.4c-0.6-1.4-1.2-2.9-1.8-4.3c-0.1,0-0.2,0-0.3,0h-1.9v4.3h-2.5v-13h4.4c2.2,0,3.9,1.6,3.9,3.5v1.6
		c0,1.1-0.6,2.1-1.5,2.8l2.1,5H793.1z M792.3,306.5v-1.5c0-0.6-0.5-1.3-1.5-1.3h-1.8v4h1.8C791.9,307.8,792.3,307.1,792.3,306.5z"/>
	<path class="st8" d="M802.8,309.4v1.2h-4.7v0.7c0,0.6,0.5,1.2,1.2,1.2c0.6,0,1-0.4,1.2-0.9h2.3c-0.3,1.7-1.7,3-3.4,3
		c-1.9,0-3.5-1.6-3.5-3.5v-1.7c0-1.9,1.6-3.5,3.5-3.5C801.2,305.9,802.8,307.5,802.8,309.4z M800.5,309.1c0-0.7-0.5-1.3-1.2-1.3
		c-0.7,0-1.2,0.6-1.2,1.3H800.5z"/>
	<path class="st8" d="M810.8,311.6c-0.2,1.7-1.7,3-3.4,3c-1.9,0-3.5-1.6-3.5-3.5v-1.7c0-1.9,1.6-3.5,3.5-3.5c1.7,0,3.2,1.3,3.4,2.9
		h-2.3c-0.1-0.5-0.6-0.9-1.1-0.9c-0.6,0-1.2,0.5-1.2,1.2v2.2c0,0.6,0.5,1.1,1.1,1.1c0.6,0,1.1-0.3,1.2-0.9H810.8z"/>
	<path class="st8" d="M818.9,309.4v1.7c0,1.9-1.6,3.5-3.5,3.5c-1.9,0-3.5-1.6-3.5-3.5v-1.7c0-1.9,1.6-3.5,3.5-3.5
		C817.3,305.9,818.9,307.5,818.9,309.4z M816.6,309.1c0-0.6-0.5-1.2-1.2-1.2c-0.7,0-1.2,0.5-1.2,1.2v2.2c0,0.6,0.5,1.2,1.2,1.2
		c0.6,0,1.2-0.5,1.2-1.2V309.1z"/>
	<path class="st8" d="M827,306v8.9c0,0.3,0,0.6,0,0.9c-0.2,1.5-1.5,2.8-3.4,2.8c-2,0-3.2-1.3-3.3-2.9h2.2c0,0.4,0.5,0.9,1.2,0.9
		c0.7,0,1.2-0.6,1.2-1.1v-1.7c-0.3,0.4-0.9,0.7-1.7,0.7c-1.8,0-3-1.2-3-3.4v-1.9c0-2.1,1.2-3.4,3-3.4c0.9,0,1.6,0.5,1.8,0.8V306H827
		z M824.7,309c0-0.6-0.7-1.1-1.4-1.1c-0.8,0-1,0.5-1,1.3v1.9c0,0.9,0.1,1.4,1,1.4c0.6,0,1.4-0.5,1.4-1.1V309z"/>
	<path class="st8" d="M835.9,309.3v5.2h-2.3v-5.3c0-0.8-0.3-1.3-1-1.3c-0.6,0-1.4,0.5-1.4,1.1v5.4h-2.3V306h2.1v0.7
		c0.3-0.4,0.9-0.8,1.8-0.8C834.7,305.9,835.9,307.1,835.9,309.3z"/>
	<path class="st8" d="M837.7,301.5h2.3v2.6h-2.3V301.5z M837.7,306h2.3v8.4h-2.3V306z"/>
	<path class="st8" d="M844.4,306.9v4.6c0,0.6,0.2,1,0.6,1h1v1.9h-1.4c-1.9,0-2.5-1-2.5-2.6v-5h-0.9v-1.8h0.9v-2.6h2.3v2.6h1.6v1.8
		H844.4z"/>
	<path class="st8" d="M847.4,301.5h2.3v2.6h-2.3V301.5z M847.4,306h2.3v8.4h-2.3V306z"/>
	<path class="st8" d="M858.2,309.4v1.7c0,1.9-1.6,3.5-3.5,3.5c-1.9,0-3.5-1.6-3.5-3.5v-1.7c0-1.9,1.6-3.5,3.5-3.5
		C856.7,305.9,858.2,307.5,858.2,309.4z M855.9,309.1c0-0.6-0.5-1.2-1.2-1.2c-0.7,0-1.2,0.5-1.2,1.2v2.2c0,0.6,0.5,1.2,1.2,1.2
		c0.6,0,1.2-0.5,1.2-1.2V309.1z"/>
	<path class="st8" d="M866.7,309.3v5.2h-2.3v-5.3c0-0.8-0.3-1.3-1-1.3c-0.6,0-1.4,0.5-1.4,1.1v5.4h-2.3V306h2.1v0.7
		c0.3-0.4,0.9-0.8,1.8-0.8C865.6,305.9,866.7,307.1,866.7,309.3z"/>
</g>
<g>
	<path class="st9" d="M900.7,404v2.5c0,1.8-1.6,3.5-3.9,3.5h-1.9v3.5h-2.5v-13h4.4C899,400.5,900.7,402.1,900.7,404z M898.1,404.1
		c0-0.6-0.5-1.3-1.5-1.3h-1.8v4.9h1.8c1,0,1.5-0.7,1.5-1.3V404.1z"/>
	<path class="st9" d="M906.6,406.9c-0.2,0-0.4-0.1-0.6-0.1c-1.2,0-1.8,0.8-1.8,1.4v5.2h-2.3V405h2.1v0.8c0.2-0.2,0.7-0.9,2.2-0.9
		c0.1,0,0.2,0,0.3,0V406.9z"/>
	<path class="st9" d="M913.9,408.4v1.2h-4.7v0.7c0,0.6,0.5,1.2,1.2,1.2c0.6,0,1-0.4,1.2-0.9h2.3c-0.3,1.7-1.7,3-3.4,3
		c-1.9,0-3.5-1.6-3.5-3.5v-1.7c0-1.9,1.6-3.5,3.5-3.5C912.3,404.9,913.9,406.5,913.9,408.4z M911.6,408.2c0-0.7-0.5-1.3-1.2-1.3
		c-0.7,0-1.2,0.6-1.2,1.3H911.6z"/>
	<path class="st9" d="M921.3,411.5v2h-6.5v-2c1.3-1.5,2.6-3,3.9-4.5h-3.8v-2h6.4v1.8c-1.3,1.6-2.7,3.1-4.1,4.7H921.3z"/>
	<path class="st9" d="M922.7,400.5h2.3v2.6h-2.3V400.5z M922.7,405h2.3v8.4h-2.3V405z"/>
</g>
<g>
	<path class="st8" d="M841.9,261.1c0,2.6-2.3,3.9-4.4,3.9c-2.1,0-4.4-1.2-4.4-4h2.6c0,1,0.6,1.8,1.9,1.8c1.3,0,1.9-0.8,1.9-1.7
		c0-0.8-0.4-1.3-2.3-1.8s-3.9-1.3-3.9-3.8c0-1.9,1.3-3.8,4.2-3.8s4.2,1.9,4.2,3.6h-2.6c0-0.7-0.5-1.4-1.7-1.4
		c-1.1,0-1.6,0.7-1.6,1.5c0,0.7,0.3,1.1,2.3,1.7C840,257.8,841.9,258.4,841.9,261.1z"/>
	<path class="st8" d="M852.4,252l-3.9,13h-2.5l-3.9-13h2.3l2.8,9.6l2.8-9.6H852.4z"/>
	<path class="st8" d="M861.6,260.6c0,2.4-2,4.4-4.4,4.4c-2.4,0-4.4-2-4.4-4.4v-4.4c0-2.4,2-4.4,4.4-4.4c2.2,0,4.1,1.7,4.3,3.8h-2.5
		c-0.1-0.9-0.9-1.6-1.9-1.6c-1,0-1.9,0.8-1.9,1.9v5c0,0.9,0.8,1.9,1.9,1.9c1,0,1.9-0.9,1.9-1.9v-1h-1.9v-2h4.4V260.6z"/>
</g>
</svg>
