<?xml version="1.0" encoding="utf-8"?>
<!-- Generator: Adobe Illustrator 19.2.0, SVG Export Plug-In . SVG Version: 6.00 Build 0)  -->
<svg version="1.1" id="Ebene_1" xmlns="http://www.w3.org/2000/svg" xmlns:xlink="http://www.w3.org/1999/xlink" x="0px" y="0px"
	 viewBox="0 0 1440 1120.9" style="enable-background:new 0 0 1440 1120.9;" xml:space="preserve">
<style type="text/css">
	.st0{clip-path:url(#SVGID_2_);}
	.st1{opacity:0.7;}
	.st2{opacity:0.3;}
	.st3{fill:#FFFFFF;}
	.st4{fill:#953C9C;}
	.st5{fill:#009CE2;}
	.st6{fill:#FDBB00;}
	.st7{fill:#65BC2C;}
	.st8{fill:#F68600;}
	.st9{fill:#E03E3B;}
</style>
<g>
	<path class="st4" d="M881.7,509.6c0,2.6-2.3,3.9-4.4,3.9c-2.1,0-4.4-1.2-4.4-4h2.6c0,1,0.6,1.8,1.9,1.8c1.3,0,1.9-0.8,1.9-1.7
		c0-0.8-0.4-1.3-2.3-1.8s-3.9-1.3-3.9-3.8c0-1.9,1.3-3.8,4.2-3.8s4.2,1.9,4.2,3.6h-2.6c0-0.7-0.5-1.4-1.7-1.4
		c-1.1,0-1.6,0.7-1.6,1.5c0,0.7,0.3,1.1,2.3,1.7C879.8,506.3,881.7,506.9,881.7,509.6z"/>
	<path class="st4" d="M890.2,508.2v5.2h-2.3v-5.3c0-0.7-0.2-1.3-1-1.3c-0.7,0-1.4,0.5-1.4,1.1v5.4h-2.3v-12.9h2.2v5.1
		c0.3-0.4,0.9-0.8,1.7-0.8C889.1,504.8,890.2,506.1,890.2,508.2z"/>
	<path class="st4" d="M898.7,508.3v1.7c0,1.9-1.6,3.5-3.5,3.5c-1.9,0-3.5-1.6-3.5-3.5v-1.7c0-1.9,1.6-3.5,3.5-3.5
		C897.1,504.8,898.7,506.4,898.7,508.3z M896.4,508c0-0.6-0.5-1.2-1.2-1.2c-0.6,0-1.2,0.5-1.2,1.2v2.2c0,0.6,0.5,1.2,1.2,1.2
		c0.7,0,1.2-0.5,1.2-1.2V508z"/>
	<path class="st4" d="M907.2,508.2v1.9c0,2.2-1.2,3.4-3,3.4c-0.9,0-1.5-0.4-1.7-0.7v4.6h-2.2v-12.5h2.1v0.7c0.3-0.4,0.9-0.8,1.8-0.8
		C906,504.8,907.2,506.1,907.2,508.2z M904.9,510v-1.9c0-0.8-0.3-1.3-1-1.3c-0.7,0-1.4,0.5-1.4,1.1v2.4c0,0.6,0.7,1.1,1.4,1.1
		C904.7,511.5,904.9,510.9,904.9,510z"/>
	<path class="st4" d="M915.7,508.2v1.9c0,2.2-1.2,3.4-3,3.4c-0.9,0-1.5-0.4-1.7-0.7v4.6h-2.2v-12.5h2.1v0.7c0.3-0.4,0.9-0.8,1.8-0.8
		C914.5,504.8,915.7,506.1,915.7,508.2z M913.4,510v-1.9c0-0.8-0.3-1.3-1-1.3c-0.7,0-1.4,0.5-1.4,1.1v2.4c0,0.6,0.7,1.1,1.4,1.1
		C913.2,511.5,913.4,510.9,913.4,510z"/>
	<path class="st4" d="M917.2,500.4h2.3v2.6h-2.3V500.4z M917.2,504.9h2.3v8.4h-2.3V504.9z"/>
	<path class="st4" d="M928.4,508.2v5.2h-2.3v-5.3c0-0.8-0.3-1.3-1-1.3c-0.6,0-1.4,0.5-1.4,1.1v5.4h-2.3v-8.4h2.1v0.7
		c0.3-0.4,0.9-0.8,1.8-0.8C927.2,504.8,928.4,506.1,928.4,508.2z"/>
	<path class="st4" d="M936.8,504.9v8.9c0,0.3,0,0.6,0,0.9c-0.2,1.5-1.5,2.8-3.4,2.8c-2,0-3.2-1.3-3.3-2.9h2.2c0,0.4,0.5,0.9,1.2,0.9
		c0.7,0,1.2-0.6,1.2-1.1v-1.7c-0.3,0.4-0.9,0.7-1.7,0.7c-1.8,0-3-1.2-3-3.4v-1.9c0-2.1,1.2-3.4,3-3.4c0.9,0,1.6,0.5,1.8,0.8v-0.7
		H936.8z M934.5,508c0-0.6-0.7-1.1-1.4-1.1c-0.8,0-1,0.5-1,1.3v1.9c0,0.9,0.1,1.4,1,1.4c0.6,0,1.4-0.5,1.4-1.1V508z"/>
</g>
<g>
	<path class="st5" d="M636.5,633.7c-0.4,2-2.2,3.6-4.3,3.6c-2.4,0-4.4-2-4.4-4.4v-4.4c0-2.4,2-4.4,4.4-4.4c2.2,0,4.1,1.7,4.3,3.8
		H634c-0.1-0.9-0.9-1.6-1.9-1.6c-1,0-1.9,0.8-1.9,1.9v5c0,1,0.9,1.9,1.9,1.9c0.9,0,1.6-0.6,1.8-1.4H636.5z"/>
	<path class="st5" d="M644.3,632.1v1.7c0,1.9-1.6,3.5-3.5,3.5c-1.9,0-3.5-1.6-3.5-3.5v-1.7c0-1.9,1.6-3.5,3.5-3.5
		C642.8,628.6,644.3,630.2,644.3,632.1z M642,631.8c0-0.6-0.5-1.2-1.2-1.2c-0.6,0-1.2,0.5-1.2,1.2v2.2c0,0.6,0.5,1.2,1.2,1.2
		c0.7,0,1.2-0.5,1.2-1.2V631.8z"/>
	<path class="st5" d="M652.8,632v5.2h-2.3v-5.3c0-0.8-0.3-1.3-1-1.3c-0.6,0-1.4,0.5-1.4,1.1v5.4h-2.3v-8.4h2.1v0.7
		c0.3-0.4,0.9-0.8,1.8-0.8C651.7,628.6,652.8,629.9,652.8,632z"/>
	<path class="st5" d="M660.6,634.6c0,1.7-1.3,2.7-3.3,2.7c-2,0-3.3-1.3-3.3-3.2h2.1c0,0.9,0.4,1.3,1.1,1.3c0.7,0,1.2-0.3,1.2-0.8
		c0-0.4-0.3-0.6-2-1.1c-1.9-0.5-2.3-1.4-2.3-2.5c0-1.1,0.9-2.4,3.1-2.4c2.2,0,3.2,1.4,3.2,3h-2.1c0-0.7-0.4-1.1-1.1-1.1
		c-0.6,0-1,0.2-1,0.6s0.4,0.7,1.7,1C659.5,632.5,660.6,633.1,660.6,634.6z"/>
	<path class="st5" d="M661.9,633.9v-5.2h2.3v5.3c0,0.8,0.3,1.2,1,1.2c0.6,0,1.4-0.5,1.4-1.1v-5.4h2.3v8.4h-2.1v-0.7
		c-0.3,0.4-0.9,0.8-1.8,0.8C663,637.3,661.9,636,661.9,633.9z"/>
	<path class="st5" d="M682.6,632v5.2h-2.3v-5.4c0-0.7-0.3-1.2-1.1-1.2c-0.6,0-1.4,0.6-1.4,1.2v5.3h-2.3v-5.4c0-0.7-0.2-1.2-1-1.2
		c-0.7,0-1.5,0.4-1.5,1.1v5.5h-2.3v-8.4h2.1v0.7c0.3-0.4,1-0.8,1.9-0.8c0.9,0,1.7,0.4,2.2,1.1c0.6-0.7,1.4-1.1,2.4-1.1
		C681.1,628.6,682.6,629.6,682.6,632z"/>
	<path class="st5" d="M686.9,629.6v4.6c0,0.6,0.2,1,0.6,1h1v1.9h-1.4c-1.9,0-2.5-1-2.5-2.6v-5h-0.9v-1.8h0.9v-2.6h2.3v2.6h1.6v1.8
		H686.9z"/>
	<path class="st5" d="M689.9,624.2h2.3v2.6h-2.3V624.2z M689.9,628.7h2.3v8.4h-2.3V628.7z"/>
	<path class="st5" d="M700.7,632.1v1.7c0,1.9-1.6,3.5-3.5,3.5c-1.9,0-3.5-1.6-3.5-3.5v-1.7c0-1.9,1.6-3.5,3.5-3.5
		C699.1,628.6,700.7,630.2,700.7,632.1z M698.4,631.8c0-0.6-0.5-1.2-1.2-1.2c-0.7,0-1.2,0.5-1.2,1.2v2.2c0,0.6,0.5,1.2,1.2,1.2
		c0.6,0,1.2-0.5,1.2-1.2V631.8z"/>
	<path class="st5" d="M709.2,632v5.2h-2.3v-5.3c0-0.8-0.3-1.3-1-1.3c-0.6,0-1.4,0.5-1.4,1.1v5.4h-2.3v-8.4h2.1v0.7
		c0.3-0.4,0.9-0.8,1.8-0.8C708.1,628.6,709.2,629.9,709.2,632z"/>
</g>
<g>
	<path class="st5" d="M740,562.9c-0.6-1.4-1.2-2.9-1.8-4.3c-0.1,0-0.2,0-0.3,0H736v4.3h-2.5v-13h4.4c2.2,0,3.9,1.6,3.9,3.5v1.6
		c0,1.1-0.6,2.1-1.5,2.8l2.1,5H740z M739.3,555v-1.5c0-0.6-0.5-1.3-1.5-1.3H736v4h1.8C738.8,556.3,739.3,555.6,739.3,555z"/>
	<path class="st5" d="M749.7,557.8v1.2H745v0.7c0,0.6,0.5,1.2,1.2,1.2c0.6,0,1-0.4,1.2-0.9h2.3c-0.3,1.7-1.7,3-3.4,3
		c-1.9,0-3.5-1.6-3.5-3.5v-1.7c0-1.9,1.6-3.5,3.5-3.5C748.2,554.3,749.7,555.9,749.7,557.8z M747.4,557.6c0-0.7-0.5-1.3-1.2-1.3
		c-0.7,0-1.2,0.6-1.2,1.3H747.4z"/>
	<path class="st5" d="M755.4,556.1h-1.6v6.8h-2.3v-6.8h-0.9v-1.8h0.9v-1.9c0-1.5,0.6-2.6,2.5-2.6h1.4v1.9h-0.9c-0.4,0-0.6,0.4-0.6,1
		v1.5h1.6V556.1z"/>
	<path class="st5" d="M756.5,550h2.3v2.6h-2.3V550z M756.5,554.5h2.3v8.4h-2.3V554.5z"/>
	<path class="st5" d="M767.7,557.7v5.2h-2.3v-5.3c0-0.8-0.3-1.3-1-1.3c-0.6,0-1.4,0.5-1.4,1.1v5.4h-2.3v-8.4h2.1v0.7
		c0.3-0.4,0.9-0.8,1.8-0.8C766.5,554.3,767.7,555.6,767.7,557.7z"/>
	<path class="st5" d="M769.5,550h2.3v2.6h-2.3V550z M769.5,554.5h2.3v8.4h-2.3V554.5z"/>
	<path class="st5" d="M780.6,557.7v5.2h-2.3v-5.3c0-0.8-0.3-1.3-1-1.3c-0.6,0-1.4,0.5-1.4,1.1v5.4h-2.3v-8.4h2.1v0.7
		c0.3-0.4,0.9-0.8,1.8-0.8C779.5,554.3,780.6,555.6,780.6,557.7z"/>
	<path class="st5" d="M789.1,554.5v8.9c0,0.3,0,0.6,0,0.9c-0.2,1.5-1.5,2.8-3.4,2.8c-2,0-3.2-1.3-3.3-2.9h2.2c0,0.4,0.5,0.9,1.2,0.9
		c0.7,0,1.2-0.6,1.2-1.1v-1.7c-0.3,0.4-0.9,0.7-1.7,0.7c-1.8,0-3-1.2-3-3.4v-1.9c0-2.1,1.2-3.4,3-3.4c0.9,0,1.6,0.5,1.8,0.8v-0.7
		H789.1z M786.7,557.5c0-0.6-0.7-1.1-1.4-1.1c-0.8,0-1,0.5-1,1.3v1.9c0,0.9,0.1,1.4,1,1.4c0.6,0,1.4-0.5,1.4-1.1V557.5z"/>
</g>
<g>
	<path class="st4" d="M581.4,485.2c-0.4,2-2.2,3.6-4.3,3.6c-2.4,0-4.4-2-4.4-4.4v-4.4c0-2.4,2-4.4,4.4-4.4c2.2,0,4.1,1.7,4.3,3.8
		h-2.5c-0.1-0.9-0.9-1.6-1.9-1.6c-1,0-1.9,0.8-1.9,1.9v5c0,1,0.9,1.9,1.9,1.9c0.9,0,1.6-0.6,1.8-1.4H581.4z"/>
	<path class="st4" d="M589.3,483.6v1.7c0,1.9-1.6,3.5-3.5,3.5c-1.9,0-3.5-1.6-3.5-3.5v-1.7c0-1.9,1.6-3.5,3.5-3.5
		C587.7,480.1,589.3,481.6,589.3,483.6z M586.9,483.3c0-0.6-0.5-1.2-1.2-1.2c-0.6,0-1.2,0.5-1.2,1.2v2.2c0,0.6,0.5,1.2,1.2,1.2
		c0.7,0,1.2-0.5,1.2-1.2V483.3z"/>
	<path class="st4" d="M597.8,483.5v5.2h-2.3v-5.3c0-0.8-0.3-1.3-1-1.3c-0.6,0-1.4,0.5-1.4,1.1v5.4h-2.3v-8.4h2.1v0.7
		c0.3-0.4,0.9-0.8,1.8-0.8C596.6,480.1,597.8,481.3,597.8,483.5z"/>
	<path class="st4" d="M605.5,486c0,1.7-1.3,2.7-3.3,2.7c-2,0-3.3-1.3-3.3-3.2h2.1c0,0.9,0.4,1.3,1.1,1.3c0.7,0,1.2-0.3,1.2-0.8
		c0-0.4-0.3-0.6-2-1.1c-1.9-0.5-2.3-1.4-2.3-2.5c0-1.1,0.9-2.4,3.1-2.4c2.2,0,3.2,1.4,3.2,3h-2.1c0-0.7-0.4-1.1-1.1-1.1
		c-0.6,0-1,0.2-1,0.6s0.4,0.7,1.7,1C604.4,484,605.5,484.5,605.5,486z"/>
	<path class="st4" d="M613.4,483.6v1.2h-4.7v0.7c0,0.6,0.5,1.2,1.2,1.2c0.6,0,1-0.4,1.2-0.9h2.3c-0.3,1.7-1.7,3-3.4,3
		c-1.9,0-3.5-1.6-3.5-3.5v-1.7c0-1.9,1.6-3.5,3.5-3.5C611.9,480.1,613.4,481.6,613.4,483.6z M611.1,483.3c0-0.7-0.5-1.3-1.2-1.3
		c-0.7,0-1.2,0.6-1.2,1.3H611.1z"/>
	<path class="st4" d="M619.6,482.1c-0.2,0-0.4-0.1-0.6-0.1c-1.2,0-1.8,0.8-1.8,1.4v5.2h-2.3v-8.4h2.1v0.8c0.2-0.2,0.7-0.9,2.2-0.9
		c0.1,0,0.2,0,0.3,0V482.1z"/>
	<path class="st4" d="M626.5,480.2c-0.8,2.8-1.6,5.6-2.4,8.4h-2.4c-0.8-2.8-1.6-5.6-2.4-8.4h2.2l1.4,5.9l1.4-5.9H626.5z"/>
	<path class="st4" d="M633.4,483.8v4.8h-2.1V488c-0.3,0.4-0.9,0.8-1.8,0.8c-1.5,0-3-1.1-3-2.9s1.5-2.7,3-2.7h1.7V483
		c0-0.6-0.3-1-1-1c-0.7,0-0.9,0.3-1,0.6h-2.2c0.1-1.3,1.6-2.4,3.2-2.4C632,480.1,633.4,481.4,633.4,483.8z M631.1,485h-1.4
		c-0.7,0-1,0.4-1,1c0,0.5,0.3,1,1,1s1.4-0.5,1.4-1.1V485z"/>
	<path class="st4" d="M637.7,481.1v4.6c0,0.6,0.2,1,0.6,1h1v1.9h-1.4c-1.9,0-2.5-1-2.5-2.6v-5h-0.9v-1.8h0.9v-2.6h2.3v2.6h1.6v1.8
		H637.7z"/>
	<path class="st4" d="M640.7,475.7h2.3v2.6h-2.3V475.7z M640.7,480.2h2.3v8.4h-2.3V480.2z"/>
	<path class="st4" d="M651.5,483.6v1.7c0,1.9-1.6,3.5-3.5,3.5c-1.9,0-3.5-1.6-3.5-3.5v-1.7c0-1.9,1.6-3.5,3.5-3.5
		C649.9,480.1,651.5,481.6,651.5,483.6z M649.2,483.3c0-0.6-0.5-1.2-1.2-1.2c-0.6,0-1.2,0.5-1.2,1.2v2.2c0,0.6,0.5,1.2,1.2,1.2
		c0.7,0,1.2-0.5,1.2-1.2V483.3z"/>
	<path class="st4" d="M660,483.5v5.2h-2.3v-5.3c0-0.8-0.3-1.3-1-1.3c-0.6,0-1.4,0.5-1.4,1.1v5.4H653v-8.4h2.1v0.7
		c0.3-0.4,0.9-0.8,1.8-0.8C658.8,480.1,660,481.3,660,483.5z"/>
</g>
<g>
	<path class="st6" d="M756.7,178.6v13h-2.6v-5.4h-3.3v5.4h-2.6v-13h2.6v5.3h3.3v-5.3H756.7z"/>
	<path class="st6" d="M758.6,188.3v-5.2h2.3v5.3c0,0.8,0.3,1.2,1,1.2c0.6,0,1.4-0.5,1.4-1.1v-5.4h2.3v8.4h-2.1v-0.7
		c-0.3,0.4-0.9,0.8-1.8,0.8C759.7,191.7,758.6,190.4,758.6,188.3z"/>
	<path class="st6" d="M773.4,189c0,1.7-1.3,2.7-3.3,2.7c-2,0-3.3-1.3-3.3-3.2h2.1c0,0.9,0.4,1.3,1.1,1.3c0.7,0,1.2-0.3,1.2-0.8
		c0-0.4-0.3-0.6-2-1.1c-1.9-0.5-2.3-1.4-2.3-2.5c0-1.1,0.9-2.4,3.1-2.4c2.2,0,3.2,1.4,3.2,3h-2.1c0-0.7-0.4-1.1-1.1-1.1
		c-0.6,0-1,0.2-1,0.6s0.4,0.7,1.7,1C772.3,186.9,773.4,187.4,773.4,189z"/>
	<path class="st6" d="M776.9,184v4.6c0,0.6,0.2,1,0.6,1h1v1.9h-1.4c-1.9,0-2.5-1-2.5-2.6v-5h-0.9v-1.8h0.9v-2.6h2.3v2.6h1.6v1.8
		H776.9z"/>
	<path class="st6" d="M782.1,188.9c0,0.6,0.2,0.7,0.5,0.7h0.9v2h-1.4c-1.6,0-2.2-1.1-2.2-2.5v-10.4h2.3V188.9z"/>
	<path class="st6" d="M791.1,186.5v1.2h-4.7v0.7c0,0.6,0.5,1.2,1.2,1.2c0.6,0,1-0.4,1.2-0.9h2.3c-0.3,1.7-1.7,3-3.4,3
		c-1.9,0-3.5-1.6-3.5-3.5v-1.7c0-1.9,1.6-3.5,3.5-3.5C789.5,183,791.1,184.6,791.1,186.5z M788.8,186.2c0-0.7-0.5-1.3-1.2-1.3
		c-0.7,0-1.2,0.6-1.2,1.3H788.8z"/>
	<path class="st6" d="M797.2,185c-0.2,0-0.4-0.1-0.6-0.1c-1.2,0-1.8,0.8-1.8,1.4v5.2h-2.3v-8.4h2.1v0.8c0.2-0.2,0.7-0.9,2.2-0.9
		c0.1,0,0.2,0,0.3,0V185z"/>
	<path class="st6" d="M804.1,189c0,1.7-1.3,2.7-3.3,2.7c-2,0-3.3-1.3-3.3-3.2h2.1c0,0.9,0.4,1.3,1.1,1.3c0.7,0,1.2-0.3,1.2-0.8
		c0-0.4-0.3-0.6-2-1.1c-1.9-0.5-2.3-1.4-2.3-2.5c0-1.1,0.9-2.4,3.1-2.4c2.2,0,3.2,1.4,3.2,3h-2.1c0-0.7-0.4-1.1-1.1-1.1
		c-0.6,0-1,0.2-1,0.6s0.4,0.7,1.7,1C803,186.9,804.1,187.4,804.1,189z"/>
</g>
<g>
	<path class="st7" d="M702.2,104.3v13h-2.6v-5.4h-3.3v5.4h-2.6v-13h2.6v5.3h3.3v-5.3H702.2z"/>
	<path class="st7" d="M710.6,112.5v4.8h-2.1v-0.7c-0.3,0.4-0.9,0.8-1.8,0.8c-1.5,0-3-1.1-3-2.9s1.5-2.7,3-2.7h1.7v-0.2
		c0-0.6-0.3-1-1-1c-0.7,0-0.9,0.3-1,0.6H704c0.1-1.3,1.6-2.4,3.2-2.4C709.2,108.7,710.6,110.1,710.6,112.5z M708.3,113.6h-1.4
		c-0.7,0-1,0.4-1,1c0,0.5,0.3,1,1,1s1.4-0.5,1.4-1.1V113.6z"/>
	<path class="st7" d="M718.8,114.4c-0.2,1.7-1.7,3-3.4,3c-1.9,0-3.5-1.6-3.5-3.5v-1.7c0-1.9,1.6-3.5,3.5-3.5c1.7,0,3.2,1.3,3.4,2.9
		h-2.3c-0.1-0.5-0.6-0.9-1.1-0.9c-0.6,0-1.2,0.5-1.2,1.2v2.2c0,0.6,0.5,1.1,1.1,1.1c0.6,0,1.1-0.3,1.2-0.9H718.8z"/>
	<path class="st7" d="M722.6,111.8h0.4l1.9-3h2.4l-2.5,3.9l3.1,4.5h-2.3l-2.3-3.4h-0.6v3.4h-2.3v-12.9h2.3V111.8z"/>
	<path class="st7" d="M734.4,114.7c0,1.7-1.3,2.7-3.3,2.7c-2,0-3.3-1.3-3.3-3.2h2.1c0,0.9,0.4,1.3,1.1,1.3c0.7,0,1.2-0.3,1.2-0.8
		c0-0.4-0.3-0.6-2-1.1c-1.9-0.5-2.3-1.4-2.3-2.5c0-1.1,0.9-2.4,3.1-2.4c2.2,0,3.2,1.4,3.2,3h-2.1c0-0.7-0.4-1.1-1.1-1.1
		c-0.6,0-1,0.2-1,0.6s0.4,0.7,1.7,1C733.3,112.7,734.4,113.2,734.4,114.7z"/>
</g>
<g>
	<path class="st8" d="M529.5,287.1c-0.4,2-2.2,3.6-4.3,3.6c-2.4,0-4.4-2-4.4-4.4v-4.4c0-2.4,2-4.4,4.4-4.4c2.2,0,4.1,1.7,4.3,3.8
		h-2.5c-0.1-0.9-0.9-1.6-1.9-1.6c-1,0-1.9,0.8-1.9,1.9v5c0,1,0.9,1.9,1.9,1.9c0.9,0,1.6-0.6,1.8-1.4H529.5z"/>
	<path class="st8" d="M530.8,277.6h2.3v2.6h-2.3V277.6z M530.8,282.1h2.3v8.4h-2.3V282.1z"/>
	<path class="st8" d="M541.9,285.4v5.2h-2.3v-5.3c0-0.8-0.3-1.3-1-1.3c-0.6,0-1.4,0.5-1.4,1.1v5.4h-2.3v-8.4h2.1v0.7
		c0.3-0.4,0.9-0.8,1.8-0.8C540.7,282,541.9,283.3,541.9,285.4z"/>
	<path class="st8" d="M550.3,285.5v1.2h-4.7v0.7c0,0.6,0.5,1.2,1.2,1.2c0.6,0,1-0.4,1.2-0.9h2.3c-0.3,1.7-1.7,3-3.4,3
		c-1.9,0-3.5-1.6-3.5-3.5v-1.7c0-1.9,1.6-3.5,3.5-3.5C548.7,282,550.3,283.6,550.3,285.5z M548,285.3c0-0.7-0.5-1.3-1.2-1.3
		c-0.7,0-1.2,0.6-1.2,1.3H548z"/>
	<path class="st8" d="M563.6,285.4v5.2h-2.3v-5.4c0-0.7-0.3-1.2-1.1-1.2c-0.6,0-1.4,0.6-1.4,1.2v5.3h-2.3v-5.4c0-0.7-0.2-1.2-1-1.2
		c-0.6,0-1.5,0.4-1.5,1.1v5.5h-2.3v-8.4h2.1v0.7c0.3-0.4,1-0.8,1.9-0.8c0.9,0,1.7,0.4,2.2,1.1c0.6-0.7,1.4-1.1,2.4-1.1
		C562.2,282,563.6,283,563.6,285.4z"/>
	<path class="st8" d="M571.8,285.8v4.8h-2.1v-0.7c-0.3,0.4-0.9,0.8-1.8,0.8c-1.5,0-3-1.1-3-2.9s1.5-2.7,3-2.7h1.7v-0.2
		c0-0.6-0.3-1-1-1c-0.7,0-0.9,0.3-1,0.6h-2.2c0.1-1.3,1.6-2.4,3.2-2.4C570.4,282,571.8,283.4,571.8,285.8z M569.5,286.9h-1.4
		c-0.7,0-1,0.4-1,1c0,0.5,0.3,1,1,1s1.4-0.5,1.4-1.1V286.9z"/>
	<path class="st8" d="M588.2,286.6v1.9H587v2h-2.1v-2h-4.4v-2.1l4.1-8.9h2.5v9H588.2z M584.8,286.6v-5.3l-2.4,5.3H584.8z"/>
	<path class="st8" d="M598.2,281.9v4.4c0,2.6-1.9,4.3-4.2,4.3h-4.6v-13h4.5C596.4,277.6,598.2,279.3,598.2,281.9z M595.7,281.6
		c0-1-0.7-1.8-1.8-1.8H592v8.5h1.9c1,0,1.8-0.8,1.8-1.8V281.6z"/>
</g>
<g>
	<path class="st9" d="M835.8,361.4c-0.4,2-2.2,3.6-4.3,3.6c-2.4,0-4.4-2-4.4-4.4v-4.4c0-2.4,2-4.4,4.4-4.4c2.2,0,4.1,1.7,4.3,3.8
		h-2.5c-0.1-0.9-0.9-1.6-1.9-1.6c-1,0-1.9,0.8-1.9,1.9v5c0,1,0.9,1.9,1.9,1.9c0.9,0,1.6-0.6,1.8-1.4H835.8z"/>
	<path class="st9" d="M845.3,361c0,2.6-2.3,3.9-4.4,3.9c-2.1,0-4.4-1.2-4.4-4h2.6c0,1,0.6,1.8,1.9,1.8c1.3,0,1.9-0.8,1.9-1.7
		c0-0.8-0.4-1.3-2.3-1.8s-3.9-1.3-3.9-3.8c0-1.9,1.3-3.8,4.2-3.8s4.2,1.9,4.2,3.6h-2.6c0-0.7-0.5-1.4-1.7-1.4
		c-1.1,0-1.6,0.7-1.6,1.5c0,0.7,0.3,1.1,2.3,1.7C843.4,357.7,845.3,358.4,845.3,361z"/>
	<path class="st9" d="M855,361c0,2.6-2.3,3.9-4.4,3.9c-2.1,0-4.4-1.2-4.4-4h2.6c0,1,0.6,1.8,1.9,1.8c1.3,0,1.9-0.8,1.9-1.7
		c0-0.8-0.4-1.3-2.3-1.8s-3.9-1.3-3.9-3.8c0-1.9,1.3-3.8,4.2-3.8s4.2,1.9,4.2,3.6h-2.6c0-0.7-0.5-1.4-1.7-1.4
		c-1.1,0-1.6,0.7-1.6,1.5c0,0.7,0.3,1.1,2.3,1.7C853.1,357.7,855,358.4,855,361z"/>
</g>
<g>
	<path class="st9" d="M484.1,414.4h-2.9c-0.9-1.9-1.8-3.8-2.7-5.7h-1v5.7H475v-13h2.5v4.9h1.1l2.1-4.9h2.9l-2.7,6.2L484.1,414.4z"/>
	<path class="st9" d="M490.9,409.3v1.2h-4.7v0.7c0,0.6,0.5,1.2,1.2,1.2c0.6,0,1-0.4,1.2-0.9h2.3c-0.3,1.7-1.7,3-3.4,3
		c-1.9,0-3.5-1.6-3.5-3.5v-1.7c0-1.9,1.6-3.5,3.5-3.5C489.4,405.8,490.9,407.4,490.9,409.3z M488.6,409c0-0.7-0.5-1.3-1.2-1.3
		c-0.7,0-1.2,0.6-1.2,1.3H488.6z"/>
	<path class="st9" d="M498.9,405.9l-3.9,12.5h-2l1.1-3.6l-2.9-8.9h2.2l1.7,5.7c0.6-1.9,1.1-3.8,1.7-5.7H498.9z"/>
	<path class="st9" d="M506.5,409.2v5.2h-2.3v-5.3c0-0.8-0.3-1.3-1-1.3c-0.6,0-1.4,0.5-1.4,1.1v5.4h-2.3v-8.4h2.1v0.7
		c0.3-0.4,0.9-0.8,1.8-0.8C505.4,405.8,506.5,407,506.5,409.2z"/>
	<path class="st9" d="M515,409.3v1.7c0,1.9-1.6,3.5-3.5,3.5c-1.9,0-3.5-1.6-3.5-3.5v-1.7c0-1.9,1.6-3.5,3.5-3.5
		C513.4,405.8,515,407.4,515,409.3z M512.7,409c0-0.6-0.5-1.2-1.2-1.2c-0.7,0-1.2,0.5-1.2,1.2v2.2c0,0.6,0.5,1.2,1.2,1.2
		c0.6,0,1.2-0.5,1.2-1.2V409z"/>
	<path class="st9" d="M519,406.8v4.6c0,0.6,0.2,1,0.6,1h1v1.9h-1.4c-1.9,0-2.5-1-2.5-2.6v-5h-0.9v-1.8h0.9v-2.6h2.3v2.6h1.6v1.8H519
		z"/>
	<path class="st9" d="M528.6,409.3v1.2h-4.7v0.7c0,0.6,0.5,1.2,1.2,1.2c0.6,0,1-0.4,1.2-0.9h2.3c-0.3,1.7-1.7,3-3.4,3
		c-1.9,0-3.5-1.6-3.5-3.5v-1.7c0-1.9,1.6-3.5,3.5-3.5C527.1,405.8,528.6,407.4,528.6,409.3z M526.3,409c0-0.7-0.5-1.3-1.2-1.3
		c-0.7,0-1.2,0.6-1.2,1.3H526.3z"/>
</g>
<g>
	<path class="st4" d="M537.9,524.3v13h-2.6v-5.4h-3.3v5.4h-2.6v-13h2.6v5.3h3.3v-5.3H537.9z"/>
	<path class="st4" d="M546.5,532.2v1.7c0,1.9-1.6,3.5-3.5,3.5c-1.9,0-3.5-1.6-3.5-3.5v-1.7c0-1.9,1.6-3.5,3.5-3.5
		C545,528.7,546.5,530.3,546.5,532.2z M544.2,531.9c0-0.6-0.5-1.2-1.2-1.2c-0.6,0-1.2,0.5-1.2,1.2v2.2c0,0.6,0.5,1.2,1.2,1.2
		c0.7,0,1.2-0.5,1.2-1.2V531.9z"/>
	<path class="st4" d="M559.9,532.1v5.2h-2.3v-5.4c0-0.7-0.3-1.2-1.1-1.2c-0.6,0-1.4,0.6-1.4,1.2v5.3h-2.3v-5.4c0-0.7-0.2-1.2-1-1.2
		c-0.6,0-1.5,0.4-1.5,1.1v5.5h-2.3v-8.4h2.1v0.7c0.3-0.4,1-0.8,1.9-0.8c0.9,0,1.7,0.4,2.2,1.1c0.6-0.7,1.4-1.1,2.4-1.1
		C558.5,528.7,559.9,529.7,559.9,532.1z"/>
	<path class="st4" d="M568.3,532.2v1.2h-4.7v0.7c0,0.6,0.5,1.2,1.2,1.2c0.6,0,1-0.4,1.2-0.9h2.3c-0.3,1.7-1.7,3-3.4,3
		c-1.9,0-3.5-1.6-3.5-3.5v-1.7c0-1.9,1.6-3.5,3.5-3.5C566.8,528.7,568.3,530.3,568.3,532.2z M566,531.9c0-0.7-0.5-1.3-1.2-1.3
		c-0.7,0-1.2,0.6-1.2,1.3H566z"/>
	<path class="st4" d="M585.6,533.4c0,2.6-2.3,3.9-4.4,3.9c-2.1,0-4.4-1.2-4.4-4h2.6c0,1,0.6,1.8,1.9,1.8c1.3,0,1.9-0.8,1.9-1.7
		c0-0.8-0.4-1.3-2.3-1.8s-3.9-1.3-3.9-3.8c0-1.9,1.3-3.8,4.2-3.8c2.9,0,4.2,1.9,4.2,3.6h-2.6c0-0.7-0.5-1.4-1.7-1.4
		c-1.1,0-1.6,0.7-1.6,1.5c0,0.7,0.3,1.1,2.3,1.7C583.7,530.1,585.6,530.8,585.6,533.4z"/>
	<path class="st4" d="M589.6,529.7v4.6c0,0.6,0.2,1,0.6,1h1v1.9h-1.4c-1.9,0-2.5-1-2.5-2.6v-5h-0.9V528h0.9v-2.6h2.3v2.6h1.6v1.8
		H589.6z"/>
	<path class="st4" d="M599.2,532.2v1.7c0,1.9-1.6,3.5-3.5,3.5c-1.9,0-3.5-1.6-3.5-3.5v-1.7c0-1.9,1.6-3.5,3.5-3.5
		C597.7,528.7,599.2,530.3,599.2,532.2z M596.9,531.9c0-0.6-0.5-1.2-1.2-1.2c-0.6,0-1.2,0.5-1.2,1.2v2.2c0,0.6,0.5,1.2,1.2,1.2
		c0.7,0,1.2-0.5,1.2-1.2V531.9z"/>
	<path class="st4" d="M605.5,530.7c-0.2,0-0.4-0.1-0.6-0.1c-1.2,0-1.8,0.8-1.8,1.4v5.2h-2.3v-8.4h2.1v0.8c0.2-0.2,0.7-0.9,2.2-0.9
		c0.1,0,0.2,0,0.3,0V530.7z"/>
	<path class="st4" d="M612.7,532.4v4.8h-2.1v-0.7c-0.3,0.4-0.9,0.8-1.8,0.8c-1.5,0-3-1.1-3-2.9s1.5-2.7,3-2.7h1.7v-0.2
		c0-0.6-0.3-1-1-1c-0.7,0-0.9,0.3-1,0.6h-2.2c0.1-1.3,1.6-2.4,3.2-2.4C611.3,528.7,612.7,530.1,612.7,532.4z M610.4,533.6H609
		c-0.7,0-1,0.4-1,1c0,0.5,0.3,1,1,1s1.4-0.5,1.4-1.1V533.6z"/>
	<path class="st4" d="M621.1,528.8v8.9c0,0.3,0,0.6,0,0.9c-0.2,1.5-1.5,2.8-3.4,2.8c-2,0-3.2-1.3-3.3-2.9h2.2c0,0.4,0.5,0.9,1.2,0.9
		c0.7,0,1.2-0.6,1.2-1.1v-1.7c-0.3,0.4-0.9,0.7-1.7,0.7c-1.8,0-3-1.2-3-3.4v-1.9c0-2.1,1.2-3.4,3-3.4c0.9,0,1.6,0.5,1.8,0.8v-0.7
		H621.1z M618.7,531.9c0-0.6-0.7-1.1-1.4-1.1c-0.8,0-1,0.5-1,1.3v1.9c0,0.9,0.1,1.4,1,1.4c0.6,0,1.4-0.5,1.4-1.1V531.9z"/>
	<path class="st4" d="M629.5,532.2v1.2h-4.7v0.7c0,0.6,0.5,1.2,1.2,1.2c0.6,0,1-0.4,1.2-0.9h2.3c-0.3,1.7-1.7,3-3.4,3
		c-1.9,0-3.5-1.6-3.5-3.5v-1.7c0-1.9,1.6-3.5,3.5-3.5C628,528.7,629.5,530.3,629.5,532.2z M627.2,531.9c0-0.7-0.5-1.3-1.2-1.3
		c-0.7,0-1.2,0.6-1.2,1.3H627.2z"/>
</g>
<g>
	<path class="st4" d="M760,476.8v8.8h1.5v2.1h-5.3v-2.1h1.5v-8.8h-1.5v-2.1h5.3v2.1H760z"/>
	<path class="st4" d="M770.2,482.6v5.2h-2.3v-5.3c0-0.8-0.3-1.3-1-1.3c-0.6,0-1.4,0.5-1.4,1.1v5.4h-2.3v-8.4h2.1v0.7
		c0.3-0.4,0.9-0.8,1.8-0.8C769,479.2,770.2,480.4,770.2,482.6z"/>
	<path class="st4" d="M778,479.3c-0.8,2.8-1.6,5.6-2.4,8.4h-2.4c-0.8-2.8-1.6-5.6-2.4-8.4h2.2l1.4,5.9l1.4-5.9H778z"/>
	<path class="st4" d="M785.3,482.7v1.2h-4.7v0.7c0,0.6,0.5,1.2,1.2,1.2c0.6,0,1-0.4,1.2-0.9h2.3c-0.3,1.7-1.7,3-3.4,3
		c-1.9,0-3.5-1.6-3.5-3.5v-1.7c0-1.9,1.6-3.5,3.5-3.5C783.8,479.2,785.3,480.8,785.3,482.7z M783,482.4c0-0.7-0.5-1.3-1.2-1.3
		c-0.7,0-1.2,0.6-1.2,1.3H783z"/>
	<path class="st4" d="M793.8,482.6v5.2h-2.3v-5.3c0-0.8-0.3-1.3-1-1.3c-0.6,0-1.4,0.5-1.4,1.1v5.4h-2.3v-8.4h2.1v0.7
		c0.3-0.4,0.9-0.8,1.8-0.8C792.6,479.2,793.8,480.4,793.8,482.6z"/>
	<path class="st4" d="M798.1,480.2v4.6c0,0.6,0.2,1,0.6,1h1v1.9h-1.4c-1.9,0-2.5-1-2.5-2.6v-5h-0.9v-1.8h0.9v-2.6h2.3v2.6h1.6v1.8
		H798.1z"/>
	<path class="st4" d="M807.8,482.7v1.7c0,1.9-1.6,3.5-3.5,3.5c-1.9,0-3.5-1.6-3.5-3.5v-1.7c0-1.9,1.6-3.5,3.5-3.5
		C806.2,479.2,807.8,480.8,807.8,482.7z M805.5,482.4c0-0.6-0.5-1.2-1.2-1.2c-0.7,0-1.2,0.5-1.2,1.2v2.2c0,0.6,0.5,1.2,1.2,1.2
		c0.6,0,1.2-0.5,1.2-1.2V482.4z"/>
	<path class="st4" d="M814,481.2c-0.2,0-0.4-0.1-0.6-0.1c-1.2,0-1.8,0.8-1.8,1.4v5.2h-2.3v-8.4h2.1v0.8c0.2-0.2,0.7-0.9,2.2-0.9
		c0.1,0,0.2,0,0.3,0V481.2z"/>
	<path class="st4" d="M821.5,479.3l-3.9,12.5h-2l1.1-3.6l-2.9-8.9h2.2l1.7,5.7c0.6-1.9,1.1-3.8,1.7-5.7H821.5z"/>
</g>
<g>
	<path class="st9" d="M790.3,375.8l-3.5,13h-2.5l-2.1-8.1l-2.1,8.1h-2.5l-3.5-13h2.5l2.2,8.6l2.3-8.6h2.1l2.3,8.6l2.1-8.6H790.3z"/>
	<path class="st9" d="M797.5,383.6v1.2h-4.7v0.7c0,0.6,0.5,1.2,1.2,1.2c0.6,0,1-0.4,1.2-0.9h2.3c-0.3,1.7-1.7,3-3.4,3
		c-1.9,0-3.5-1.6-3.5-3.5v-1.7c0-1.9,1.6-3.5,3.5-3.5C796,380.2,797.5,381.7,797.5,383.6z M795.2,383.4c0-0.7-0.5-1.3-1.2-1.3
		c-0.7,0-1.2,0.6-1.2,1.3H795.2z"/>
	<path class="st9" d="M801.2,388v0.7H799v-12.9h2.2v5.1c0.3-0.4,0.9-0.8,1.7-0.8c1.8,0,3,1.3,3,3.4v1.9c0,2.2-1.2,3.4-3,3.4
		C802,388.8,801.4,388.4,801.2,388z M801.3,383.3v2.4c0,0.6,0.7,1.1,1.4,1.1c0.8,0,1-0.5,1-1.2v-1.9c0-0.9-0.2-1.5-1-1.5
		C802,382.2,801.3,382.7,801.3,383.3z"/>
	<path class="st9" d="M814.1,388.7c-0.6-1.4-1.2-2.9-1.8-4.3c-0.1,0-0.2,0-0.3,0h-1.9v4.3h-2.5v-13h4.4c2.2,0,3.9,1.6,3.9,3.5v1.6
		c0,1.1-0.6,2.1-1.5,2.8l2.1,5H814.1z M813.4,380.8v-1.5c0-0.6-0.5-1.3-1.5-1.3h-1.8v4h1.8C812.9,382.1,813.4,381.4,813.4,380.8z"/>
	<path class="st9" d="M825.3,378h-3.1v10.7h-2.5V378h-3v-2.2h8.6V378z"/>
	<path class="st9" d="M834.9,385.2c-0.4,2-2.2,3.6-4.3,3.6c-2.4,0-4.4-2-4.4-4.4V380c0-2.4,2-4.4,4.4-4.4c2.2,0,4.1,1.7,4.3,3.8
		h-2.5c-0.1-0.9-0.9-1.6-1.9-1.6c-1,0-1.9,0.8-1.9,1.9v5c0,1,0.9,1.9,1.9,1.9c0.9,0,1.6-0.6,1.8-1.4H834.9z"/>
</g>
</svg>
