<?xml version="1.0" encoding="utf-8"?>
<!-- Generator: Adobe Illustrator 19.2.0, SVG Export Plug-In . SVG Version: 6.00 Build 0)  -->
<svg version="1.1" id="Ebene_1" xmlns="http://www.w3.org/2000/svg" xmlns:xlink="http://www.w3.org/1999/xlink" x="0px" y="0px"
	 viewBox="0 0 1440 1120.9" style="enable-background:new 0 0 1440 1120.9;" xml:space="preserve">
<style type="text/css">
	.st0{clip-path:url(#SVGID_2_);}
	.st1{opacity:0.7;}
	.st2{opacity:0.3;}
	.st3{fill:#FFFFFF;}
	.st4{fill:#953C9C;}
	.st5{fill:#009CE2;}
	.st6{fill:#FDBB00;}
	.st7{fill:#65BC2C;}
	.st8{fill:#F68600;}
	.st9{fill:#E03E3B;}
	.st10{opacity:0.59;}
	.st11{fill:#87AC2D;}
	.st12{fill:#0E1020;}
	.st13{fill-rule:evenodd;clip-rule:evenodd;fill:#FFFFFF;}
	.st14{fill:#FDFDFC;}
</style>
<g>
	<g>
		<path class="st3" d="M86.3,195c1.7,0.6,4.7,1.9,4.7,6.9v12.4c0,2.3,0.3,3.8,1.1,4.6c0.7,0.8,1.9,1.2,4,1.2h3.9v8h-7.4
			c-3.6,0-6-1-7.7-2.7c-2.1-2.1-2.9-4.7-2.9-7.7c0,0,0-11.4,0-13.2c0-1.9-0.4-3.3-1.2-4c-0.8-0.8-1.9-1.3-3.6-1.3H74v-8h3.2
			c1.6,0,2.8-0.5,3.6-1.3c0.8-0.8,1.2-2.3,1.2-4.2v-13.3c0-3.1,0.8-5.6,2.9-7.6c1.7-1.7,4.2-2.6,7.7-2.6h7.4v8h-3.9
			c-2.1,0-3.3,0.3-4,1.1c-0.8,0.8-1.1,2.2-1.1,4.5v12.6C91,193.1,88,194.3,86.3,195z"/>
	</g>
</g>
<g>
	<g>
		<path class="st3" d="M287,175.5c0-2.3-0.4-3.7-1.2-4.5c-0.7-0.8-2-1.1-4-1.1H278v-8h7.2c3.6,0,6.1,0.9,7.8,2.6
			c2.1,2.1,2.9,4.5,2.9,7.6v13.3c0,1.9,0.3,3.4,1.1,4.2c0.8,0.8,1.9,1.3,3.5,1.3h3.4v8h-3.4c-1.6,0-2.7,0.5-3.5,1.3
			c-0.8,0.8-1.1,2.2-1.1,4c0,1.8,0,13.2,0,13.2c0,3.1-0.9,5.7-2.9,7.7c-1.7,1.7-4.3,2.7-7.8,2.7H278v-8h3.7c2.1,0,3.4-0.4,4-1.2
			c0.8-0.8,1.2-2.3,1.2-4.6v-12.4c0-5,3-6.3,4.7-6.9c-1.7-0.7-4.7-1.9-4.7-6.9V175.5z"/>
	</g>
</g>
<g>
	<path class="st3" d="M138,199.1V221h-10v-22.4c0-3-0.9-5.3-4.2-5.3c-2.8,0-5.8,2.1-5.8,4.8V221h-9v-55h9v21.9
		c1-1.6,3.7-3.2,7.3-3.2C133.1,184.7,138,190,138,199.1z"/>
	<path class="st3" d="M172,200.6V221h-9v-2.9c-1,1.5-3.5,3.3-7.6,3.3c-6.4,0-12.5-4.3-12.5-12s6.4-11.4,12.7-11.4h7.4v-1.1
		c0-2.6-1.6-4.4-4.5-4.4c-2.8,0-4.1,1.4-4.3,2.4h-9.5c0.5-6,6.4-10.3,13.1-10.3C166.5,184.7,172,190.5,172,200.6z M163,206h-6.1
		c-2.8,0-4.2,1.5-4.2,3.8c0,2.2,1.5,3.9,4.3,3.9c2.8,0,5.9-2.2,5.9-4.9V206z"/>
	<path class="st3" d="M207.4,209c-0.9,7-7.2,12.4-14.5,12.4c-8.1,0-14.9-6.7-14.9-14.8v-7.2c0-8.1,6.8-14.7,14.9-14.7
		c7.3,0,13.5,5.3,14.4,12.3h-9.7c-0.3-2-2.4-3.7-4.8-3.7c-2.7,0-4.9,2.3-4.9,5.1v9.5c0,2.7,2.1,4.9,4.8,4.9c2.4,0,4.6-1.7,5-3.7
		H207.4z"/>
	<path class="st3" d="M223,198h2l8.2-13h10l-10.7,16.8l12.9,19.2h-9.8l-9.8-14H223v14h-9v-55h9V198z"/>
	<path class="st3" d="M273.5,210c0,7.1-5.4,11.5-13.8,11.5c-8.3,0-13.9-5.5-13.9-13.5h9c0,4,1.8,5.5,4.8,5.5c3,0,4.9-1.4,4.9-3.4
		c0-1.8-1.2-2.7-8.3-4.5c-8.2-2.1-9.8-6.1-9.8-10.6c0-4.5,3.6-10,13.2-10c9.5,0,13.5,6,13.5,13h-9.1c-0.1-3-1.7-5-4.5-5
		c-2.7,0-4.2,0.8-4.2,2.6c0,1.8,1.6,2.8,7.1,4.3C268.8,201.4,273.5,203.6,273.5,210z"/>
</g>
<g>
	<path class="st3" d="M125,134h-7v29h-10v-29h-4v-7h4v-8c0-6.5,3-11,10.8-11h6.2v8h-4.2c-1.7,0-2.8,1.9-2.8,4.6v6.4h7V134z"/>
	<path class="st3" d="M156,141.6v7.2c0,8.1-6.9,14.7-15,14.7c-8.1,0-15-6.6-15-14.7v-7.2c0-8.1,6.9-14.8,15-14.8
		C149.1,126.9,156,133.5,156,141.6z M146,140.5c0-2.7-2.3-5-5-5c-2.7,0-5,2.3-5,5v9.5c0,2.7,2.3,5,5,5c2.7,0,5-2.3,5-5V140.5z"/>
	<path class="st3" d="M190,141.6v7.2c0,8.1-6.9,14.7-15,14.7c-8.1,0-15-6.6-15-14.7v-7.2c0-8.1,6.9-14.8,15-14.8
		C183.1,126.9,190,133.5,190,141.6z M180,140.5c0-2.7-2.3-5-5-5c-2.7,0-5,2.3-5,5v9.5c0,2.7,2.3,5,5,5c2.7,0,5-2.3,5-5V140.5z"/>
	<path class="st3" d="M194,149.2v-8c0-9.1,4.9-14.4,12.7-14.4c3.7,0,6.3,1.6,7.3,3.2V108h9v55h-9v-2.7c-1,1.5-3.5,3.3-7.5,3.3
		C198.7,163.6,194,158.3,194,149.2z M203,141.6v8.1c0,3.2,1.1,5.2,4.3,5.2c2.7,0,5.7-2.1,5.7-4.7v-10c0-2.7-3-4.8-5.7-4.8
		C203.7,135.5,203,137.9,203,141.6z"/>
</g>
<g class="st10">
	<path class="st3" d="M112.1,374.8v2c0,1.3-1.1,2.6-3,2.6h-2v3.1h-1.1v-10.4h3.1C111,372.2,112.1,373.5,112.1,374.8z M111,376.8v-2
		c0-0.8-0.7-1.6-1.9-1.6h-1.9v5.2h1.9C110.3,378.4,111,377.6,111,376.8z"/>
	<path class="st3" d="M122.6,375.1v4.5c0,1.6-1.3,3-3.2,3c-1.8,0-3.2-1.4-3.2-3v-4.5c0-1.6,1.3-3,3.2-3
		C121.2,372.1,122.6,373.5,122.6,375.1z M121.5,375c0-1.2-1-2-2.1-2c-1.1,0-2.1,0.8-2.1,2v4.7c0,1.2,1,2,2.1,2c1.1,0,2.1-0.8,2.1-2
		V375z"/>
	<path class="st3" d="M137.8,372.2l-2.7,10.4h-1l-2.1-8.1l-2.1,8.1h-1l-2.7-10.4h1.1l2.2,8.3l2.2-8.3h0.9l2.2,8.3l2.2-8.3H137.8z"/>
	<path class="st3" d="M142.9,373.2v3.7h3.7v1h-3.7v3.7h4.3v1l-5.4,0v-10.4l5.4,0v1H142.9z"/>
	<path class="st3" d="M152.9,382.5h-1.1v-10.4h3.1c1.8,0,3,1.3,3,2.6v1.5c0,0.9-0.5,1.8-1.4,2.3c0.6,1.3,1.2,2.7,1.8,4h-1l-1.7-3.7
		c-0.2,0-0.4,0.1-0.6,0.1h-2V382.5z M152.9,377.9h1.9c1.1,0,1.9-0.8,1.9-1.6v-1.5c0-0.8-0.8-1.6-1.9-1.6h-1.9V377.9z"/>
	<path class="st3" d="M163.5,373.2v3.7h3.7v1h-3.7v3.7h4.3v1h-5.4v-10.4l5.4,0v1H163.5z"/>
	<path class="st3" d="M178.8,375.1v4.5c0,1.6-1.2,3-3.1,3l-3.3,0v-10.4l3.3,0C177.6,372.2,178.8,373.5,178.8,375.1z M177.7,375
		c0-1.2-0.9-1.9-2-1.9h-2.2v1.9v6.6h2.2c1.1,0,2-0.8,2-1.9V375z"/>
	<path class="st3" d="M199.1,379.7c0,1.6-1.2,2.8-3.2,2.8h-3.1v-10.4c0.9,0,1.9,0,2.9,0c2.1,0,3.2,1.2,3.2,2.7
		c0,1.6-1.2,2.2-1.2,2.2S199.1,377.6,199.1,379.7z M193.9,373.1v3.5h1.7c1.3,0,2.2-0.7,2.2-1.8c0-0.8-0.6-1.7-2.2-1.7H193.9z
		 M195.8,377.7h-1.9v3.9h1.9c1.5,0,2.2-0.8,2.2-1.9C198,378.5,197.4,377.7,195.8,377.7z"/>
	<path class="st3" d="M210.1,372.2l-3.1,6.9v3.5h-1V379l-3.2-6.9h1.1l2.5,5.6l2.5-5.6H210.1z"/>
</g>
<g class="st10">
	<path class="st3" d="M110.5,570.7h-3.7l-0.8,2.7h-1.1l3.2-10.4h1.1l3.1,10.4h-1.1L110.5,570.7z M110.2,569.7l-1.5-5l-1.5,5H110.2z"
		/>
	<path class="st3" d="M131.6,563v10.4l-1.1,0v-4.7h-3.9v4.7h-1.1V563h1.1v4.7h3.9V563L131.6,563z"/>
	<path class="st3" d="M141.2,570.7h-3.7l-0.8,2.7h-1.1l3.2-10.4h1.1l3.1,10.4H142L141.2,570.7z M140.9,569.7l-1.5-5l-1.5,5H140.9z"
		/>
	<path class="st3" d="M151.9,570.8h1.1c-0.2,1.4-1.4,2.7-3.1,2.7c-1.7,0-2.9-1.1-3.1-2.5c-0.1-0.3-0.1-0.7-0.1-1.1v-3.4
		c0-0.4,0-0.7,0.1-1.1c0.2-1.3,1.4-2.5,3.1-2.5c1.8,0,3,1.3,3.2,2.8H152c-0.1-1.1-1-1.8-2.1-1.8c-1.1,0-2.1,0.8-2.1,2v4.7
		c0,1.2,1,2,2.1,2C150.9,572.5,151.8,571.8,151.9,570.8z"/>
	<path class="st3" d="M164.2,573.4H163l-2.6-5h-1.4v5h-1.1V563h1.1v4.4h1.4l2.1-4.4h1.3l-2.4,4.9L164.2,573.4z"/>
	<path class="st3" d="M172.7,570.7H169l-0.8,2.7h-1.1l3.2-10.4h1.1l3.1,10.4h-1.1L172.7,570.7z M172.4,569.7l-1.5-5l-1.5,5H172.4z"
		/>
	<path class="st3" d="M183.4,564h-2.6v9.4l-1.1,0V564h-2.5v-1h6.2V564z"/>
	<path class="st3" d="M193.8,563v10.4h-1.1v-4.7h-3.9v4.7h-1.1V563h1.1v4.7h3.9V563H193.8z"/>
	<path class="st3" d="M205,566v4.5c0,1.6-1.3,3-3.2,3s-3.2-1.4-3.2-3V566c0-1.6,1.3-3,3.2-3S205,564.4,205,566z M204,565.9
		c0-1.2-1-2-2.1-2c-1.1,0-2.1,0.8-2.1,2v4.7c0,1.2,1,2,2.1,2c1.1,0,2.1-0.8,2.1-2V565.9z"/>
	<path class="st3" d="M211,565.3v8.1h-1.1V563l1,0l4.6,8.1V563h1.1v10.4h-1C214.1,570.7,212.6,568,211,565.3z"/>
	<path class="st3" d="M237.4,570.5c0,1.6-1.2,2.8-3.2,2.8H231V563c0.9,0,1.9,0,2.9,0c2.1,0,3.2,1.2,3.2,2.7c0,1.6-1.2,2.2-1.2,2.2
		S237.4,568.4,237.4,570.5z M232.1,564v3.5h1.7c1.3,0,2.2-0.7,2.2-1.8c0-0.8-0.6-1.7-2.2-1.7H232.1z M234,568.5h-1.9v3.9h1.9
		c1.5,0,2.2-0.8,2.2-1.9C236.2,569.4,235.6,568.5,234,568.5z"/>
	<path class="st3" d="M248.3,563l-3.1,6.9v3.5h-1v-3.5L241,563h1.1l2.5,5.6l2.5-5.6H248.3z"/>
</g>
<g>
	<g>
		<g>
			<path class="st3" d="M104.4,453.1c1.2-5.4,8.1-9.8,16.3-9.8c11.5,0,15,11.4,15,11.4c-9.7,1.6-18.6,3.4-27.4,0.4h0l0.2-0.2
				C107,454.4,105.6,453.6,104.4,453.1z"/>
		</g>
		<g>
			<path class="st3" d="M235.5,485.5c-1.2,5.4-8.1,9.8-16.3,9.8c-11.5,0-15-11.2-15-11.2c9.7-1.6,18.6-4.1,27.4-0.1h0l-0.2-0.1
				C232.9,484.4,234.3,484.9,235.5,485.5z"/>
		</g>
	</g>
	<path class="st11" d="M185.6,485.5c-1.2,5.4-8.1,9.8-16.3,9.8c-11.5,0-15-11.2-15-11.2c9.7-1.6,18.6-4.1,27.4-0.1h0l-0.2-0.1
		C183,484.4,184.4,484.9,185.6,485.5z"/>
	<g>
		<g>
			<g>
				<g>
					<g>
						<g>
							<g>
								<path class="st3" d="M231.6,484.3c-1-3.1-0.3-7.7,1.6-10.3c1.9-2.6,1.9-6.9,0-9.5c-1.9-2.6-2.6-7.3-1.6-10.3
									c1-3.1-0.3-7.1-2.9-9c-2.6-1.9-4.8-6.1-4.7-9.3c0-3.2-2.5-6.7-5.6-7.7c-3.1-1-6.4-4.3-7.4-7.4c-1-3.1-4.4-5.6-7.7-5.6
									c-3.2,0-7.4-2.1-9.3-4.7c-1.9-2.6-6-3.9-9-2.9c-3.1,1-7.7,0.3-10.3-1.6c-2.6-1.9-6.9-1.9-9.5,0c-2.6,1.9-7.3,2.6-10.3,1.6
									c-3.1-1-7.1,0.3-9,2.9c-1.9,2.6-6.1,4.8-9.3,4.7c-3.2,0-6.7,2.5-7.7,5.6c-1,3.1-4.3,6.4-7.3,7.3c-3,1-5.9,4.1-5.9,6.8
									c0,2.8,0,5,0.1,4.9c0,0,0.1,0.4,0.1,0.9c0,0.5-2,2.4-4.4,4.1c-2.4,1.7-4.5,6-3.6,8.7c0.9,2.8,1.7,5,1.7,5
									c0,0,0.1,0.2,0.2,0.5c0.1,0.3-1.2,2.5-2.8,4.7c-1.7,2.3-2.6,7.4-0.7,9.9c1.9,2.5,3.4,4.6,3.4,4.6c0,0,0.1,0,0.2,0.1
									c0.1,0.1-0.5,2.3-1.4,4.9c-0.8,2.6-0.2,8,2.5,9.9c2.6,1.9,4.8,6.1,4.7,9.3c0,3.2,2.5,6.7,5.6,7.7c3.1,1,6.4,4.3,7.4,7.4
									c1,3.1,4.6,5.6,7.8,5.6c3.2,0,7.4,2.1,9.2,4.7c1.9,2.6,6.1,4,9.1,3c3-1,7.7-0.3,10.2,1.6c2.6,1.9,7,1.9,9.6,0
									c2.6-1.9,7.2-2.6,10.2-1.7c3,1,7.2-0.3,9.1-2.9c1.9-2.6,6.1-4.8,9.3-4.8c3.2,0,6.7-2.5,7.7-5.6c1-3.1,4.3-6.4,7.4-7.4
									c3.1-1,5.6-4.4,5.6-7.7c0-3.2,2.1-7.4,4.7-9.3C231.3,491.5,232.6,487.4,231.6,484.3z"/>
								<circle class="st3" cx="170.5" cy="468.8" r="47.9"/>
							</g>
						</g>
					</g>
					<path class="st12" d="M224.7,471c-0.6,0-1.1,0.5-1.1,1.1c0,0.6,0.4,1.1,1,1.2c0.6,0,1.2-0.4,1.2-1.1
						C225.8,471.5,225.3,471,224.7,471z M224.5,474.9c-0.6-0.1-1.2,0.4-1.2,1c-0.1,0.6,0.4,1.2,1,1.2c0.6,0.1,1.2-0.3,1.2-1
						C225.5,475.5,225.1,474.9,224.5,474.9z M223.9,478.7c-0.6-0.1-1.2,0.3-1.3,0.9c-0.1,0.6,0.3,1.2,0.9,1.3
						c0.6,0.1,1.2-0.3,1.3-0.9C224.9,479.4,224.5,478.8,223.9,478.7z M223.1,482.6c-0.6-0.1-1.2,0.2-1.4,0.8
						c-0.2,0.6,0.2,1.2,0.8,1.4c0.6,0.2,1.2-0.2,1.4-0.8C224.1,483.3,223.7,482.7,223.1,482.6z M222,486.3c-0.6-0.2-1.2,0.1-1.4,0.7
						c-0.2,0.6,0.1,1.2,0.7,1.4c0.6,0.2,1.2-0.1,1.4-0.7C222.9,487.1,222.6,486.5,222,486.3z M220.7,490c-0.6-0.2-1.2,0-1.5,0.6
						c-0.2,0.5,0,1.2,0.6,1.5c0.6,0.3,1.2,0,1.5-0.6C221.5,490.9,221.2,490.2,220.7,490z M219.1,493.5c-0.6-0.3-1.2-0.1-1.5,0.5
						c-0.3,0.5-0.1,1.2,0.5,1.5c0.5,0.3,1.2,0.1,1.5-0.5C219.8,494.5,219.6,493.8,219.1,493.5z M217.2,497c-0.5-0.3-1.2-0.1-1.5,0.4
						c-0.3,0.5-0.2,1.2,0.3,1.5c0.5,0.3,1.2,0.2,1.6-0.4C217.9,498,217.7,497.3,217.2,497z M215.1,500.3c-0.5-0.3-1.2-0.2-1.6,0.3
						c-0.3,0.5-0.2,1.2,0.3,1.6c0.5,0.4,1.2,0.3,1.6-0.3C215.7,501.3,215.6,500.6,215.1,500.3z M212.8,503.4
						c-0.5-0.4-1.2-0.3-1.6,0.2c-0.4,0.5-0.3,1.2,0.1,1.6c0.5,0.4,1.2,0.3,1.6-0.1C213.3,504.5,213.3,503.8,212.8,503.4z
						 M208.7,506.4c-0.4,0.4-0.4,1.1,0,1.6c0.4,0.4,1.1,0.4,1.6,0c0.4-0.5,0.4-1.2,0-1.6C209.8,506,209.1,506,208.7,506.4z
						 M205.9,509.1c-0.5,0.4-0.5,1.1-0.1,1.6c0.4,0.5,1.1,0.5,1.6,0.1c0.5-0.4,0.5-1.1,0.1-1.6C207.1,508.7,206.4,508.7,205.9,509.1
						z M203,511.6c-0.5,0.4-0.6,1.1-0.2,1.6c0.4,0.5,1.1,0.6,1.6,0.2c0.5-0.4,0.6-1.1,0.2-1.6C204.2,511.3,203.5,511.2,203,511.6z
						 M199.9,513.8c-0.5,0.3-0.6,1-0.3,1.5c0.3,0.5,1,0.7,1.6,0.3c0.5-0.4,0.6-1.1,0.3-1.6C201.1,513.6,200.4,513.5,199.9,513.8z
						 M196.6,515.8c-0.5,0.3-0.7,1-0.4,1.5c0.3,0.5,1,0.7,1.5,0.4c0.5-0.3,0.7-1,0.4-1.5C197.8,515.7,197.2,515.5,196.6,515.8z
						 M193.2,517.6c-0.5,0.3-0.8,0.9-0.5,1.5c0.3,0.6,0.9,0.8,1.5,0.5c0.6-0.3,0.8-1,0.5-1.5C194.4,517.6,193.8,517.4,193.2,517.6z
						 M189.7,519.2c-0.6,0.2-0.8,0.9-0.6,1.4c0.2,0.6,0.9,0.9,1.5,0.6c0.6-0.2,0.9-0.9,0.6-1.4C190.9,519.2,190.3,518.9,189.7,519.2
						z M186.1,520.5c-0.6,0.2-0.9,0.8-0.7,1.4c0.2,0.6,0.8,0.9,1.4,0.8c0.6-0.2,0.9-0.8,0.7-1.4
						C187.3,520.6,186.7,520.3,186.1,520.5z M182.4,521.5c-0.6,0.1-1,0.7-0.8,1.3c0.1,0.6,0.7,1,1.3,0.8c0.6-0.1,1-0.7,0.8-1.3
						C183.6,521.7,183,521.3,182.4,521.5z M178.7,522.2c-0.6,0.1-1,0.7-0.9,1.3c0.1,0.6,0.7,1.1,1.3,0.9c0.6-0.1,1-0.7,0.9-1.3
						C179.8,522.5,179.3,522.1,178.7,522.2z M174.9,522.7c-0.6,0-1.1,0.6-1,1.2c0,0.6,0.6,1.1,1.2,1c0.6,0,1.1-0.6,1-1.2
						C176,523.1,175.5,522.7,174.9,522.7z M171.1,522.9c-0.6,0-1.1,0.5-1.1,1.1c0,0.6,0.5,1.1,1.1,1.1c0.6,0,1.1-0.5,1.1-1.1
						C172.2,523.4,171.7,522.9,171.1,522.9z M167.2,522.9c-0.6,0-1.1,0.4-1.2,1c0,0.6,0.4,1.2,1.1,1.2c0.6,0,1.2-0.5,1.2-1.1
						C168.3,523.4,167.8,522.9,167.2,522.9z M163.4,522.5c-0.6-0.1-1.2,0.4-1.2,1c-0.1,0.6,0.3,1.2,1,1.2c0.6,0.1,1.2-0.4,1.2-1
						C164.4,523.2,164,522.6,163.4,522.5z M159.6,521.9c-0.6-0.1-1.2,0.3-1.3,0.9c-0.1,0.6,0.3,1.2,0.9,1.3c0.6,0.1,1.2-0.3,1.3-0.9
						C160.6,522.6,160.2,522,159.6,521.9z M155.9,521.1c-0.6-0.2-1.2,0.2-1.4,0.8c-0.2,0.6,0.2,1.2,0.8,1.4c0.6,0.2,1.2-0.2,1.4-0.8
						C156.8,521.8,156.5,521.2,155.9,521.1z M152.2,519.9c-0.6-0.2-1.2,0.1-1.4,0.7c-0.2,0.6,0.1,1.2,0.7,1.4
						c0.6,0.2,1.2-0.1,1.4-0.7C153.1,520.8,152.8,520.1,152.2,519.9z M148.7,518.5c-0.5-0.2-1.2,0-1.5,0.6c-0.3,0.6,0,1.2,0.6,1.5
						c0.6,0.3,1.2,0,1.5-0.6C149.5,519.4,149.2,518.8,148.7,518.5z M145.2,516.9c-0.5-0.3-1.2-0.1-1.5,0.5c-0.3,0.5-0.1,1.2,0.5,1.5
						c0.6,0.3,1.2,0.1,1.5-0.5C146,517.8,145.7,517.2,145.2,516.9z M141.9,515c-0.5-0.3-1.2-0.2-1.5,0.3c-0.3,0.5-0.2,1.2,0.4,1.6
						c0.5,0.3,1.2,0.1,1.5-0.4C142.6,516,142.4,515.3,141.9,515z M138.7,512.9c-0.5-0.3-1.2-0.2-1.6,0.3c-0.4,0.5-0.3,1.2,0.3,1.6
						c0.5,0.4,1.2,0.3,1.6-0.3C139.3,513.9,139.2,513.2,138.7,512.9z M134.1,510.7c-0.4,0.5-0.3,1.2,0.1,1.6
						c0.5,0.4,1.2,0.3,1.6-0.2c0.4-0.5,0.3-1.2-0.2-1.6C135.2,510.1,134.5,510.2,134.1,510.7z M131.2,508c-0.4,0.4-0.4,1.1,0,1.6
						c0.5,0.4,1.2,0.4,1.6,0c0.4-0.5,0.4-1.2,0-1.6C132.4,507.6,131.7,507.6,131.2,508z M128.6,505.1c-0.5,0.4-0.5,1.1-0.1,1.6
						c0.4,0.5,1.2,0.5,1.6,0.1c0.5-0.4,0.5-1.1,0.1-1.6C129.7,504.8,129,504.7,128.6,505.1z M126.1,502.1c-0.5,0.4-0.6,1.1-0.2,1.6
						c0.4,0.5,1.1,0.6,1.6,0.2c0.5-0.4,0.6-1.1,0.2-1.6C127.3,501.8,126.6,501.7,126.1,502.1z M123.9,498.9c-0.5,0.3-0.7,1-0.3,1.6
						c0.4,0.5,1.1,0.6,1.6,0.3c0.5-0.4,0.6-1,0.3-1.5C125.1,498.7,124.4,498.6,123.9,498.9z M121.6,492.6c-0.3-0.5-0.9-0.8-1.5-0.5
						c-0.6,0.3-0.8,0.9-0.5,1.5c0.3,0.6,1,0.8,1.5,0.5C121.6,493.8,121.9,493.1,121.6,492.6z M120.1,489.1c-0.2-0.6-0.9-0.8-1.4-0.6
						c-0.6,0.2-0.9,0.9-0.6,1.5c0.2,0.6,0.9,0.9,1.4,0.6C120,490.3,120.3,489.6,120.1,489.1z M118.8,485.4c-0.2-0.6-0.8-0.9-1.4-0.7
						c-0.6,0.2-0.9,0.8-0.7,1.4c0.2,0.6,0.8,0.9,1.4,0.7C118.6,486.6,119,486,118.8,485.4z M116.9,483.1c0.6-0.2,1-0.8,0.8-1.3
						c-0.1-0.6-0.7-1-1.3-0.8c-0.6,0.1-1,0.7-0.8,1.3C115.7,482.9,116.3,483.3,116.9,483.1z M116.1,479.3c0.6-0.1,1-0.7,0.9-1.3
						c-0.1-0.6-0.7-1-1.3-0.9c-0.6,0.1-1.1,0.7-0.9,1.3C114.9,479,115.5,479.4,116.1,479.3z M115.5,475.4c0.6-0.1,1-0.6,1-1.2
						c0-0.6-0.6-1.1-1.2-1c-0.6,0-1.1,0.6-1,1.2C114.3,475,114.9,475.5,115.5,475.4z M115.2,471.5c0.6,0,1.1-0.5,1.1-1.1
						c0-0.6-0.5-1.1-1.1-1.1c-0.6,0-1.1,0.5-1.1,1.1C114.1,471,114.6,471.5,115.2,471.5z M115.2,467.6c0.6,0,1.1-0.5,1.1-1.1
						c0-0.6-0.4-1.1-1-1.2c-0.6,0-1.2,0.4-1.2,1.1C114.1,467.1,114.6,467.6,115.2,467.6z M115.5,463.7c0.6,0.1,1.2-0.4,1.2-1
						c0.1-0.6-0.4-1.2-1-1.2c-0.6-0.1-1.2,0.3-1.2,1C114.4,463.1,114.8,463.6,115.5,463.7z M116,459.8c0.6,0.1,1.2-0.3,1.3-0.9
						c0.1-0.6-0.3-1.2-0.9-1.3c-0.6-0.1-1.2,0.3-1.3,0.9C115,459.1,115.4,459.7,116,459.8z M116.8,456c0.6,0.1,1.2-0.2,1.4-0.8
						c0.2-0.6-0.2-1.2-0.8-1.4c-0.6-0.2-1.2,0.2-1.4,0.8C115.8,455.2,116.2,455.8,116.8,456z M117.9,452.2c0.6,0.2,1.2-0.1,1.4-0.7
						c0.2-0.6-0.1-1.2-0.7-1.4c-0.6-0.2-1.2,0.1-1.4,0.7C117,451.4,117.3,452.1,117.9,452.2z M119.2,448.6c0.6,0.2,1.2,0,1.5-0.6
						c0.2-0.5,0-1.2-0.6-1.5c-0.6-0.3-1.2,0-1.5,0.6C118.4,447.7,118.7,448.3,119.2,448.6z M120.8,445c0.6,0.3,1.2,0.1,1.5-0.5
						c0.3-0.5,0.1-1.2-0.5-1.5c-0.5-0.3-1.2-0.1-1.5,0.5C120.1,444.1,120.3,444.7,120.8,445z M122.7,441.6c0.5,0.3,1.2,0.1,1.5-0.4
						c0.3-0.5,0.2-1.2-0.3-1.5c-0.5-0.3-1.2-0.2-1.6,0.4C122,440.6,122.2,441.3,122.7,441.6z M124.8,438.3c0.5,0.3,1.2,0.2,1.6-0.3
						c0.4-0.5,0.2-1.2-0.3-1.6c-0.5-0.4-1.2-0.3-1.6,0.3C124.2,437.2,124.3,437.9,124.8,438.3z M127.1,435.1
						c0.5,0.4,1.2,0.3,1.6-0.2c0.4-0.5,0.3-1.2-0.1-1.6c-0.5-0.4-1.2-0.3-1.6,0.1C126.6,434,126.7,434.7,127.1,435.1z M131.2,430.5
						c-0.4-0.4-1.1-0.4-1.6,0c-0.4,0.5-0.4,1.2,0,1.6c0.5,0.4,1.2,0.4,1.6,0C131.7,431.7,131.7,431,131.2,430.5z M134.1,427.9
						c-0.4-0.5-1.1-0.5-1.6-0.1c-0.5,0.4-0.5,1.1-0.1,1.6c0.4,0.5,1.1,0.5,1.6,0.1C134.5,429,134.5,428.4,134.1,427.9z M137.1,425.4
						c-0.4-0.5-1.1-0.6-1.6-0.2c-0.5,0.4-0.6,1.1-0.2,1.6c0.4,0.5,1.1,0.6,1.6,0.2C137.4,426.6,137.5,425.9,137.1,425.4z
						 M140.3,423.2c-0.3-0.5-1-0.7-1.6-0.3c-0.5,0.4-0.6,1.1-0.3,1.6c0.4,0.5,1,0.6,1.5,0.3C140.5,424.4,140.7,423.7,140.3,423.2z
						 M143.7,421.2c-0.3-0.5-1-0.7-1.5-0.4c-0.5,0.3-0.7,1-0.4,1.5c0.3,0.5,1,0.7,1.5,0.4C143.8,422.4,144,421.7,143.7,421.2z
						 M147.2,419.4c-0.3-0.6-0.9-0.8-1.5-0.5c-0.6,0.3-0.8,1-0.5,1.5c0.3,0.5,0.9,0.8,1.5,0.5C147.2,420.7,147.5,420,147.2,419.4z
						 M150.8,417.9c-0.2-0.6-0.9-0.9-1.5-0.6c-0.6,0.2-0.9,0.9-0.6,1.4c0.2,0.6,0.9,0.9,1.5,0.6C150.7,419.2,151,418.5,150.8,417.9z
						 M154.5,416.7c-0.2-0.6-0.8-0.9-1.4-0.7c-0.6,0.2-0.9,0.8-0.7,1.4c0.2,0.6,0.8,0.9,1.4,0.7
						C154.4,417.9,154.7,417.3,154.5,416.7z M158.3,415.7c-0.1-0.6-0.7-1-1.3-0.8c-0.6,0.1-1,0.7-0.8,1.3c0.2,0.6,0.8,1,1.3,0.8
						C158.1,416.9,158.4,416.3,158.3,415.7z M162.2,415.1c-0.1-0.6-0.7-1.1-1.3-0.9c-0.6,0.1-1,0.7-0.9,1.3c0.1,0.6,0.7,1,1.3,0.9
						C161.8,416.2,162.2,415.7,162.2,415.1z M164.8,413.6c-0.6,0-1.1,0.6-1,1.2c0.1,0.6,0.6,1,1.2,1c0.6,0,1.1-0.6,1-1.2
						C166,414,165.5,413.6,164.8,413.6z M168.8,413.4c-0.6,0-1.1,0.5-1.1,1.1c0,0.6,0.5,1.1,1.1,1.1c0.6,0,1.1-0.5,1.1-1.1
						C170,413.9,169.4,413.4,168.8,413.4z M172.8,413.4c-0.6,0-1.2,0.5-1.2,1.1c0,0.6,0.5,1.1,1.1,1.1c0.6,0,1.1-0.4,1.2-1
						C173.9,414,173.4,413.5,172.8,413.4z M176.8,413.8c-0.6-0.1-1.2,0.4-1.2,1c-0.1,0.6,0.4,1.2,1,1.2c0.6,0.1,1.2-0.4,1.2-1
						C177.8,414.4,177.4,413.9,176.8,413.8z M180.7,414.4c-0.6-0.1-1.2,0.3-1.3,0.9c-0.1,0.6,0.3,1.2,0.9,1.3
						c0.6,0.1,1.2-0.3,1.3-0.9C181.7,415.1,181.3,414.5,180.7,414.4z M184.6,415.3c-0.6-0.2-1.2,0.2-1.4,0.8
						c-0.1,0.6,0.2,1.2,0.8,1.4c0.6,0.2,1.2-0.2,1.4-0.8C185.6,416.1,185.2,415.5,184.6,415.3z M188.4,416.5
						c-0.6-0.2-1.2,0.1-1.4,0.7c-0.2,0.6,0.1,1.2,0.7,1.4c0.6,0.2,1.2-0.1,1.4-0.7C189.3,417.4,189,416.7,188.4,416.5z M192.1,418
						c-0.6-0.3-1.2,0-1.5,0.6c-0.2,0.6,0,1.2,0.6,1.5c0.6,0.2,1.2,0,1.5-0.6C193,418.9,192.7,418.2,192.1,418z M196.2,421.2
						c0.3-0.5,0.1-1.2-0.5-1.5c-0.6-0.3-1.2-0.1-1.5,0.5c-0.3,0.6-0.1,1.2,0.5,1.5C195.2,421.9,195.9,421.7,196.2,421.2z
						 M199.6,423.2c0.3-0.5,0.2-1.2-0.4-1.6c-0.5-0.3-1.2-0.1-1.5,0.4c-0.3,0.5-0.1,1.2,0.4,1.5
						C198.6,423.9,199.2,423.7,199.6,423.2z M202.8,425.4c0.4-0.5,0.3-1.2-0.3-1.6c-0.5-0.4-1.2-0.3-1.6,0.3
						c-0.3,0.5-0.2,1.2,0.3,1.6C201.7,426,202.4,425.9,202.8,425.4z M205.7,426.3c-0.5-0.4-1.2-0.3-1.6,0.2
						c-0.4,0.5-0.3,1.2,0.2,1.6c0.5,0.4,1.2,0.3,1.6-0.1C206.2,427.4,206.2,426.7,205.7,426.3z M208.7,429c-0.5-0.4-1.2-0.4-1.6,0
						c-0.4,0.5-0.4,1.2,0,1.6c0.4,0.4,1.1,0.4,1.6,0C209.1,430.1,209.1,429.4,208.7,429z M211.3,433.4c0.5-0.4,0.5-1.1,0.1-1.6
						c-0.4-0.5-1.1-0.5-1.6-0.1c-0.5,0.4-0.5,1.1-0.1,1.6C210.2,433.8,210.9,433.8,211.3,433.4z M214,434.9
						c-0.4-0.5-1.1-0.6-1.6-0.2c-0.5,0.4-0.6,1.1-0.2,1.6c0.4,0.5,1.1,0.6,1.6,0.2C214.3,436.1,214.4,435.4,214,434.9z M216,439.7
						c0.5-0.3,0.7-1,0.3-1.6c-0.4-0.5-1.1-0.6-1.6-0.3c-0.5,0.4-0.6,1-0.3,1.5C214.8,439.9,215.5,440,216,439.7z M218.3,446
						c0.2,0.5,0.9,0.8,1.5,0.5c0.6-0.3,0.8-0.9,0.5-1.5c-0.3-0.6-1-0.8-1.5-0.5C218.3,444.8,218,445.5,218.3,446z M219.8,449.5
						c0.2,0.6,0.9,0.8,1.4,0.6c0.6-0.2,0.9-0.9,0.6-1.5c-0.2-0.6-0.9-0.9-1.4-0.6C219.9,448.3,219.6,448.9,219.8,449.5z
						 M221.1,453.1c0.2,0.6,0.8,0.9,1.4,0.7c0.6-0.2,0.9-0.8,0.7-1.4c-0.2-0.6-0.8-0.9-1.4-0.7C221.3,451.9,220.9,452.5,221.1,453.1
						z M223,455.5c-0.6,0.2-1,0.8-0.8,1.3c0.1,0.6,0.7,1,1.3,0.8c0.6-0.1,1-0.7,0.8-1.3C224.2,455.7,223.6,455.3,223,455.5z
						 M223.8,459.3c-0.6,0.1-1,0.7-0.9,1.3c0.1,0.6,0.7,1,1.3,0.9c0.6-0.1,1.1-0.7,0.9-1.3C225,459.6,224.4,459.2,223.8,459.3z
						 M224.4,463.1c-0.6,0.1-1,0.6-1,1.2c0,0.6,0.6,1.1,1.2,1c0.6,0,1.1-0.6,1-1.2C225.6,463.5,225,463.1,224.4,463.1z M224.7,467
						c-0.6,0-1.1,0.5-1.1,1.1c0,0.6,0.5,1.1,1.1,1.1c0.6,0,1.1-0.5,1.1-1.1C225.8,467.5,225.3,467,224.7,467z"/>
				</g>
			</g>
		</g>
		<g>
			<path class="st13" d="M129.5,497.2c-7.9,0-14.8-1.5-21.5-4.5c-2.2-1-3-3.5-3-8v-29.9c0-0.3-0.1-0.6-0.1-0.9
				c1.1,0.5,2.2,0.9,3.5,1.3c6.2,2.4,12.8,3.5,19.9,3.5c13.9,0,28-4.4,41.7-8.7c13.4-4.2,27.1-8.6,40.5-8.6c6.3,0,12,0.9,17.5,2.8
				c1.4,0.5,3.2,1,4.5,1.7c2.1,1,3.6,3.4,3.6,7.7v30.3c0,0.3-0.4,0.6-0.5,0.9c-1.1-0.5-2.5-0.9-3.7-1.3c-6.2-2.4-12.9-3.5-20.1-3.5
				c-13.9,0-28.1,4.4-41.8,8.8C156.6,492.9,142.8,497.2,129.5,497.2z"/>
			<path class="st12" d="M210.4,441.9L210.4,441.9c6.2,0,11.9,0.9,17.3,2.8c1.4,0.5,2.9,1,4.3,1.6c1.9,0.8,3,3.2,3,7.2v30.3
				c0,0,0,0.1,0,0.1c-2-0.4-2-0.7-3-1c-6.3-2.4-13-3.5-20.2-3.5c-14,0-28.2,4.5-41.9,8.8c-13.3,4.2-27.1,8.5-40.3,8.5
				c-7.8,0-14.9-1.5-21.5-4.5c-1.9-0.9-3-3.3-3-7.5v-29.9c0,0,0.1-0.1,0.1-0.1c0.9,0.4,1.9,0.7,2.9,1c6.3,2.4,13,3.5,20.2,3.5
				c14,0,28.2-4.5,41.9-8.8C183.4,446.2,197.2,441.9,210.4,441.9 M210.4,440.8c-26.9,0-54.6,17.3-82.2,17.3c-6.6,0-13.2-1-19.8-3.5
				c-1.5-0.4-3-1-4.2-1.5c-0.1,0.6-0.3,1.1-0.3,1.7v29.9c0,4.1,0.9,7.3,3.6,8.5c7.2,3.3,14.5,4.6,21.9,4.6
				c26.9,0,54.6-17.3,82.2-17.3c6.6,0,13.2,1,19.8,3.5c1.5,0.4,3,1,4.2,1.5c0.1-0.6,0.3-1.1,0.3-1.7v-30.3c0-3.9-1-7-3.6-8.2
				c-1.4-0.6-2.8-1.2-4.2-1.7C222.3,441.6,216.4,440.8,210.4,440.8L210.4,440.8z"/>
		</g>
		<g>
			<g>
				<g>
					<path class="st12" d="M141.5,480.9c0.1,0.5,0.3,0.9,0.6,1.1c0.3,0.2,0.7,0.3,1.2,0.1c1-0.2,2.4-1.6,3.7-3.6
						c0,0.2,0.1,0.7,0.1,0.9c-1.3,2.1-4,4.6-6,5.1c-0.6,0.1-1.2-0.3-1.5-1.5c-0.5-2.3-0.2-4.7,1-6.5c1.4-2.2,3.5-3.4,4.6-3.6
						c0.7-0.2,1.2,0.2,1.2,0.5c0.1,0.6-0.1,1.4-0.4,1.8c-1.1,1.7-2.9,3.2-4.7,3.9C141.3,479.6,141.4,480.3,141.5,480.9z
						 M144.7,475.1c-0.1-0.5-0.5-0.8-1.2-0.7c-0.4,0.1-0.9,0.4-1.3,0.9c-0.5,0.8-0.8,2-0.9,3c0.5-0.1,2.4-1.1,3.1-2.1
						C144.7,476,144.8,475.4,144.7,475.1z"/>
					<path class="st12" d="M151.1,481.3c-0.7,1-2,1.6-2.5,1.7c0.1-2.5,0.4-6.3,0.8-9.8c0.4-3,1.1-7.5,1.8-9.5c0.5-0.5,1.4-1.2,2-1.3
						c-0.9,3-1.5,7.6-1.8,11.9C151.1,477.7,151,479.7,151.1,481.3z"/>
					<path class="st12" d="M156.8,480c-0.7,1-2,1.6-2.5,1.7c0.1-2.5,0.4-6.3,0.8-9.8c0.4-3,1.1-7.5,1.8-9.5c0.5-0.5,1.4-1.2,2-1.3
						c-0.9,3-1.5,7.6-1.8,11.9C156.8,476.4,156.8,478.4,156.8,480z"/>
					<path class="st12" d="M166.2,476.2c-1.4,2.1-3.5,3.7-4.8,4c-1.1,0.2-1.5-0.5-1.8-1.4c-0.4-1.8,0.1-4.2,1.1-5.9
						c1.5-2.4,3.6-4.1,5.2-4.4c1.1-0.2,1.6,0.4,1.8,1.4C168.2,471.5,167.8,473.7,166.2,476.2z M162.2,471.9
						c-0.8,1.3-0.9,3.1-0.6,4.4c0.3,1.3,0.8,1.9,1.8,1.7c1.8-0.4,3.3-3.4,2.6-6.5c-0.3-1.1-0.8-1.5-1.7-1.3
						C163.6,470.2,162.9,470.7,162.2,471.9z"/>
					<path class="st12" d="M122.7,480.2c-0.3,2.4-0.7,5.9-0.6,8.3c-0.5,0.8-2.9,2.4-3.6,2.5c-0.1-2.8,0.5-7,0.9-9.9
						c-0.8,0.2-2.3,0.7-3.2,1c0.1-0.7,1-2.1,1.7-2.6c0.6-0.2,1.1-0.3,1.8-0.6c0.5-3.1,1.2-6.6,1.8-9.6c0.8-0.7,2.7-1.6,3.7-1.8
						c-1.1,4.5-1.7,7.7-2.1,10.6c5.4-1.5,9.6-2.4,11.2-3c0.4-2.4,1.1-7.2,1.4-8.9c0.8-0.6,2.7-1.7,3.5-1.8c-0.7,2.9-1.3,7-1.7,10.8
						c-0.3,3.4-0.5,7.5-0.3,9.8c-0.6,1-2.6,2.3-3.5,2.5c-0.2-3.1,0-7.6,0.5-11.7c-0.7,0.6-2.1,1.5-3.1,1.9
						C129.6,478.1,125.3,479.4,122.7,480.2z"/>
				</g>
				<g>
					<path class="st12" d="M191.9,464.3c-1.1,0.2-1.8,1-2.4,1.9c-1.3,2.1-1.7,4.3-2,6.1c-0.6,0.8-1.6,1.4-2.2,1.5
						c0.6-3.4,0.8-7.1,0.7-8.9c0.3-0.6,1.9-1.9,2.4-2c0.1,0.6,0.1,2.9-0.2,4.5c1.7-2.9,3.1-5.1,4.7-5.4c0.2-0.1,0.5-0.1,0.7,0
						c0.1,0.4-0.5,1.6-1,2.2L191.9,464.3z"/>
					<path class="st12" d="M195.9,468c0.1,0.5,0.3,0.9,0.6,1.1c0.3,0.2,0.7,0.2,1.2,0.1c1-0.2,2.4-1.6,3.7-3.6
						c0,0.2,0.1,0.7,0.1,0.9c-1.3,2.1-4,4.6-6,5.1c-0.6,0.1-1.2-0.3-1.5-1.5c-0.5-2.3-0.2-4.7,1-6.5c1.4-2.2,3.5-3.4,4.6-3.6
						c0.7-0.2,1.2,0.2,1.2,0.5c0.1,0.6-0.1,1.4-0.4,1.8c-1.1,1.7-2.9,3.2-4.7,3.9C195.7,466.7,195.7,467.4,195.9,468z M199,462.2
						c-0.1-0.5-0.5-0.8-1.2-0.7c-0.4,0.1-0.9,0.4-1.3,0.9c-0.5,0.8-0.8,2-0.9,3c0.5-0.1,2.4-1.1,3.1-2.1
						C199,463.1,199.1,462.5,199,462.2z"/>
					<path class="st12" d="M207.8,462.5c1.5,0.4,2.6,0.8,2.9,1.9c0.1,0.6-0.1,1.1-0.4,1.5c-1,1.6-3.2,3.1-5.1,3.6
						c-1.8,0.4-3-0.2-3.2-1.2c0.1-0.6,0.5-1.5,1-1.8c0.7,1.4,1.9,2.3,3.3,2c0.8-0.2,1.4-0.5,1.8-1.2c0.4-0.6,0.5-1,0.4-1.4
						c-0.1-0.6-0.8-1.1-2.4-1.5c-1.9-0.5-2.5-1-2.7-1.8c-0.1-0.4,0-0.8,0.3-1.2c0.7-1.1,2.7-2.8,5.4-3.4c0.5-0.1,1.1-0.1,1.4-0.1
						c0.1,0.4-0.5,1.3-0.9,1.6c-0.5-0.3-1.4-0.4-2.1-0.3c-0.9,0.2-1.5,0.6-1.9,1.1c-0.1,0.2-0.2,0.5-0.2,0.7
						C205.6,461.6,206,462,207.8,462.5z"/>
					<path class="st12" d="M220.4,457.7c-0.1-0.3-0.2-0.5-0.5-0.5c-0.5,0.1-2.2,1.2-3.5,3.4c-0.9,1.4-1.3,3.5-1.4,5.5
						c-0.8,1-2.1,1.7-2.5,1.7c0.2-3.3,0.5-6.1,0.9-9.7c0.3-2.6,0.8-7.3,1.6-9.5c0.4-0.4,1.4-1.1,2-1.3c-0.6,1.9-1,5.2-1.4,8.3
						c-0.2,2.1-0.4,4-0.5,5.8c2.4-3.8,5.6-6.5,6.8-6.7c0.3-0.1,0.5,0.2,0.6,0.5c0.3,1.6-0.7,5.6-0.3,7.2c0.1,0.5,0.3,0.8,0.7,0.9
						c-0.5,0.9-2.2,2.5-2.8,2.7c-0.2-0.9-0.1-2.9,0.1-4.7C220.5,458.4,220.5,458.1,220.4,457.7z"/>
					<path class="st12" d="M176.2,466.9c2.5-0.7,6.8-1.8,8.9-2.5c0.1,0.3-0.7,1.2-1.1,1.6c-1.1,0.7-4.3,1.8-8.1,2.9
						c-0.3,1.6-0.7,4.8-0.6,7.1c-0.4,0.7-2.9,2.5-3.3,2.6c-0.1-3.5,1.2-10.9,2.4-16.6c0.6-0.7,1.9-1.7,3.2-2.1
						C177.1,462.2,176.6,464.9,176.2,466.9z M171.6,460.7c-0.1-0.5,1.7-2.7,2.5-3.1c3.5-1.1,10.2-2.5,14.1-3.8
						c0.1,0.3-1.3,1.9-2.3,2.5c-1.4,0.6-5.6,1.7-9.3,2.8C174.9,459.5,172.4,460.3,171.6,460.7z"/>
				</g>
			</g>
		</g>
	</g>
	<g>
		<path class="st12" d="M193.7,489.3c0,0-1.1,1.5-1.2,1.6c-5.1,4.4-16.2-0.1-22.2,1.1c-4.1,0.8-7.9,2.6-10.3,6.1
			c-1.5,2.2-2.6,5.8-2.1,8.5c0.2,1.2,0.5,2.5,0.1,3.8c-0.2,0.9-0.7,1.7-1.2,2.4c0.2,0.6,0.3,1.3,0.5,1.9c0.5-1.2,1.2-2.4,2.2-3
			c0.1-0.1,2.5,2.2,2.8,2.5c1,0.7,2,1.2,3.1,1.7c2.4,0.9,5.1,1.2,7.6,0.9c19.5-2.4,20.7-25.5,20.8-25.7
			C193.7,490.6,193.7,489.3,193.7,489.3z M170.7,501.3c-4.7,2.9-10.5,7.9-10.5,7.9c0.3-0.1,2.6-6.7,9.2-10.1
			c8.4-4.4,20.6-4.1,20.6-4.1S176.1,497.9,170.7,501.3z"/>
	</g>
</g>
<g>
	<g>
		<path class="st3" d="M152,623.9V617h-4v7h-6v-20h6v7h4v-7h7v20L152,623.9L152,623.9z"/>
		<path class="st3" d="M168,614.4v-0.6c0-0.3-0.1-0.6-0.5-0.6c-1.2,0-3.4,0.5-5.6,1l-1-5.1c2.7-0.7,5.4-1.1,8.4-1.1
			c4.1,0,5.6,1.5,5.6,4.6c0,2-0.2,4.3-0.2,6.5c0,0.6,0.5,0.7,1.6,0.7l-0.6,4.3c-1,0.1-1.7,0.1-2.6,0.1c-1.4,0-2.7-0.3-3.4-1.3h-0.2
			c-0.9,1-2,1.3-4,1.3c-3.1,0-4.9-1.8-4.9-4.7C160.5,615.7,163,614.7,168,614.4z M168,619.1v-1.2c-1,0.2-1.5,0.5-1.5,1.3
			c0,0.6,0.1,0.9,0.6,0.9C167.8,620,168,619.7,168,619.1z"/>
		<path class="st3" d="M184.9,619.3c0.9,0,2-0.2,3.3-0.4l0.7,4.5c-1.7,0.5-3,0.8-4.8,0.8c-4.9,0-7.3-3.1-7.3-7.8
			c0-4.8,2.4-8.5,7.4-8.5c2,0,3.4,0.3,5,0.9l-0.7,5.1c-1.2-0.4-2.6-0.9-3.6-0.9c-1,0-1.3,1.2-1.3,3.1
			C183.6,618.3,183.9,619.3,184.9,619.3z"/>
		<path class="st3" d="M198.9,624l-1.9-5h0v5h-7v-19.6l7-1.4V614h0l2.3-4.2l7.1-1.4l-3.6,8.1c1.1,2.5,2.4,5.5,3.5,7.5H198.9z"/>
		<path class="st3" d="M221.7,614.3c0,0.9-0.1,1.7-0.3,3.7h-8.2c0.1,1,0.8,1.7,2.1,1.7c1.1,0,2.5-0.3,4.9-0.7l0.6,4.4
			c-2.2,0.6-4.2,0.9-6.4,0.9c-5.3,0-8-3.1-8-8c0-5.3,2.7-8.2,8.1-8.2C220,608,221.7,610.5,221.7,614.3z M213.2,614.9h1.8v-0.5
			c0-0.8,0-1.2-0.9-1.2C213.1,613.2,213.2,613.9,213.2,614.9z"/>
		<path class="st3" d="M230,624h-7v-16h6.1l0.2,2h0.1c1-1,2.1-1.3,4.7-1.3L234,614h-2.2c-1.3,0-1.7-0.1-1.7,1.2v3.9L230,624L230,624
			z"/>
		<path class="st3" d="M249.4,604l-0.7,5.7c-2.3-0.5-4.2-0.8-5.3-0.8c-0.8,0-1.3,0.2-1.3,0.8c0,0.5,0.5,0.6,1.3,0.9
			c2.2,1,6.6,2.1,6.6,6.7c0,4.5-2.6,6.9-7.5,6.9c-2.7,0-4.7-0.3-6.9-0.9l0.5-5.5c2.8,0.7,4.5,1.1,5.9,1.1c0.7,0,1-0.2,1-0.7
			c0-0.5-0.4-0.7-1.1-1c-2.2-1-6.8-2-6.8-7c0-4.3,2.7-6.8,7.4-6.8C244.8,603.4,247.2,603.7,249.4,604z"/>
		<path class="st3" d="M252,620v-7h-2v-4h2.3l0.4-3h6.3v3h3v4h-3v5.9c0,0.3,0,0.4,0.3,0.4c0.6,0,1.2-0.1,2.5-0.1l-0.2,4.7
			c-1.6,0.2-3,0.3-4.6,0.3C253.7,624.2,252,623.2,252,620z"/>
		<path class="st3" d="M278.2,615.8c0,6-2.3,8.4-7.7,8.4c-5.5,0-7.9-2.5-7.9-8.2c0-5.8,2.5-8.1,7.9-8.1
			C275.9,607.9,278.2,610.3,278.2,615.8z M269,615.7v0.8c0,2.6,0.5,3.3,1.6,3.3c0.8,0,1.4-0.6,1.4-3.1v-0.9c0-2.4-0.5-3-1.5-3
			C269.6,612.7,269,613.4,269,615.7z"/>
		<path class="st3" d="M279.7,605l6.3-1.9v15.3c0,0.6,0.6,0.8,1.4,0.8l-0.3,4.9h-2.7c-3.2,0-4.5-1.1-4.5-4.1V605H279.7z"/>
		<path class="st3" d="M288.5,624l-0.2-3.4l5.1-6.6H288v-6h13.8l0.2,3.5l-5,7.5h4.4l-2,5H288.5z"/>
	</g>
	<path class="st14" d="M131.2,618.4c2.4,0,4.4-2,4.4-4.4c0-2.4-1.9-4.4-4.4-4.4c-2.1,0-4.2,1.5-4.2,3.4v0h-1v0c0,0,0,0,0,0
		c-1-2.1-2.4-3.5-4.6-3.5c-2.1,0-4,1.5-4.5,3.5h-3.2c3.6-3,2.9-9,2.9-9H133v-12.7l-3,4.7v-4.8l-4,4.6v-4.6l-2.5,4.8H107v7.8v11.3
		c1,0,1-0.1,2-0.2v7.3c0,0,2.8,2.8,7.7,5.8h0l10.9,6.5l4.3-8.7c0.2-0.4,0.4-0.6,0.6-1l0,0.2h-0.1c0.5-2,0.7-3,0.7-3.7v-1.3l-2.4,4.1
		h-6.9l-10.9-6.6l-1.2-3.2c0.1-0.1,0.2-0.2,0.3-0.2h4.8c0,3,2.2,4.6,4.7,4.6c2.2,0,3.6-1.6,4.6-3.6v0h1v0
		C127,616.9,129.1,618.4,131.2,618.4z M121.3,617.7c-2.1,0-3.8-1.7-3.8-3.8c0-2.1,1.7-3.8,3.8-3.8c2.1,0,3.8,1.7,3.8,3.8
		C125.1,616,123.4,617.7,121.3,617.7z M131.3,610.4c2,0,3.5,1.6,3.5,3.6c0,2-1.6,3.8-3.6,3.8c-1.8,0-3.3-1.8-3.6-2.8h0.4v-1.6
		C128,611.7,129.6,610.4,131.3,610.4z"/>
</g>
<g>
	<g>
		<path class="st3" d="M107.4,264.7c0-5.4,1.4-10.3,3.8-14c2.5-3.5,6-6,10-6s7.6,2.5,10,6c2.4,3.7,3.9,8.6,3.9,14s-1.5,10.3-3.9,14
			c-2.5,3.6-6,6.1-10,6.1s-7.6-2.5-10-6.1C108.8,275,107.4,270.1,107.4,264.7z M110.2,264.7c0,4.9,1.3,9.3,3.4,12.4
			c2.1,3,4.8,4.8,7.7,4.8c2.9,0,5.6-1.8,7.7-4.8c2.1-3.1,3.4-7.5,3.4-12.4s-1.4-9.3-3.4-12.4c-2.1-3.1-4.8-4.8-7.7-4.8
			c-2.9,0-5.6,1.7-7.7,4.8C111.6,255.4,110.2,259.8,110.2,264.7z"/>
		<path class="st3" d="M151.8,248.7l-5.7,3.3c-0.2,0.1-0.5,0.2-0.7,0.2c-0.5,0-1-0.3-1.2-0.7c-0.4-0.7-0.2-1.5,0.5-1.9l7.7-4.7
			c0.6-0.3,1.5-0.1,1.9,0.5c0.2,0.3,0.2,0.7,0.2,1v36.8c0,0.7-0.6,1.4-1.4,1.4c-0.7,0-1.4-0.6-1.4-1.4V248.7z"/>
		<path class="st3" d="M166.8,279c1.6,0,2.9,1.3,2.9,2.9s-1.3,2.9-2.9,2.9s-2.9-1.3-2.9-2.9S165.2,279,166.8,279z"/>
		<path class="st3" d="M174.2,264.8c0-0.6,0.5-1,1.1-1h12.2c0.6,0,1.1,0.4,1.1,1c0,0.7-0.5,1.1-1.1,1.1h-12.2
			C174.7,265.9,174.2,265.5,174.2,264.8z"/>
		<path class="st3" d="M195.5,264.7c0-5.4,1.4-10.3,3.8-14c2.5-3.5,6-6,10-6s7.6,2.5,10,6c2.4,3.7,3.9,8.6,3.9,14s-1.5,10.3-3.9,14
			c-2.5,3.6-6,6.1-10,6.1s-7.6-2.5-10-6.1C196.9,275,195.5,270.1,195.5,264.7z M198.3,264.7c0,4.9,1.3,9.3,3.4,12.4
			c2.1,3,4.8,4.8,7.7,4.8c2.9,0,5.6-1.8,7.7-4.8c2.1-3.1,3.4-7.5,3.4-12.4s-1.4-9.3-3.4-12.4c-2.1-3.1-4.8-4.8-7.7-4.8
			c-2.9,0-5.6,1.7-7.7,4.8C199.6,255.4,198.3,259.8,198.3,264.7z"/>
		<path class="st3" d="M257.2,247.2l-10.4,10.6c2.5,0.5,4.9,1.7,6.9,3.7c2.6,2.6,4,6.1,4,9.6s-1.3,7-4,9.6c-2.6,2.6-6.1,4-9.6,4
			c-3.4,0-6.9-1.3-9.6-4c-0.6-0.5-0.6-1.4,0-2c0.5-0.6,1.4-0.6,2,0c2.1,2.1,4.8,3.1,7.6,3.1s5.5-1,7.6-3.1c2.1-2.1,3.1-4.9,3.1-7.6
			s-1-5.5-3.1-7.6c-2.1-2.1-4.8-3.1-7.6-3.1c-0.5,0-0.9-0.2-1.1-0.6h-0.1c-0.6-0.6-0.6-1.5,0-2.1l10-10.2h-15.3
			c-0.8,0-1.4-0.6-1.4-1.4c0-0.8,0.6-1.4,1.4-1.4h18.7c0.8,0,1.4,0.6,1.4,1.4c0,0.2-0.1,0.5-0.2,0.6
			C257.4,246.9,257.3,247.1,257.2,247.2z"/>
		<path class="st3" d="M270.3,279c1.6,0,2.9,1.3,2.9,2.9s-1.3,2.9-2.9,2.9s-2.9-1.3-2.9-2.9S268.7,279,270.3,279z"/>
		<path class="st3" d="M131.7,326.2h-18.3l-3.5,9.4c-0.2,0.6-0.7,0.9-1.3,0.9c-0.1,0-0.3-0.1-0.5-0.1c-0.7-0.3-1.1-1.1-0.8-1.8
			l13.9-37.2c0.2-0.5,0.8-0.9,1.4-0.9c0.6,0,1.2,0.3,1.4,0.9l13.9,37.2c0.3,0.7-0.1,1.5-0.7,1.8c-0.2,0-0.3,0.1-0.5,0.1
			c-0.5,0-1.1-0.3-1.3-0.9L131.7,326.2z M114.4,323.4h16.2l-8.1-21.5L114.4,323.4z"/>
		<path class="st3" d="M144.1,323v-0.6v-0.6v-12c0-0.7,0.6-1.4,1.4-1.4c0.8,0,1.4,0.6,1.4,1.4v4.1c2.4-3.3,6.3-5.4,10.6-5.4
			c7.6,0,13.6,6.2,13.6,13.9c0,7.6-6,14-13.6,14c-4.4,0-8.2-2.2-10.6-5.5v16c0,0.7-0.6,1.4-1.4,1.4c-0.7,0-1.4-0.6-1.4-1.4V323z
			 M146.9,322.4c0,6.2,4.9,11.2,10.6,11.2c6-0.1,10.8-5,10.8-11.2s-4.8-11.1-10.8-11.1c-5.7,0-10.4,4.7-10.6,10.6V322.4z"/>
		<path class="st3" d="M179.9,309.9c0-0.8,0.6-1.4,1.4-1.4c0.7,0,1.3,0.6,1.3,1.4v6.2c0.1-0.2,0.2-0.5,0.4-0.7
			c2.1-3.3,5.8-6.9,11.2-6.9c0.7,0,1.4,0.6,1.4,1.4c0,0.7-0.6,1.4-1.4,1.4c-3.7,0-6.2,2.1-8.1,4.6c-1.9,2.5-3,5.4-3.4,6.5
			c-0.1,0.2-0.1,0.3-0.1,0.5v12.3c0,0.8-0.6,1.4-1.3,1.4c-0.8,0-1.4-0.6-1.4-1.4V309.9z"/>
		<path class="st3" d="M203.1,300.7c0-0.7,0.6-1.4,1.4-1.4c0.8,0,1.4,0.6,1.4,1.4v1.3c0,0.8-0.6,1.5-1.4,1.5c-0.7,0-1.4-0.7-1.4-1.5
			V300.7z M203.1,309.9c0-0.8,0.6-1.4,1.4-1.4c0.8,0,1.4,0.6,1.4,1.4v25.3c0,0.7-0.6,1.4-1.4,1.4c-0.7,0-1.4-0.6-1.4-1.4V309.9z"/>
		<path class="st3" d="M216.3,297.8c0-0.7,0.6-1.4,1.4-1.4c0.8,0,1.4,0.6,1.4,1.4v37.3c0,0.7-0.6,1.4-1.4,1.4
			c-0.7,0-1.4-0.6-1.4-1.4V297.8z"/>
		<path class="st3" d="M241.1,334.1l18.7-16.9c2.2-2.1,3.4-4.8,3.4-7.7c0-2.5-0.9-4.9-2.7-6.9c-2-2.2-4.8-3.4-7.6-3.4
			c-2.5,0-5,0.9-7,2.6l-1.9,1.8c-0.6,0.6-1.5,0.5-1.9-0.1c-0.6-0.6-0.5-1.5,0.1-1.9l1.9-1.8c2.5-2.2,5.7-3.4,8.9-3.4
			c3.5,0,7,1.4,9.6,4.3c2.3,2.5,3.4,5.7,3.4,8.8c0,3.5-1.4,7.1-4.3,9.7l-16,14.5h18.9c0.7,0,1.4,0.6,1.4,1.4c0,0.7-0.6,1.4-1.4,1.4
			h-22.3H242c-0.4,0-0.8-0.1-1-0.4C240.5,335.5,240.5,334.6,241.1,334.1z"/>
		<path class="st3" d="M273.5,316.5c0-5.4,1.4-10.3,3.8-14c2.5-3.5,6-6,10-6c4.1,0,7.6,2.5,10,6c2.4,3.7,3.9,8.6,3.9,14
			s-1.5,10.3-3.9,14c-2.5,3.6-6,6.1-10,6.1c-4.1,0-7.6-2.5-10-6.1C274.8,326.8,273.5,321.9,273.5,316.5z M276.3,316.5
			c0,4.9,1.3,9.3,3.4,12.4c2.1,3,4.8,4.8,7.7,4.8c2.9,0,5.6-1.8,7.7-4.8c2.1-3.1,3.4-7.5,3.4-12.4s-1.4-9.3-3.4-12.4
			c-2.1-3.1-4.8-4.8-7.7-4.8c-2.9,0-5.6,1.7-7.7,4.8C277.6,307.2,276.3,311.6,276.3,316.5z"/>
		<path class="st3" d="M317.8,300.5l-5.7,3.3c-0.2,0.1-0.5,0.2-0.7,0.2c-0.5,0-1-0.3-1.2-0.7c-0.4-0.7-0.2-1.5,0.5-1.9l7.7-4.7
			c0.6-0.3,1.5-0.1,1.9,0.5c0.2,0.3,0.2,0.7,0.2,1v36.8c0,0.7-0.6,1.4-1.4,1.4c-0.7,0-1.4-0.6-1.4-1.4V300.5z"/>
		<path class="st3" d="M332.8,305.2c2.7-4.9,7.4-8.5,14-8.7c0.7-0.1,1.4,0.6,1.4,1.3c0,0.8-0.6,1.4-1.4,1.5
			c-5.6,0.2-9.2,3.1-11.7,7.3c-1.4,2.3-2.3,5.2-2.9,8c2.4-2.7,6-4.5,9.9-4.5c7.4,0,13.3,6,13.3,13.2c0,7.3-5.9,13.2-13.3,13.2
			c-7.2,0-13-5.7-13.2-12.8c-0.1-0.9-0.1-1.7-0.1-2.6C329,315.8,330.1,310,332.8,305.2z M331.9,323.5c0,0.3,0.1,0.5,0.1,0.7
			c0,0.2,0,0.3-0.1,0.4c0.7,5.1,5.1,9,10.4,9c5.8,0,10.5-4.7,10.5-10.4s-4.7-10.4-10.5-10.4c-5.7,0-10.4,4.7-10.4,10.4V323.5z"/>
	</g>
</g>
</svg>
