<!-- Generator: Adobe Illustrator 19.2.1, SVG Export Plug-In  -->
<svg version="1.1"
	 xmlns="http://www.w3.org/2000/svg" xmlns:xlink="http://www.w3.org/1999/xlink" xmlns:a="http://ns.adobe.com/AdobeSVGViewerExtensions/3.0/"
	 x="0px" y="0px" width="49px" height="57px" viewBox="0 0 49 57" style="enable-background:new 0 0 49 57;" xml:space="preserve">
<style type="text/css">
	.st0{fill:#546A79;}
	.st1{fill:#F3D55B;}
	.st2{fill:#8697CB;}
	.st3{fill:#88C057;}
	.st4{fill:#F0C419;}
	.st5{fill:none;stroke:#F29C1F;stroke-width:2;stroke-linecap:round;stroke-linejoin:round;stroke-miterlimit:10;}
</style>
<defs>
</defs>
<path class="st0" d="M34,35v-7.8c0-1.2-1-2.2-2.2-2.2H17.2C16,25,15,26,15,27.2v12.7c0,1.2-1,2.2-2.2,2.2H2.2C1,42,0,43,0,44.2v11.6
	C0,56.4,0.6,57,1.2,57H16h17l14.8,0c0.7,0,1.2-0.6,1.2-1.2V39.2c0-1.2-1-2.2-2.2-2.2l-10.7,0C35,37,34,36.2,34,35z"/>
<circle class="st1" cx="24.5" cy="33.5" r="4.5"/>
<circle class="st2" cx="40.5" cy="46.5" r="4.5"/>
<circle class="st3" cx="8.5" cy="49.5" r="4.5"/>
<path class="st4" d="M30.8,14.6c0.9-1.6,1.6-3.3,1.9-5.1c0.5-2.2,1.1-5.7,1.2-8.3C34,0.5,33.5,0,32.8,0H25h-7.8
	c-0.7,0-1.2,0.5-1.2,1.2c0.1,2.6,0.8,6.2,1.2,8.3c0.4,1.8,1,3.5,1.9,5.1c1.8,3,3.7,4,4.8,4.3l-0.2,0.4C22.4,22.1,21.3,24,19,24
	c-0.6,0-1,0.4-1,1s0.4,1,1,1h12c0.6,0,1-0.4,1-1s-0.4-1-1-1c-2.3,0-3.4-1.9-4.8-4.8L26,18.9C27.2,18.6,29.1,17.6,30.8,14.6z"/>
<path class="st5" d="M33.6,5.1c-0.2,1.6-0.6,3.2-0.8,4.4c-0.4,1.8-1,3.5-1.9,5.1c-0.2,0.3-0.4,0.6-0.6,0.9c0.7,0.3,1.4,0.5,2.2,0.5
	c3,0,5.5-2.5,5.5-5.5C38,7.8,36.1,5.6,33.6,5.1z"/>
<path class="st5" d="M19.1,14.6c-0.9-1.6-1.6-3.3-1.9-5.1c-0.3-1.2-0.6-2.8-0.8-4.4C13.9,5.6,12,7.8,12,10.5c0,3,2.5,5.5,5.5,5.5
	c0.8,0,1.5-0.2,2.2-0.5C19.5,15.2,19.3,14.9,19.1,14.6z"/>
</svg>
