<!-- Generator: Adobe Illustrator 19.2.0, SVG Export Plug-In  -->
<svg version="1.1"
	 xmlns="http://www.w3.org/2000/svg" xmlns:xlink="http://www.w3.org/1999/xlink" xmlns:a="http://ns.adobe.com/AdobeSVGViewerExtensions/3.0/"
	 x="0px" y="0px" width="55.1px" height="58px" viewBox="0 0 55.1 58" style="enable-background:new 0 0 55.1 58;"
	 xml:space="preserve">
<style type="text/css">
	.st0{fill:#F0C419;}
	.st1{fill:#F29C1F;}
	.st2{fill:#F3D55B;}
</style>
<defs>
</defs>
<path class="st0" d="M27.6,34L27.6,34c-8,0-14.5-6.5-14.5-14.5V1.1c0-0.6,0.5-1.1,1.1-1.1H41c0.6,0,1.1,0.5,1.1,1.1v18.4
	C42.1,27.5,35.6,34,27.6,34z"/>
<path class="st0" d="M40.1,58h-25v0c0-3.3,2.7-6,6-6h13C37.4,52,40.1,54.7,40.1,58L40.1,58z"/>
<path class="st1" d="M31.1,38.3v-4.7C30,33.8,28.8,34,27.6,34s-2.4-0.2-3.5-0.4v4.7c-1.2,1-2,2.5-2,4.2s0.8,3.2,2,4.2V52h7v-5.3
	c1.2-1,2-2.5,2-4.2S32.3,39.3,31.1,38.3z"/>
<polygon class="st2" points="27.7,4.6 31.3,11.8 39.3,13 33.5,18.7 34.9,26.6 27.7,22.9 20.5,26.6 21.9,18.7 16.1,13 24.1,11.8 "/>
<path class="st1" d="M13.1,19.5V2.2C11.5,1.4,9.9,1,8.3,1C4.6,1,2.4,3.3,2.4,3.4c-3.6,4-3.1,10.3,1.1,14.2l14.6,13.2v-0.3
	C15,27.8,13.1,23.9,13.1,19.5z M4.8,16.1C1.5,13,1,7.9,3.9,4.7c0,0,1.7-1.7,4.5-1.7c1.5,0,3.1,0.5,4.8,1.5v15c0,1.6,0.2,3.2,0.7,4.7
	L4.8,16.1z"/>
<path class="st1" d="M52.7,3.4c0,0-2.2-2.3-5.9-2.3c-1.5,0-3.1,0.4-4.7,1.1v2.3c1.6-0.9,3.2-1.4,4.7-1.4c2.8,0,4.4,1.7,4.4,1.7
	c2.8,3.2,2.4,8.3-1,11.4l-9,8.1c0,0,0-0.1,0-0.1c-0.9,2.5-2.4,4.7-4.3,6.3v0.3l14.6-13.2C55.8,13.8,56.3,7.4,52.7,3.4z"/>
</svg>
