<!-- Generator: Adobe Illustrator 19.2.0, SVG Export Plug-In  -->
<svg version="1.1"
	 xmlns="http://www.w3.org/2000/svg" xmlns:xlink="http://www.w3.org/1999/xlink" xmlns:a="http://ns.adobe.com/AdobeSVGViewerExtensions/3.0/"
	 x="0px" y="0px" width="561.9px" height="309px" viewBox="0 0 561.9 309" style="enable-background:new 0 0 561.9 309;"
	 xml:space="preserve">
<style type="text/css">
	.st0{fill:#FFFFFF;}
</style>
<defs>
</defs>
<g>
	<path class="st0" d="M0,65V0.5h26.6c11.7,0,17.5,5.2,17.5,15.5c0,8.9-6.3,15.3-19,19L46.9,65h-6.5L19,35.1v-3.2
		c13.2-2,19.9-7.1,19.9-15.6c0-7.8-4.3-11.6-13-11.6H4.7V65H0z"/>
	<path class="st0" d="M56.2,65h-5.1L80.3,0.5H86L115.3,65h-5.6l-9.6-21.7H73l1.9-4.1h23.5L82.8,4.2L56.2,65z"/>
	<path class="st0" d="M130.1,0.5V65h-4.7V0.5H130.1z"/>
	<path class="st0" d="M146.8,65V0.5h6.1L196,57V0.5h4.3V65h-3.8L151.1,5.8V65H146.8z"/>
	<path class="st0" d="M214.7,65V0.5h4.7l29.1,59l27.3-59h4.3V65h-4.3V9.2L250.3,65h-3.9L219,8.7V65H214.7z"/>
	<path class="st0" d="M294,65H289l29.2-64.6h5.6L353.2,65h-5.6L338,43.3h-27.1l1.9-4.1h23.5L320.7,4.2L294,65z"/>
	<path class="st0" d="M368.2,0.5V65h-4.7V0.5H368.2z M409.5,0.5L378.7,31l31.8,34h-7.1L374,32.6v-2.8l29-29.3H409.5z"/>
	<path class="st0" d="M427.7,0.5V65h-4.7V0.5H427.7z"/>
	<path class="st0" d="M444.4,65V0.5h6.1L493.6,57V0.5h4.3V65H494L448.6,5.8V65H444.4z"/>
	<path class="st0" d="M561.9,62.5c-5.5,2-11.3,3-17.3,3c-23.1,0-34.6-11.2-34.6-33.6C510,10.6,521.3,0,543.9,0
		c6.2,0,12.2,0.9,18.1,2.7v4.1c-5.9-1.8-11.6-2.7-17.2-2.7c-20,0-30,9.3-30,27.8c0,19.7,9.7,29.6,29.2,29.6c4,0,8.4-0.7,13.3-2V35.7
		h4.7V62.5z"/>
</g>
<g>
	<path class="st0" d="M26.6,102.5V287h88.5v21.6H2.2V102.5H26.6z"/>
</g>
<g>
	<path class="st0" d="M129.1,205.1c0-69.4,27.2-104,81.6-104c53.4,0,80.1,34.7,80.1,104c0,69-26.7,103.5-80.1,103.5
		C156.3,308.6,129.1,274.1,129.1,205.1z M210.7,287.1c36.3,0,54.4-27.6,54.4-82.9c0-54.5-18.1-81.7-54.4-81.7
		c-37.2,0-55.8,27.2-55.8,81.7C154.8,259.5,173.4,287.1,210.7,287.1z"/>
</g>
<g>
	<path class="st0" d="M428.4,102.5v21.7H340v69.3h83.7v21.7H340V309h-25.1V102.5H428.4z"/>
</g>
<g>
	<path class="st0" d="M561.7,103.3v204.9h-29.6V124.8h-88.7v-21.5"/>
</g>
</svg>
