<!-- Generator: Adobe Illustrator 19.2.0, SVG Export Plug-In  -->
<svg version="1.1"
	 xmlns="http://www.w3.org/2000/svg" xmlns:xlink="http://www.w3.org/1999/xlink" xmlns:a="http://ns.adobe.com/AdobeSVGViewerExtensions/3.0/"
	 x="0px" y="0px" width="322.1px" height="81px" viewBox="0 0 322.1 81" style="enable-background:new 0 0 322.1 81;"
	 xml:space="preserve">
<style type="text/css">
	.st0{fill:#FFFFFF;}
</style>
<defs>
</defs>
<g id="SPhpOp.tif_1_">
	<g>
		<path class="st0" d="M11.6,13.9c-1.5,2.6-1.3,5.8-5.2,5.6c-1.3-0.1-0.8,1.7-0.8,2.6c0,15.7,0,31.4,0,47.1c0,6.3,0,6.3,6.2,6.3
			c14.6,0,29.1-0.1,43.7,0.1c2.9,0,3.6-0.8,3.5-3.6c-0.2-6.3,0.3-12.5-0.2-18.8c-0.4-5,2-8,5.1-11.1c0.9,0.5,0.5,1.4,0.5,2
			c0,11.3,0,22.6,0.1,33.9c0,2.4-0.8,2.9-3,2.9c-19.5-0.1-39-0.1-58.6,0C0.5,81,0,80.2,0,78c0.1-20.4,0.1-40.7,0-61.1
			c0-2.3,0.5-3.2,2.9-3C5.6,14.1,8.3,13.9,11.6,13.9z"/>
		<path class="st0" d="M280.2,48c0-2.9,0.1-5.8,0-8.7c0-1.6,0.4-2.5,2.2-2.2c1.6,0.3,3.4-0.7,4.7,0.8c0.3,0.3,0.7-0.1,1-0.2
			c2.3-1.4,4.4-1.4,6.4,0.5c0.9,0.9,1.4,0.1,2.1-0.3c3.7-2.4,7.3-0.9,7.6,3.5c0.3,5.4,0.1,10.8,0.2,16.2c0,1.2-0.6,1.6-1.7,1.6
			c-0.8,0-1.7-0.1-2.5,0c-2,0.2-2.5-0.6-2.5-2.5c0.1-4.2,0.1-8.4,0-12.6c0-1.1,0.4-3-1-3c-1.7,0-1,1.9-1.1,2.9
			c-0.1,3.8,0,7.7,0,11.5c0,4,0.7,3.6-3.7,3.8c-2.6,0.1-3.1-0.8-3-3.2c0.2-3.8,0.1-7.7,0.1-11.5c0-0.7,0-1.3,0-2
			c-0.1-0.7,0.1-1.7-1-1.7c-1,0-1,0.9-1.1,1.7c0,3.1,0,6.2,0,9.2c0,1.4-0.2,2.8,0,4.2c0.4,2.7-0.8,3.2-3.3,3.2
			c-2.8,0.1-3.6-0.8-3.3-3.4C280.4,53.2,280.2,50.6,280.2,48z"/>
		<path class="st0" d="M313.7,58.3c-0.7,1.3,0.4,3.3-0.9,3.8c-1.6,0.6-3.5,0.2-5.3,0.2c-1.1,0-1-1-1-1.7c0-7.3,0-14.6,0-21.9
			c0-0.9,0.2-1.8,1.4-1.6c1.9,0.2,3.9-0.8,5.6,0.7c0.7,0.6,1.1-0.2,1.7-0.4c3.8-1.7,6.8,0.1,6.9,4.3c0.1,3.8,0.1,7.7,0,11.5
			C322,59.4,319.5,60.9,313.7,58.3z M315.2,48.6C315.2,48.6,315.2,48.6,315.2,48.6c0-2,0-4.3,0-6.3c0-0.6-0.2-1.3-0.9-1.3
			c-0.5,0-0.8,0.4-0.8,0.9c0,4.2,0,8.4,0,12.5c0,0.5,0.3,1.1,1,1c0.6-0.1,0.7-0.4,0.7-0.9C315.2,52.5,315.2,50.6,315.2,48.6z"/>
		<path class="st0" d="M189.7,37.9c1.2-0.5,2.1-0.9,2.9-1.1c3.4-0.8,5.8,0.9,5.9,4.4c0.1,4.4,0.1,8.8,0,13.2
			c-0.2,4.6-3.3,6.4-7.5,4.2c-0.7-0.4-1-0.4-1.8,0.1c-1.6,1-3.6,0.5-5.5,0.3c-0.9-0.1-0.8-0.9-0.8-1.6c0-7.8,0-15.7,0-23.5
			c0-1.4,0.6-1.8,1.9-1.8c0.7,0,1.5,0.1,2.2,0c2-0.3,3,0.5,2.7,2.6C189.6,35.7,189.7,36.6,189.7,37.9z M191.7,48c0-1.9,0-3.9,0-5.8
			c0-0.6-0.2-1.2-0.8-1.3c-0.9-0.1-1.1,0.7-1.1,1.3c0,4,0,8,0,12c0,0.6,0.2,1.4,1.1,1.3c0.6-0.1,0.8-0.8,0.8-1.3
			C191.7,52,191.7,50,191.7,48z"/>
		<path class="st0" d="M165.1,49.4c0-3.3,0.1-6.5,0-9.8c-0.1-2.1,0.7-2.9,2.8-2.6c1.5,0.2,3.1-0.6,4.5,0.8c0.5,0.5,1.1-0.4,1.7-0.6
			c3.5-1.5,6.5,0.2,6.7,4c0.1,4.5,0.1,9,0,13.4c-0.1,4.3-2.9,5.9-6.9,4.1c-1.4-0.6-1.8-0.3-1.8,1.1c0,4.2-3.1,1.9-4.9,2.3
			c-2.2,0.5-1.9-1.4-1.9-2.7C165.1,56.1,165.1,52.8,165.1,49.4z M173.9,48.6C173.9,48.6,173.9,48.6,173.9,48.6c0-2,0-4.1,0-6.1
			c0-0.6,0-1.5-0.8-1.6c-0.9-0.1-1.1,0.6-1.1,1.3c0,4,0,8,0,12c0,0.5,0.2,1.2,0.9,1.2c0.9,0.1,1-0.5,1-1.2
			C173.9,52.3,173.9,50.6,173.9,48.6z"/>
		<path class="st0" d="M162.7,48.3c0,2.9-0.1,5.8,0,8.7c0,1.5-0.4,2.1-2,2.2c-2.9,0.1-5.8-0.6-8.8,0.3c-2.4,0.7-4.5-1.1-4.5-3.7
			c-0.2-5.7-0.2-11.4-0.2-17.1c0-1.2,0.5-1.7,1.7-1.7c0.3,0,0.6,0,0.8,0c4.3-0.1,4.3-0.1,4.3,4.1c0,4.1,0,8.2,0.1,12.3
			c0,0.7-0.2,2,1,2c1.1,0,0.9-1.2,0.9-2c0-4.6,0.1-9.1,0-13.7c0-1.8,0.3-2.7,2.4-2.6c5.3,0.1,4.2-0.3,4.3,4.3
			C162.7,43.7,162.7,46,162.7,48.3z"/>
		<path class="st0" d="M200.4,48.3c0.1-2,0.1-4.1,0.3-6.1c0.5-3.5,3.1-5.5,7.2-5.5c4.2,0,7.3,2,7.7,5.4c0.4,4.1,0.5,8.2-0.1,12.3
			c-0.5,3.6-3.7,5.5-8.3,5.2c-4.2-0.2-6.3-2-6.6-5.7c-0.2-1.8,0-3.7,0-5.6C200.6,48.3,200.5,48.3,200.4,48.3z M207.4,47.6
			C207.4,47.6,207.4,47.6,207.4,47.6c0,3,0,4.3,0,6.4c0,0.5,0.1,1.4,0.8,1.3c0.6,0,0.9-0.6,0.9-1.2c0-4,0-8,0-12
			c0-0.6-0.3-1.2-0.9-1.2c-0.7,0-0.8,0.5-0.8,1C207.4,43.9,207.4,46.6,207.4,47.6z"/>
		<path class="st0" d="M277.9,49.6c0,3-0.1,4.8,0,7.1c0.1,1.6-0.3,2.4-2.1,2.4c-2.8,0-5.5-0.5-8.3,0.3c-2.4,0.7-4.2-1.1-4.7-3.6
			c-1-5.1,0-7,4.9-9c2.1-0.9,4-1.7,3.3-4.5c-0.2-0.6-0.2-1.4-1-1.5c-0.9-0.1-0.9,0.7-1,1.4c0,0.1,0,0.2,0,0.3c-0.2,1,0.5,2.6-0.7,3
			c-1.5,0.6-3.3,0.3-5,0.1c-0.6-0.1-0.7-0.6-0.7-1.1c0.1-2.6,0.2-5.1,2.8-6.6c3.1-1.7,6.3-1.7,9.4-0.3c1.8,0.8,2.8,2.3,2.9,4.3
			c0,2.6,0,5.7,0,7.7C277.8,49.6,277.8,49.6,277.9,49.6z M271,49.1c-2.5,1.7-1.9,3.6-1.9,5.3c0,0.6,0.3,1.1,1,1.1
			c0.8,0,0.9-0.6,0.9-1.2C271,52.8,271,51.2,271,49.1z"/>
		<path class="st0" d="M233.3,47.6c0,2,0.1,3.7,0,5.5c-0.3,4.1-3.1,6.4-7.7,6.4c-5,0-7.3-1.8-7.5-6.3c-0.2-3.3-0.2-6.7,0-10
			c0.3-4.5,3-6.7,7.7-6.5c4.7,0.1,7.4,2.3,7.5,6.6C233.4,44.8,233.4,46.6,233.3,47.6C233.3,47.6,233.3,47.6,233.3,47.6z M224.8,47.8
			c0,2.1,0,4.3,0,6.4c0,0.5,0.1,1.2,0.8,1.2c0.7,0,0.9-0.6,0.9-1.2c0-4.1,0-8.2,0-12.2c0-0.6-0.3-1.1-1-1c-0.6,0.1-0.7,0.6-0.7,1.1
			C224.8,43.9,224.8,45.9,224.8,47.8z"/>
		<path class="st0" d="M121.8,50.6c0,2-0.1,4.2,0,6.3c0.2,2.1-0.7,2.4-2.6,2.4c-2.5,0-5-0.8-7.7,0.2c-2.5,0.9-4.6-1.2-5-3.9
			c-0.7-5.5-0.1-6.5,5-8.7c2-0.9,4-1.7,3.4-4.5c-0.2-0.7-0.2-1.4-1-1.5c-1-0.1-1.1,0.8-1.1,1.6c-0.1,1.6,0.5,3.7-2.3,3.3
			c-1.3-0.2-3.2,0.8-3.8-0.7c-0.7-1.7-0.3-3.7,0.7-5.4c1.6-2.5,5.8-3.5,9.7-2.5c2.9,0.7,4.3,2.6,4.5,6.3c0,0.3,0,0.7,0,1
			C121.8,46.3,121.8,48.6,121.8,50.6C121.8,50.6,121.8,50.6,121.8,50.6z M115.1,52.1c-0.5-0.7,0.6-2.5-0.7-2.4
			c-1.5,0-1.5,1.9-1.5,3.1c0,1-0.4,2.8,1.2,2.6C115.7,55.1,114.8,53.3,115.1,52.1z"/>
		<path class="st0" d="M252.7,47.6c0,2,0,3.6,0,5.3c0,0.9-0.1,2.3,1.1,2.4c1.3,0.1,1-1.2,1.2-2.1c0-0.1,0-0.2,0-0.2
			c0.2-1-0.5-2.4,0.6-2.7c1.5-0.4,3.1-0.2,4.7-0.1c0.5,0,0.6,0.6,0.7,1.1c0.7,3.8-1.7,7.5-5.4,8.3c-4.7,1-8.6-1.1-9.3-5.2
			c-0.7-4.1-0.6-8.2-0.1-12.3c0.5-3.7,4.2-5.8,8.6-5.3c4.1,0.5,6.5,3.3,6.3,7.2c-0.1,1.2-0.5,1.7-1.7,1.6c-0.8,0-1.7-0.1-2.5,0
			c-1.6,0.1-2.2-0.5-2.1-2.1c0-0.9,0.4-2.5-1-2.4c-1.3,0.1-0.8,1.4-0.9,2.3C252.6,44.8,252.7,46.6,252.7,47.6
			C252.7,47.6,252.7,47.6,252.7,47.6z"/>
		<path class="st0" d="M87.6,59.6c-5,0-7.6-2.1-7.6-6.2c0-1.4,0.5-2.2,1.9-1.9c1.4,0.3,3.6-1.3,4.1,1.5c0.2,0.9-0.2,2.2,1.1,2.6
			c0.6,0.2,1.1-0.3,1.2-0.9c0.2-1.2,0.3-2.5-1-3.2c-1.4-0.8-2.8-1.6-4.1-2.4c-3-1.9-4-4.6-3.1-8.2c0.6-2.6,2.7-3.9,6.3-4.1
			c4.6-0.2,7.6,1.7,7.8,5c0.1,1.1,0.4,2.6-1.4,2.3c-1.6-0.2-3.9,1.4-4.5-1.5c-0.2-0.8-0.1-2-1.3-1.6c-1.1,0.3-1,1.5-0.7,2.4
			c0.5,1.6,2,2.1,3.3,2.8c2.6,1.3,5.1,2.7,5.1,6.3C94.7,57.2,92.6,59.6,87.6,59.6z"/>
		<path class="st0" d="M139.8,34.4c2.8-0.4,4.3-0.4,4.5,2.4c0.1,0.9,2.4,2.1,1.4,3.2c-3.4,4-0.9,8.6-1.6,12.9
			c-0.2,1-0.2,2.2,1.3,2.7c1.2,0.4,0.7,1.8,0.6,2.7c-0.1,1-1.2,0.7-1.8,0.7c-1.1,0-2.2-0.1-3.3-0.2c-2.3-0.2-3.5-1.5-3.5-3.8
			c0-3.1,0-6.1-0.1-9.2c-0.1-1.9,0.3-3.6-1.1-5.5c-1.4-1.9,1.3-3.6,1.5-5.7C137.6,33.7,139.5,34.5,139.8,34.4z"/>
		<path class="st0" d="M99.8,34.3c2.2-0.1,4.2-0.5,3.9,2.4c-0.1,0.5,0.3,0.8,0.8,1c1.6,0.5,1.2,2.5,0.8,2.7
			c-2.9,1.9-1.4,4.7-1.7,7.1c-0.2,1.8-0.1,3.7,0,5.6c0,1.1-0.2,2.2,1.4,2.7c1.3,0.4,0.7,1.8,0.6,2.7c-0.1,1.1-1.1,0.8-1.8,0.8
			c-0.8,0-1.7,0-2.5-0.1c-3.5-0.3-4.4-1.1-4.5-4.7c-0.1-2.9,0-5.8-0.1-8.7c-0.1-1.8,0.2-3.4-1.1-5.2c-1.4-1.9,1.3-3.6,1.5-5.8
			C97.2,33.7,99.1,34.5,99.8,34.3z"/>
		<path class="st0" d="M124.1,47.9c0-2.9,0-5.8,0-8.7c0-1.5,0.4-2,2-2.3c2.6-0.4,5.2,1.4,7.8,0c0.1-0.1,0.5,0.1,0.7,0.3
			c1.1,1.2-0.1,6.9-1.6,7.4c-1.7,0.5-2,1.8-2,3.3c-0.1,2.8-0.2,5.6,0,8.4c0.2,2.4-0.8,3.2-3,2.9c-0.4-0.1-0.7,0-1.1,0
			c-2,0.3-2.9-0.4-2.7-2.6C124.2,53.7,124.1,50.8,124.1,47.9z"/>
		<path class="st0" d="M236.1,49.6c0-2,0-4.1,0-6.1c0-0.9,0.3-2-1-2.4c-0.2-0.1-0.4-0.4-0.5-0.7c-0.1-0.8-0.4-2.2,0.2-2.4
			c2.1-0.5,0.3-4.9,4-3.9c1.9,0.5,3.6-0.5,4.5,2.8c0.5,2,2,3.1-0.3,4.7c-0.3,0.2-0.1,1.1-0.1,1.6c0,3.2,0,6.3,0,9.5
			c0,1.2-0.2,2.4,1.5,2.9c1.1,0.3,0.6,1.6,0.5,2.5c-0.1,1.1-1,0.9-1.7,0.9c-1.3,0-2.6,0-3.9-0.2c-1.9-0.2-3-1.1-3-3.1
			C236.1,53.6,236.2,51.6,236.1,49.6C236.1,49.6,236.1,49.6,236.1,49.6z"/>
		<path class="st0" d="M25.7,7.3c3.2-0.1,7.4,4,7.7,7c0.1,1.2-0.7,1.6-1.5,1.5c-1.2,0-2.3,1.9-3.6,0c-2.2-3.1-3.5-3.2-6.4-0.6
			c-1.2,1.1-1.9,0.5-2.4-0.3c-0.6-0.9-2.8-1.2-1.4-3C20,9.4,22.6,7.7,25.7,7.3z"/>
		<path class="st0" d="M65.2,0c5.2,0.1,8.7,3.7,9,8.7c0.1,2.3-1.5,1.9-2.8,2.1c-1.1,0.2-2.3,0.7-2.6-1.3c-0.5-3.3-2.1-4.3-5.3-3.4
			c-2.7,0.7-2.8-1.7-3.6-2.9c-1.1-1.6,0.8-1.7,1.6-2.2C62.7,0.1,64.1-0.1,65.2,0z"/>
		<path class="st0" d="M12.6,61.2c-1.1-0.6-2.6,0.4-2.7-1.5c0-1,0.3-1.5,1.1-1.6c1.1-0.1,2.6-0.9,3.2,0c1.1,1.7-1.9,1.4-1.8,3
			c1.4-0.1,2.9-0.4,4.1,0.8c0.7,0.6,1.9,0.6,2.6-0.1c1.3-1.3,2.4-0.8,3.7,0c2.6,1.7,2.7,2.3,0.1,4c-3.2,2.2-7.8,1.7-10.5-1.1
			C11.3,63.8,10.2,62.5,12.6,61.2z"/>
		<path class="st0" d="M43.1,57.3c-4-0.1-7.5-3.3-7.7-6.9c-0.1-1-0.7-2.5,1-2.7c1.4-0.1,3.2-1.1,4.1,1c0.6,1.4,1.5,2.5,3,2.6
			c2.6,0.2,3.6,2.5,3.5,4C46.9,57.2,44.3,56.9,43.1,57.3z"/>
		<path class="st0" d="M41.4,13.9c0.1,0,0.2,0,0.3,0c1.2,0.4,3.1-0.9,3.5,0.9c0.5,2.4-1.6,4.6-4.1,4.4c-1.3-0.1-3.3,1.1-3.5-1.7
			C37.3,13.9,37.1,13.9,41.4,13.9z"/>
		<path class="st0" d="M16.3,37.6c0.4-2.1,1.7-2.8,3.4-3.1c0.7,1.4-0.4,2.1-1.3,2.6c-1.9,1-3.8,1.9-5.7,2.8c-1.3,0.6-2,0.4-2.2-1.2
			c-0.2-1.5,0.1-2.5,1.6-2.5C13.5,36.1,15.7,34,16.3,37.6z"/>
		<path class="st0" d="M23.2,38.4c1.8-1.3,4.5-0.5,5.1,1.5c0.3,0.9-0.2,1.7-0.7,2.3c-0.8,0.9-1.4,0-1.8-0.5
			c-0.9-0.9-2.9-1.2-2.2-3.3c0.2-0.4-0.4-0.5-0.8-0.4c-1.7,0.2-1.4-1-1.4-2c0-0.5,0.4-1,0.9-0.8c1,0.5,1.7,1.2,0.9,2.4
			C23,37.7,23.1,38,23.2,38.4z"/>
		<path class="st0" d="M48.8,19.3c1.3,1.1,3.6,0.7,4.1,2.8c0.2,0.7,0,2.3-1.3,1.9c-1.4-0.5-3.9,0.4-4-2.2
			C47.5,20.9,47.4,19.7,48.8,19.3z"/>
		<path class="st0" d="M42.6,35.1c1.3,1.1,3.1,1.7,3.5,3.4c0.2,0.9-1,2.2-1.9,2c-1.6-0.4-3.3-1.3-3.7-3
			C40.3,36.6,41.4,35.6,42.6,35.1z"/>
		<path class="st0" d="M57.6,3.3c1,1.6,2,3,2.7,4.6c0.5,1.1-0.9,2-1.5,1.9c-1.6-0.5-2.8-2-3.4-3.4C55,5.4,56.6,4.5,57.6,3.3z"/>
		<path class="st0" d="M53.4,8.4c1.5,1.2,3.2,1.9,3.7,3.5c0.2,0.8-0.9,2.1-1.9,1.9c-1.4-0.3-2.9-1.2-3.3-2.6
			C51.5,10.2,52.8,9.4,53.4,8.4z"/>
		<path class="st0" d="M54.5,16.6c-0.7,0.8-0.6,2.5-1.8,2.3c-1.4-0.3-3.3-0.7-3.7-2.4c-0.2-0.8,0.5-2.6,1.7-2.4
			C52.2,14.3,53.6,15.2,54.5,16.6z"/>
		<path class="st0" d="M29.5,37.6c-1.1-1-3.1-1.1-3.4-3c-0.1-0.7,0.3-2.1,1.6-1.6c1.3,0.5,3.5,0.1,3.7,2.1
			C31.5,36,30.9,37.4,29.5,37.6z"/>
		<path class="st0" d="M12.5,30.3c0.8,0.4,3.1-0.6,2.9,1.6c-0.2,2.4-2.6,1.5-4.1,1.8c-1.6,0.4-1-1.1-1.1-1.9
			C10.2,30.4,10.9,29.9,12.5,30.3z"/>
		<path class="st0" d="M61.8,37.3c-1.2-1.4-2.3-2.6-2.4-4.4c0-0.7,0.8-1.9,1.6-1.5c1.4,0.6,2.9,1.7,3.1,3.2
			C64.3,35.6,63,36.6,61.8,37.3z"/>
		<path class="st0" d="M71.3,17c-1.5,0.2-2.7-0.5-2.9-2.3c-0.1-0.9,0.5-1.9,1.4-1.6c1.3,0.5,3.5-0.5,3.7,1.9
			C73.6,16.3,73,17.2,71.3,17z"/>
		<path class="st0" d="M62.3,27c1.8-0.2,3.1,0.9,4.6,1.7c1.1,0.5,1.3,1.2,0.6,2.2c-0.7,1.1-1.4,1.3-2.4,0.4
			C63.6,30.2,62,29.2,62.3,27L62.3,27z"/>
		<path class="st0" d="M12.1,49.4c1.4,0,2.7-0.2,2.6,1.9c-0.1,1.9-1.4,1.6-2.5,1.7C11,53,9.8,53,9.9,51.2
			C9.9,49.4,10.8,49.3,12.1,49.4z"/>
		<path class="st0" d="M33.7,29.9c-0.9,0.7,0,2.9-2,2.4c-1.3-0.4-3.6,0.1-3.6-2.2c0-2.1,1.8-1.4,2.9-1.3
			C32,28.9,33.4,28.2,33.7,29.9z"/>
		<path class="st0" d="M51.9,42.4c1.1,0,4.3,2.5,4,2.9c-0.5,0.9-1,2.4-1.9,2.2c-1.4-0.4-2.9-1.5-3.3-3.1
			C50.6,43.7,51,42.5,51.9,42.4z"/>
		<path class="st0" d="M26.5,51.4c-0.1,0.8,0.3,2.1-1.3,1.7c-1.3-0.4-3.5,0.7-3.5-1.9c0-2.1,1.8-1.3,2.9-1.5
			C25.9,49.3,26.7,49.9,26.5,51.4z"/>
		<path class="st0" d="M31.2,21.1c-0.7-0.1-2.2,0.5-2-1.4c0.2-2.1,2.2-1.6,3.4-2c1.2-0.4,1.1,0.8,1.2,1.6
			C34.1,21.1,32.9,21.2,31.2,21.1z"/>
		<path class="st0" d="M32.2,26.5c-0.9-0.4-2.9,0.6-2.8-1.7c0.1-2.1,1.9-1.4,3.1-1.7c1.6-0.3,1.8,0.6,1.8,1.9
			C34.4,26.5,33.7,26.8,32.2,26.5z"/>
		<path class="st0" d="M70.6,25c-0.6,0.8-0.7,2.3-1.8,1.9c-1.4-0.4-3.1-0.7-3.7-2.4c-0.2-0.6,0.2-1.7,1.1-1.5
			C67.9,23.3,69.4,23.8,70.6,25z"/>
		<path class="st0" d="M72.4,20.3c-0.6,1-0.4,2.6-1.9,2.2c-1.2-0.4-3-0.4-3.1-2.2c0-0.8,0.3-2,1.6-1.7
			C70.2,18.9,71.8,18.8,72.4,20.3z"/>
		<path class="st0" d="M19.7,18c-0.4,0.9-0.7,2.3-1.3,2.1c-1.5-0.4-3-1.2-3.5-2.7c-0.2-0.6,0.6-2.1,1.5-1.9
			C17.8,15.8,18.9,16.9,19.7,18z"/>
		<path class="st0" d="M12.5,25.1c0.9,1.1,3.4,0.5,3.2,2.9c0,0.7-0.3,1.5-1.1,1.1c-1.2-0.7-3.8,0.2-3.4-2.6
			C11.3,25.9,11.2,24.9,12.5,25.1z"/>
		<path class="st0" d="M50.6,51.7c0.8-1.5-0.8-1.8-1.3-2.6c-0.6-0.8-1.3-1.4-0.3-2.4c1-1,1.5,0.1,2,0.5
			C54.1,49.5,54.1,50.1,50.6,51.7L50.6,51.7z"/>
		<path class="st0" d="M14,20.2c1.2,0.9,3,0.9,3.3,2.7c0.1,0.6-0.2,2-1.3,1.7c-1.3-0.4-3-0.5-3.4-2C12.5,21.8,13.1,20.8,14,20.2z"/>
		<path class="st0" d="M40.5,43.6c-0.6-0.4-1.2-0.9-1.8-1.2c-0.9-0.4-1.4-0.9-0.6-1.8c0.6-0.7,1-1.7,2.2-0.7
			c0.5,0.4,1.1,0.7,1.6,1.1c0.5,0.5,1.7,0.7,1.2,1.8C42.4,44,41.5,44.2,40.5,43.6L40.5,43.6z"/>
		<path class="st0" d="M22.2,24.6c0.2,2.3-1.2,2.9-2.8,3.3c-0.6,0.2-1.3,0.8-1.7-0.1c-0.3-0.7-0.1-1.5,0.7-1.9
			C19.7,25.3,20.8,24.5,22.2,24.6z"/>
		<path class="st0" d="M27.2,29.2c-0.3,0.6-0.5,1.2-0.9,1.5c-0.6,0.5-1-0.2-1.3-0.6c-0.5-0.6-1.1-1.3-1.6-1.9
			c-0.7-0.9-0.2-1.7,0.4-2.2c0.9-0.8,1.2,0.3,1.6,0.8C26.1,27.5,26.6,28.4,27.2,29.2z"/>
		<path class="st0" d="M61.8,20c-0.1-0.9,0.2-1.6,0.7-2.1c0.1-0.1,0.7,0.2,0.9,0.4c0.6,1.1,2.2,1.7,1.6,3.3c-0.3,0.7-0.8,2-1.5,1.6
			C62.3,22.6,62.2,21,61.8,20z"/>
		<path class="st0" d="M12.1,54.3c1,0.1,2.2-0.2,2.1,0.9c-0.2,2.1-2.2,1.1-3.3,1.6c-0.8,0.3-1.2,0.1-1.2-0.9
			C9.7,54,11.3,54.6,12.1,54.3z"/>
		<path class="st0" d="M20.8,28.8c0.3,1.7,0,2.9-1.5,3.4c-0.6,0.2-1.3,1.6-2,0.2c-0.4-0.8-0.4-1.8,0.7-2.3
			C18.9,29.7,19.7,29.3,20.8,28.8z"/>
		<path class="st0" d="M50.6,51.6c0.3,1.2-0.3,2-1.3,2.6c-0.7,0.4-1.1,0.1-1.3-0.5c-0.4-1.2-1.6-2.2-1.2-3.5
			c0.2-0.7,0.8-0.4,1.4-0.1C49,50.7,49.4,51.8,50.6,51.6C50.6,51.7,50.6,51.6,50.6,51.6z"/>
		<path class="st0" d="M40.5,43.5c-1.4,1,0.8,1.3,0.4,2.2c-1.2,0.6-2.4,0.1-3.7,0.1c-0.6,0-1.2-0.2-1.3-0.8c-0.1-0.8,0.2-1.5,0.7-2
			c0.5-0.6,1,0,1.4,0.2c0.6,0.3,1.3,0.7,2,1C40.4,44.4,40.6,44,40.5,43.5C40.5,43.6,40.5,43.5,40.5,43.5z"/>
		<path class="st0" d="M23.5,54.9c1,0.3,2.6-0.6,2.7,1.4c0.1,1-0.6,1.2-1.3,0.9c-1.2-0.5-3.2,0.1-3.4-1.6
			C21.4,54.4,22.8,55.1,23.5,54.9z"/>
		<path class="st0" d="M62.4,27c-0.7-0.6-1.2,1.7-2.1,0.1c-0.9-1.7-1-2.7,0.5-4.8C62.1,23.6,62.3,25.3,62.4,27
			C62.3,27,62.4,27,62.4,27z"/>
		<path class="st0" d="M49.6,27.5c-0.9-0.3-2.4,0.6-2.4-1.4c0-1.2,0.9-1.1,1.6-0.9c1.1,0.3,3-0.5,3.3,1.2
			C52.2,27.8,50.7,27.5,49.6,27.5z"/>
		<path class="st0" d="M24.4,20.1c2.4,1.6,3.4,3.7,2.8,5.8C25.1,24.5,24.4,22.5,24.4,20.1L24.4,20.1z"/>
		<path class="st0" d="M24.4,20.1c-1.2,1.5-2.4,3.2-4.7,2.8C20.2,20,21.5,19.2,24.4,20.1L24.4,20.1z"/>
		<path class="st0" d="M22.9,58.4c0.8,0.8,3.2-0.4,3,2.1c0,0.5-0.2,1.4-0.9,0.9c-1.3-0.8-3.1-1-3.6-2.6
			C21.2,58.2,22.3,58.5,22.9,58.4z"/>
		<path class="st0" d="M59.8,17.9c-0.2,1.7-1.7,1.3-2.7,1.7c-0.5,0.2-1.1,0.1-1-0.7c0.1-1.8,1.7-1.8,2.8-2.2
			C60,16.3,59.6,17.4,59.8,17.9z"/>
		<path class="st0" d="M66.9,16.5c-0.3,0.5-0.5,1.1-0.9,1.4c-0.7,0.5-0.9-0.3-1.2-0.7c-0.1-0.1-0.1-0.2-0.1-0.2
			c-0.4-1.1-1.6-1.9-0.8-3.3c0.2-0.4,0.6-1,1-0.5C65.6,14.2,66.1,15.3,66.9,16.5z"/>
		<path class="st0" d="M62.7,12.8c-0.7,1.7-2.3,1.7-3.6,2.2c-0.4,0.1-0.7-0.1-0.7-0.6c0-0.7,0-1.4,0.8-1.6
			C60.2,12.4,61.4,12.2,62.7,12.8z"/>
		<path class="st0" d="M54.6,23.8c0-2.1,1.2-2.5,2.7-2.3c0.4,0,1.1,0.1,0.9,0.6C57.6,23.8,56,23.4,54.6,23.8z"/>
		<path class="st0" d="M57.8,26.7c0.2,0.4,0.5,0.6,0.6,0.9c0.2,1,1.7,1.7,0.6,3c-0.5,0.5-0.8,0.1-1.1-0.3
			C57.2,29.2,56.2,28.1,57.8,26.7z"/>
		<path class="st0" d="M22.8,30.6c1.1,1,2.5,1.5,2.2,3.2c-0.1,0.4-0.6,0.9-1,0.5C23,33.3,21.9,32.4,22.8,30.6z"/>
		<path class="st0" d="M21.9,17.9c0.5-1.1,1.1-1.8,2-2.2C24.1,17.3,24.1,17.3,21.9,17.9z"/>
		<path class="st0" d="M67.3,12.4c-1.3-0.6-1.6-1.5-1.5-2.7c0-0.4,0.5-0.8,0.8-0.5C67.2,10.1,67.6,11.1,67.3,12.4z"/>
		<path class="st0" d="M315.2,48.6c0,2,0,3.9,0,6c0,0.5-0.1,0.9-0.7,1c-0.7,0.1-1-0.5-1-1.1c0-4.2,0-8.4,0-12.6c0-0.5,0.3-1,0.8-1
			c0.7,0,0.9,0.8,0.9,1.4C315.2,44.3,315.2,46.6,315.2,48.6C315.2,48.6,315.2,48.6,315.2,48.6z"/>
		<path class="st0" d="M191.7,48c0,2,0,4.1,0,6.1c0,0.6-0.2,1.2-0.8,1.3c-0.9,0.1-1.1-0.7-1.1-1.3c-0.1-4-0.1-8,0-12
			c0-0.6,0.2-1.4,1.1-1.3c0.6,0.1,0.8,0.7,0.8,1.3C191.7,44.1,191.7,46,191.7,48z"/>
		<path class="st0" d="M173.9,48.6c0,2,0,3.7,0,5.7c0,0.6,0,1.3-1,1.3c-0.7-0.1-0.9-0.8-0.9-1.3c0-4,0-8,0-12.1
			c0-0.7,0.2-1.4,1.1-1.4c0.9,0.1,0.8,1.1,0.8,1.7C173.9,44.5,173.9,46.6,173.9,48.6C173.9,48.6,173.9,48.6,173.9,48.6z"/>
		<path class="st0" d="M207.4,47.6c0-1,0-3.7,0-5.6c0-0.5,0.1-1.1,0.8-1.1c0.7,0,0.9,0.7,0.9,1.3c0,4,0,8.1,0,12.1
			c0,0.6-0.3,1.2-0.9,1.3c-0.7,0.1-0.8-0.9-0.8-1.4C207.4,51.9,207.4,50.6,207.4,47.6C207.4,47.6,207.4,47.6,207.4,47.6z"/>
		<path class="st0" d="M271,49.1c0,2.1,0,3.7,0,5.2c0,0.5-0.1,1.2-0.9,1.2c-0.7,0-1-0.5-1-1.1C269.1,52.6,268.5,50.7,271,49.1z"/>
		<path class="st0" d="M224.8,47.8c0-1.9,0-3.9,0-5.8c0-0.5,0.1-1,0.7-1.1c0.7-0.1,1,0.5,1,1c0,4.1,0,8.2,0,12.2
			c0,0.6-0.2,1.2-0.9,1.2c-0.7,0-0.8-0.7-0.8-1.2C224.8,52.1,224.8,49.9,224.8,47.8z"/>
		<path class="st0" d="M115.1,52.1c-0.4,1.2,0.5,3-1,3.3c-1.6,0.2-1.2-1.5-1.2-2.6c0-1.3,0-3.1,1.5-3.1
			C115.7,49.6,114.6,51.4,115.1,52.1z"/>
	</g>
</g>
</svg>
