<!-- Generator: Adobe Illustrator 19.2.1, SVG Export Plug-In  -->
<svg version="1.1" baseProfile="tiny"
	 xmlns="http://www.w3.org/2000/svg" xmlns:xlink="http://www.w3.org/1999/xlink" xmlns:a="http://ns.adobe.com/AdobeSVGViewerExtensions/3.0/"
	 x="0px" y="0px" width="328.1px" height="47.8px" viewBox="0 0 328.1 47.8" xml:space="preserve">
<defs>
</defs>
<g>
	<g>
		<path fill="#FFFFFF" d="M298.2,8.4c0,0-3.1,0.6-4.8,2.2c-1.3,1.2-2.6,3-2.6,3c-0.3,0.4-0.6,0.4-0.6-0.2V9.8c0-0.5-0.5-1-1-1H286
			c-0.6,0-1,0.4-1,1v26.3c0,0.5,0.5,1,1,1h3.1c0.6,0,1-0.4,1-1V25c0-0.5,0-1.9,0-3.2c0-1.3,0.3-3.1,1.8-5.2c1.5-2,4.9-2.5,4.9-2.5
			c0.6-0.1,1.4-0.2,1.8-0.2c0.4,0,0.8-0.4,0.8-1V9.2c0-0.5-0.1-1-0.2-1C299.2,8.2,298.7,8.3,298.2,8.4 M271.6,31.7
			c-1,2.1-2.8,3.4-5.5,3.4c-2.6,0-4.4-1.3-5.4-3.4c-1-2.1-1.5-4.9-1.5-8.3c0-3.7,0.5-6.7,1.5-9c0.9-2.2,2.7-3.6,5.3-3.6
			c2.7,0,4.6,1.4,5.6,3.7c1,2.3,1.6,5.3,1.6,8.9C273.2,26.8,272.7,29.5,271.6,31.7 M266.1,8.2c-4.3,0-7.5,1.4-9.5,4
			c-2,2.6-3,6.4-3,11.1c0,4.7,1,8.3,3,10.7c2,2.5,5.2,3.8,9.5,3.8c4.3,0,7.6-1.3,9.7-3.8c2.1-2.5,3.2-6.1,3.2-10.7
			c0-4.7-1.1-8.4-3.2-11C273.7,9.5,270.4,8.2,266.1,8.2 M248.8,8.8H246c-0.6,0-1.1,0.4-1.3,1l-4.5,18.7c-0.1,0.5-0.4,0.5-0.5,0
			l-5.7-18.7c-0.2-0.5-0.8-0.9-1.3-0.9h-2.2c-0.6,0-1.2,0.4-1.3,0.9l-5.5,18.8c-0.2,0.5-0.4,0.5-0.5,0l-4.7-18.8
			c-0.1-0.5-0.7-1-1.3-1l-3.4,0c-0.6,0-0.9,0.4-0.8,1l7.3,26.4c0.1,0.5,0.7,1,1.3,1l2.8,0c0.6,0,1.2-0.4,1.3-0.9l5.6-18.4
			c0.2-0.5,0.4-0.5,0.6,0l5.8,18.4c0.2,0.5,0.8,0.9,1.3,0.9l2.9,0c0.6,0,1.1-0.4,1.3-1l6.5-26.4C249.7,9.3,249.4,8.8,248.8,8.8
			 M206.3,10.8c-1.8-1.6-4.3-2.6-7.8-2.6c-3.7,0-6.7,1.2-8.9,3.6c-2.1,2.4-3.2,5.8-3.2,10.3c0,4.8,1.2,8.6,3.5,11.4
			c2.3,2.8,6.1,4.2,11.3,4.2c1.3,0,2.5-0.1,3.4-0.2c0.9-0.2,2.2-0.5,2.2-0.5c0.5-0.1,1-0.3,1.1-0.3c0.1,0,0.1-0.5,0.1-1v-1.3
			c0-0.5-0.1-1-0.2-0.9c-0.1,0-0.7,0.2-1.2,0.3c0,0-1.1,0.3-1.6,0.4c-0.5,0.1-1.8,0.2-2.7,0.2c-3.7,0-5.9-0.9-7.5-3.5
			c-1.7-2.7-2.5-6.2-2.5-9.8c0-2.7,0.5-5,1.4-7c0.9-1.9,2.4-2.8,4.6-2.8c2,0,3.5,0.9,4.1,2.1c0.6,1.3,0.6,3.2,0.6,3.2
			c0,0.5,0,1.3,0,1.4c0,0.1,0.5,0.2,1,0.2h3.9c0.6,0,0.8-0.1,0.8-0.2c0-0.1,0.1-0.6,0-1.1C208.7,16.7,208.3,12.6,206.3,10.8
			 M179,10.5c-1.2-1.6-3.1-2.4-5.5-2.4c-2.7,0-4.9,0.7-6.5,2.1c-1.3,1.1-3,3.5-3,3.5c-0.3,0.4-0.6,0.4-0.6-0.2V9.8c0-0.5-0.5-1-1-1
			h-3c-0.6,0-1,0.4-1,1v26.3c0,0.5,0.5,1,1,1h3c0.6,0,1-0.4,1-1V25.9c0-2.5-0.1-6.3,1.5-9c1.5-2.6,4.3-4.6,7-4.6
			c1.6,0,2.7,0.8,3.1,1.9c0.4,1.2,0.5,3.6,0.5,3.6c0,0.5,0.1,1.4,0.1,2v16.3c0,0.5,0.5,1,1,1h3.1c0.6,0,1-0.4,1-1V16.7
			c0-0.5-0.1-1.4-0.2-2C180.6,14.8,180.2,12.1,179,10.5 M119.1,22c-1.2-0.7-3.1-1.7-5.9-3.1c-2.8-1.5-4.3-3-4.3-4.4
			c0-1.1,0.5-2,1.4-2.5c0.8-0.5,2-0.7,3.7-0.7c1.4,0,2.7,0.2,4,0.7c1.2,0.5,2.6,1.4,2.6,1.4l0,0l0,0c0.2,0.1,0.4,0.1,0.6,0
			c0.2-0.1,0.3-0.3,0.3-0.5c0,0,0-3.6,0-3.6V9.2l-0.1,0c-0.4-0.1-1.2-0.3-2.8-0.6c-1.5-0.3-2.8-0.5-4-0.5c-6.8,0-10.2,2.6-10.2,7.6
			c0,2,0.6,3.6,1.8,4.5c1,0.8,2.9,2,5.5,3.5c2.6,1.5,4.5,2.5,5.5,3.2c1.1,0.7,1.7,1.8,1.7,3.1c0,1.5-0.5,2.6-1.7,3.3
			c-1,0.7-2.6,1.1-4.5,1.1c-1.1,0-2.4-0.3-3.8-0.8c-1.5-0.5-3.4-1.8-3.4-1.9l0,0c-0.2-0.1-0.4-0.1-0.6,0c-0.2,0.1-0.3,0.3-0.3,0.5
			c0,0,0,3.9,0,3.9v0.1l0.1,0c1,0.4,2.1,0.7,3.3,0.9c1.1,0.2,2.8,0.4,4.8,0.4c3.4,0,6-0.8,8-2.5c1.9-1.7,2.9-3.7,2.9-5.9
			c0-1.7-0.5-3.3-1.4-4.5C121.3,23.6,120.2,22.7,119.1,22 M327.9,36.3l-11.6-14.1c-0.3-0.4-0.3-1.1,0-1.5l10-11.1
			c0.4-0.4,0.2-0.7-0.4-0.8l-3.9,0c-0.6,0-1.3,0.3-1.7,0.7l-8.7,9.8c-0.4,0.4-0.7,0.3-0.7-0.2V2.6c0-0.5-0.5-1-1-1h-3.1
			c-0.6,0-1,0.4-1,1v33.5c0,0.5,0.5,1,1,1h3.2c0.6,0,1-0.4,1-1l0-11.7c0-0.5,0.3-0.6,0.6-0.2l9.6,12.1c0.3,0.4,1.1,0.8,1.6,0.8
			l4.5,0C328.1,37.1,328.2,36.8,327.9,36.3"/>
		<path fill="#0064A7" d="M62.9,27.3c1.2-0.5,0.6-0.4-0.1-0.2c0,0-13.4,3.2-27.4,3.7c-11,0.4-21.9-0.5-23.1-6.7
			C10.6,16.2,23.8,8.8,36.4,5c14.5-4.3,23.2-4.7,23.2-4.7c0.6,0,1.2-0.1,0-0.2c0,0-7.1-0.5-22,2.7C16,7.3-3.1,16.7,0.4,28.1
			c2.4,7.7,20.3,8.5,35.8,6C51.7,31.6,62.9,27.3,62.9,27.3 M94.6,18.4c-2.4-7.7-20.3-8.5-35.8-6c-15.5,2.5-26.7,6.9-26.7,6.9
			c-1.1,0.5-0.6,0.4,0.1,0.2c0,0,13.4-3.2,27.4-3.7c11-0.4,21.9,0.5,23.1,6.7c1.6,7.9-11.6,15.3-24.2,19.1
			c-14.5,4.3-23.2,4.7-23.2,4.7c-0.6,0-1.2,0.1,0,0.2c0,0,7.1,0.5,22-2.7C79,39.2,98.1,29.8,94.6,18.4"/>
	</g>
	<path fill="#FFFFFF" d="M152.1,8.8h-3.2c-0.6,0-1.2,0.4-1.4,0.9L141,27.5c0,0-0.2,0.5-0.4,0.5c-0.2,0-0.4-0.5-0.4-0.5l-7.3-17.7
		c-0.2-0.5-0.8-0.9-1.4-0.9l-3.8,0c-0.6,0-0.9,0.4-0.7,0.9l10.4,25.1c0,0,0.2,0.5,0.3,1c0,0.4-0.2,0.9-0.2,0.9l-3.8,10.2
		c-0.2,0.5,0.1,0.9,0.7,0.9h2.9c0.6,0,1.2-0.4,1.4-0.9l14-37.2C152.9,9.2,152.6,8.8,152.1,8.8z"/>
</g>
</svg>
